<svg xmlns="http://www.w3.org/2000/svg"  xmlns:xlink="http://www.w3.org/1999/xlink"  width="311" height="179" viewBox="0 0 311 179" fill="none"><g filter="url(#filter0_d_1429_31840)"><path fill-rule="evenodd" clip-rule="evenodd" d="M102.041 81.6075C101.794 81.5444 101.643 81.292 101.706 81.0458C101.769 80.7997 102.022 80.6482 102.268 80.7113C103.044 80.907 103.543 81.0458 104.079 81.6138C104.559 82.1314 105.019 82.9834 105.701 84.599C106.559 86.6313 111.261 95.934 114.474 102.289C116.14 105.59 117.408 108.102 117.547 108.418C117.692 108.758 117.888 109.011 118.286 109.219C118.753 109.459 119.472 109.642 120.64 109.825C121.53 109.964 124.742 110.494 128.775 111.157L133.13 111.876C133.805 111.99 134.474 112.097 135.149 112.211C141.675 113.284 148.283 114.369 150.031 114.609L150.202 114.634C153.673 115.12 160.009 115.997 163.449 114.634C165.317 113.896 167.917 112.103 169.968 110.204C171.464 108.822 172.657 107.408 173.004 106.373C172.038 106.442 171.041 106.48 170.126 106.505C168.428 106.543 167.008 106.518 166.497 106.493C166.251 106.48 166.055 106.278 166.055 106.032V105.817C166.055 103.558 166.055 102.403 164.989 102.157C163.985 101.942 162.37 104.763 161.821 105.723L161.669 105.975C161.574 106.127 161.41 106.209 161.24 106.202C152.852 105.956 144.736 102.504 137.775 99.544C133.761 97.8337 130.132 96.2938 127.115 95.6563C126.97 95.6248 126.85 95.5238 126.793 95.3976C125.051 92.1851 123.499 88.0576 122.224 83.7344C120.779 78.8243 119.693 73.6617 119.112 69.3069L118.993 68.3792C117.951 60.5091 116.607 50.348 107.355 50.348C98.1024 50.348 98.6578 61.4936 98.702 66.5553C98.702 66.997 98.7083 67.3883 98.702 67.7355C98.6515 73.9205 96.3605 78.0101 94.2273 81.8095C92.6558 84.618 91.1664 87.2687 90.8003 90.4622C90.5352 92.7658 90.8887 94.697 91.2863 96.8933C91.6839 99.0707 92.1257 101.507 92.0941 104.82V104.833V104.858C92.0752 106.638 91.9237 108.676 91.5513 111.056C90.8634 115.461 89.5696 118.964 88.3831 122.195C86.5781 127.086 85.0066 131.346 86.231 137.102C90.7877 133.801 96.7202 130.248 102.646 126.695C111.722 121.255 120.785 115.827 124.729 111.422C122.565 111.062 121 110.81 120.501 110.734C119.232 110.538 118.418 110.324 117.869 110.04C117.244 109.718 116.935 109.32 116.708 108.784C116.582 108.493 115.319 105.994 113.66 102.712C110.447 96.3505 105.745 87.0415 104.862 84.9588C104.224 83.4567 103.814 82.6741 103.416 82.245C103.063 81.8726 102.672 81.759 102.06 81.6075H102.041ZM190.587 104.46V142.826C193.099 145.925 194.506 149.535 194.557 154.243C194.557 154.363 194.557 154.483 194.557 154.603C195.687 154.168 196.873 153.884 198.072 153.757C200.635 153.48 203.266 153.915 205.551 155.058C206.927 155.746 208.176 156.699 209.205 157.904C209.723 157.626 210.247 157.412 210.764 157.26C212.418 156.762 214.059 156.825 215.485 157.349C216.918 157.872 218.129 158.863 218.912 160.201C219.177 160.656 219.392 161.142 219.549 161.659C219.625 161.905 219.486 162.164 219.24 162.24C218.994 162.316 218.735 162.177 218.659 161.931C218.521 161.476 218.338 161.053 218.11 160.668C217.441 159.52 216.394 158.674 215.163 158.22C213.92 157.765 212.487 157.708 211.029 158.15C210.613 158.276 210.196 158.44 209.78 158.649C210.221 159.261 210.606 159.93 210.935 160.656C211.471 161.855 211.843 163.199 212.001 164.701C212.026 164.954 211.843 165.181 211.591 165.212C211.338 165.238 211.111 165.055 211.08 164.802C210.928 163.401 210.587 162.145 210.089 161.034C209.729 160.226 209.281 159.494 208.77 158.838C208.738 158.806 208.707 158.775 208.688 158.731C207.709 157.506 206.491 156.56 205.141 155.878C203.02 154.818 200.571 154.42 198.173 154.673C196.93 154.805 195.706 155.114 194.551 155.6C194.361 166.203 190.606 169.315 187.318 172.047L187.299 172.06H238.616C238.552 166.891 237.423 161.691 234.785 158.018C232.645 155.032 229.49 153.057 225.084 152.95C224.945 153.537 224.687 154.079 224.302 154.54C224.138 154.736 223.847 154.761 223.652 154.597C223.456 154.433 223.431 154.142 223.595 153.947C224.579 152.773 224.466 150.892 223.582 149.169C223.153 148.324 222.535 147.522 221.771 146.847C221.007 146.178 220.098 145.641 219.082 145.338C216.697 144.625 213.693 145.162 210.493 148.147C211.364 148.765 212.355 149.106 213.484 149.226C213.737 149.251 213.926 149.478 213.894 149.731C213.869 149.983 213.642 150.173 213.39 150.141C210.202 149.807 207.981 147.957 206.441 143.634C204.951 139.463 204.093 132.93 203.588 123.098C203.146 114.565 201.607 108.714 199.499 104.776C197.006 100.112 193.73 98.1556 190.593 97.5749V104.442L190.587 104.46ZM189.136 142.593C189.47 142.965 189.849 143.42 190.152 143.817C192.354 146.695 193.585 150.015 193.629 154.256C193.635 154.912 193.629 155.569 193.61 156.225C193.288 165.894 189.798 168.791 186.725 171.334C186.441 171.568 186.163 171.801 185.86 172.06H74.9717C74.328 172.06 73.842 171.921 73.5138 171.688C73.2362 171.492 73.0594 171.233 72.9774 170.937C72.889 170.621 72.908 170.268 73.0153 169.895C73.1857 169.34 73.577 168.766 74.1702 168.299L74.2018 168.273C74.3911 168.103 74.4164 167.813 74.246 167.623C74.1134 167.472 74.0187 167.301 73.9556 167.125C73.8736 166.872 73.861 166.613 73.9304 166.361C73.9998 166.109 74.1513 165.869 74.3785 165.667C74.5615 165.509 74.795 165.37 75.0853 165.275C75.1485 165.257 75.2053 165.219 75.2557 165.174C75.5587 164.89 82.0845 160.126 87.8088 156.055C91.3872 153.511 94.6438 151.246 95.8619 150.532C95.9313 150.495 96.0071 150.45 96.0954 150.406C97.3198 149.794 98.6452 150.015 99.9958 150.93C100.715 151.416 101.441 152.104 102.167 152.956C102.173 152.969 102.186 152.981 102.192 152.988C102.198 153 102.211 153.006 102.224 153.019C102.924 153.858 103.618 154.862 104.294 156.017C104.672 156.667 105.057 157.374 105.436 158.137C105.518 158.314 105.707 158.428 105.916 158.403C111.608 157.696 120.924 154.736 130.283 151.769C141.044 148.355 151.855 144.922 157.1 144.922C160.407 144.922 163.177 145.414 165.746 146.468C168.321 147.528 170.713 149.163 173.256 151.435C173.446 151.605 173.736 151.586 173.907 151.397C174.077 151.208 174.058 150.917 173.869 150.747C171.25 148.406 168.776 146.714 166.093 145.616C163.916 144.72 161.606 144.209 158.987 144.051C162.06 140.87 164.118 138.099 165.67 135.486C166.97 133.303 167.911 131.233 168.788 129.118C169.905 129.75 171.022 130.374 172.114 130.987C179.46 135.095 185.38 138.409 189.142 142.587L189.136 142.593ZM189.659 141.76C185.803 137.594 179.871 134.275 172.562 130.185C171.464 129.573 170.334 128.942 169.142 128.266C169.268 127.951 169.4 127.635 169.527 127.313C169.545 127.269 169.564 127.212 169.564 127.162C169.583 126.91 169.394 126.682 169.142 126.663C164.553 126.272 163.569 124.738 162.83 123.539L162.811 123.508C162.452 122.921 162.13 122.403 161.518 122.062C160.407 121.438 159.321 121.463 158.463 121.482C157.983 121.494 157.592 121.501 157.459 121.394C157.106 121.116 153.61 119.443 149.596 117.594C147.197 116.49 144.61 115.322 142.395 114.35C145.954 114.931 148.826 115.392 149.886 115.537L150.056 115.562C153.61 116.054 160.104 116.963 163.771 115.511C165.733 114.735 168.454 112.867 170.574 110.904C172.341 109.27 173.717 107.547 173.97 106.253C175.409 105.849 176.759 105.319 178.009 104.568C179.271 103.81 180.432 102.832 181.467 101.551C182.698 101.904 184.017 102.302 185.38 102.807C186.769 103.324 188.208 103.949 189.653 104.751V141.779L189.659 141.76ZM97.0737 165.137C96.4867 164.676 95.9061 164.089 96.0071 163.452C96.1207 162.732 97.0042 161.855 99.4088 160.801C99.6423 160.7 99.7496 160.428 99.6486 160.189C99.5477 159.955 99.2763 159.848 99.0365 159.949C96.2784 161.161 95.2497 162.297 95.0919 163.306C94.9215 164.392 95.7041 165.238 96.4993 165.862C96.7013 166.02 96.9916 165.989 97.1494 165.787C97.3072 165.585 97.2756 165.294 97.0737 165.137ZM153.231 80.9638C154.866 80.7681 156.544 79.5942 157.889 78.0732C159.378 76.3881 160.476 74.2486 160.64 72.5446H160.647C162.906 72.3616 166.289 72.0839 169.722 72.33V105.597C168.567 105.615 167.57 105.609 166.958 105.597C166.958 103.003 166.907 101.665 165.172 101.267H165.134C163.474 100.939 161.619 104.17 160.987 105.275C158.375 105.18 155.774 104.763 153.231 104.151V80.9701V80.9638ZM152.303 103.905C147.279 102.592 142.47 100.541 138.122 98.692C134.152 97.0006 130.561 95.4733 127.5 94.7917C125.828 91.6613 124.326 87.6663 123.095 83.4693C122.533 81.557 122.022 79.6069 121.58 77.6883L122.943 77.4295C129.507 76.1799 140.268 74.1287 144.799 73.4219C145.418 75.3468 146.56 77.2591 147.98 78.6728C149.255 79.9414 150.751 80.8123 152.303 80.9638V103.905ZM170.656 72.4058C174.721 72.8097 178.722 74.0277 180.868 77.0634C181.404 79.752 181.594 83.6524 181.594 87.5275C181.594 93.5862 181.146 99.5503 180.874 100.794C179.877 102.062 178.76 103.015 177.535 103.754C176.292 104.498 174.935 105.022 173.477 105.413C172.524 105.496 171.559 105.546 170.65 105.571V72.4058H170.656ZM125.474 76.0032L122.767 76.5207L121.372 76.7858C120.785 74.1287 120.318 71.5348 120.009 69.187L119.971 68.9156C121.075 68.0952 121.845 67.2116 122.35 66.1324C122.88 64.9901 123.107 63.6521 123.114 61.9481C123.12 60.5785 122.868 58.906 122.609 57.385C123.234 58.2623 123.997 59.1459 124.786 60.061C126.926 62.5413 129.267 65.2551 129.267 68.354C129.267 69.9065 128.996 71.3581 128.377 72.6582C127.771 73.9268 126.831 75.0628 125.474 76.0032ZM121.138 54.0212C121.189 54.6397 121.347 55.5295 121.523 56.552C121.826 58.2749 122.199 60.3639 122.192 61.9417C122.186 63.5132 121.984 64.7313 121.511 65.7411C121.138 66.5363 120.589 67.2116 119.826 67.8491C119.144 62.6991 118.286 56.7097 115.256 52.9924C115.269 52.7905 115.288 52.6011 115.313 52.4118C115.502 50.9918 116.045 50.0009 116.651 49.3698C117.213 48.7828 117.793 48.5241 118.147 48.5367H118.185C118.437 48.5746 118.892 48.7765 119.453 49.029C120.324 49.4203 121.429 49.9125 122.64 50.165C122.338 50.4174 122.085 50.7078 121.883 51.017C121.334 51.8375 121.119 52.8094 121.119 53.6803V53.7119V53.7435V53.775C121.119 53.8571 121.126 53.9454 121.132 54.0275L121.138 54.0212ZM122.053 53.8697C122.161 55.599 123.758 57.4482 125.487 59.4551C127.734 62.0617 130.195 64.9143 130.195 68.354C130.195 70.0327 129.898 71.6232 129.217 73.0558C128.769 73.9962 128.163 74.8671 127.361 75.6497C133.609 74.4632 141.113 73.0621 144.686 72.5067C144.787 71.7115 145.172 70.9668 145.758 70.4177C146.358 69.856 147.166 69.4963 148.087 69.4963H148.182L148.251 69.3953C148.813 68.619 149.671 68.1457 150.587 67.969C151.489 67.7986 152.455 67.9185 153.231 68.335L153.345 68.3981C154.083 68.0447 154.878 67.9816 155.623 68.152C156.431 68.335 157.169 68.7768 157.693 69.3953C158.185 69.4142 158.848 69.6478 159.41 70.039C159.959 70.424 160.438 70.9605 160.602 71.6169C165.866 71.1877 177.005 70.2915 181.505 76.3629C182.717 76.1041 187.4 75.0502 189.924 73.8195C190.152 73.7059 190.429 73.8005 190.543 74.0341C190.6 74.1413 190.593 74.236 190.593 74.3559V96.6661C194.027 97.2531 197.618 99.3231 200.313 104.372C202.477 108.418 204.062 114.394 204.51 123.079C205.008 132.817 205.854 139.267 207.312 143.35C207.993 145.25 208.801 146.626 209.773 147.566C213.289 144.24 216.652 143.66 219.341 144.467C220.49 144.814 221.518 145.414 222.377 146.165C223.229 146.916 223.923 147.812 224.403 148.759C224.958 149.838 225.242 150.981 225.211 152.035C229.893 152.173 233.251 154.294 235.542 157.487C238.376 161.445 239.55 167.043 239.55 172.533C239.55 172.792 239.341 173 239.083 173H74.9717C74.126 173 73.4697 172.798 72.9837 172.458C72.523 172.136 72.22 171.694 72.0875 171.195C71.955 170.709 71.9739 170.173 72.138 169.643C72.3273 169.024 72.7123 168.4 73.2866 167.863C73.2046 167.724 73.1415 167.579 73.091 167.434C72.9458 167.011 72.9332 166.563 73.0531 166.134C73.1667 165.711 73.4129 165.313 73.7852 164.985C74.0377 164.764 74.3532 164.575 74.7193 164.442C75.5713 163.761 81.8068 159.21 87.2849 155.316C88.6671 154.332 90.0051 153.391 91.2042 152.558C88.7996 147.939 85.0381 145.528 82.2865 143.76C81.6616 143.363 81.0873 142.991 80.5824 142.631L80.5319 142.587C80.3489 142.41 80.3363 142.12 80.513 141.93C81.7689 140.592 83.4477 139.185 85.4168 137.714C83.9716 131.491 85.6188 127.029 87.5122 121.892C88.6924 118.699 89.9735 115.234 90.6425 110.936C90.977 108.796 91.1285 106.941 91.1664 105.3C88.4588 105.117 85.2401 103.407 82.8545 100.371C80.8538 97.8274 79.4338 94.3436 79.3896 90.0646C75.3504 86.7954 75.3883 83.1664 75.483 74.419C75.4956 73.0558 75.5145 71.5537 75.5145 69.6351C75.5145 64.2643 80.1406 60.8057 85.3158 56.9369C87.0514 55.6368 88.8564 54.2925 90.5542 52.8094C87.9602 51.768 86.9063 50.6636 86.9063 38.7227C86.9063 32.462 92.599 29.6914 98.2223 26.9523C101.637 25.2924 105.026 23.6389 106.951 21.2596C108.876 18.8802 110.605 16.8606 112.782 15.4154C114.979 13.9575 117.604 13.1055 121.277 13.1055C127.159 13.1055 131.773 14.658 134.752 16.7407C136.235 17.7821 137.32 18.956 137.958 20.1425C138.62 21.3732 138.81 22.6291 138.482 23.7651C138.229 24.6298 137.686 25.4187 136.828 26.075C136.879 27.1984 136.658 28.5364 136.311 29.8428C135.787 31.8246 134.985 33.7558 134.48 34.7404C134.247 35.7754 134.127 37.3595 134.001 39.114C133.938 40.0039 133.862 40.938 133.767 41.9288C133.767 41.9793 133.755 42.0172 133.748 42.0551V42.0803C133.672 42.4022 133.489 42.6736 133.243 42.8566C132.991 43.0396 132.669 43.1406 132.341 43.1027L132.221 43.0838C131.899 43.0207 131.527 42.945 131.18 42.8692C130.971 42.825 130.763 42.7745 130.561 42.7304C130.498 42.9386 130.454 43.1406 130.428 43.3426C130.391 43.6139 130.372 43.8853 130.365 44.163C130.365 44.3082 130.296 44.4344 130.189 44.5164C129.93 44.7184 129.589 44.8825 129.236 44.9835H129.217C129.072 45.034 128.92 45.0655 128.769 45.0845C128.819 45.3937 128.813 45.703 128.756 45.9996C128.68 46.4098 128.497 46.8011 128.201 47.1419C128.182 47.7162 128.049 48.461 127.525 49.0984C126.964 49.78 125.979 50.3165 124.231 50.3354C123.53 50.5942 123.032 51.0296 122.691 51.5408C122.255 52.1972 122.079 52.9861 122.079 53.693V53.7182V53.7435V53.7687V53.7939V53.8255V53.8507V53.8823L122.053 53.8697ZM125.234 31.1177C125.859 30.8463 127.02 30.9158 128.232 31.1366C129.785 31.4207 131.369 31.9634 132.038 32.4115C132.252 32.5504 132.536 32.4936 132.682 32.279C132.82 32.0644 132.764 31.7804 132.549 31.6352C131.792 31.1303 130.062 30.5308 128.396 30.2215C127.027 29.9691 125.676 29.9123 124.868 30.2657C124.635 30.3667 124.528 30.6381 124.628 30.8779C124.729 31.1177 125.001 31.225 125.241 31.1177H125.234ZM125.14 34.4185C125.14 34.4185 125.335 34.3301 125.638 34.2355C125.783 34.652 126.042 35.138 126.333 35.5419C126.736 36.0973 127.241 36.5264 127.715 36.5264C128.049 36.5264 128.567 36.274 129.065 35.8638C129.457 35.5419 129.854 35.1127 130.163 34.6204C130.29 34.4437 130.283 34.2039 130.132 34.0398C128.952 32.746 127.096 32.9164 125.91 33.2067C125.872 33.2067 125.84 33.2193 125.809 33.232C125.19 33.3898 124.774 33.5791 124.774 33.5791C124.54 33.6801 124.433 33.9515 124.534 34.1913C124.635 34.4248 124.906 34.5321 125.146 34.4311L125.14 34.4185ZM129.185 34.4059C128.428 33.8189 127.374 33.8378 126.534 33.9956C126.648 34.2986 126.85 34.6646 127.084 34.9865C127.33 35.3273 127.576 35.5861 127.715 35.5861C127.854 35.5861 128.138 35.4157 128.478 35.138C128.724 34.936 128.971 34.6899 129.185 34.4059ZM112.89 41.3103C112.631 41.992 112.353 42.6673 112.05 43.3299C110.737 46.2015 109.052 48.5746 106.787 49.4392C97.6038 49.8684 97.6985 61.3169 97.7427 66.5679C97.7427 67.0033 97.749 67.3946 97.7427 67.7355C97.6985 73.6743 95.4643 77.6567 93.3879 81.3614C91.7659 84.2519 90.2386 86.9847 89.8473 90.3675C89.5696 92.7973 89.9294 94.7917 90.3459 97.0637C90.7119 99.0896 91.1222 101.349 91.1411 104.359C88.686 104.183 85.7513 102.592 83.5487 99.7839C81.6364 97.3414 80.2795 93.9838 80.2795 89.8247C80.2795 78.8117 84.6532 74.8671 88.7555 71.1688C91.2168 68.9535 93.5772 66.8203 94.9342 63.3555C95.0288 63.1156 94.9089 62.8506 94.6691 62.7559C94.4293 62.6612 94.1642 62.7811 94.0695 63.021C92.7946 66.2776 90.51 68.335 88.137 70.4808C84.0094 74.1982 79.6231 78.1616 79.3644 88.8276C76.2466 85.9307 76.2845 82.3712 76.3665 74.4064C76.3855 72.8791 76.3981 71.2003 76.3981 69.6162C76.3981 64.7061 80.8475 61.38 85.8271 57.6627C90.592 54.1032 95.824 50.1965 98.298 44.1378C98.3927 43.8979 98.2791 43.6329 98.0393 43.5319C97.7995 43.4372 97.5344 43.5508 97.4334 43.7907C96.0765 47.1104 93.8297 49.78 91.2863 52.1089C88.7996 51.1432 87.7962 50.6636 87.7962 38.7101C87.7962 33.0237 93.2301 30.3856 98.5884 27.7728C102.097 26.0687 105.575 24.3773 107.632 21.8276C109.507 19.5114 111.186 17.5486 113.256 16.1727C115.307 14.8158 117.768 14.0206 121.239 14.0206C126.919 14.0206 131.344 15.5037 134.184 17.4855C135.547 18.4385 136.531 19.4987 137.106 20.5653C137.655 21.5814 137.819 22.5976 137.56 23.4937C137.377 24.1375 136.973 24.7307 136.336 25.2483C133.149 22.7238 128.081 22.7364 126.238 22.7427H126.042C125.096 22.7427 124.376 23.6452 123.474 24.7875C122.199 26.4032 120.495 28.5617 117.459 28.751C114.789 28.9214 112.738 29.1549 111.173 29.7292C109.532 30.3351 108.421 31.307 107.74 32.948C107.639 33.1815 107.752 33.4529 107.992 33.5538C108.226 33.6548 108.497 33.5412 108.598 33.3014C109.172 31.9319 110.106 31.1114 111.495 30.6002C112.744 30.1395 114.366 29.9123 116.411 29.7545C116.02 30.8337 115.622 32.279 115.181 33.9073C114.556 36.1793 113.836 38.8237 112.896 41.2977L112.89 41.3103ZM113.394 42.5473C114.531 39.783 115.364 36.741 116.07 34.1597C116.569 32.3358 117.005 30.7517 117.427 29.6914H117.522C120.974 29.4642 122.817 27.1227 124.206 25.3682C124.95 24.4278 125.544 23.6768 126.049 23.6705H126.244C128.024 23.6705 132.966 23.6515 135.881 26.0687C135.938 27.0911 135.724 28.3471 135.395 29.5967C134.884 31.5406 134.089 33.4339 133.609 34.3617C133.59 34.3932 133.578 34.4311 133.571 34.469C133.313 35.5734 133.193 37.2207 133.054 39.032C132.985 39.9597 132.915 40.9317 132.827 41.8279V41.872C132.802 41.9604 132.745 42.0361 132.675 42.0866C132.6 42.1434 132.505 42.1687 132.41 42.1624H132.372C132.057 42.0929 131.697 42.0235 131.35 41.9478C131.06 41.8847 130.795 41.8279 130.593 41.7711C130.416 41.7269 130.227 41.7521 130.069 41.8342C129.911 41.9162 129.785 42.0551 129.722 42.2381C129.608 42.5726 129.532 42.8818 129.488 43.1974C129.457 43.4246 129.438 43.6518 129.425 43.8853C129.286 43.9674 129.122 44.0305 128.952 44.081H128.933C128.674 44.163 128.409 44.1946 128.194 44.182C127.677 44.1062 127.134 43.7528 127.134 43.7528C126.919 43.6076 126.635 43.6707 126.49 43.879C126.345 44.0936 126.408 44.3776 126.617 44.5228C126.617 44.5228 127.166 44.8762 127.79 45.0403C127.854 45.3053 127.866 45.5641 127.816 45.8102C127.759 46.1006 127.62 46.3783 127.38 46.6181C127.292 46.7064 127.248 46.8264 127.241 46.9463C127.241 47.3944 127.172 48.0129 126.774 48.4988C126.364 49.0037 125.581 49.395 124.117 49.395C122.521 49.395 120.962 48.6945 119.826 48.1833C119.195 47.8993 118.683 47.6721 118.298 47.6216C118.26 47.6216 118.216 47.6153 118.166 47.6089C117.604 47.59 116.733 47.9371 115.976 48.726C115.288 49.4455 114.663 50.5437 114.417 52.0836C112.959 50.6762 111.078 49.7295 108.623 49.4834C110.409 48.2211 111.791 46.1006 112.902 43.6707C113.041 43.9043 113.205 44.1188 113.388 44.3208C113.824 44.8068 114.366 45.1981 114.985 45.4758C115.218 45.583 115.49 45.4757 115.597 45.2422C115.704 45.0087 115.597 44.7373 115.364 44.63C114.865 44.4028 114.423 44.0873 114.076 43.7023C113.773 43.3678 113.54 42.9765 113.388 42.541L113.394 42.5473ZM89.3235 142.296C89.1152 142.448 88.8249 142.397 88.6797 142.189C88.5283 141.981 88.5787 141.69 88.787 141.545C89.5191 141.021 90.7246 140.106 92.113 139.052C95.0793 136.799 98.8724 133.921 100.551 132.911C100.772 132.779 101.056 132.855 101.189 133.069C101.321 133.29 101.245 133.574 101.031 133.707C99.3836 134.698 95.6221 137.557 92.6747 139.791C91.261 140.864 90.0366 141.791 89.3298 142.303L89.3235 142.296ZM134.43 113.031L138.614 113.719C141.107 114.754 145.399 116.673 149.211 118.421C153.174 120.245 156.595 121.867 156.885 122.1C157.276 122.416 157.813 122.403 158.482 122.391C159.227 122.378 160.167 122.359 161.063 122.858C161.461 123.085 161.72 123.501 162.016 123.981L162.035 124.013C162.843 125.325 163.903 126.992 168.435 127.515C167.406 130.04 166.384 132.457 164.863 135.019C163.247 137.74 161.07 140.63 157.731 144.007C157.516 144.007 157.302 144 157.087 144C151.704 144 140.823 147.453 129.993 150.886C120.854 153.789 111.754 156.673 106.118 157.437C105.783 156.781 105.436 156.149 105.083 155.55C104.464 154.496 103.827 153.562 103.183 152.748C105.67 150.589 109.608 146.418 113.754 141.823C118.109 137.001 122.666 131.75 126.036 127.863C126.2 127.667 126.181 127.377 125.992 127.212C125.796 127.048 125.506 127.067 125.342 127.263C121.959 131.17 117.383 136.439 113.073 141.211C108.958 145.767 105.051 149.908 102.59 152.047C101.902 151.271 101.208 150.64 100.507 150.166C98.8661 149.056 97.2251 148.803 95.6726 149.579C95.5842 149.624 95.4895 149.674 95.3823 149.737C94.7196 150.129 93.4889 150.949 91.9426 152.016C89.4245 147.251 85.5746 144.783 82.7598 142.972C82.318 142.688 81.9015 142.423 81.5291 142.17C82.7409 140.946 84.306 139.652 86.1237 138.308C86.1615 138.289 86.1931 138.263 86.2247 138.232C90.8066 134.855 96.9474 131.176 103.088 127.496C112.517 121.848 121.934 116.206 125.771 111.605L128.598 112.072L133.338 112.854L132.852 113.397C128.005 118.837 114.013 134.527 102.93 142.448C102.722 142.593 102.672 142.883 102.823 143.092C102.968 143.3 103.259 143.35 103.467 143.199C114.638 135.215 128.68 119.469 133.54 114.009L134.417 113.025L134.43 113.031ZM129.375 124.025C129.204 124.215 128.914 124.24 128.724 124.069C128.535 123.899 128.51 123.609 128.68 123.419C129.046 122.997 129.375 122.624 129.652 122.309C129.936 121.987 130.151 121.747 130.296 121.595C130.473 121.406 130.763 121.4 130.952 121.57C131.142 121.747 131.148 122.037 130.978 122.227C130.82 122.397 130.605 122.631 130.353 122.921L129.381 124.025H129.375ZM189.659 103.678C188.321 102.965 186.996 102.397 185.709 101.917C184.358 101.418 183.052 101.021 181.84 100.667C182.124 98.8498 182.528 93.2012 182.528 87.5275C182.528 83.766 182.351 79.9729 181.852 77.2275C183.165 76.9435 187.084 76.041 189.666 74.9429V103.678H189.659ZM145.588 72.8475C145.588 72.7844 145.588 72.7213 145.601 72.6645V72.6519C145.67 72.0586 145.954 71.5033 146.396 71.0867C146.831 70.6765 147.418 70.4177 148.094 70.4177C148.195 70.4177 148.289 70.4177 148.378 70.4303H148.384C148.567 70.4493 148.75 70.3609 148.838 70.1905C148.889 70.1022 148.939 70.0138 149.002 69.9318C149.419 69.3574 150.063 69.004 150.757 68.8715C151.458 68.7389 152.202 68.8273 152.789 69.1429C152.878 69.187 152.96 69.2438 153.042 69.3006C153.187 69.4079 153.389 69.4205 153.553 69.3259C154.14 68.9788 154.802 68.9093 155.415 69.0482C156.084 69.1997 156.696 69.591 157.087 70.1337C157.188 70.2726 157.352 70.3483 157.529 70.3167H157.611C157.939 70.3167 158.431 70.4871 158.867 70.7901C159.283 71.0804 159.637 71.4843 159.706 71.9387C159.713 71.9892 159.719 72.0397 159.719 72.1091C159.719 73.6554 158.665 75.7823 157.182 77.4547C155.869 78.9442 154.234 80.055 152.751 80.055C151.268 80.055 149.848 79.2471 148.617 78.0164C147.229 76.6343 146.125 74.7346 145.575 72.8412L145.588 72.8475Z" fill="white"></path><path fill-rule="evenodd" clip-rule="evenodd" d="M140.015 10.4036C139.8 10.5362 139.51 10.4731 139.377 10.2522C139.245 10.0376 139.308 9.74726 139.529 9.61473C140.078 9.27392 140.652 8.95205 141.233 8.65542C146.673 5.91003 153.3 5.33571 159.359 6.73681C164.755 7.98012 169.703 10.7823 172.991 15.0045C177.914 13.5214 184.97 13.2689 191.167 16.1721C195.806 18.3495 199.953 22.2877 202.357 28.7819C209.855 28.8703 214.292 31.8997 216.21 35.4529C216.879 36.6899 217.239 37.99 217.321 39.2523C217.403 40.5208 217.201 41.7578 216.741 42.856C215.724 45.2795 213.452 47.0277 210.177 47.0277H186.51C186.327 47.4505 186.081 47.8608 185.784 48.2521C184.395 50.0634 181.783 51.3951 178.008 51.3951H141.416C141.157 51.3951 140.949 51.1868 140.949 50.928C140.949 50.6693 141.157 50.461 141.416 50.461H178.008C181.461 50.461 183.815 49.2871 185.046 47.684C185.342 47.2991 185.576 46.8825 185.74 46.4597C185.746 46.4155 185.765 46.3776 185.784 46.3398C185.898 46.0179 185.973 45.6834 186.011 45.3489C186.087 44.6988 186.011 44.0299 185.797 43.3924C185.771 43.3482 185.752 43.3041 185.746 43.2536C185.702 43.14 185.658 43.0327 185.607 42.9191C184.837 41.2782 183.045 39.8644 180.192 39.2901C180.028 39.2586 179.896 39.1386 179.845 38.9872C179.233 37.239 177.939 35.718 176.26 34.5251C174.43 33.2313 172.139 32.3225 169.734 31.9438C167.336 31.5652 164.824 31.704 162.559 32.5055C160.451 33.244 158.551 34.5567 157.144 36.5447C157.043 36.6836 156.885 36.753 156.721 36.7404C154.682 36.5447 152.902 36.8666 151.564 37.5735C150.233 38.274 149.337 39.3532 149.072 40.6597C149.021 40.9121 148.775 41.0699 148.529 41.0194C148.283 40.9689 148.119 40.7228 148.169 40.4766C148.497 38.8862 149.557 37.5861 151.135 36.7593C152.568 36.0083 154.43 35.6422 156.544 35.8063C158.052 33.7741 160.047 32.4172 162.256 31.6472C164.673 30.8015 167.336 30.6437 169.88 31.0477C172.423 31.4516 174.847 32.4109 176.797 33.7867C178.558 35.03 179.921 36.6205 180.634 38.4507C183.657 39.126 185.588 40.7038 186.453 42.5404C186.478 42.5972 186.51 42.6603 186.535 42.7171H207.463C208.012 42.7171 208.624 42.6161 209.224 42.3952C209.76 42.1996 210.29 41.9093 210.745 41.5243C210.94 41.3602 211.231 41.3854 211.395 41.5811C211.559 41.7767 211.534 42.0671 211.338 42.2311C210.795 42.6919 210.171 43.0327 209.533 43.2662C208.826 43.5249 208.107 43.6449 207.457 43.6449H186.838C186.977 44.2507 187.015 44.8629 186.945 45.4688C186.92 45.6834 186.882 45.898 186.832 46.1126H210.189C213.042 46.1126 215.018 44.6042 215.895 42.5088C216.299 41.5432 216.475 40.4514 216.406 39.328C216.33 38.1983 216.002 37.0244 215.403 35.9073C213.598 32.5687 209.337 29.7223 202.042 29.7223C201.852 29.7223 201.669 29.6024 201.606 29.413C199.315 22.9945 195.295 19.1321 190.789 17.0241C184.957 14.285 178.318 14.4617 173.591 15.8124C173.793 16.0964 173.982 16.3867 174.165 16.6833C174.455 17.1566 174.733 17.6426 174.985 18.1538C175.099 18.381 175.011 18.6587 174.783 18.7786C174.556 18.8922 174.279 18.8039 174.159 18.5767C173.919 18.1033 173.654 17.6363 173.376 17.1819C173.092 16.7275 172.789 16.2857 172.474 15.8565C172.461 15.8439 172.455 15.8313 172.448 15.8187C169.299 11.6406 164.458 8.87631 159.169 7.65824C153.313 6.30764 146.913 6.85672 141.668 9.50112C141.113 9.77882 140.57 10.0881 140.034 10.4163L140.015 10.4036ZM146.749 11.8994C147.027 11.8047 147.285 11.7164 147.538 11.6406C147.784 11.5649 148.049 11.4955 148.339 11.4197C148.586 11.3566 148.737 11.1042 148.674 10.858C148.611 10.6119 148.358 10.4604 148.112 10.5235C147.853 10.5867 147.569 10.6687 147.273 10.7571C146.983 10.8454 146.705 10.9338 146.446 11.0284C146.206 11.1105 146.08 11.3756 146.162 11.6217C146.244 11.8615 146.509 11.9877 146.755 11.9057L146.749 11.8994ZM153.439 10.877C155.875 10.9653 158.601 11.5586 161.158 12.6378C163.467 13.616 165.638 14.9856 167.343 16.7401C167.519 16.9231 167.816 16.9294 167.999 16.7464C168.182 16.5697 168.188 16.2731 168.005 16.09C166.213 14.2409 163.934 12.8019 161.517 11.7795C158.854 10.6561 156.014 10.0376 153.47 9.94291C153.218 9.9366 153.003 10.1322 152.991 10.391C152.984 10.6435 153.18 10.858 153.439 10.8707V10.877ZM185.614 19.2393L186.466 19.3656C186.718 19.4034 186.952 19.2267 186.989 18.9743C187.027 18.7218 186.851 18.4883 186.598 18.4504L185.746 18.3242C185.494 18.2864 185.26 18.4631 185.222 18.7155C185.184 18.968 185.361 19.2015 185.614 19.2393ZM189.078 19.9778C190.846 20.9181 192.474 22.0163 193.799 23.348C195.112 24.6607 196.141 26.2006 196.728 28.0372C196.803 28.2833 197.068 28.4159 197.308 28.3338C197.548 28.2518 197.687 27.993 197.605 27.7532C196.967 25.7652 195.863 24.1053 194.449 22.6916C193.048 21.2905 191.35 20.1419 189.508 19.1573C189.28 19.0374 189.003 19.1257 188.883 19.3466C188.763 19.5738 188.851 19.8515 189.072 19.9714L189.078 19.9778ZM212.834 40.0601C212.916 39.8392 212.979 39.5931 213.036 39.3343C213.086 39.0882 213.118 38.8294 213.137 38.5706C213.156 38.3182 212.96 38.0973 212.708 38.0784C212.455 38.0594 212.234 38.2551 212.215 38.5075C212.203 38.7347 212.171 38.9493 212.133 39.1513C212.089 39.3532 212.039 39.5552 211.969 39.7508C211.887 39.9907 212.013 40.2557 212.253 40.3441C212.493 40.4261 212.758 40.2999 212.846 40.0601H212.834Z" fill="white"></path><path fill-rule="evenodd" clip-rule="evenodd" d="M206.953 94.1779C206.694 94.1779 206.486 93.9696 206.486 93.7108C206.486 93.4521 206.694 93.2438 206.953 93.2438H231.819C232.816 93.2438 233.504 92.6695 233.813 91.8427C233.977 91.4072 234.034 90.9086 233.99 90.3785C233.94 89.8357 233.782 89.2677 233.498 88.725C232.589 86.9704 230.437 85.4116 226.719 85.4116C226.461 85.4116 226.252 85.2033 226.252 84.9445C226.221 84.5091 226.145 84.0547 226.006 83.5876C225.394 81.4544 223.715 79.1445 221.09 77.4279C218.439 75.6986 214.829 74.5752 210.38 74.8466C208.682 74.9476 206.858 75.2568 204.921 75.8122C204.674 75.8816 204.416 75.7365 204.346 75.4903L204.334 75.4272C204.169 74.5815 203.892 73.78 203.513 73.0226C202.2 70.4098 199.682 68.3649 196.653 67.1279C193.598 65.8846 190.026 65.4681 186.618 66.1118C185.198 66.3832 183.803 66.8376 182.497 67.494C182.27 67.6076 181.992 67.5129 181.878 67.2857C181.765 67.0585 181.859 66.7808 182.086 66.6672C183.475 65.9667 184.952 65.487 186.454 65.1967C190.039 64.5151 193.794 64.9569 197.006 66.2633C200.238 67.576 202.926 69.7787 204.346 72.5998C204.693 73.2877 204.965 74.0198 205.148 74.7772C206.972 74.2849 208.707 74.0135 210.329 73.9125C215 73.6285 218.799 74.815 221.601 76.6453C224.429 78.4882 226.24 81 226.903 83.3289C227.016 83.7138 227.092 84.0988 227.142 84.4775C231.017 84.5974 233.315 86.333 234.325 88.2832C234.665 88.9459 234.861 89.6275 234.918 90.2838C234.975 90.9528 234.893 91.5903 234.684 92.152C234.242 93.3322 233.258 94.1589 231.825 94.1589H206.959L206.953 94.1779ZM190.095 69.4189C190.31 69.4315 190.499 69.4505 190.67 69.4631C190.828 69.4757 191.011 69.501 191.231 69.5262C191.484 69.5578 191.717 69.3747 191.749 69.1223C191.781 68.8698 191.598 68.6363 191.345 68.6048C191.187 68.5858 190.985 68.5606 190.758 68.5417C190.544 68.5227 190.342 68.5038 190.159 68.4912C189.906 68.4785 189.685 68.6679 189.666 68.9266C189.647 69.1791 189.843 69.4 190.102 69.4189H190.095ZM194.109 70.1573C195.435 70.5991 196.609 71.2302 197.625 72.0696C198.641 72.909 199.493 73.9567 200.168 75.2189C200.288 75.4461 200.566 75.5282 200.793 75.4083C201.02 75.2884 201.102 75.0107 200.982 74.7835C200.244 73.4013 199.316 72.2653 198.212 71.3502C197.114 70.4413 195.832 69.7534 194.393 69.2738C194.154 69.1917 193.888 69.3243 193.813 69.5704C193.731 69.8102 193.863 70.0753 194.109 70.1573ZM200.793 88.9648C201.342 87.6457 202.219 86.7243 203.311 86.2131C204.308 85.7461 205.489 85.6072 206.782 85.8092C206.656 86.1121 206.549 86.4277 206.467 86.7622C206.404 87.0083 206.555 87.2608 206.801 87.3239C207.047 87.387 207.3 87.2355 207.363 86.9894C207.477 86.535 207.641 86.1121 207.843 85.7208C207.862 85.6956 207.874 85.664 207.887 85.6388C207.931 85.5567 207.981 85.4684 208.032 85.3926C208.789 84.1367 209.988 83.2342 211.371 82.7356C212.765 82.237 214.343 82.155 215.852 82.54C216.558 82.723 217.246 83.0007 217.89 83.392C218.111 83.5245 218.395 83.4551 218.528 83.2342C218.66 83.0133 218.591 82.7293 218.37 82.5968C217.644 82.1613 216.874 81.8394 216.079 81.6375C214.394 81.2083 212.62 81.2966 211.061 81.8583C209.484 82.42 208.114 83.4614 207.237 84.9067L207.218 84.9382C205.634 84.6416 204.163 84.7868 202.92 85.3737C201.613 85.9859 200.578 87.0651 199.935 88.6051C199.834 88.8386 199.947 89.1099 200.187 89.2109C200.421 89.3119 200.692 89.1983 200.793 88.9585V88.9648Z" fill="white"></path><path fill-rule="evenodd" clip-rule="evenodd" d="M215.15 124.571C214.853 125.385 214.481 126.161 214.026 126.856C213.528 127.619 212.928 128.282 212.228 128.787C212.935 129.292 213.528 129.954 214.026 130.718C214.481 131.412 214.853 132.189 215.15 133.003C215.447 132.189 215.819 131.412 216.273 130.718C216.772 129.954 217.371 129.292 218.072 128.787C217.365 128.282 216.766 127.619 216.273 126.856C215.819 126.161 215.447 125.385 215.15 124.571ZM213.25 126.344C213.919 125.322 214.399 124.104 214.702 122.867C214.74 122.703 214.866 122.57 215.043 122.526C215.289 122.463 215.541 122.614 215.604 122.867C215.907 124.104 216.387 125.328 217.056 126.344C217.624 127.209 218.324 127.928 219.176 128.37C219.258 128.414 219.328 128.478 219.372 128.566C219.492 128.793 219.404 129.071 219.176 129.191C218.331 129.632 217.624 130.352 217.062 131.217C216.393 132.239 215.914 133.457 215.611 134.694C215.573 134.858 215.447 134.991 215.27 135.035C215.024 135.098 214.771 134.947 214.708 134.694C214.405 133.457 213.925 132.233 213.257 131.217C212.688 130.352 211.988 129.632 211.136 129.191C211.054 129.147 210.984 129.083 210.94 128.995C210.82 128.768 210.909 128.49 211.136 128.37C211.982 127.928 212.688 127.209 213.257 126.344H213.25Z" fill="white"></path><path fill-rule="evenodd" clip-rule="evenodd" d="M180.016 117.335C179.889 117.619 179.738 117.897 179.574 118.149C179.34 118.509 179.063 118.831 178.747 119.096C179.063 119.361 179.34 119.683 179.574 120.042C179.738 120.295 179.889 120.573 180.016 120.857C180.142 120.573 180.293 120.295 180.457 120.042C180.691 119.683 180.969 119.361 181.284 119.096C180.969 118.831 180.691 118.509 180.457 118.149C180.293 117.897 180.142 117.619 180.016 117.335ZM178.798 117.638C179.151 117.101 179.404 116.451 179.568 115.789C179.605 115.625 179.732 115.492 179.908 115.448C180.155 115.385 180.407 115.536 180.47 115.789C180.634 116.445 180.887 117.095 181.24 117.638C181.537 118.086 181.896 118.458 182.326 118.679C182.408 118.723 182.477 118.787 182.521 118.875C182.641 119.102 182.553 119.38 182.326 119.5C181.896 119.727 181.537 120.093 181.24 120.541C180.887 121.078 180.634 121.728 180.47 122.384C180.432 122.548 180.306 122.681 180.129 122.725C179.883 122.788 179.631 122.636 179.568 122.384C179.404 121.728 179.151 121.078 178.798 120.541C178.501 120.093 178.141 119.721 177.712 119.5C177.63 119.456 177.561 119.392 177.516 119.304C177.397 119.077 177.485 118.799 177.712 118.679C178.141 118.452 178.501 118.086 178.798 117.638Z" fill="white"></path><path fill-rule="evenodd" clip-rule="evenodd" d="M224.327 104.411C224.1 105.004 223.816 105.566 223.481 106.077C223.09 106.67 222.629 107.194 222.086 107.604C222.629 108.015 223.096 108.539 223.481 109.132C223.816 109.643 224.1 110.205 224.327 110.798C224.554 110.205 224.838 109.643 225.172 109.132C225.564 108.539 226.024 108.015 226.567 107.604C226.024 107.194 225.557 106.67 225.172 106.077C224.838 105.566 224.56 105.004 224.327 104.411ZM222.705 105.566C223.241 104.745 223.633 103.755 223.879 102.757C223.917 102.593 224.043 102.461 224.219 102.417C224.466 102.354 224.718 102.505 224.781 102.757C225.027 103.761 225.412 104.745 225.955 105.566C226.409 106.26 226.971 106.835 227.653 107.188C227.735 107.232 227.804 107.295 227.848 107.384C227.968 107.611 227.88 107.888 227.653 108.008C226.977 108.362 226.416 108.936 225.955 109.63C225.419 110.451 225.027 111.442 224.781 112.439C224.743 112.603 224.617 112.736 224.44 112.78C224.194 112.843 223.942 112.691 223.879 112.439C223.633 111.442 223.248 110.451 222.705 109.63C222.25 108.936 221.689 108.362 221.007 108.008C220.925 107.964 220.856 107.901 220.811 107.813C220.691 107.586 220.78 107.308 221.007 107.188C221.682 106.835 222.244 106.26 222.705 105.566Z" fill="white"></path></g><defs><filter id="filter0_d_1429_31840" x="66" y="0" width="179.549" height="179" filterUnits="userSpaceOnUse" color-interpolation-filters="sRGB"><feFlood flood-opacity="0" result="BackgroundImageFix"></feFlood><feColorMatrix in="SourceAlpha" type="matrix" values="0 0 0 0 0 0 0 0 0 0 0 0 0 0 0 0 0 0 127 0" result="hardAlpha"></feColorMatrix><feOffset></feOffset><feGaussianBlur stdDeviation="3"></feGaussianBlur><feComposite in2="hardAlpha" operator="out"></feComposite><feColorMatrix type="matrix" values="0 0 0 0 1 0 0 0 0 1 0 0 0 0 1 0 0 0 1 0"></feColorMatrix><feBlend mode="normal" in2="BackgroundImageFix" result="effect1_dropShadow_1429_31840"></feBlend><feBlend mode="normal" in="SourceGraphic" in2="effect1_dropShadow_1429_31840" result="shape"></feBlend></filter></defs></svg>