<svg xmlns="http://www.w3.org/2000/svg"  xmlns:xlink="http://www.w3.org/1999/xlink"  width="311" height="179" viewBox="0 0 311 179" fill="none"><g filter="url(#filter0_d_1429_31824)" fill="none"><path fill-rule="evenodd" clip-rule="evenodd" d="M169.303 113.088C170.818 111.858 172.647 110.64 174.856 109.643L174.881 109.631C177.865 108.293 181.55 107.359 186.111 107.359C192.269 107.359 197.228 109.757 200.78 113.309C204.887 117.416 207.108 123.076 207.108 128.356C207.108 133.637 204.994 139.372 200.875 143.492C197.373 146.994 192.427 149.347 186.111 149.347C179.796 149.347 174.906 146.968 171.411 143.473C167.253 139.315 165.121 133.574 165.121 128.356C165.121 123.599 165.915 119.605 167.203 115.915C168.483 112.236 170.256 108.874 172.212 105.366C177.222 96.4193 184.805 89.4602 193.827 84.9807C202.66 80.5895 212.868 78.5832 223.367 79.416C218.938 71.9649 212.793 67.5043 205.72 65.763C197.96 63.8513 189.07 65.2015 180.073 69.4539C179.871 69.5485 179.632 69.4854 179.499 69.3087C179.152 68.8292 178.755 68.2551 178.326 67.6431C173.568 60.785 165.165 48.6777 140.225 50.9238C145.852 56.1415 150.212 61.4034 153.196 67.7125C156.319 74.3056 157.934 82.028 157.934 92.0281C157.934 99.4098 156.666 105.189 155.341 111.221C153.903 117.763 152.401 124.615 152.401 134.135C152.401 145.12 156.458 154.117 162.811 160.508C169.707 167.448 179.316 171.322 189.348 171.322C200.906 171.322 214.351 166.836 224.01 157.12C231.739 149.353 237.058 138.23 237.058 123.372C237.058 111.448 233.796 102.59 229.342 96.1543C222.553 86.3498 213.001 82.1605 208.004 81.3088C207.922 81.2962 207.853 81.2646 207.796 81.2141C203.032 82.1542 198.464 83.7 194.225 85.8135C185.373 90.211 177.928 97.0439 173.013 105.82C171.644 108.262 170.37 110.634 169.303 113.088ZM175.322 161.17C175.089 161.063 174.988 160.792 175.089 160.558C175.196 160.325 175.468 160.224 175.701 160.325C179.972 162.249 185.909 162.874 191.941 162.319C197.935 161.763 204.004 160.047 208.597 157.278C208.818 157.145 209.102 157.214 209.234 157.435C209.367 157.656 209.297 157.94 209.077 158.072C204.357 160.912 198.149 162.678 192.023 163.24C185.84 163.808 179.733 163.164 175.316 161.17H175.322ZM214.275 153.744C214.111 153.94 213.821 153.965 213.625 153.801C213.43 153.637 213.405 153.347 213.569 153.151C213.903 152.754 214.206 152.344 214.483 151.921C214.748 151.517 214.995 151.088 215.215 150.647C215.329 150.419 215.607 150.325 215.834 150.438C216.061 150.552 216.155 150.83 216.042 151.057C215.815 151.517 215.55 151.972 215.253 152.426C214.957 152.874 214.629 153.315 214.275 153.738V153.744ZM181.386 103.075C181.14 103.132 180.887 102.981 180.83 102.728C180.774 102.476 180.925 102.23 181.177 102.173C188.351 100.495 195.02 101.612 200.364 104.64C206.01 107.845 210.174 113.176 211.897 119.618C211.96 119.864 211.815 120.117 211.569 120.186C211.323 120.249 211.07 120.104 211.001 119.858C209.342 113.662 205.335 108.527 199.903 105.448C194.755 102.527 188.319 101.454 181.379 103.075H181.386ZM211.954 126.634C211.96 126.382 212.174 126.18 212.433 126.186C212.685 126.192 212.887 126.407 212.881 126.665C212.868 126.975 212.856 127.265 212.837 127.542C212.812 127.833 212.786 128.129 212.748 128.419C212.717 128.672 212.49 128.855 212.231 128.823C211.979 128.792 211.796 128.564 211.827 128.306C211.859 128.022 211.89 127.744 211.909 127.473C211.935 127.176 211.947 126.899 211.954 126.634ZM170.685 97.2079C175.02 90.8609 180.206 85.7568 186.187 81.8072C192.464 77.6621 199.613 74.7977 207.575 73.1195C207.827 73.069 208.067 73.2267 208.124 73.4791C208.174 73.7315 208.017 73.9712 207.764 74.028C199.922 75.681 192.875 78.5012 186.698 82.5832C180.565 86.6337 175.285 91.9208 170.912 98.5328C171.057 99.6937 171.102 101.019 171.064 102.64C171.064 102.892 170.843 103.094 170.591 103.094C170.338 103.094 170.136 102.874 170.136 102.621C170.199 99.9965 170.048 98.1984 169.581 96.6148C169.108 94.9997 168.269 93.5927 167.348 92.1984C166.124 92.7852 164.988 93.6748 164.01 94.6274C162.761 95.8388 161.6 97.3215 160.729 98.823C160.603 99.0439 160.319 99.1196 160.098 98.9934C159.878 98.8672 159.802 98.5833 159.928 98.3625C160.395 97.5612 160.95 96.741 161.581 95.9461C161.966 88.5328 161.638 81.5864 160.471 75.1826C159.303 68.7472 157.285 62.8671 154.288 57.6178C154.161 57.397 154.237 57.1131 154.464 56.9869C154.685 56.8607 154.969 56.9365 155.095 57.1636C158.143 62.5075 160.193 68.4886 161.385 75.0249C162.502 81.1574 162.856 87.7757 162.565 94.8041C162.824 94.5202 163.095 94.2426 163.373 93.9776C163.613 93.7442 163.859 93.517 164.111 93.2962C165.764 88.4508 166.723 83.1889 167.02 77.9649C167.329 72.5075 166.919 67.1005 165.84 62.2425C165.783 61.9964 165.941 61.744 166.193 61.6936C166.439 61.6368 166.692 61.7945 166.742 62.0469C167.84 66.987 168.256 72.4886 167.941 78.0217C167.663 82.8608 166.837 87.7315 165.417 92.2804C165.991 91.8829 166.584 91.5423 167.177 91.2773L175.354 74.1542C175.461 73.9207 175.739 73.8261 175.972 73.9334C176.206 74.0406 176.3 74.3182 176.193 74.5517L168.054 91.5927C168.515 92.2804 168.912 92.9177 169.259 93.536C171.827 88.7662 175.373 84.2993 179.499 80.4255C183.991 76.2047 189.171 72.6715 194.528 70.1731C194.761 70.0658 195.039 70.1668 195.146 70.4002C195.253 70.6337 195.152 70.9113 194.919 71.0185C189.644 73.4728 184.546 76.9555 180.136 81.1069C175.916 85.0754 172.319 89.6558 169.777 94.5454C170.061 95.1511 170.294 95.7505 170.483 96.3814C170.565 96.659 170.641 96.9492 170.704 97.2458L170.685 97.2079ZM101.328 25.0373C101.328 25.8007 101.019 26.4947 100.515 26.9931C100.01 27.4979 99.3158 27.807 98.5587 27.807C97.8016 27.807 97.1013 27.4979 96.5966 26.9931C96.0919 26.4884 95.7827 25.7944 95.7827 25.031C95.7827 24.2676 96.0919 23.5736 96.5966 23.0688C97.1013 22.5641 97.789 22.2549 98.5587 22.2549C99.3285 22.2549 100.016 22.5641 100.521 23.0688L100.546 23.0941C101.032 23.5925 101.335 24.2739 101.335 25.0247L101.328 25.0373ZM99.8647 26.3433C100.199 26.0089 100.401 25.5483 100.401 25.0373C100.401 24.5262 100.205 24.0846 99.8837 23.7565L99.8584 23.7376C99.524 23.4032 99.0635 23.195 98.5524 23.195C98.0414 23.195 97.5808 23.4032 97.2464 23.7376C96.9121 24.072 96.7038 24.5325 96.7038 25.0436C96.7038 25.5546 96.9121 26.0152 97.2401 26.3496C97.5745 26.684 98.0351 26.8922 98.5461 26.8922C99.0572 26.8922 99.5177 26.684 99.8521 26.3559L99.8647 26.3433ZM125.985 116.615C125.732 116.602 125.537 116.381 125.549 116.129C125.562 115.877 125.783 115.681 126.035 115.694L126.477 115.719C126.729 115.732 126.931 115.946 126.918 116.205C126.906 116.457 126.691 116.659 126.433 116.646L125.985 116.621V116.615ZM131.177 116.621C130.925 116.634 130.704 116.432 130.698 116.18C130.685 115.927 130.887 115.706 131.139 115.7C134.433 115.568 138.313 115.208 141.814 114.558C144.654 114.034 147.24 113.328 149.045 112.413C149.272 112.299 149.549 112.388 149.663 112.615C149.777 112.842 149.688 113.12 149.461 113.24C147.575 114.198 144.9 114.93 141.985 115.467C138.439 116.123 134.508 116.489 131.183 116.621H131.177ZM98.5651 82.6779C98.3127 82.7031 98.0856 82.5201 98.054 82.2678C98.0288 82.0154 98.2117 81.7883 98.4641 81.7567C102.729 81.2962 106.344 82.0785 109.12 84.4886C111.871 86.8735 113.764 90.8419 114.59 96.7663C114.622 97.0186 114.452 97.2521 114.193 97.2899C113.941 97.3215 113.707 97.1448 113.669 96.8924C112.874 91.2079 111.095 87.4287 108.515 85.1889C105.953 82.9681 102.571 82.2489 98.5651 82.6779ZM124.811 17.113C139.196 17.4789 165.31 18.2865 190.382 35.3212C190.591 35.4663 190.647 35.7503 190.509 35.9648C190.376 36.1604 190.117 36.2234 189.916 36.1162C180.477 31.214 169.165 28.1792 157.676 26.684C144.906 25.0247 131.915 25.2644 121.013 26.9427C123.518 30.1351 125.814 34.0657 127.726 38.7345C130.54 45.5926 132.527 54.0342 133.139 64.0153C134.395 64.5327 135.499 65.1952 136.439 65.927C137.448 66.722 138.256 67.6053 138.843 68.4886C141.019 68.1289 143.505 67.8703 145.789 67.6936C148.357 67.498 150.679 67.416 152.048 67.4286C148.994 61.2645 144.559 56.091 138.849 50.9049C138.767 50.8292 138.71 50.7282 138.698 50.6084C138.672 50.356 138.855 50.1289 139.108 50.1036C165.392 47.3654 174.155 60.0027 179.095 67.1195C179.417 67.5863 179.726 68.028 180.029 68.457C189.095 64.2425 198.067 62.9302 205.941 64.8671C213.493 66.7283 220.023 71.58 224.616 79.7315C224.66 79.8135 224.679 79.9018 224.673 80.0028C224.648 80.2552 224.42 80.4444 224.168 80.4192C219.373 79.9649 214.635 80.1164 210.054 80.823C215.474 82.3056 223.928 86.6968 230.111 95.6306C234.667 102.205 237.998 111.239 237.998 123.378C237.998 138.508 232.572 149.845 224.679 157.782C214.83 167.681 201.133 172.255 189.36 172.255C179.083 172.255 169.24 168.287 162.168 161.17C155.657 154.615 151.486 145.391 151.486 134.148C151.486 128.501 152.01 123.795 152.729 119.536C148.363 121.568 143.24 122.766 138.161 123.391C130.982 124.281 123.884 124.035 119.196 123.41C117.713 123.208 116.534 122.779 115.594 122.186C115.676 125.656 115.316 129.05 114.925 132.71C114.149 139.984 113.265 148.306 115.575 160.293C115.77 161.296 115.852 162.18 115.852 162.949C115.852 164.281 115.594 165.303 115.171 166.028C114.717 166.811 114.073 167.265 113.341 167.404H113.31V169.233C113.31 170.274 112.887 171.214 112.205 171.896C111.524 172.577 110.578 173 109.543 173H103.196C102.95 173 102.748 172.811 102.735 172.565C102.641 171.032 102.679 169.814 102.799 168.653C102.918 167.498 103.127 166.426 103.373 165.151C103.392 165.006 103.48 164.88 103.619 164.811C104.937 164.136 104.937 161.675 104.937 158.457V158.047C104.937 154.413 104.231 149.839 103.013 145.076C101.802 140.337 100.073 135.41 98.0098 131.038C96.6092 128.066 94.83 124.943 93.0887 121.889C91.8584 119.725 90.6407 117.599 89.5934 115.574C88.6786 115.952 86.3757 116.905 84.9688 117.467C85.6943 120.053 85.7574 122.672 85.8205 125.353C85.8962 128.52 85.9783 131.77 87.1833 135.082C87.524 135.189 87.9026 135.347 88.2937 135.53C88.8868 135.814 89.5177 136.161 90.0855 136.501C90.8174 136.937 91.3411 137.599 91.5997 138.356C91.8647 139.113 91.8647 139.959 91.5682 140.754C91.2906 141.479 90.9625 142.255 90.6344 142.975C90.2748 143.757 89.9215 144.457 89.6565 144.924C89.3032 145.542 88.9246 145.921 88.4893 146.098C88.0224 146.287 87.5429 146.243 87.013 145.997C86.4956 145.757 85.1518 145.025 83.8647 144.091C83.0508 143.498 82.2558 142.817 81.7006 142.123C81.6439 142.06 81.606 141.984 81.5934 141.896C80.6092 136.123 76.9751 126.539 75.3662 122.299C75.0445 121.454 74.8047 120.817 74.6848 120.47C74.5397 120.053 74.3378 119.631 74.1296 119.189C73.2148 117.24 72.1422 114.943 74.0981 111.801C75.4735 109.586 77.177 106.981 79.2401 104.186C81.2653 101.435 83.6312 98.5013 86.3757 95.5612V74.539C86.3757 64.2551 90.8237 58.968 94.5146 54.5831C97.4673 51.0752 99.9089 48.173 98.9752 43.7061C97.9089 43.2897 97.0698 42.8733 96.2938 42.4948C94.1423 41.4348 92.4767 40.6146 87.4294 40.6083C88.3505 42.0531 88.7985 43.7503 88.7732 45.4475C88.7543 46.703 88.4767 47.9648 87.953 49.1131C87.4231 50.2677 86.6407 51.3213 85.6123 52.1604C84.0855 53.4096 82.0161 54.1857 79.4293 54.1541C79.2905 54.1541 79.1517 54.0973 79.0634 53.9838C78.8994 53.7882 78.9309 53.4916 79.1328 53.3339C79.4672 53.0626 79.77 52.785 80.0413 52.5074C81.8142 50.6904 82.2622 48.785 82.0035 47.0247C81.7448 45.2266 80.7669 43.561 79.7196 42.2802C79.3662 41.8449 79.0066 41.4537 78.6596 41.1194C77.3031 39.7944 76.1864 38.4821 75.4546 37.1004C74.7038 35.6809 74.3505 34.1919 74.5523 32.5452C74.8363 30.2108 75.9088 29.5042 78.2558 27.9521C79.259 27.2897 80.5145 26.4568 82.035 25.2707C84.5271 23.3275 87.8899 20.7975 91.3852 18.7597C94.8931 16.7155 98.5461 15.1508 101.631 15.1193C102.464 14.8038 103.328 14.4694 104.25 14.1098C111.335 11.3464 122.054 7.18232 135.177 6.31797C142.849 5.81323 150.054 5.73121 158.837 7.42838C167.606 9.12555 177.928 12.6019 191.827 19.2076C192.042 19.3086 192.149 19.5546 192.067 19.7817C191.979 20.0215 191.714 20.1477 191.474 20.0593C176.572 14.6208 163.758 12.5956 153.221 12.4C140.035 12.154 130.439 14.7723 124.811 17.113ZM119.821 26.9427C122.452 30.1603 124.868 34.2171 126.862 39.0878C129.663 45.9206 131.638 54.3623 132.224 64.3624C132.237 64.5579 132.363 64.7157 132.534 64.7724C133.802 65.2646 134.919 65.9207 135.852 66.6589C136.874 67.4665 137.676 68.3624 138.206 69.233C138.307 69.3971 138.496 69.4791 138.679 69.4475C140.893 69.069 143.474 68.7977 145.84 68.6147C148.717 68.3939 151.272 68.3182 152.477 68.3624C155.461 74.7725 157.007 82.2993 157.007 92.0281C157.007 99.3089 155.751 105.044 154.439 111.025C153.915 113.404 153.385 115.826 152.919 118.4C148.534 120.552 143.266 121.807 138.042 122.457C130.937 123.34 123.934 123.101 119.31 122.476C112.269 121.53 112.906 114.426 113.31 109.952C113.354 109.492 113.392 109.044 113.411 108.779C113.429 108.527 113.24 108.299 112.982 108.28C112.723 108.262 112.502 108.451 112.483 108.71C112.452 109.17 112.42 109.504 112.382 109.87C112.06 113.448 111.6 118.583 114.628 121.422C114.786 125.101 114.401 128.691 113.991 132.59C113.209 139.927 112.319 148.325 114.653 160.445C114.836 161.378 114.912 162.205 114.912 162.931C114.912 164.091 114.704 164.956 114.357 165.549C114.048 166.085 113.625 166.388 113.158 166.483C113.057 166.502 112.95 166.514 112.843 166.514C112.584 166.514 112.376 166.722 112.376 166.981V169.227C112.376 170.009 112.06 170.722 111.543 171.24C111.032 171.751 110.319 172.073 109.53 172.073H103.625C103.568 170.792 103.606 169.744 103.707 168.748C103.821 167.7 104.004 166.691 104.231 165.517C105.852 164.495 105.846 161.852 105.846 158.457V158.047C105.846 154.35 105.133 149.694 103.89 144.848C102.66 140.047 100.912 135.063 98.83 130.647C97.4168 127.65 95.625 124.508 93.8773 121.435C93.0508 119.984 92.237 118.552 91.4735 117.164C90.6155 115.593 89.7701 113.99 89.0382 112.356C87.972 109.99 87.2906 107.864 87.2906 106.154V74.539C87.2906 64.5895 91.6187 59.4475 95.2086 55.1825C98.2054 51.6178 100.71 48.6462 99.9657 44.0468C102.25 44.6462 105.038 44.3055 107.537 43.2519C109.928 42.2424 112.073 40.5642 113.272 38.4253C113.966 39.5231 114.426 40.6966 114.477 42.091C114.54 43.7944 114.016 45.8449 112.609 48.5074C111.139 51.2834 110.117 53.498 109.764 55.4286C109.442 57.1888 109.676 58.7093 110.635 60.1668C109.379 60.3371 108.351 60.1983 107.467 59.8639C106.407 59.4664 105.53 58.785 104.71 58.0153C104.521 57.8387 104.231 57.8513 104.054 58.0406C103.978 58.1226 103.94 58.2172 103.928 58.3245C103.474 64.2362 99.7386 67.6368 96.2559 70.804C93.0635 73.7062 90.0666 76.4318 89.7575 80.741C89.7385 80.9933 89.9341 81.2205 90.1865 81.2331C90.4388 81.252 90.666 81.0564 90.6786 80.8041C90.9625 76.8671 93.8206 74.2614 96.8742 71.4854C100.313 68.3561 103.985 65.0185 104.754 59.2961C105.467 59.8828 106.237 60.3939 107.133 60.7283C108.338 61.1825 109.758 61.3276 111.537 60.9491C111.606 60.9365 111.669 60.9049 111.732 60.8545C111.934 60.6967 111.966 60.4002 111.802 60.2046C110.66 58.785 110.351 57.3276 110.666 55.5863C110.994 53.7756 111.991 51.6368 113.423 48.9301C114.912 46.1162 115.467 43.908 115.398 42.0468C115.329 40.1541 114.616 38.6462 113.575 37.2329C113.53 37.1698 113.467 37.113 113.385 37.0815C113.152 36.9805 112.881 37.0815 112.773 37.3212C111.783 39.5862 109.619 41.3528 107.164 42.3938C104.578 43.4853 101.688 43.7566 99.5114 42.9301C98.3569 42.4948 97.4799 42.0594 96.6723 41.6619C94.2874 40.4884 92.4767 39.5989 86.5019 39.6872C86.3947 39.6872 86.2937 39.7187 86.2054 39.7881C86.0098 39.9522 85.9783 40.2424 86.136 40.438C87.2843 41.8449 87.8395 43.6367 87.8142 45.4285C87.7953 46.5579 87.5492 47.6872 87.0761 48.7219C86.6029 49.7503 85.9089 50.6904 84.994 51.4349C83.871 52.3497 82.4199 52.9806 80.6344 53.1636L80.6596 53.1383C82.6659 51.0815 83.1707 48.8986 82.8805 46.8796C82.5965 44.8923 81.5303 43.0689 80.4009 41.6809C80.0224 41.214 79.6375 40.7976 79.2653 40.438C77.9782 39.1761 76.9183 37.9395 76.2369 36.6525C75.5744 35.3969 75.259 34.0846 75.4356 32.6398C75.6691 30.7282 76.6281 30.0909 78.729 28.7029C79.7385 28.0341 81.0003 27.2013 82.565 25.9773C85.0256 24.0594 88.3505 21.5609 91.8142 19.542C95.2275 17.5483 98.7606 16.0278 101.675 16.0278C101.732 16.0278 101.783 16.0215 101.84 15.9962C102.641 15.6934 103.556 15.3401 104.54 14.9552C111.581 12.217 122.224 8.08454 135.202 7.22649C142.805 6.72175 149.947 6.63974 158.628 8.32428C165.568 9.66814 173.493 12.135 183.442 16.419C171.928 12.9931 161.815 11.624 153.202 11.4663C136.597 11.1571 125.575 15.3527 120.925 17.9016C119.411 18.7344 118.079 19.4978 116.887 20.1792C116.193 20.5767 115.537 20.9489 114.956 21.277L114.944 21.2833H114.937C113.114 22.3117 111.524 23.0499 110.136 23.4474C108.868 23.8133 107.77 23.889 106.805 23.6303C106.388 22.8859 105.909 22.2549 105.303 21.8259C105.095 21.6808 104.805 21.725 104.66 21.9332C104.515 22.1414 104.559 22.4316 104.767 22.5767C105.127 22.8291 105.436 23.195 105.72 23.624C106.332 24.5578 106.767 25.6934 107.177 26.7155C108.325 29.5799 109.524 32.5767 112.786 32.5767C114.016 32.5767 114.874 32.1414 115.442 31.4853C115.751 31.1319 115.966 30.7155 116.105 30.2739C116.243 29.8449 116.3 29.3843 116.3 28.9363C116.3 27.7692 115.871 26.6146 115.221 26.0531C115.026 25.889 114.735 25.9079 114.571 26.0972C114.401 26.2928 114.426 26.583 114.616 26.7471C115.07 27.1382 115.373 28.0152 115.373 28.9363C115.373 29.296 115.322 29.6556 115.221 29.9963C115.12 30.3244 114.963 30.6272 114.742 30.8733C114.338 31.3338 113.707 31.643 112.78 31.643C110.149 31.643 109.064 28.9427 108.029 26.3622C107.795 25.7818 107.562 25.2013 107.316 24.6587C108.243 24.766 109.259 24.6461 110.382 24.3243C111.783 23.9269 113.347 23.2076 115.127 22.2234C116.698 23.4915 118.243 25.0247 119.72 26.8228C119.739 26.8543 119.764 26.8796 119.789 26.9048L119.821 26.9427ZM120.332 26.1161C131.423 24.3496 144.717 24.072 157.777 25.7691C166.849 26.949 175.815 29.0815 183.859 32.3244C160.71 18.9552 137.505 18.3622 124.426 18.0278L122.849 17.9836C122.313 18.2423 121.833 18.4884 121.404 18.7281C119.934 19.5357 118.59 20.3054 117.379 20.9994C116.912 21.2644 116.464 21.5231 116.023 21.7754C117.499 22.9994 118.944 24.4442 120.332 26.1161ZM86.382 96.9177C83.9593 99.5738 81.8394 102.224 79.9972 104.728C77.9593 107.498 76.2684 110.085 74.8993 112.287C73.2085 115.006 74.1675 117.05 74.9814 118.792C75.2022 119.265 75.4167 119.719 75.5681 120.161C75.6943 120.52 75.9341 121.145 76.2432 121.971C77.852 126.211 81.4672 135.751 82.5019 141.618C83.0003 142.218 83.7006 142.817 84.4262 143.341C85.6502 144.23 86.9309 144.924 87.4167 145.151C87.707 145.284 87.953 145.322 88.1549 145.24C88.3884 145.145 88.6218 144.893 88.8679 144.464C89.1328 144.003 89.4672 143.334 89.8079 142.59C90.1234 141.902 90.4452 141.145 90.7164 140.426C90.9373 139.839 90.9373 139.214 90.7417 138.659C90.5461 138.104 90.1675 137.618 89.6313 137.296C89.0761 136.968 88.4704 136.628 87.9152 136.363C87.4735 136.154 87.0634 135.99 86.7354 135.908C86.5839 135.87 86.4641 135.757 86.4136 135.624C85.076 132.091 84.9877 128.684 84.912 125.372C84.8426 122.621 84.7795 119.934 83.9782 117.328C83.9088 117.094 84.0287 116.848 84.2495 116.76C85.8016 116.148 88.1865 115.157 89.1833 114.747C87.5366 111.46 86.382 108.489 86.382 106.154V96.924V96.9177ZM175.234 110.489L175.253 110.476C178.13 109.189 181.688 108.293 186.105 108.293C191.991 108.293 196.723 110.583 200.118 113.971C204.048 117.902 206.174 123.315 206.174 128.363C206.174 133.41 204.149 138.905 200.212 142.842C196.875 146.18 192.149 148.426 186.105 148.426C180.061 148.426 175.392 146.161 172.061 142.823C168.086 138.848 166.042 133.353 166.042 128.363C166.042 123.719 166.811 119.82 168.067 116.224C168.212 115.807 168.363 115.397 168.521 114.993C170.218 113.429 172.401 111.769 175.234 110.495V110.489Z" fill="#FFFFFF"></path><path fill-rule="evenodd" clip-rule="evenodd" d="M184.943 42.5479L184.956 42.4974C184.975 42.4532 184.994 42.4154 185.019 42.3775C185.057 42.3334 185.069 42.3207 185.114 42.2829C185.151 42.2577 185.189 42.2324 185.227 42.2198C185.341 42.1819 185.429 42.1819 185.549 42.2198C185.593 42.2387 185.631 42.2577 185.669 42.2829C185.713 42.3207 185.726 42.3334 185.763 42.3775C185.789 42.4154 185.814 42.4532 185.827 42.4911L185.839 42.5416C186.186 43.9674 186.741 45.3681 187.505 46.5416C188.161 47.5384 188.968 48.3712 189.953 48.8823C190.035 48.9265 190.104 48.9895 190.148 49.0779C190.268 49.305 190.18 49.5826 189.953 49.7025C188.975 50.2135 188.161 51.04 187.505 52.0432C186.735 53.2167 186.186 54.6173 185.839 56.0432C185.801 56.2072 185.675 56.3397 185.498 56.3839C185.252 56.447 185 56.2956 184.937 56.0432C184.59 54.6236 184.041 53.2167 183.271 52.0432C182.615 51.0463 181.808 50.2198 180.823 49.7025C180.741 49.6583 180.672 49.5952 180.628 49.5069C180.508 49.2798 180.596 49.0022 180.823 48.8823C181.801 48.3712 182.615 47.5447 183.271 46.5416C184.041 45.3681 184.59 43.9674 184.937 42.5416L184.943 42.5479ZM185.391 44.2829C185.044 45.2671 184.603 46.2135 184.054 47.0526C183.473 47.9422 182.767 48.7182 181.934 49.2924C182.767 49.8728 183.467 50.6425 184.054 51.5321C184.603 52.3713 185.05 53.3176 185.391 54.3019C185.738 53.3176 186.18 52.3713 186.729 51.5321C187.309 50.6425 188.016 49.8665 188.849 49.2924C188.016 48.7119 187.315 47.9422 186.729 47.0526C186.18 46.2135 185.732 45.2671 185.391 44.2829Z" fill="#FFFFFF"></path><path fill-rule="evenodd" clip-rule="evenodd" d="M208.945 26.9776L208.957 26.9271C208.976 26.8829 208.995 26.8451 209.02 26.8072C209.058 26.7631 209.071 26.7504 209.115 26.7126C209.153 26.6873 209.191 26.6621 209.229 26.6495C209.342 26.6116 209.43 26.6116 209.55 26.6495C209.595 26.6684 209.632 26.6873 209.67 26.7126C209.714 26.7504 209.727 26.7631 209.765 26.8072C209.79 26.8451 209.815 26.8829 209.828 26.9208L209.841 26.9713C210.074 27.9113 210.434 28.8388 210.938 29.6085C211.367 30.2583 211.891 30.7946 212.522 31.129C212.604 31.1732 212.673 31.2363 212.718 31.3246C212.837 31.5517 212.749 31.8293 212.522 31.9492C211.891 32.2773 211.361 32.8199 210.938 33.4697C210.434 34.2394 210.068 35.1669 209.841 36.1069C209.803 36.271 209.677 36.4035 209.5 36.4476C209.254 36.5107 209.001 36.3593 208.938 36.1069C208.705 35.1669 208.345 34.2394 207.841 33.4697C207.412 32.8199 206.888 32.2836 206.257 31.9492C206.175 31.905 206.106 31.8419 206.061 31.7536C205.941 31.5265 206.03 31.2489 206.257 31.129C206.888 30.8009 207.418 30.2583 207.841 29.6085C208.345 28.8388 208.711 27.9113 208.938 26.9713L208.945 26.9776ZM209.393 28.6116C209.178 29.1479 208.926 29.659 208.617 30.1195C208.257 30.6684 207.828 31.1605 207.323 31.5391C207.828 31.924 208.257 32.4098 208.617 32.9587C208.919 33.4255 209.178 33.9366 209.393 34.4665C209.607 33.9303 209.859 33.4192 210.162 32.9587C210.522 32.4098 210.951 31.9176 211.456 31.5391C210.951 31.1542 210.522 30.6684 210.162 30.1195C209.859 29.6527 209.601 29.1416 209.393 28.6116Z" fill="#FFFFFF"></path></g><defs><filter id="filter0_d_1429_31824" x="67" y="0" width="176.998" height="179" filterUnits="userSpaceOnUse" color-interpolation-filters="sRGB"><feFlood flood-opacity="0" result="BackgroundImageFix"></feFlood><feColorMatrix in="SourceAlpha" type="matrix" values="0 0 0 0 0 0 0 0 0 0 0 0 0 0 0 0 0 0 127 0" result="hardAlpha"></feColorMatrix><feOffset></feOffset><feGaussianBlur stdDeviation="3"></feGaussianBlur><feComposite in2="hardAlpha" operator="out"></feComposite><feColorMatrix type="matrix" values="0 0 0 0 1 0 0 0 0 1 0 0 0 0 1 0 0 0 1 0"></feColorMatrix><feBlend mode="normal" in2="BackgroundImageFix" result="effect1_dropShadow_1429_31824"></feBlend><feBlend mode="normal" in="SourceGraphic" in2="effect1_dropShadow_1429_31824" result="shape"></feBlend></filter></defs></svg>