<svg xmlns="http://www.w3.org/2000/svg"  xmlns:xlink="http://www.w3.org/1999/xlink"  width="311" height="179" viewBox="0 0 311 179" fill="none"><g filter="url(#filter0_d_1429_31747)"><path fill-rule="evenodd" clip-rule="evenodd" d="M155.977 25.4031C155.368 27.353 154.534 29.2451 153.463 30.8807C152.411 32.4842 151.128 33.8568 149.595 34.8253C151.128 35.7938 152.411 37.1664 153.463 38.7699C154.534 40.4119 155.368 42.2976 155.977 44.2475C156.587 42.2976 157.42 40.4055 158.492 38.7699C159.543 37.1664 160.826 35.7938 162.359 34.8253C160.826 33.8568 159.543 32.4842 158.492 30.8807C157.42 29.2387 156.587 27.353 155.977 25.4031ZM152.674 30.3676C153.989 28.3664 154.925 25.9612 155.522 23.5367C155.56 23.3699 155.689 23.2352 155.868 23.1903C156.118 23.1262 156.375 23.2801 156.439 23.5367C157.036 25.9612 157.972 28.36 159.287 30.3676C160.416 32.093 161.82 33.5233 163.52 34.4148C163.603 34.4597 163.674 34.5239 163.719 34.6137C163.841 34.8446 163.751 35.1268 163.52 35.2486C161.82 36.1402 160.416 37.5705 159.287 39.2959C157.972 41.297 157.036 43.7023 156.439 46.1268C156.401 46.2935 156.272 46.4282 156.093 46.4731C155.843 46.5373 155.586 46.3833 155.522 46.1268C154.925 43.7023 153.989 41.3035 152.674 39.2959C151.545 37.5705 150.14 36.1402 148.441 35.2486C148.357 35.2037 148.287 35.1396 148.242 35.0498C148.12 34.8189 148.21 34.5367 148.441 34.4148C150.14 33.5233 151.545 32.093 152.674 30.3676Z" fill="white"></path><path fill-rule="evenodd" clip-rule="evenodd" d="M127.565 40.1677C127.218 41.1491 126.776 42.0919 126.231 42.9257C125.647 43.8173 124.941 44.587 124.114 45.1642C124.941 45.7415 125.647 46.5176 126.231 47.4027C126.776 48.2365 127.225 49.1794 127.565 50.1607C127.911 49.1794 128.354 48.2365 128.899 47.4027C129.483 46.5112 130.182 45.7415 131.015 45.1642C130.188 44.587 129.483 43.8109 128.899 42.9257C128.354 42.0919 127.905 41.1491 127.565 40.1677ZM125.442 42.4062C126.211 41.2324 126.763 39.8278 127.109 38.4039C127.148 38.2371 127.276 38.1024 127.456 38.0575C127.706 37.9934 127.962 38.1473 128.027 38.4039C128.379 39.8278 128.925 41.2324 129.694 42.4062C130.348 43.4068 131.163 44.2342 132.144 44.7473C132.228 44.7922 132.298 44.8563 132.343 44.9461C132.465 45.177 132.375 45.4593 132.144 45.5811C131.163 46.0942 130.355 46.9217 129.694 47.9222C128.925 49.096 128.373 50.5007 128.027 51.9246C127.988 52.0913 127.86 52.226 127.68 52.2709C127.43 52.3351 127.173 52.1811 127.109 51.9246C126.757 50.5007 126.211 49.096 125.442 47.9222C124.787 46.9217 123.973 46.0942 122.992 45.5811C122.908 45.5362 122.838 45.4721 122.793 45.3823C122.671 45.1514 122.761 44.8692 122.992 44.7473C123.973 44.2342 124.781 43.4068 125.442 42.4062Z" fill="white"></path><path fill-rule="evenodd" clip-rule="evenodd" d="M184.401 40.1677C184.054 41.1491 183.612 42.0919 183.067 42.9257C182.483 43.8173 181.784 44.587 180.95 45.1642C181.777 45.7415 182.483 46.5176 183.067 47.4027C183.612 48.2365 184.054 49.1794 184.401 50.1607C184.747 49.1794 185.19 48.2365 185.735 47.4027C186.318 46.5112 187.018 45.7415 187.851 45.1642C187.018 44.587 186.318 43.8109 185.735 42.9257C185.19 42.0919 184.747 41.1491 184.401 40.1677ZM182.278 42.4062C183.047 41.2324 183.599 39.8278 183.945 38.4039C183.984 38.2371 184.112 38.1024 184.292 38.0575C184.542 37.9934 184.798 38.1473 184.862 38.4039C185.215 39.8278 185.76 41.2324 186.53 42.4062C187.184 43.4068 187.999 44.2342 188.98 44.7473C189.064 44.7922 189.134 44.8563 189.179 44.9461C189.301 45.177 189.211 45.4593 188.98 45.5811C187.999 46.0942 187.191 46.9217 186.53 47.9222C185.76 49.096 185.209 50.5007 184.862 51.9246C184.824 52.0913 184.696 52.226 184.516 52.2709C184.266 52.3351 184.009 52.1811 183.945 51.9246C183.593 50.5007 183.047 49.096 182.278 47.9222C181.623 46.9217 180.809 46.0942 179.827 45.5811C179.744 45.5362 179.674 45.4721 179.629 45.3823C179.507 45.1514 179.597 44.8692 179.827 44.7473C180.809 44.2342 181.617 43.4068 182.278 42.4062Z" fill="white"></path><path fill-rule="evenodd" clip-rule="evenodd" d="M160.033 124.461L162.464 129.201C162.58 129.432 162.49 129.714 162.259 129.83C162.028 129.945 161.746 129.855 161.624 129.624L159.193 124.884C159.078 124.654 159.167 124.371 159.398 124.256C159.629 124.14 159.911 124.23 160.027 124.461H160.033ZM155.986 55.7031H155.973C155.268 55.7031 154.53 55.7801 153.78 55.8506C152.215 56.0046 150.605 56.1649 149.136 55.7352C148.796 55.8955 148.392 56.1649 147.936 56.4535C146.673 57.2681 145.095 58.2879 143.338 58.2623C142.895 58.2623 142.478 58.2238 142.048 58.1853C140.4 58.0506 138.598 57.9031 137.026 59.513C136.314 60.2378 135.602 61.418 134.999 62.2133C132.793 65.1317 130.073 68.7428 130.336 76.7923C130.343 77.0489 130.144 77.267 129.881 77.2798C129.618 77.2926 129.406 77.0874 129.394 76.8244C129.124 68.4477 131.953 64.6891 134.249 61.6489C134.615 61.1614 134.967 60.6932 135.288 60.2314C134.659 60.0069 134.018 59.5964 133.396 59.1987C132.671 58.7369 131.978 58.2944 131.529 58.2944C130.991 58.3457 129.009 59.8273 127.078 62.5982C125.096 65.4396 123.262 69.6022 123.262 74.9323C123.262 75.5352 123.287 76.1445 123.332 76.7731C123.352 77.0297 123.159 77.2606 122.896 77.2798C122.633 77.299 122.409 77.1066 122.389 76.8436C122.338 76.1894 122.312 75.5544 122.312 74.9387C122.312 70.3655 123.608 66.6133 125.224 63.7783C124.564 63.6629 123.57 63.541 123.377 63.7527C121.896 65.3818 119.631 66.453 117.38 67.5241C116.315 68.0308 115.251 68.5375 114.301 69.0827C111.069 73.4122 109.023 78.7871 108.016 84.3288C106.88 90.5439 107.054 96.9579 108.298 102.339C110.222 110.645 116.033 114.936 124.827 121.44C126.77 122.877 128.868 124.423 131.093 126.148C137.244 130.901 141.824 133.761 145.692 135.436C149.527 137.09 152.664 137.571 155.98 137.571H156.005C159.315 137.571 162.458 137.09 166.293 135.436C170.161 133.761 174.734 130.901 180.892 126.148C183.117 124.429 185.208 122.883 187.158 121.44C195.952 114.943 201.763 110.645 203.687 102.339C204.931 96.9579 205.098 90.5439 203.969 84.3288C202.962 78.7871 200.916 73.4122 197.683 69.0827C196.734 68.5311 195.669 68.0308 194.605 67.5241C192.353 66.453 190.089 65.3754 188.608 63.7527C188.415 63.541 187.421 63.6693 186.76 63.7783C188.377 66.6197 189.672 70.3719 189.672 74.9387C189.672 75.5544 189.647 76.1894 189.595 76.8436C189.576 77.1002 189.352 77.299 189.089 77.2798C188.832 77.2606 188.633 77.0361 188.652 76.7731C188.697 76.1509 188.723 75.5352 188.723 74.9323C188.723 69.6022 186.889 65.4396 184.907 62.5982C182.976 59.8273 180.994 58.3457 180.455 58.2944C180.006 58.2944 179.314 58.7369 178.589 59.1987C177.967 59.5964 177.325 60.0005 176.697 60.2314C177.017 60.6932 177.37 61.1614 177.736 61.6489C180.026 64.6891 182.861 68.4413 182.591 76.8244C182.585 77.081 182.367 77.2862 182.104 77.2798C181.847 77.2734 181.642 77.0553 181.648 76.7923C181.911 68.7428 179.185 65.1381 176.985 62.2133C176.389 61.418 175.671 60.2378 174.959 59.513C173.394 57.9031 171.585 58.0506 169.936 58.1853C169.507 58.2174 169.09 58.2559 168.647 58.2623C166.883 58.2879 165.312 57.2681 164.048 56.4535C163.599 56.1649 163.189 55.8955 162.849 55.7352C161.38 56.1713 159.764 56.011 158.205 55.8506C157.455 55.7737 156.717 55.7031 156.012 55.7031H155.999H155.986ZM155.986 138.501H155.999C159.43 138.501 162.689 138.001 166.659 136.289C168.468 135.506 170.424 134.473 172.611 133.12C176.876 135.775 180.603 138.899 183.662 142.626C186.671 146.288 189.031 150.528 190.622 155.473C186.382 156.14 182.412 160.796 178.101 165.857C176.671 167.531 175.209 169.257 173.657 170.918C173.477 171.11 173.49 171.405 173.682 171.585C173.836 171.726 174.061 171.745 174.234 171.649C178.724 169.128 183.015 166.627 186.876 164.17C190.743 161.707 194.201 159.283 197.01 156.916C197.196 156.756 197.228 156.48 197.093 156.287C195.503 154.062 194.143 151.689 193.052 149.149C191.956 146.609 191.128 143.908 190.602 141.022C190.583 140.907 190.519 140.81 190.436 140.74C187.96 138.726 185.471 136.834 182.976 135.102C180.699 133.524 178.416 132.081 176.12 130.811C176.844 130.311 177.595 129.772 178.371 129.208C191.071 135.897 200.961 142.921 208.831 150.194C216.746 157.506 222.627 165.062 227.29 172.765C227.425 172.989 227.714 173.06 227.938 172.925C228.131 172.81 228.208 172.579 228.143 172.374C227.079 168.391 225.757 164.42 223.923 160.476C222.082 156.512 219.735 152.574 216.624 148.668C216.573 148.603 216.508 148.559 216.438 148.527C213.128 147.135 210.12 145.326 207.49 142.985C204.867 140.644 202.622 137.764 200.839 134.236C200.756 134.069 200.583 133.973 200.403 133.98C197.562 133.922 194.419 133.21 191.045 131.998C187.831 130.85 184.419 129.246 180.859 127.341L181.334 126.975C183.271 126.892 185.15 127.059 186.966 127.45C188.826 127.848 190.628 128.483 192.373 129.31C192.507 129.387 192.68 129.394 192.828 129.31C196.728 127.155 200.82 125.853 205.066 125.218C209.318 124.583 213.725 124.622 218.24 125.141C218.356 125.154 218.478 125.122 218.58 125.045C222.89 121.716 226.649 118.028 229.997 114.07C233.339 110.113 236.27 105.886 238.925 101.48C239.034 101.294 239.009 101.05 238.842 100.896C238.65 100.717 238.355 100.729 238.175 100.915C231.812 107.695 224.282 113.057 215.457 116.841C206.971 120.472 197.286 122.652 186.279 123.23C191.834 121.421 197.1 118.676 202.276 115.982C208.324 112.833 214.238 109.754 220.248 108.362C220.389 108.336 220.511 108.247 220.581 108.112C222.185 104.963 223.994 102.025 226.001 99.3055C227.996 96.5988 230.196 94.1037 232.595 91.8203C232.646 91.7754 232.685 91.7241 232.717 91.66C233.987 88.8378 234.974 85.4576 235.77 81.7311C236.565 78.011 237.174 73.9509 237.694 69.7369C237.72 69.4932 237.559 69.2687 237.322 69.2174C237.065 69.1661 236.822 69.3329 236.77 69.583C235.218 77.1964 231.569 84.72 225.11 92.1282C219.138 98.9784 210.768 105.726 199.447 112.358C201.923 109.561 203.668 106.496 204.578 102.538C205.848 97.0413 206.022 90.4926 204.867 84.1556C204.713 83.3282 204.54 82.5008 204.348 81.6798C207.599 81.1859 209.748 80.3264 211.146 79.2617C212.615 78.1521 213.282 76.8372 213.545 75.5031C214.058 75.0541 214.527 74.4705 214.988 73.8996C215.758 72.9375 216.508 72.0011 217.265 72.0267C218.234 72.0588 218.708 72.6104 219.106 73.0722C219.459 73.4827 219.767 73.8419 220.299 73.9253C221.293 74.0792 221.896 73.1748 222.871 71.706C223.147 71.2955 223.448 70.8337 223.763 70.3976C224.763 68.9865 228.496 64.4967 231.844 60.4751C233.294 58.7369 234.673 57.0757 235.699 55.825C239.355 51.3801 237.322 47.2302 235.417 43.4459C237.072 35.3387 233.3 27.4238 226.938 20.9713C223.532 17.5206 219.376 14.4867 214.918 12.0687C210.46 9.65059 205.682 7.84826 201.038 6.8605C192.437 5.03251 184.246 5.9882 179.192 10.9719C179.006 11.1515 179.006 11.4529 179.192 11.6389C179.346 11.7929 179.583 11.8185 179.763 11.7159C181.854 10.6063 185.048 10.3241 188.742 11.0039C192.187 11.6389 196.048 13.0949 199.858 15.4873C204.226 18.2261 205.592 23.1905 206.503 27.8599C205.098 28.4757 203.623 28.6168 201.917 28.3859C200.031 28.1357 197.85 27.4366 195.169 26.4489C194.675 26.2628 193.963 26.0127 193.238 25.7497C188.107 23.9089 181.719 21.6127 181.264 18.3736C181.225 18.1171 180.988 17.9375 180.731 17.9695C180.577 17.9888 180.455 18.085 180.385 18.2069C179.628 19.5795 179.076 21.0098 179.532 22.5235C179.974 23.9987 181.366 25.4868 184.483 26.9684C189.903 29.5404 195.066 33.1258 199.595 36.2687C205.739 40.5276 210.723 43.9847 213.808 43.0996C214.783 44.036 215.501 44.562 215.854 44.7865C216.496 45.2034 217.336 44.8699 218.189 44.5299C218.689 44.3311 219.202 44.1258 219.581 44.1258C219.658 44.1258 219.735 44.1387 219.812 44.1579C218.221 45.4599 217.169 47.1917 216.201 48.7824C215.437 50.0395 214.732 51.1941 213.898 51.8932C212.185 53.3171 212.525 54.9976 212.968 57.2168C213.135 58.0635 213.327 58.9935 213.404 60.0005C213.539 61.6938 212.538 62.688 211.441 63.7655L211.416 63.7912C210.364 64.8238 209.235 65.9206 208.748 67.7486C208.6 68.3066 208.504 68.8839 208.465 69.4611C207.471 70.3976 206.368 70.3783 205.226 70.3527C204.938 70.3527 204.643 70.3399 204.348 70.3527C203.11 70.3848 202.597 71.0582 201.929 71.9241C201.699 72.2191 201.455 72.5463 201.147 72.867C200.345 71.3084 199.422 69.8267 198.389 68.4413C198.35 68.3836 198.299 68.3387 198.241 68.3066C197.222 67.7101 196.118 67.1842 195.009 66.6582C192.841 65.632 190.66 64.5929 189.307 63.1049C188.762 62.5084 186.953 62.7713 186.247 62.906C186.061 62.611 185.875 62.3288 185.689 62.0594C183.579 59.032 181.212 57.4028 180.532 57.3515H180.468C179.75 57.3515 178.942 57.8646 178.095 58.4034C177.422 58.8331 176.729 59.2757 176.139 59.4168C174.189 56.8897 171.925 57.0757 169.879 57.2425C169.443 57.2809 169.019 57.313 168.654 57.3194C167.178 57.3387 165.729 56.4086 164.574 55.6582C164.016 55.299 163.522 54.9783 163.08 54.7987C162.964 54.7474 162.836 54.7538 162.727 54.7987C161.406 55.2285 159.834 55.0745 158.314 54.9206C157.525 54.8436 156.749 54.7667 156.031 54.7667H156.005C155.28 54.7667 154.504 54.8436 153.722 54.9206C152.202 55.0745 150.63 55.2285 149.309 54.7987C149.2 54.7538 149.072 54.7538 148.956 54.7987C148.514 54.9847 148.02 55.299 147.462 55.6582C146.301 56.4086 144.858 57.3387 143.382 57.3194C143.017 57.3194 142.587 57.2809 142.157 57.2425C140.105 57.0757 137.847 56.8897 135.897 59.4168C135.307 59.2757 134.615 58.8331 133.941 58.4034C133.094 57.8646 132.286 57.3451 131.568 57.3451H131.504C130.824 57.4028 128.457 59.032 126.347 62.053C126.161 62.3223 125.968 62.6046 125.789 62.8996C125.083 62.7713 123.275 62.5019 122.729 63.0984C121.376 64.5865 119.195 65.6256 117.027 66.6518C115.918 67.1777 114.808 67.7037 113.795 68.3002C113.737 68.3387 113.686 68.3836 113.647 68.4349C112.608 69.8139 111.691 71.3019 110.889 72.8606C110.581 72.5399 110.331 72.2127 110.107 71.9177C109.446 71.0518 108.926 70.3783 107.689 70.3463C107.394 70.3399 107.098 70.3463 106.81 70.3463C105.668 70.3655 104.571 70.3912 103.571 69.4547C103.532 68.8775 103.436 68.3002 103.289 67.7422C102.801 65.9142 101.672 64.811 100.62 63.7847L100.595 63.7591C99.4979 62.6815 98.4973 61.6874 98.632 59.9941C98.7154 58.9807 98.9014 58.0506 99.0681 57.2104C99.5107 54.9911 99.8506 53.3107 98.1381 51.8868C97.3043 51.1876 96.5987 50.0331 95.8355 48.776C94.8734 47.1917 93.8151 45.4535 92.2244 44.1515C92.3014 44.1323 92.3783 44.1194 92.4553 44.1194C92.8337 44.1194 93.3404 44.3247 93.8471 44.5235C94.7066 44.8634 95.5404 45.197 96.1818 44.7801C96.5346 44.5556 97.253 44.0296 98.2279 43.0932C101.313 43.9783 106.297 40.5212 112.441 36.2623C116.963 33.1258 122.133 29.5404 127.553 26.962C130.67 25.4803 132.062 23.9923 132.504 22.5171C132.953 21.0034 132.402 19.573 131.651 18.2005C131.581 18.0722 131.459 17.9824 131.305 17.9631C131.048 17.9246 130.811 18.1107 130.773 18.3672C130.317 21.6063 123.929 23.8961 118.798 25.7433C118.066 26.0063 117.361 26.2564 116.867 26.4424C114.186 27.4366 112.005 28.1293 110.119 28.3795C108.413 28.604 106.945 28.4693 105.533 27.8535C106.438 23.1905 107.81 18.2197 112.178 15.4809C115.988 13.0949 119.849 11.6325 123.294 10.9975C126.988 10.3176 130.182 10.5999 132.273 11.7095C132.453 11.8185 132.69 11.7929 132.844 11.6325C133.024 11.4465 133.024 11.1515 132.844 10.9655C127.739 5.99461 119.548 5.03892 110.947 6.86691C106.297 7.85467 101.525 9.657 97.067 12.0751C92.6028 14.4932 88.453 17.527 85.0471 20.9777C78.678 27.4302 74.913 35.3451 76.5678 43.4524C74.6629 47.2366 72.636 51.3865 76.2856 55.8314C77.3119 57.0821 78.6909 58.7369 80.1404 60.4815C83.4885 64.5031 87.2215 68.9865 88.2221 70.404C88.5299 70.8401 88.8378 71.3019 89.1136 71.7124C90.0821 73.1748 90.685 74.0856 91.6856 73.9317C92.218 73.8483 92.5259 73.4891 92.8786 73.0786C93.2699 72.6232 93.7509 72.0652 94.7194 72.0331C95.4763 72.0075 96.2267 72.9439 96.9964 73.906C97.4582 74.4833 97.92 75.0606 98.4396 75.5095C98.709 76.8436 99.3696 78.1585 100.838 79.2681C102.243 80.3264 104.385 81.1923 107.637 81.6862C107.438 82.5072 107.265 83.3282 107.118 84.162C105.963 90.499 106.136 97.0477 107.406 102.545C108.324 106.502 110.062 109.568 112.538 112.364C101.217 105.732 92.8466 98.9848 86.8751 92.1346C80.4162 84.7264 76.7667 77.1964 75.2145 69.5894C75.1632 69.3329 74.913 69.1725 74.6629 69.2238C74.4191 69.2751 74.2588 69.4996 74.2909 69.7434C74.8168 73.9573 75.4261 78.0238 76.2215 81.7375C77.0168 85.4641 77.9981 88.8442 79.2745 91.6664C79.3066 91.7305 79.3451 91.7883 79.3964 91.8268C81.7952 94.1101 83.9888 96.6052 85.99 99.3119C87.9976 102.031 89.7999 104.969 91.4098 108.118C91.4804 108.253 91.6022 108.343 91.7433 108.368C97.7597 109.76 103.673 112.845 109.715 115.988C114.885 118.682 120.157 121.427 125.712 123.236C114.712 122.659 105.02 120.484 96.5346 116.848C87.7089 113.07 80.1789 107.708 73.8162 100.922C73.6366 100.736 73.3416 100.723 73.1492 100.903C72.9824 101.056 72.9567 101.3 73.0658 101.486C75.7212 105.893 78.6524 110.119 81.9941 114.077C85.3422 118.034 89.1008 121.722 93.411 125.051C93.5136 125.128 93.6355 125.16 93.7509 125.147C98.2664 124.628 102.673 124.589 106.925 125.224C111.165 125.859 115.257 127.161 119.163 129.317C119.311 129.4 119.484 129.394 119.619 129.317C121.363 128.483 123.166 127.854 125.026 127.457C126.847 127.065 128.72 126.898 130.657 126.982L131.132 127.347C127.572 129.252 124.16 130.856 120.946 132.004C117.573 133.216 114.43 133.928 111.588 133.986C111.409 133.986 111.242 134.076 111.159 134.243C109.375 137.77 107.131 140.65 104.507 142.991C101.884 145.332 98.8693 147.141 95.5597 148.533C95.4891 148.565 95.425 148.61 95.3737 148.674C92.2693 152.58 89.9154 156.518 88.0745 160.482C86.2401 164.427 84.9124 168.403 83.8541 172.38C83.79 172.585 83.867 172.816 84.0594 172.932C84.2839 173.066 84.5725 172.996 84.7072 172.771C89.3702 165.068 95.2518 157.513 103.167 150.201C111.043 142.933 120.927 135.904 133.627 129.214C134.403 129.778 135.153 130.317 135.878 130.817C133.582 132.087 131.298 133.531 129.022 135.108C126.526 136.834 124.044 138.732 121.562 140.746C121.479 140.817 121.415 140.913 121.395 141.029C120.869 143.915 120.042 146.615 118.945 149.155C117.855 151.695 116.495 154.068 114.904 156.294C114.763 156.493 114.795 156.768 114.988 156.922C117.797 159.289 121.254 161.714 125.122 164.177C128.983 166.633 133.274 169.135 137.764 171.655C137.937 171.752 138.161 171.732 138.315 171.591C138.508 171.412 138.514 171.117 138.341 170.924C136.789 169.263 135.32 167.538 133.896 165.864C129.586 160.803 125.616 156.14 121.376 155.479C122.967 150.54 125.327 146.294 128.335 142.632C131.395 138.906 135.121 135.782 139.387 133.126C141.574 134.48 143.53 135.512 145.339 136.295C149.309 138.008 152.567 138.508 155.999 138.508H156.012L155.986 138.501ZM200.563 84.874C200.134 85.0151 199.723 85.169 199.332 85.3294C194.496 87.3241 190.763 91.2751 188.723 96.2011C186.677 101.14 186.337 107.047 188.28 112.929C188.479 113.538 188.704 114.141 188.948 114.725C189.044 114.962 188.935 115.238 188.691 115.34C188.454 115.437 188.178 115.328 188.075 115.084C187.819 114.455 187.588 113.833 187.382 113.224C185.368 107.118 185.728 100.98 187.851 95.8419C189.987 90.6915 193.893 86.548 198.973 84.4635C199.409 84.2839 199.838 84.1235 200.268 83.9824C200.518 83.899 200.781 84.0337 200.865 84.2839C200.948 84.534 200.813 84.797 200.563 84.8804V84.874ZM179.153 110.043L182.482 109.343C182.739 109.292 182.989 109.452 183.04 109.709C183.092 109.966 182.931 110.216 182.675 110.267L179.346 110.966C179.089 111.017 178.845 110.857 178.788 110.601C178.73 110.344 178.897 110.1 179.153 110.043ZM182.277 104.02L181.905 104.058C181.648 104.084 181.417 103.898 181.392 103.635C181.366 103.378 181.552 103.147 181.815 103.122L182.194 103.083C182.45 103.058 182.681 103.244 182.707 103.507C182.732 103.763 182.546 103.994 182.283 104.02H182.277ZM183.322 96.9195L180.423 95.8804C180.18 95.7906 180.051 95.5212 180.135 95.2775C180.224 95.0337 180.494 94.9055 180.738 94.9888L183.637 96.0279C183.88 96.1177 184.009 96.3871 183.925 96.6308C183.836 96.8746 183.566 97.0028 183.322 96.9195ZM185.978 90.7941L185.785 90.6402C185.58 90.4798 185.548 90.1848 185.708 89.9795C185.869 89.7743 186.164 89.7422 186.369 89.909L186.562 90.0629C186.767 90.2233 186.799 90.5183 186.632 90.7235C186.472 90.9288 186.177 90.9609 185.971 90.8005L185.978 90.7941ZM188.146 82.8407L190.384 85.4897C190.551 85.6885 190.525 85.9836 190.327 86.1504C190.128 86.3171 189.833 86.2915 189.666 86.0926L187.427 83.4436C187.261 83.2448 187.286 82.9498 187.485 82.783C187.684 82.6162 187.979 82.6419 188.146 82.8407ZM194.714 80.8075L195.355 81.853C195.49 82.0775 195.419 82.3661 195.201 82.5008C194.977 82.6355 194.688 82.5649 194.553 82.3469L193.906 81.3014C193.771 81.0769 193.841 80.7883 194.059 80.6536C194.284 80.5189 194.573 80.5894 194.707 80.8075H194.714ZM198.562 76.2215L199.755 80.0699C199.832 80.32 199.691 80.583 199.441 80.66C199.191 80.7369 198.928 80.5958 198.851 80.3457L197.658 76.4973C197.581 76.2471 197.722 75.9842 197.972 75.9072C198.222 75.8302 198.485 75.9713 198.562 76.2215ZM188.909 10.0867C186.266 9.59928 183.855 9.58645 181.86 10.0034C186.696 6.72581 193.604 6.25117 200.839 7.78412C205.399 8.75263 210.088 10.5229 214.469 12.8961C218.85 15.2693 222.929 18.2453 226.264 21.6319C232.306 27.7509 235.936 35.204 234.583 42.811C233.839 42.3941 233.326 41.9579 232.858 41.5602C231.767 40.6302 230.895 39.8798 228.22 39.8798C225.546 39.8798 224.853 41.3678 224.276 42.6699C223.987 43.3241 223.731 43.9142 223.192 44.0681C222.198 44.3503 221.543 43.9911 220.966 43.6769C220.511 43.4267 220.087 43.1958 219.555 43.1958C219.023 43.1958 218.407 43.4331 217.817 43.6704C217.188 43.9206 216.573 44.1643 216.335 44.0104C215.88 43.7153 214.745 42.8687 213.199 41.1626C212.237 40.0978 211.121 38.6996 209.915 36.8973L209.896 36.8652C208.786 35.1975 208.299 32.5293 207.76 29.5917C206.785 24.2489 205.65 18.0401 200.339 14.7048C196.426 12.2483 192.45 10.7474 188.896 10.0932L188.909 10.0867ZM212.994 42.3043C210.268 42.5416 205.688 39.3666 200.114 35.5054C195.56 32.3433 190.359 28.7387 184.868 26.1282C182.033 24.7812 180.782 23.4984 180.417 22.2669C180.16 21.4139 180.334 20.548 180.693 19.6949C182.277 22.8249 188.114 24.9223 192.905 26.6413C193.514 26.8593 194.098 27.071 194.829 27.3404C197.568 28.3538 199.806 29.0658 201.782 29.3287C203.584 29.5661 205.156 29.4314 206.669 28.8156L206.843 29.7521C207.401 32.7987 207.901 35.5631 209.12 37.3847L209.145 37.4168C210.377 39.2576 211.525 40.6943 212.513 41.7911C212.679 41.9771 212.84 42.1503 213 42.3171L212.994 42.3043ZM234.577 43.8757C236.347 47.397 238.239 51.2582 234.974 55.2349C233.897 56.5433 232.543 58.1661 231.126 59.8786C227.771 63.913 224.032 68.4028 222.999 69.8588C222.627 70.3783 222.345 70.8081 222.095 71.1929C221.332 72.3474 220.857 73.0658 220.453 73.0017C220.267 72.9696 220.062 72.7387 219.831 72.4629C219.318 71.86 218.689 71.1352 217.31 71.0903C216.085 71.0518 215.194 72.1678 214.27 73.3159C213.52 74.2524 212.743 75.2209 211.91 75.3492C211.781 75.3684 211.653 75.362 211.538 75.3299C211.095 75.2145 210.678 74.7848 210.319 74.169C209.934 73.4955 209.639 72.604 209.485 71.6291C209.306 70.4681 209.331 69.1853 209.652 67.9987C210.075 66.4209 211.108 65.4139 212.07 64.471L212.096 64.4454C213.359 63.2075 214.514 62.0658 214.341 59.9363C214.251 58.8652 214.065 57.9095 213.885 57.0372C213.5 55.1258 213.212 53.6827 214.488 52.618C215.444 51.8226 216.188 50.5976 216.996 49.2763C217.99 47.6407 219.087 45.8384 220.755 44.6197C221.434 44.9789 222.236 45.3188 223.461 44.9725C224.423 44.7031 224.77 43.9142 225.155 43.0483C225.61 42.0092 226.136 40.8226 228.233 40.8226C230.562 40.8226 231.318 41.4704 232.261 42.2786C232.851 42.7853 233.506 43.3497 234.59 43.8757H234.577ZM210.229 20.3107C211.736 23.4214 212.307 26.7631 212.827 29.8419C213.52 33.9212 214.135 37.5194 216.765 39.264C216.983 39.4051 217.041 39.7002 216.9 39.9183C216.759 40.1363 216.464 40.1941 216.245 40.0529C213.269 38.0839 212.628 34.2996 211.897 30.0022C211.384 26.9876 210.826 23.7165 209.376 20.7276C209.261 20.4967 209.363 20.2144 209.594 20.099C209.825 19.9835 210.107 20.0862 210.223 20.3171L210.229 20.3107ZM206.849 15.59C207.041 15.776 207.221 15.9556 207.388 16.1416C207.548 16.3147 207.715 16.5007 207.888 16.706C208.055 16.9048 208.029 17.1999 207.837 17.3666C207.638 17.5334 207.343 17.5077 207.176 17.3153C207.035 17.155 206.881 16.9754 206.701 16.783C206.535 16.6034 206.368 16.4302 206.195 16.2634C206.009 16.0838 206.002 15.7824 206.188 15.5964C206.368 15.4104 206.669 15.4039 206.855 15.59H206.849ZM219.196 65.4139C220.992 61.3923 224.045 58.66 226.649 56.3253C229.734 53.5608 232.159 51.3865 230.786 48.3847C230.677 48.1474 230.786 47.8716 231.017 47.7626C231.254 47.6535 231.53 47.7626 231.639 47.9935C233.3 51.6238 230.651 53.997 227.271 57.0244C224.738 59.2949 221.768 61.9568 220.049 65.7923C219.946 66.0296 219.664 66.1323 219.427 66.0296C219.19 65.927 219.08 65.6448 219.19 65.4075L219.196 65.4139ZM212.378 76.2022C212.064 77.0232 211.512 77.8186 210.588 78.5113C209.286 79.4926 207.253 80.3008 204.123 80.7626C203.482 78.3381 202.641 75.9778 201.57 73.7585C202.026 73.3288 202.359 72.8926 202.661 72.5014C203.167 71.8407 203.565 71.3212 204.354 71.3019C204.636 71.2955 204.918 71.3019 205.201 71.3019C206.31 71.3212 207.388 71.3404 208.44 70.6734C208.459 71.0454 208.491 71.411 208.549 71.7638C208.715 72.8541 209.049 73.8547 209.498 74.6308C209.979 75.4646 210.595 76.0483 211.287 76.2343C211.531 76.2985 211.788 76.3177 212.044 76.2792C212.16 76.26 212.269 76.2343 212.384 76.2022H212.378ZM175.247 131.408C177.659 132.722 180.051 134.223 182.437 135.878C184.868 137.559 187.286 139.399 189.704 141.362C190.25 144.261 191.083 146.974 192.18 149.521C193.238 151.984 194.547 154.299 196.073 156.473C193.373 158.718 190.07 161.021 186.369 163.375C183.245 165.363 179.846 167.371 176.293 169.398C177.146 168.423 177.986 167.435 178.813 166.466C183.188 161.329 187.196 156.621 191.269 156.345C191.308 156.345 191.34 156.339 191.378 156.326C191.629 156.249 191.763 155.986 191.693 155.736C190.064 150.444 187.581 145.916 184.387 142.029C181.353 138.328 177.678 135.211 173.496 132.562C174.061 132.196 174.644 131.812 175.247 131.408ZM180.038 127.963C183.771 129.977 187.357 131.671 190.731 132.883C194.092 134.089 197.247 134.813 200.127 134.91C201.942 138.437 204.219 141.324 206.862 143.684C209.543 146.076 212.602 147.924 215.957 149.347C218.978 153.157 221.268 156.999 223.057 160.867C224.378 163.715 225.437 166.576 226.315 169.449C221.909 162.657 216.476 155.98 209.459 149.501C201.615 142.26 191.789 135.256 179.198 128.592C179.474 128.387 179.75 128.181 180.032 127.963H180.038ZM196.997 114.847C209.915 107.631 219.286 100.248 225.822 92.7504C230.529 87.3498 233.775 81.885 235.815 76.3626C235.526 78.1521 235.205 79.8839 234.853 81.5387C234.076 85.169 233.127 88.453 231.902 91.1918C229.484 93.5008 227.271 96.0215 225.251 98.7539C223.256 101.461 221.454 104.373 219.85 107.496C213.783 108.939 207.882 112.012 201.846 115.154C197.619 117.354 193.322 119.593 188.89 121.305C191.994 119.003 194.707 116.95 196.991 114.853L196.997 114.847ZM184.945 124.237C196.644 123.768 206.894 121.536 215.835 117.707C223.442 114.449 230.1 110.03 235.892 104.559C233.871 107.65 231.684 110.626 229.285 113.461C226.02 117.329 222.352 120.927 218.163 124.179C213.635 123.672 209.209 123.647 204.931 124.282C200.659 124.917 196.529 126.219 192.591 128.361C190.833 127.54 189.031 126.918 187.164 126.514C185.676 126.193 184.15 126.02 182.585 126.001C183.387 125.385 184.175 124.795 184.939 124.224L184.945 124.237ZM156.461 124.673V133.486C156.461 133.749 156.249 133.96 155.986 133.96C155.723 133.96 155.511 133.749 155.511 133.486V124.673C155.511 124.41 155.723 124.198 155.986 124.198C156.249 124.198 156.461 124.41 156.461 124.673ZM178.416 121.132C178.91 121.492 178.281 122.229 177.826 121.921C175.869 120.6 174.349 121.62 172.906 122.588C171.867 123.281 170.866 123.954 169.718 123.954C167.813 123.954 166.3 122.819 164.94 121.806C163.959 121.068 163.067 120.401 162.291 120.401C161.438 120.401 160.886 120.478 160.245 120.568C159.334 120.696 158.25 120.85 156.005 120.85H155.96C153.715 120.85 152.638 120.696 151.721 120.568C151.086 120.478 150.528 120.401 149.675 120.401C148.899 120.401 148.007 121.068 147.026 121.806C145.672 122.819 144.152 123.954 142.247 123.954C141.099 123.954 140.098 123.281 139.059 122.588C137.616 121.62 136.096 120.606 134.14 121.921C133.684 122.229 133.056 121.492 133.55 121.132C135.955 119.381 137.815 120.626 139.579 121.806C140.496 122.415 141.381 123.012 142.247 123.012C143.844 123.012 145.223 121.979 146.461 121.055C147.577 120.222 148.591 119.458 149.675 119.458C150.579 119.458 151.169 119.542 151.849 119.638C152.728 119.76 153.773 119.907 155.98 119.907C158.186 119.907 159.231 119.76 160.11 119.638C160.79 119.542 161.38 119.458 162.285 119.458C163.368 119.458 164.382 120.215 165.498 121.055C166.736 121.979 168.115 123.012 169.712 123.012C170.578 123.012 171.463 122.422 172.38 121.806C174.144 120.626 176.004 119.381 178.409 121.132H178.416ZM127.033 124.237C127.796 124.808 128.585 125.398 129.387 126.013C127.822 126.033 126.296 126.206 124.808 126.526C122.947 126.924 121.139 127.553 119.381 128.374C115.443 126.231 111.312 124.929 107.041 124.294C102.763 123.653 98.3369 123.679 93.8087 124.192C89.6203 120.94 85.9515 117.342 82.6868 113.474C80.2879 110.639 78.1072 107.656 76.0804 104.571C81.8658 110.049 88.5235 114.462 96.1369 117.72C105.078 121.549 115.334 123.781 127.027 124.25L127.033 124.237ZM114.981 114.847C117.258 116.944 119.971 118.996 123.082 121.299C118.65 119.587 114.353 117.348 110.126 115.148C104.097 112.005 98.1894 108.933 92.1218 107.49C90.5183 104.373 88.7159 101.454 86.7212 98.7475C84.7072 96.0151 82.4879 93.4944 80.0699 91.1853C78.8448 88.4402 77.8955 85.1626 77.1194 81.5323C76.7667 79.8775 76.446 78.1457 76.1573 76.3562C78.2034 81.8786 81.4425 87.3434 86.1503 92.7439C92.6926 100.248 102.063 107.624 114.975 114.84L114.981 114.847ZM131.94 127.963C132.222 128.175 132.498 128.387 132.774 128.592C120.183 135.262 110.357 142.26 102.512 149.501C95.4955 155.98 90.0629 162.657 85.6565 169.449C86.5416 166.582 87.5935 163.715 88.9148 160.867C90.7107 156.999 93.0005 153.157 96.0151 149.347C99.376 147.924 102.435 146.076 105.11 143.684C107.759 141.324 110.03 138.431 111.845 134.91C114.725 134.813 117.88 134.089 121.241 132.883C124.615 131.677 128.201 129.984 131.933 127.963H131.94ZM136.731 131.408C137.334 131.812 137.911 132.196 138.482 132.562C134.3 135.211 130.625 138.328 127.591 142.029C124.397 145.916 121.915 150.444 120.286 155.736C120.209 155.986 120.35 156.249 120.6 156.326C120.638 156.339 120.67 156.345 120.709 156.345C124.782 156.621 128.791 161.329 133.165 166.466C133.992 167.441 134.833 168.429 135.686 169.398C132.132 167.371 128.733 165.357 125.609 163.375C121.915 161.021 118.612 158.718 115.905 156.473C117.431 154.293 118.74 151.984 119.798 149.521C120.895 146.974 121.729 144.261 122.274 141.362C124.686 139.406 127.11 137.559 129.541 135.878C131.927 134.223 134.326 132.722 136.731 131.408ZM99.5941 76.2022C99.7031 76.2343 99.8186 76.26 99.934 76.2792C100.191 76.3177 100.447 76.3049 100.691 76.2343C101.384 76.0483 101.999 75.4646 102.48 74.6308C102.929 73.8547 103.263 72.8477 103.43 71.7638C103.487 71.411 103.519 71.0454 103.539 70.6734C104.591 71.3468 105.668 71.3276 106.778 71.3019C107.06 71.3019 107.342 71.2891 107.624 71.3019C108.407 71.3212 108.805 71.8407 109.318 72.5014C109.619 72.8926 109.953 73.3288 110.408 73.7585C109.343 75.9778 108.497 78.3381 107.855 80.7626C104.725 80.3008 102.692 79.4926 101.39 78.5113C100.466 77.8122 99.9148 77.0232 99.6005 76.2022H99.5941ZM92.7824 65.4139C92.885 65.6512 92.7824 65.927 92.5451 66.0361C92.3078 66.1387 92.032 66.0361 91.9229 65.7987C90.204 61.9632 87.2343 59.3014 84.7008 57.0308C81.327 54.0034 78.678 51.6302 80.3328 47.9999C80.4419 47.7626 80.7177 47.66 80.955 47.769C81.1923 47.878 81.2949 48.1538 81.1859 48.3911C79.8133 51.3929 82.2378 53.5672 85.3229 56.3317C87.927 58.6664 90.9737 61.3987 92.776 65.4203L92.7824 65.4139ZM105.129 15.59C105.315 15.4104 105.61 15.4104 105.796 15.5964C105.976 15.7824 105.976 16.0774 105.79 16.2634C105.617 16.4302 105.45 16.6034 105.283 16.783C105.104 16.9754 104.95 17.1486 104.809 17.3153C104.642 17.5142 104.347 17.5334 104.148 17.3666C103.949 17.1999 103.93 16.9048 104.097 16.706C104.27 16.5007 104.437 16.3147 104.597 16.1416C104.764 15.962 104.95 15.776 105.136 15.59H105.129ZM101.749 20.3107C101.865 20.0798 102.14 19.9771 102.378 20.0926C102.609 20.208 102.711 20.4838 102.596 20.7212C101.146 23.7101 100.588 26.9812 100.075 29.9958C99.3439 34.2932 98.6961 38.0774 95.7264 40.0465C95.5084 40.1876 95.2197 40.1299 95.0722 39.9118C94.9311 39.6938 94.9888 39.4051 95.2069 39.2576C97.8431 37.513 98.4524 33.9147 99.1451 29.8354C99.6711 26.7567 100.235 23.415 101.743 20.3042L101.749 20.3107ZM77.4016 43.8757C78.4856 43.3497 79.1398 42.7853 79.7299 42.2786C80.6728 41.4704 81.4296 40.8226 83.7579 40.8226C85.8553 40.8226 86.3812 42.0092 86.8366 43.0483C87.2151 43.9142 87.5614 44.7031 88.5299 44.9725C89.755 45.3188 90.5568 44.9789 91.2366 44.6197C92.9043 45.8384 94.0011 47.6407 94.9952 49.2763C95.8034 50.604 96.541 51.8226 97.4967 52.618C98.7731 53.6827 98.4845 55.1258 98.0996 57.0372C97.9264 57.9031 97.734 58.8588 97.6442 59.9363C97.4711 62.0658 98.6256 63.2075 99.8891 64.4454L99.9148 64.471C100.877 65.4139 101.91 66.4273 102.333 67.9987C102.647 69.1853 102.679 70.4617 102.5 71.6291C102.352 72.6104 102.057 73.4955 101.666 74.169C101.313 74.7848 100.89 75.2145 100.447 75.3299C100.325 75.362 100.203 75.3684 100.075 75.3492C99.2349 75.2209 98.4652 74.2588 97.7148 73.3159C96.7976 72.1678 95.8996 71.0454 94.6745 71.0903C93.2891 71.1352 92.667 71.86 92.1538 72.4629C91.9229 72.7323 91.7177 72.9696 91.5317 73.0017C91.1276 73.0658 90.653 72.3474 89.8897 71.1929C89.6331 70.8081 89.3509 70.3783 88.9853 69.8588C87.9527 68.4028 84.2133 63.913 80.8588 59.8786C79.4349 58.1725 78.0815 56.5433 77.0104 55.2349C73.7457 51.2582 75.6378 47.397 77.4081 43.8757H77.4016ZM98.9848 42.3043C99.1387 42.1375 99.3055 41.9643 99.4658 41.7783C100.46 40.6815 101.602 39.2448 102.833 37.404L102.859 37.3719C104.071 35.5503 104.578 32.7859 105.136 29.7392L105.309 28.8028C106.823 29.4249 108.394 29.5596 110.196 29.3159C112.172 29.0529 114.41 28.341 117.149 27.3276C117.88 27.0582 118.464 26.8465 119.073 26.6284C123.865 24.9095 129.708 22.8121 131.286 19.6821C131.645 20.5351 131.818 21.401 131.561 22.2541C131.196 23.4856 129.945 24.7684 127.11 26.1153C121.626 28.7194 116.424 32.3305 111.864 35.4926C106.297 39.3538 101.717 42.5352 98.9848 42.2914V42.3043ZM123.069 10.0867C119.522 10.741 115.546 12.2418 111.627 14.6984C106.316 18.0273 105.181 24.2424 104.206 29.5853C103.667 32.5229 103.186 35.1911 102.07 36.8588L102.051 36.8908C100.845 38.6932 99.7288 40.0914 98.7667 41.1562C97.2209 42.8687 96.0856 43.7089 95.6302 44.004C95.3865 44.1579 94.7772 43.9142 94.1486 43.664C93.5585 43.4267 92.962 43.1894 92.4104 43.1894C91.8588 43.1894 91.4611 43.4203 90.9993 43.6704C90.4221 43.9847 89.7678 44.3439 88.7737 44.0617C88.2413 43.9142 87.9783 43.3177 87.6897 42.6634C87.1189 41.3614 86.4646 39.8734 83.7451 39.8734C81.0256 39.8734 80.1917 40.6238 79.1078 41.5538C78.6395 41.9515 78.1264 42.3941 77.3824 42.8046C76.0291 35.1975 79.6594 27.7445 85.7014 21.6255C89.0431 18.2389 93.1159 15.2628 97.4967 12.8897C101.877 10.5165 106.566 8.74622 111.126 7.7777C118.361 6.23834 125.269 6.71298 130.105 9.99695C128.111 9.58004 125.699 9.59286 123.056 10.0803L123.069 10.0867ZM113.416 76.2215C113.493 75.9713 113.756 75.8366 114.006 75.9072C114.256 75.9842 114.391 76.2471 114.321 76.4973L113.128 80.3457C113.051 80.5958 112.788 80.7305 112.538 80.66C112.287 80.583 112.153 80.32 112.223 80.0699L113.416 76.2215ZM117.258 80.8075C117.393 80.583 117.688 80.5189 117.906 80.6536C118.131 80.7883 118.195 81.0833 118.06 81.3014L117.419 82.3469C117.284 82.5713 116.989 82.6355 116.771 82.5008C116.546 82.3661 116.482 82.0711 116.617 81.853L117.265 80.8075H117.258ZM123.833 82.8407C123.999 82.6419 124.301 82.6162 124.493 82.783C124.692 82.9498 124.718 83.2512 124.551 83.4436L122.312 86.0926C122.146 86.2915 121.844 86.3171 121.652 86.1504C121.453 85.9836 121.427 85.6821 121.594 85.4897L123.833 82.8407ZM126.001 90.7941C125.795 90.9544 125.5 90.9224 125.34 90.7171C125.18 90.5119 125.212 90.2168 125.41 90.0565L125.603 89.9025C125.808 89.7422 126.103 89.7743 126.264 89.9731C126.424 90.1784 126.392 90.4734 126.193 90.6337L126.001 90.7877V90.7941ZM128.65 96.9195C128.406 97.0093 128.136 96.881 128.047 96.6308C127.957 96.3871 128.085 96.1177 128.335 96.0279L131.234 94.9888C131.478 94.899 131.747 95.0273 131.837 95.2775C131.927 95.5212 131.799 95.7906 131.549 95.8804L128.65 96.9195ZM129.701 104.02C129.445 103.994 129.252 103.763 129.278 103.507C129.304 103.25 129.535 103.058 129.791 103.083L130.17 103.122C130.426 103.147 130.619 103.378 130.593 103.635C130.567 103.891 130.336 104.084 130.08 104.058L129.701 104.02ZM132.825 110.043C133.082 110.094 133.242 110.344 133.191 110.601C133.139 110.857 132.889 111.017 132.633 110.966L129.304 110.267C129.047 110.216 128.887 109.966 128.938 109.709C128.989 109.452 129.24 109.292 129.496 109.343L132.825 110.043ZM111.409 84.874C111.159 84.7906 111.03 84.5276 111.107 84.2775C111.191 84.0273 111.454 83.899 111.704 83.976C112.133 84.1171 112.563 84.2775 112.999 84.4571C118.073 86.548 121.985 90.6851 124.121 95.8355C126.251 100.973 126.61 107.111 124.589 113.217C124.391 113.827 124.16 114.449 123.897 115.077C123.801 115.315 123.525 115.43 123.281 115.334C123.044 115.238 122.928 114.962 123.024 114.718C123.268 114.135 123.486 113.532 123.691 112.922C125.635 107.041 125.295 101.133 123.249 96.1947C121.209 91.2751 117.483 87.3177 112.64 85.323C112.249 85.1626 111.838 85.0087 111.409 84.8676V84.874ZM151.945 124.461C152.061 124.23 152.349 124.14 152.58 124.256C152.811 124.371 152.901 124.654 152.785 124.884L150.354 129.624C150.239 129.855 149.95 129.945 149.726 129.83C149.495 129.714 149.405 129.426 149.521 129.201L151.952 124.461H151.945Z" fill="white"></path></g><defs><filter id="filter0_d_1429_31747" x="67" y="0" width="177.99" height="179" filterUnits="userSpaceOnUse" color-interpolation-filters="sRGB"><feFlood flood-opacity="0" result="BackgroundImageFix"></feFlood><feColorMatrix in="SourceAlpha" type="matrix" values="0 0 0 0 0 0 0 0 0 0 0 0 0 0 0 0 0 0 127 0" result="hardAlpha"></feColorMatrix><feOffset></feOffset><feGaussianBlur stdDeviation="3"></feGaussianBlur><feComposite in2="hardAlpha" operator="out"></feComposite><feColorMatrix type="matrix" values="0 0 0 0 1 0 0 0 0 1 0 0 0 0 1 0 0 0 1 0"></feColorMatrix><feBlend mode="normal" in2="BackgroundImageFix" result="effect1_dropShadow_1429_31747"></feBlend><feBlend mode="normal" in="SourceGraphic" in2="effect1_dropShadow_1429_31747" result="shape"></feBlend></filter></defs></svg>