<svg xmlns="http://www.w3.org/2000/svg"  xmlns:xlink="http://www.w3.org/1999/xlink"  width="311" height="179" viewBox="0 0 311 179" fill="none"><g filter="url(#filter0_d_1429_31784)"><path fill-rule="evenodd" clip-rule="evenodd" d="M104.132 155.757C104.132 155.757 104.08 155.719 104.054 155.693C103.366 155.12 102.638 154.676 101.93 154.373C101.042 155.062 100.057 155.699 98.7895 156.169C97.4251 156.684 95.7388 157.006 93.5182 157.006C92.5721 157.006 91.729 156.497 91.0532 155.609C90.21 154.496 89.6179 152.745 89.4441 150.647C89.2767 148.587 89.502 146.174 90.2744 143.676C91.8512 138.598 95.6937 133.179 103.083 129.723C105.258 128.706 107.395 127.753 109.48 126.833C119.064 122.578 127.302 118.923 133.404 110.974C138.43 104.428 140.432 96.917 140.175 89.8242C139.885 81.9076 136.77 74.5123 131.904 69.5757C131.724 69.3891 131.724 69.093 131.904 68.9064C132.091 68.7261 132.387 68.7261 132.573 68.9064C137.6 74.0039 140.818 81.6244 141.114 89.7856C141.385 97.0779 139.325 104.808 134.15 111.54C130.121 116.792 125.21 120.197 119.624 123.113C120.338 125.552 120.319 127.727 119.907 129.658C119.489 131.621 118.671 133.327 117.809 134.814C118.047 138.283 118.974 146.92 123.749 154.721C128.474 162.438 137.002 169.357 152.423 169.64C152.03 169.061 151.734 168.43 151.528 167.78C151.11 166.435 151.084 164.987 151.4 163.655C151.689 162.425 152.268 161.286 153.086 160.404C151.361 159.928 148.548 158.576 147.943 153.672C147.943 153.627 147.943 153.582 147.943 153.537C147.988 153.279 148.226 153.106 148.484 153.151C148.992 153.234 149.501 153.279 150.009 153.279C154.135 153.279 157.997 150.499 160.99 146.811C164.015 143.084 166.139 138.437 166.763 134.762C166.885 134.041 166.95 133.359 166.95 132.722C166.95 132.458 167.162 132.246 167.426 132.246C167.69 132.246 167.902 132.458 167.902 132.722C167.902 133.404 167.831 134.138 167.703 134.917C167.053 138.74 164.858 143.554 161.73 147.409C158.576 151.303 154.463 154.232 150.016 154.232C149.668 154.232 149.321 154.213 148.973 154.174C149.797 158.814 152.97 159.452 154.135 159.683H154.154C154.412 159.735 154.579 159.986 154.528 160.243C154.502 160.359 154.444 160.456 154.354 160.527C153.337 161.318 152.629 162.528 152.313 163.873C152.037 165.051 152.056 166.326 152.423 167.503C152.79 168.675 153.498 169.763 154.598 170.567C155.802 171.449 157.488 172.009 159.715 172.009H203.405C203.475 172.009 203.54 172.009 203.598 171.996C204.016 171.951 204.376 171.745 204.64 171.449C204.904 171.153 205.059 170.76 205.059 170.335C205.059 170.265 205.059 170.2 205.046 170.142C204.866 168.559 204.505 166.866 203.939 165.148C203.417 163.571 202.722 161.975 201.841 160.436C201.712 160.211 201.789 159.922 202.014 159.793C202.24 159.664 202.529 159.741 202.658 159.967C203.578 161.563 204.293 163.217 204.833 164.852C205.419 166.628 205.792 168.392 205.979 170.039C205.992 170.142 205.998 170.245 205.998 170.342C205.998 170.973 205.78 171.552 205.4 172.009C206.462 172.009 207.286 172.009 207.949 172.009H208.978H209.062C209.455 171.996 209.77 171.88 210.008 171.687C210.594 171.224 210.845 170.265 210.851 169.022C210.858 167.69 210.575 166.055 210.111 164.363C208.985 160.263 206.803 155.835 205.02 154.245C203.855 155.107 202.478 155.841 200.888 156.349C199.337 156.851 197.599 157.147 195.681 157.147C190.403 157.147 185.357 156.71 181.29 155.719C177.621 154.824 174.731 153.472 173.154 151.58C172.987 151.381 173.013 151.085 173.212 150.917C173.412 150.75 173.708 150.776 173.875 150.975C175.317 152.7 178.026 153.955 181.508 154.798C183.465 155.275 185.66 155.622 188.003 155.847C188.537 155.416 189.065 154.843 189.528 154.238C189.985 153.646 190.378 153.022 190.667 152.468C189.65 152.127 188.646 151.644 187.745 150.988C185.724 149.521 184.192 147.191 184.076 143.638C184.064 143.252 184.07 142.859 184.089 142.454C184.218 140.072 185.126 138.122 186.496 136.429C184.849 136.622 183.446 137.105 182.274 137.864C180.858 138.791 179.777 140.136 179.018 141.894L178.998 141.926V141.932V141.939C178.908 142.074 178.754 142.164 178.586 142.157C178.438 142.157 178.31 142.08 178.226 141.971C176.7 140.162 176.05 137.935 176.173 135.592C176.205 134.975 176.295 134.344 176.43 133.713C175.452 131.737 175.13 129.433 175.561 127.251C175.922 125.449 176.797 123.737 178.258 122.372C176.482 121.812 174.744 121.162 173.051 120.532C168.198 118.729 163.757 117.075 160.166 118.105H160.159C160.011 118.131 159.85 118.079 159.734 117.957C159.619 117.828 159.58 117.648 159.632 117.494C161.401 110.24 165.843 107.704 171.062 106.7C156.89 97.3739 152.983 84.8747 148.535 70.6635C147.415 67.0913 146.263 63.4034 144.925 59.6768C138.585 42.0865 126.33 37.9866 116.232 34.614C115.505 34.3694 114.784 34.1312 114.192 33.9253C108.843 32.0974 105.007 29.5164 102.201 26.5429C99.3945 23.5629 97.631 20.1967 96.421 16.8048C96.3373 16.5603 96.466 16.2899 96.7106 16.1998C96.9552 16.1162 97.2255 16.2449 97.3156 16.4895C97.6181 17.3326 97.9528 18.1758 98.3326 19.0125C99.6713 17.1524 101.28 16.0904 103.179 15.4854C105.264 14.8225 107.672 14.7259 110.439 14.7259C120.724 14.7259 130.45 20.1131 141.282 26.1117C154.766 33.5777 169.968 42.0028 189.998 42.0028C196.44 42.0028 200.894 39.557 203.54 36.3582C204.544 35.1417 205.284 33.8223 205.779 32.4836C206.269 31.1513 206.507 29.7996 206.507 28.5317C206.507 27.1865 206.236 25.9315 205.709 24.8823C205.767 25.3264 205.799 25.7899 205.799 26.2597C205.799 28.2614 205.245 30.5012 204.016 32.5608C202.793 34.614 200.894 36.4869 198.21 37.7677C195.984 38.8297 193.209 39.4798 189.824 39.4798C174.255 39.4798 158.685 30.7715 143.715 22.4044C129.941 14.771 116.702 7.36928 104.569 7.36928C100.334 7.36928 96.9616 8.48919 94.4129 10.3106C91.8255 12.1643 90.0877 14.7452 89.1738 17.6158C88.2598 20.4992 88.1761 23.6723 88.897 26.6974C89.6951 30.0507 91.4844 33.2173 94.2327 35.5794C96.1378 34.6461 97.8177 34.0476 99.0663 33.7579C99.3173 33.7 99.5748 33.8545 99.6327 34.1119C99.6906 34.3694 99.5361 34.6204 99.2787 34.6783C98.1974 34.9293 96.7943 35.4121 95.2045 36.1587C94.606 36.4354 94.0074 36.7444 93.4281 37.0533C89.4763 39.203 84.7907 42.7816 81.0576 48.143C77.2602 53.5945 74.4669 60.8803 74.4669 70.3674C74.4669 78.3741 77.4791 84.1474 80.3947 89.7277C83.2524 95.2049 86.02 100.502 85.8591 107.556C85.7625 111.798 84.25 114.05 82.5058 114.977C81.5597 115.479 80.5427 115.589 79.6417 115.408C78.7406 115.235 77.9425 114.765 77.4147 114.121L77.389 114.089C76.9063 113.477 76.6617 112.718 76.784 111.888C76.1275 112.325 75.6512 112.853 75.3551 113.452C74.9239 114.333 74.8595 115.415 75.162 116.689C75.1685 116.715 75.1749 116.747 75.1813 116.779C75.2135 117.037 75.0269 117.275 74.763 117.301C73.4307 117.455 72.3687 117.848 71.5706 118.466C70.9591 118.942 70.4893 119.566 70.1675 120.319C71.6028 120.281 72.5039 120.763 73.0767 121.857C73.6817 123.01 73.8426 124.85 73.8619 127.521C73.8941 131.892 73.9263 137.626 73.9005 143.535C73.8748 149.456 73.7975 155.551 73.6045 160.623C73.4178 165.547 74.4927 168.405 76.0695 170.026C77.6142 171.616 79.6803 172.015 81.4824 172.015H104.396C105.187 172.015 105.927 171.05 106.507 169.608C107.189 167.909 107.607 165.598 107.607 163.339C107.607 161.08 106.957 159.342 105.992 157.862C105.451 157.038 104.814 156.33 104.132 155.751V155.757ZM102.452 131.094C102.786 130.92 103.134 130.746 103.488 130.585C105.689 129.555 107.807 128.616 109.866 127.702C112.988 126.318 115.968 124.992 118.781 123.57C119.392 125.771 119.366 127.734 118.999 129.484C118.594 131.383 117.783 133.044 116.933 134.485C116.882 134.569 116.863 134.666 116.869 134.756C116.927 135.612 117.023 136.809 117.217 138.251C116.213 139.525 115.189 140.87 114.404 142.318C113.587 143.824 113.033 145.427 113.033 147.152C113.033 148.33 113.316 149.501 113.825 150.557C114.34 151.612 115.08 152.558 116.007 153.292C116.933 154.019 118.021 154.528 119.173 154.779C120.325 155.03 121.529 155.036 122.668 154.766C122.765 154.927 122.855 155.081 122.951 155.242C125.828 159.934 130.057 164.337 136.287 167.22C136.68 168.063 138.424 172.028 136.5 172.028H112.055C112.898 171.23 113.413 169.988 113.638 168.482C113.889 166.795 113.76 164.762 113.297 162.663C112.505 159.111 110.716 155.365 108.083 152.848C107.916 152.681 107.652 152.661 107.459 152.803C107.137 153.048 106.867 153.273 106.629 153.472C106.024 153.974 105.586 154.341 104.486 154.824C103.688 154.187 102.844 153.704 102.027 153.402C101.879 153.344 101.705 153.369 101.57 153.472C100.997 153.929 100.386 154.367 99.6777 154.747C99.0727 151.13 100.038 146.965 101.01 142.788C101.943 138.772 102.883 134.743 102.458 131.094H102.452ZM98.7831 155.165C98.6801 155.21 98.5707 155.249 98.4613 155.294C97.1998 155.77 95.6229 156.066 93.5182 156.066C92.8875 156.066 92.3018 155.693 91.8126 155.043C91.0725 154.065 90.5511 152.494 90.3967 150.576C90.2358 148.626 90.4481 146.335 91.1883 143.96C92.5528 139.564 95.7066 134.891 101.557 131.583C101.86 134.975 100.971 138.778 100.09 142.576C99.0727 146.94 98.0622 151.297 98.7895 155.165H98.7831ZM137.542 167.754C138.244 169.569 139.196 172.961 136.5 172.961H81.4889C79.4808 172.961 77.1701 172.498 75.4002 170.683C73.6624 168.9 72.4652 165.811 72.6648 160.591C72.8578 155.513 72.9351 149.437 72.9608 143.535C72.9866 137.626 72.9544 131.892 72.9222 127.528C72.9029 124.998 72.7613 123.286 72.24 122.295C71.783 121.426 70.9591 121.13 69.5303 121.31C69.2728 121.343 69.0347 121.162 69.0025 120.905C68.9961 120.841 69.0025 120.77 69.0154 120.712C69.3887 119.463 70.0388 118.459 70.9849 117.719C71.8152 117.075 72.8578 116.644 74.1387 116.432C73.907 115.138 74.0228 114.005 74.4991 113.04C75.0333 111.946 76.0116 111.083 77.4405 110.459C77.6786 110.356 77.9554 110.459 78.0648 110.703C78.1291 110.845 78.1163 111 78.039 111.128C77.5113 112.049 77.64 112.898 78.1227 113.51L78.142 113.535C78.5282 114.012 79.1268 114.353 79.8154 114.488C80.5234 114.63 81.3215 114.539 82.0617 114.147C83.542 113.368 84.8229 111.373 84.913 107.543C85.0739 100.727 82.3642 95.5396 79.558 90.1718C76.5909 84.4886 73.5208 78.6058 73.5208 70.3803C73.5208 60.6744 76.3914 53.2083 80.2853 47.6152C84.2114 41.977 89.1931 38.2505 93.3316 36.0557C90.5897 33.5842 88.794 30.3467 87.9831 26.9291C87.2236 23.7431 87.3137 20.3898 88.2856 17.3455C89.2574 14.2883 91.1111 11.5335 93.8787 9.55761C96.5755 7.62673 100.141 6.44246 104.582 6.44246C116.953 6.44246 130.295 13.9021 144.159 21.6513C159.02 29.9606 174.48 38.6044 189.811 38.6044C193.042 38.6044 195.681 37.9866 197.792 36.9825C200.296 35.7918 202.053 34.054 203.192 32.1489C204.325 30.2502 204.84 28.1841 204.84 26.3369V26.2983C200.888 26.3627 199.247 23.5114 197.618 20.6795C196.17 18.1564 194.728 15.6527 191.549 15.6527C191.452 15.6527 191.356 15.6206 191.272 15.5626C191.06 15.4082 191.015 15.1121 191.169 14.8997C191.42 14.5586 191.98 14.1338 192.759 13.8892C192.926 13.8377 193.107 13.7927 193.293 13.754C192.695 13.1812 192.096 12.4024 191.639 11.5078C190.86 9.97596 190.481 8.10301 191.221 6.34591L191.246 6.28798C191.279 6.20431 191.337 6.13351 191.42 6.08202C191.639 5.93399 191.929 5.99192 192.077 6.21075C192.392 6.6806 192.669 7.0539 192.92 7.3564C193.164 7.64604 193.39 7.85843 193.615 8.03221C194.78 8.90111 196.543 9.33234 198.449 9.80218H198.487C200.914 10.4072 203.52 11.2632 205.638 12.6985C207.8 14.166 209.435 16.2191 209.828 19.1798C209.995 20.4156 209.841 21.6642 209.287 22.8614C208.824 23.8654 208.084 24.818 207.015 25.6869C207.305 26.5879 207.447 27.5727 207.447 28.6025C207.447 29.9799 207.189 31.4345 206.655 32.8762C206.127 34.3115 205.329 35.7274 204.254 37.0276C201.448 40.4195 196.749 43.0197 189.985 43.0197C169.717 43.0197 154.392 34.5303 140.812 27.0063C130.096 21.0721 120.473 15.7429 110.426 15.7429C107.736 15.7429 105.406 15.833 103.449 16.4573C101.602 17.043 100.051 18.1178 98.7895 20.068C99.8258 22.1341 101.145 24.1293 102.883 25.9701C105.586 28.8406 109.3 31.3315 114.488 33.1079C115.228 33.3589 115.871 33.5777 116.528 33.7966C126.826 37.24 139.312 41.4107 145.813 59.4386C147.177 63.236 148.329 66.8982 149.443 70.4575C153.923 84.7846 157.855 97.3482 172.453 106.546C173.489 106.398 174.544 106.301 175.606 106.23C171.983 104.267 169.363 101.693 167.915 98.7642C166.261 95.4302 166.126 91.6457 167.728 87.8032V87.7903V87.7775V87.771V87.7646C167.825 87.5779 168.031 87.4685 168.25 87.5136C168.481 87.5651 168.636 87.771 168.623 87.9963C168.649 89.187 168.874 90.1718 169.254 90.9634C170.11 92.7527 171.822 93.628 173.933 93.8919C176.134 94.1687 178.773 93.8018 181.38 93.126C185.879 91.9546 190.242 89.8886 192.148 88.6271C191.452 87.9255 190.86 87.224 190.358 86.5288C188.633 84.1088 188.054 81.7145 188.35 79.4618C188.646 77.2156 189.805 75.1302 191.555 73.2895C192.341 72.4656 193.248 71.6868 194.246 70.9724C194.317 70.9145 194.407 70.8759 194.51 70.8694C194.767 70.8501 194.999 71.0432 195.018 71.3007C195.855 81.116 205.277 81.7853 212.402 82.2873C214.829 82.4611 216.998 82.6156 218.543 83.0919C219.077 83.2592 219.572 83.4587 220.036 83.6905C222.301 84.8104 223.679 86.5932 224.361 88.5176C225.037 90.4357 225.024 92.4888 224.503 94.1558C224.445 94.3425 224.38 94.5227 224.31 94.7029C224.799 94.9089 225.256 95.2049 225.687 95.5782C226.144 95.9773 226.575 96.4729 226.981 97.0457C229.832 95.4881 231.84 96.0545 233.771 96.5952C234.994 96.9363 236.178 97.271 237.504 96.9556C237.748 96.7754 238.115 96.6145 238.534 96.5372C238.92 96.4664 239.37 96.4536 239.834 96.5372C240.117 96.5952 240.374 96.7239 240.593 96.9041C240.812 97.0843 240.986 97.3225 241.095 97.5863C241.411 98.3201 241.559 99.1697 241.546 100.167C241.533 101.101 241.378 102.163 241.082 103.392C241.61 104.647 241.893 105.857 241.958 106.996C242.061 108.863 241.572 110.53 240.645 111.888C240.098 112.692 239.39 113.381 238.566 113.941C238.45 116.219 238.012 118.009 237.259 119.251C236.448 120.577 235.277 121.278 233.739 121.278C233.668 121.278 233.597 121.259 233.526 121.227C233.295 121.111 233.198 120.828 233.314 120.596C233.674 119.882 233.964 118.955 234.067 117.918C234.144 117.159 234.125 116.342 233.964 115.498C232.863 115.589 231.685 115.524 230.469 115.286C227.051 118.556 225.172 121.806 224.329 124.786C225.61 124.22 226.923 124.129 228.184 124.471C229.774 124.902 231.274 126.015 232.522 127.727C233.23 128.699 234.17 129.169 235.052 129.317C235.586 129.407 236.107 129.375 236.538 129.266C236.937 129.163 237.253 129.002 237.427 128.809C237.497 128.725 237.542 128.641 237.536 128.571C237.51 128.332 237.665 128.114 237.903 128.056C238.154 127.998 238.411 128.159 238.469 128.41C238.54 128.712 238.572 129.015 238.572 129.298C238.572 130.386 238.122 131.37 237.375 132.143C236.648 132.896 235.644 133.456 234.517 133.713C234.067 133.816 233.597 133.868 233.127 133.868C231.982 133.868 231.126 133.32 230.25 132.767C228.866 131.885 227.418 130.965 224.522 132.934C224.792 133.668 225.127 134.331 225.494 134.917C225.893 134.955 226.369 134.923 226.845 134.762C227.277 134.614 227.708 134.363 228.1 133.958C228.146 133.906 228.203 133.861 228.274 133.829C228.512 133.726 228.796 133.835 228.899 134.08C229.253 134.897 229.246 135.74 229.008 136.577C228.815 137.253 228.474 137.916 228.049 138.547C228.384 138.881 228.738 139.293 228.95 139.737C229.278 140.426 229.298 141.166 228.557 141.855C228.075 142.305 227.019 142.608 225.706 142.981C223.589 143.586 220.731 144.404 218.967 146.167C217.519 147.615 215.852 148.42 214.224 148.71C212.37 149.038 210.562 148.703 209.178 147.879C209.03 147.789 208.933 147.628 208.946 147.448C208.959 147.191 209.184 146.991 209.448 147.004C210.922 147.094 211.868 146.727 212.39 146.116C212.711 145.736 212.879 145.253 212.911 144.719C212.943 144.153 212.834 143.528 212.596 142.904C212.01 141.372 210.677 139.879 208.946 139.242C208.328 140.304 206.339 143.535 204.75 144.005H204.737C202.31 144.674 199.659 146.187 197.856 147.982C197.689 148.15 197.528 148.317 197.374 148.491C197.805 149.887 198.571 151.271 199.575 152.385C200.489 153.402 201.602 154.2 202.825 154.573C203.533 154.2 204.183 153.775 204.763 153.318C204.936 153.183 205.168 153.189 205.335 153.311C205.915 153.743 206.539 154.464 207.157 155.384C208.451 154.663 209.661 153.208 209.667 153.202C209.834 153.003 210.13 152.977 210.33 153.138C211.096 153.665 211.83 154.451 212.512 155.41C214.308 155.281 216.097 155.017 217.822 154.644C219.675 154.238 221.445 153.704 223.054 153.067C223.235 152.996 223.434 153.048 223.563 153.176C225.648 155.133 228.158 159.922 229.394 164.234C229.909 166.036 230.205 167.767 230.166 169.196C230.121 170.728 229.69 171.925 228.725 172.556C228.281 172.846 227.734 173 227.077 173H227.026C226.35 172.981 224.657 172.981 222.655 172.981C222.636 172.981 222.61 172.981 222.591 172.981C222.578 172.981 222.565 172.981 222.552 172.981C221.336 172.981 220.017 172.981 218.736 172.987L214.404 173H207.974C206.957 173 205.574 172.994 203.527 173H203.43H159.741C157.295 173 155.429 172.369 154.064 171.372C153.755 171.146 153.478 170.902 153.221 170.644C146.984 170.619 141.822 169.55 137.549 167.787L137.542 167.754ZM222.552 172.002H222.591C222.591 172.002 222.649 171.99 222.681 171.97C222.855 171.848 222.997 171.526 223.099 171.056C223.222 170.509 223.286 169.795 223.286 168.977C223.286 165.759 222.321 161.054 220.506 158.473C220.358 158.261 220.409 157.965 220.622 157.817C220.834 157.669 221.13 157.72 221.278 157.933C223.209 160.675 224.232 165.611 224.232 168.977C224.232 169.859 224.161 170.644 224.02 171.262C223.956 171.539 223.878 171.784 223.782 171.996C225.288 171.996 226.504 171.996 227.051 172.015H227.077C227.547 172.015 227.92 171.912 228.21 171.726C228.879 171.288 229.188 170.355 229.22 169.132C229.259 167.812 228.976 166.178 228.48 164.459C227.322 160.424 225.043 155.989 223.112 154.026C221.529 154.631 219.811 155.146 218.015 155.538C216.425 155.886 214.771 156.143 213.104 156.285C214.468 158.493 215.569 161.344 216.213 164.041C216.644 165.856 216.876 167.613 216.843 169.067C216.811 170.303 216.586 171.333 216.129 172.028C217.114 172.028 217.918 172.028 218.736 172.028C220.017 172.028 221.336 172.022 222.552 172.022V172.002ZM211.038 172.015C211.579 171.314 211.817 170.277 211.823 169.035C211.83 167.613 211.54 165.894 211.051 164.124C210.278 161.312 209.004 158.338 207.678 156.143C208.702 155.551 209.648 154.605 210.105 154.103C212.383 155.918 214.346 160.243 215.299 164.24C215.717 165.991 215.936 167.664 215.904 169.029C215.872 170.31 215.627 171.288 215.125 171.745C214.938 171.912 214.707 172.009 214.417 172.009H211.038V172.015ZM201.647 155.094C201.319 155.229 200.978 155.352 200.63 155.468C199.176 155.937 197.535 156.214 195.713 156.214C193.518 156.214 191.369 156.137 189.322 155.976C189.676 155.622 190.011 155.229 190.32 154.824C190.854 154.129 191.311 153.395 191.626 152.752C192.553 152.99 193.467 153.118 194.31 153.163C194.677 153.183 195.037 153.189 195.385 153.176C195.481 153.176 195.584 153.151 195.675 153.086C195.842 152.964 195.906 152.752 195.842 152.558C195.591 151.535 195.945 150.422 196.685 149.34C197.174 150.653 197.934 151.928 198.88 152.983C199.678 153.871 200.611 154.605 201.647 155.088V155.094ZM117.403 139.538C118.034 143.483 119.347 148.787 122.172 153.891C121.246 154.071 120.287 154.052 119.373 153.846C118.362 153.62 117.397 153.176 116.592 152.539C115.781 151.902 115.131 151.065 114.674 150.132C114.224 149.199 113.973 148.169 113.973 147.139C113.973 145.594 114.481 144.133 115.228 142.756C115.833 141.643 116.605 140.568 117.403 139.531V139.538ZM206.636 24.7407C206.217 23.8332 205.625 23.0416 204.878 22.4237C204.679 22.2563 204.376 22.2885 204.215 22.4881C204.093 22.6361 204.074 22.8292 204.151 22.9901C204.473 23.6659 204.685 24.464 204.775 25.3329C201.39 25.3522 199.903 22.7648 198.423 20.1903C197.039 17.7896 195.668 15.4017 192.888 14.8225L193.029 14.7774C193.473 14.6358 194.02 14.565 194.632 14.6358C194.831 14.6616 195.037 14.5521 195.121 14.3526C195.224 14.1145 195.115 13.8377 194.876 13.7347L194.851 13.7219C194.136 13.4129 193.139 12.3896 192.469 11.0637C191.922 9.98883 191.6 8.72733 191.839 7.51087C191.961 7.67178 192.077 7.81981 192.193 7.95498C192.482 8.2961 192.759 8.55998 193.042 8.77238C194.355 9.75069 196.209 10.2077 198.21 10.6968L198.268 10.7097C200.598 11.2825 203.096 12.1064 205.091 13.458C207.041 14.7838 208.521 16.6311 208.875 19.2828C209.017 20.3448 208.882 21.4196 208.412 22.443C208.039 23.2475 207.459 24.0199 206.642 24.7343L206.636 24.7407ZM95.507 42.1251C95.7323 41.9964 96.0219 42.0672 96.1507 42.2924C96.2794 42.5177 96.2086 42.8073 95.9833 42.9361C92.1473 45.1823 88.9549 47.7826 86.5156 50.814C84.0891 53.8326 82.4093 57.276 81.6047 61.215C81.5532 61.4725 81.3022 61.6334 81.0512 61.5819C80.8002 61.5304 80.6328 61.2794 80.6843 61.0284C81.5211 56.9349 83.2653 53.3564 85.7819 50.2219C88.292 47.1003 91.5745 44.4228 95.507 42.1251ZM80.1244 65.862C80.1308 65.6046 80.3497 65.3986 80.6135 65.405C80.8774 65.4115 81.077 65.6303 81.0705 65.8942C81.0641 66.1452 81.0576 66.3898 81.0576 66.6344C81.0576 66.8789 81.0576 67.13 81.0576 67.3874C81.0576 67.6449 80.8517 67.8637 80.5942 67.8637C80.3368 67.8637 80.1179 67.6577 80.1179 67.4003C80.1179 67.1428 80.1179 66.8854 80.1179 66.6279C80.1179 66.364 80.1244 66.1066 80.1308 65.862H80.1244ZM87.8994 93.7439C87.7578 93.5251 87.8222 93.2354 88.041 93.0938C88.2598 92.9522 88.5494 93.0166 88.691 93.2354C90.2615 95.6941 91.2334 98.2557 91.6002 100.914C91.9671 103.566 91.7225 106.314 90.8794 109.152C90.8086 109.403 90.5447 109.545 90.2937 109.474C90.0427 109.403 89.9011 109.139 89.9719 108.888C90.7764 106.179 91.0081 103.566 90.6605 101.043C90.313 98.526 89.3926 96.0931 87.893 93.7439H87.8994ZM88.4143 112.86C88.5301 112.628 88.8069 112.525 89.045 112.641C89.2767 112.757 89.3797 113.033 89.2639 113.272L88.9936 113.812L88.7104 114.359C88.5881 114.591 88.3049 114.675 88.0732 114.552C87.8415 114.43 87.7578 114.147 87.8801 113.915L88.1568 113.387L88.4207 112.86H88.4143ZM133.565 85.4089C133.532 85.1515 133.719 84.9133 133.983 84.8876C134.24 84.8554 134.479 85.0421 134.504 85.306C135.425 93.2225 134.189 100.219 130.585 106.185C126.987 112.145 121.033 117.069 112.525 120.873C112.286 120.976 112.01 120.873 111.9 120.635C111.797 120.396 111.9 120.12 112.138 120.01C120.467 116.29 126.272 111.495 129.774 105.696C133.269 99.9098 134.459 93.1196 133.565 85.4089ZM107.15 121.999C107.395 121.915 107.665 122.044 107.755 122.289C107.839 122.533 107.71 122.804 107.466 122.894L106.178 123.338C105.934 123.421 105.663 123.286 105.58 123.042C105.496 122.797 105.631 122.527 105.876 122.443L106.519 122.224L107.15 121.999ZM142.814 110.021C142.794 109.764 142.987 109.532 143.245 109.513C143.502 109.493 143.734 109.687 143.753 109.944C144.287 116.754 140.065 121.252 135.714 125.88C133.346 128.403 130.939 130.965 129.297 133.938C129.175 134.17 128.885 134.247 128.654 134.125C128.422 133.996 128.338 133.713 128.467 133.481C130.16 130.405 132.612 127.798 135.026 125.23C139.229 120.757 143.309 116.406 142.807 110.015L142.814 110.021ZM126.388 139.911C126.414 139.654 126.652 139.467 126.91 139.493C127.167 139.519 127.354 139.757 127.328 140.014C127.276 140.51 127.238 141.005 127.231 141.514C127.225 142.016 127.238 142.544 127.283 143.097C127.302 143.355 127.109 143.586 126.845 143.606C126.588 143.625 126.356 143.432 126.337 143.168C126.292 142.608 126.279 142.054 126.285 141.501C126.292 140.954 126.33 140.42 126.382 139.911H126.388ZM81.019 159.085C80.8452 159.278 80.5427 159.284 80.3561 159.111C80.163 158.937 80.1566 158.634 80.3303 158.448C81.4567 157.231 82.4801 156.485 83.6193 156.105C84.7649 155.725 85.9943 155.719 87.5196 155.989C87.7771 156.034 87.9509 156.279 87.9058 156.536C87.8608 156.794 87.6162 156.967 87.3587 156.922C85.9814 156.678 84.8937 156.678 83.9153 156.999C82.937 157.328 82.0295 157.991 81.019 159.091V159.085ZM209.905 121.439C209.68 121.31 209.603 121.021 209.738 120.796C209.867 120.57 210.156 120.493 210.381 120.628C212.164 121.677 214.031 122.179 215.788 122.089C217.468 121.999 219.051 121.368 220.351 120.145C220.544 119.965 220.84 119.978 221.021 120.165C221.201 120.351 221.188 120.654 221.001 120.834C219.534 122.218 217.745 122.932 215.839 123.035C213.902 123.138 211.855 122.591 209.912 121.446L209.905 121.439ZM217.075 101.628C216.972 101.622 216.863 101.648 216.766 101.712C216.554 101.86 216.502 102.156 216.65 102.368C217.384 103.411 218.324 104.171 219.238 104.505C219.798 104.711 220.358 104.769 220.866 104.647C221.394 104.518 221.864 104.203 222.211 103.675C222.623 103.057 222.868 102.13 222.855 100.856C222.855 100.759 222.836 100.663 222.778 100.579C222.636 100.36 222.346 100.296 222.128 100.438C221.432 100.882 220.609 101.184 219.791 101.377C218.761 101.622 217.764 101.686 217.062 101.628H217.075ZM220.017 102.304C219.328 102.465 218.652 102.555 218.047 102.587C218.53 103.083 219.058 103.443 219.566 103.636C219.952 103.778 220.325 103.823 220.647 103.746C220.95 103.675 221.22 103.488 221.432 103.173C221.664 102.825 221.825 102.33 221.889 101.667C221.291 101.95 220.647 102.163 220.017 102.311V102.304ZM205.586 99.7167C205.651 99.9678 205.496 100.225 205.245 100.29C204.994 100.354 204.737 100.199 204.672 99.9485C204.28 98.3909 204.666 97.1422 205.445 96.2733C205.87 95.8035 206.41 95.4495 207.009 95.2307C207.601 95.0183 208.245 94.9346 208.882 94.9925C210.163 95.1148 211.411 95.8228 212.139 97.213C212.261 97.4447 212.171 97.7279 211.939 97.8502C211.707 97.9725 211.424 97.8824 211.302 97.6507C210.735 96.5759 209.776 96.0288 208.785 95.9322C208.29 95.8807 207.781 95.9515 207.324 96.1189C206.874 96.2862 206.462 96.5501 206.14 96.9041C205.561 97.5477 205.277 98.5067 205.58 99.7167H205.586ZM203.083 101.448C203.186 101.686 203.076 101.963 202.832 102.066C202.594 102.169 202.317 102.06 202.214 101.815C200.489 97.7923 201.293 94.645 203.211 92.6176C203.971 91.813 204.898 91.1887 205.915 90.7639C206.925 90.3391 208.019 90.1074 209.113 90.0817C211.984 90.0109 214.842 91.356 216.123 94.3746C216.226 94.6128 216.116 94.8895 215.872 94.9925C215.633 95.0955 215.357 94.9861 215.254 94.7415C214.14 92.1284 211.649 90.9634 209.133 91.0214C208.161 91.0471 207.183 91.2531 206.275 91.6328C205.374 92.0125 204.557 92.5532 203.894 93.2547C202.22 95.0247 201.532 97.818 203.083 101.435V101.448ZM193.499 83.2592C193.409 83.0146 193.538 82.7443 193.782 82.6542C194.027 82.5641 194.297 82.6928 194.387 82.9374C194.664 83.7098 195.063 84.3984 195.584 84.9906C196.106 85.5891 196.749 86.0976 197.515 86.516C197.741 86.6447 197.824 86.9279 197.702 87.1596C197.58 87.3913 197.29 87.4685 197.058 87.3463C196.196 86.87 195.469 86.2971 194.876 85.6149C194.284 84.9326 193.827 84.1474 193.506 83.2592H193.499ZM178.239 140.375C177.396 138.971 177.048 137.356 177.132 135.67C177.248 133.43 178.142 131.055 179.687 128.886C179.835 128.673 179.79 128.377 179.577 128.229C179.365 128.081 179.069 128.126 178.921 128.339C178.02 129.607 177.325 130.945 176.861 132.291C176.327 130.759 176.192 129.073 176.514 127.47C176.868 125.687 177.788 124.007 179.346 122.733C186.175 124.741 193.486 125.224 200.54 118.485C200.727 118.305 200.74 118.009 200.56 117.816C200.379 117.629 200.083 117.622 199.89 117.796C191.053 126.241 181.637 122.739 173.412 119.682C169.241 118.131 165.36 116.689 161.936 116.902C165.624 114.784 170.38 115.73 175.484 116.747C182.287 118.099 189.67 119.566 196.228 114.346C196.434 114.185 196.466 113.889 196.305 113.683C196.144 113.477 195.848 113.445 195.642 113.606C189.425 118.556 182.261 117.127 175.664 115.82C170.123 114.72 164.967 113.696 160.919 116.419C163.757 107.666 171.513 107.312 179.005 106.97C184.089 106.739 189.065 106.513 192.489 103.772C192.695 103.611 192.727 103.308 192.559 103.109C192.399 102.903 192.096 102.871 191.896 103.038C188.711 105.587 183.896 105.805 178.966 106.031C178.47 106.05 177.981 106.076 177.486 106.102C173.283 104.158 170.303 101.448 168.758 98.3265C167.831 96.4536 167.419 94.4197 167.574 92.315C167.947 94.3296 168.958 95.9451 170.354 97.2195C172.253 98.9444 174.873 100.026 177.602 100.611C178.857 100.882 180.144 101.049 181.393 101.12C181.65 101.133 181.875 100.94 181.895 100.676C181.907 100.418 181.714 100.193 181.45 100.174C180.253 100.103 179.011 99.942 177.801 99.6846C175.227 99.131 172.761 98.127 170.998 96.5179C169.556 95.2049 168.578 93.4864 168.391 91.2724L168.423 91.3432C169.44 93.4671 171.416 94.4969 173.836 94.7994C176.173 95.0955 178.927 94.7158 181.637 94.0078C186.625 92.7141 191.485 90.3069 193.158 89.0519C193.19 89.0325 193.216 89.0068 193.242 88.9811C193.422 88.7944 193.415 88.4919 193.222 88.3117C192.392 87.52 191.703 86.7284 191.143 85.9496C189.567 83.7355 189.039 81.5729 189.303 79.5519C189.567 77.5181 190.641 75.6065 192.257 73.9073C192.836 73.3023 193.48 72.7231 194.188 72.176C195.527 82.0042 205.084 82.68 212.351 83.1949C214.719 83.3622 216.837 83.5102 218.279 83.9608C218.768 84.1152 219.218 84.2955 219.637 84.5014C221.658 85.499 222.881 87.0888 223.486 88.7944C224.091 90.5129 224.078 92.3537 223.614 93.8404C223.518 94.1558 223.396 94.4583 223.26 94.7351C223.248 94.7608 223.235 94.7866 223.228 94.8188C223.157 95.0698 223.305 95.3272 223.556 95.398C224.104 95.5525 224.612 95.8421 225.082 96.254C225.565 96.6788 226.015 97.2259 226.446 97.876C226.581 98.1012 226.871 98.172 227.096 98.0369C229.8 96.4149 231.711 96.9556 233.533 97.4705C234.91 97.8567 236.242 98.2364 237.851 97.8116C237.922 97.7923 237.987 97.7601 238.044 97.7086C238.173 97.5992 238.411 97.4898 238.727 97.4319C239.01 97.3804 239.332 97.3675 239.666 97.4319C239.789 97.4576 239.905 97.5155 239.995 97.5928C240.098 97.6829 240.181 97.7923 240.239 97.921C240.503 98.5325 240.625 99.2598 240.619 100.122C240.613 100.682 240.548 101.3 240.426 101.982C240.149 101.48 239.827 100.972 239.467 100.457C239.319 100.245 239.023 100.193 238.81 100.341C238.598 100.489 238.547 100.785 238.695 100.998C239.312 101.873 239.795 102.729 240.162 103.559C240.168 103.579 240.175 103.598 240.188 103.617C240.703 104.808 240.979 105.947 241.031 107.009C241.121 108.663 240.696 110.131 239.879 111.315C239.029 112.557 237.781 113.452 236.377 113.973C235.734 114.211 235.045 114.379 234.311 114.469H234.299H234.286H234.273C233.082 114.617 231.795 114.552 230.437 114.263C230.289 114.231 230.128 114.269 230.012 114.379C226.144 118.021 224.116 121.671 223.299 124.992C222.218 129.356 223.215 133.14 224.837 135.573C224.908 135.676 225.017 135.753 225.153 135.779C225.719 135.869 226.433 135.856 227.154 135.618C227.515 135.496 227.869 135.322 228.216 135.071C228.268 135.464 228.216 135.869 228.107 136.275C227.914 136.951 227.528 137.633 227.064 138.283C226.929 138.469 226.948 138.733 227.122 138.901C227.463 139.229 227.901 139.66 228.113 140.104C228.274 140.439 228.287 140.799 227.933 141.121C227.618 141.411 226.659 141.688 225.462 142.029C223.241 142.659 220.255 143.516 218.317 145.453C217.017 146.753 215.53 147.474 214.076 147.731C213.175 147.892 212.287 147.873 211.469 147.706C212.184 147.5 212.724 147.139 213.117 146.682C213.58 146.141 213.818 145.466 213.863 144.732C213.909 144.03 213.773 143.271 213.484 142.524C212.763 140.651 211.07 138.823 208.869 138.173C208.663 138.115 208.431 138.199 208.322 138.399C208.315 138.412 206.011 142.602 204.486 143.059C201.918 143.767 199.105 145.369 197.2 147.274C196.009 148.459 195.16 149.772 194.902 151.072C191.999 145.89 196.074 143.059 200.521 139.956C205.471 136.506 210.864 132.754 208.695 125.327C208.624 125.076 208.36 124.934 208.109 125.005C207.858 125.076 207.717 125.34 207.788 125.591C209.764 132.361 204.666 135.921 199.98 139.177C194.934 142.692 190.345 145.89 194.484 152.217H194.355C192.456 152.108 190.165 151.561 188.331 150.229C186.522 148.916 185.151 146.817 185.055 143.612C185.042 143.258 185.048 142.891 185.068 142.505C185.357 137.131 190.21 133.99 194.922 130.945C199.086 128.255 203.141 125.629 204.132 121.523C204.19 121.272 204.035 121.014 203.784 120.956C203.533 120.898 203.276 121.053 203.218 121.304C202.317 125.043 198.416 127.566 194.413 130.154C191.909 131.776 189.367 133.417 187.436 135.419C185.196 135.522 183.323 136.088 181.798 137.079C180.813 137.723 179.983 138.54 179.288 139.531C179.61 137.311 180.318 135.535 181.489 134.035C183.034 132.053 185.415 130.508 188.82 129.021C189.058 128.918 189.168 128.641 189.065 128.397C188.962 128.159 188.685 128.049 188.44 128.152C184.887 129.703 182.397 131.332 180.742 133.449C179.294 135.309 178.509 137.523 178.239 140.368V140.375ZM234.91 115.344C235.077 116.258 235.097 117.153 235.013 117.976C234.929 118.794 234.743 119.553 234.492 120.216C235.316 120.03 235.966 119.521 236.455 118.723C237.066 117.732 237.439 116.297 237.588 114.482C237.304 114.623 237.008 114.752 236.699 114.868C236.133 115.08 235.534 115.241 234.91 115.344ZM224.232 131.969C227.489 129.845 229.162 130.913 230.771 131.937C231.525 132.419 232.265 132.889 233.14 132.889C233.552 132.889 233.945 132.844 234.324 132.761C235.27 132.548 236.114 132.085 236.712 131.46C237.156 130.997 237.465 130.443 237.588 129.838C237.356 129.967 237.085 130.07 236.789 130.147C236.242 130.289 235.592 130.321 234.916 130.212C233.816 130.032 232.651 129.446 231.776 128.249C230.649 126.71 229.33 125.719 227.952 125.346C226.684 125.005 225.346 125.185 224.052 125.957C223.614 128.191 223.756 130.231 224.232 131.969ZM106.191 172.015C106.648 171.5 107.047 170.792 107.388 169.962C108.116 168.16 108.553 165.714 108.553 163.346C108.553 160.977 107.839 158.975 106.777 157.353C106.32 156.658 105.805 156.04 105.245 155.5C106.178 155.049 106.629 154.676 107.215 154.187C107.363 154.065 107.517 153.936 107.697 153.794C110.04 156.169 111.636 159.593 112.364 162.856C112.808 164.839 112.924 166.757 112.692 168.334C112.473 169.84 111.932 171.011 111.063 171.597C110.664 171.867 110.182 172.015 109.615 172.015H106.191Z" fill="white"></path><path fill-rule="evenodd" clip-rule="evenodd" d="M167.896 53.7094C167.362 55.3635 166.648 56.9597 165.74 58.3563C164.833 59.7466 163.726 60.9308 162.406 61.7869C163.726 62.6429 164.833 63.8272 165.74 65.2174C166.654 66.6141 167.369 68.2102 167.896 69.8644C168.424 68.2102 169.145 66.6141 170.053 65.2174C170.96 63.8272 172.067 62.6429 173.386 61.7869C172.067 60.9308 170.96 59.7466 170.053 58.3563C169.139 56.9597 168.424 55.3635 167.896 53.7094ZM164.949 57.8414C166.094 56.0908 166.918 53.9861 167.439 51.8621C167.478 51.6948 167.607 51.5596 167.787 51.5146C168.038 51.4502 168.295 51.6047 168.36 51.8621C168.881 53.9861 169.705 56.0843 170.851 57.8414C171.835 59.3475 173.065 60.5962 174.545 61.3685C174.629 61.4136 174.699 61.4779 174.745 61.568C174.867 61.7997 174.777 62.0829 174.545 62.2052C173.065 62.984 171.835 64.2262 170.851 65.7323C169.705 67.483 168.881 69.5876 168.36 71.7116C168.321 71.8789 168.192 72.0141 168.012 72.0591C167.761 72.1235 167.504 71.969 167.439 71.7116C166.918 69.5876 166.094 67.4894 164.949 65.7323C163.964 64.2262 162.734 62.9776 161.254 62.2052C161.17 62.1602 161.1 62.0958 161.055 62.0057C160.932 61.774 161.022 61.4908 161.254 61.3685C162.734 60.5897 163.964 59.3475 164.949 57.8414Z" fill="white"></path><path fill-rule="evenodd" clip-rule="evenodd" d="M237.066 69.0253C236.699 70.0873 236.223 71.1042 235.63 72.0053C235.006 72.9578 234.26 73.7752 233.371 74.3931C234.26 75.0046 235.013 75.8284 235.63 76.781C236.223 77.682 236.699 78.699 237.066 79.761C237.433 78.699 237.909 77.682 238.501 76.781C239.125 75.8284 239.872 75.011 240.76 74.3931C239.872 73.7817 239.119 72.9578 238.501 72.0053C237.909 71.1042 237.433 70.0873 237.066 69.0253ZM234.839 71.4904C235.656 70.2482 236.235 68.755 236.609 67.2489C236.647 67.0815 236.776 66.9464 236.956 66.9013C237.207 66.8369 237.465 66.9914 237.529 67.2489C237.902 68.755 238.482 70.2482 239.299 71.4904C239.994 72.5523 240.857 73.4277 241.899 73.9748C241.983 74.0198 242.054 74.0842 242.099 74.1743C242.221 74.406 242.131 74.6892 241.899 74.8115C240.857 75.3586 239.994 76.2339 239.299 77.2959C238.482 78.5381 237.902 80.0313 237.529 81.5374C237.491 81.7047 237.362 81.8399 237.182 81.8849C236.931 81.9493 236.673 81.7948 236.609 81.5374C236.235 80.0313 235.656 78.5381 234.839 77.2959C234.144 76.2339 233.281 75.3586 232.239 74.8115C232.155 74.7664 232.084 74.7021 232.039 74.6119C231.917 74.3802 232.007 74.097 232.239 73.9748C233.281 73.4277 234.144 72.5523 234.839 71.4904Z" fill="white"></path><path fill-rule="evenodd" clip-rule="evenodd" d="M217.404 41.6656C217.172 42.2642 216.889 42.837 216.548 43.3519C216.155 43.9569 215.679 44.4847 215.132 44.9031C215.685 45.315 216.155 45.8492 216.548 46.4542C216.889 46.9691 217.172 47.5419 217.404 48.1405C217.635 47.5419 217.918 46.9691 218.26 46.4542C218.652 45.8492 219.128 45.3214 219.676 44.9031C219.122 44.4912 218.652 43.9569 218.26 43.3519C217.918 42.837 217.635 42.2642 217.404 41.6656ZM215.756 42.837C216.303 42.0003 216.696 40.9963 216.947 39.9793C216.985 39.812 217.114 39.6768 217.294 39.6318C217.545 39.5674 217.803 39.7219 217.867 39.9793C218.118 40.9963 218.511 42.0003 219.058 42.837C219.521 43.545 220.094 44.1243 220.776 44.4847C220.86 44.5298 220.931 44.5941 220.976 44.6842C221.098 44.9159 221.008 45.1991 220.776 45.3214C220.087 45.6819 219.521 46.2676 219.058 46.9691C218.511 47.8058 218.118 48.8099 217.867 49.8268C217.828 49.9942 217.7 50.1293 217.519 50.1744C217.268 50.2387 217.011 50.0843 216.947 49.8268C216.696 48.8099 216.303 47.8058 215.756 46.9691C215.292 46.2611 214.72 45.6819 214.037 45.3214C213.954 45.2764 213.883 45.212 213.838 45.1219C213.716 44.8902 213.806 44.607 214.037 44.4847C214.726 44.1243 215.292 43.545 215.756 42.837Z" fill="white"></path></g><defs><filter id="filter0_d_1429_31784" x="63" y="0" width="185.154" height="179" filterUnits="userSpaceOnUse" color-interpolation-filters="sRGB"><feFlood flood-opacity="0" result="BackgroundImageFix"></feFlood><feColorMatrix in="SourceAlpha" type="matrix" values="0 0 0 0 0 0 0 0 0 0 0 0 0 0 0 0 0 0 127 0" result="hardAlpha"></feColorMatrix><feOffset></feOffset><feGaussianBlur stdDeviation="3"></feGaussianBlur><feComposite in2="hardAlpha" operator="out"></feComposite><feColorMatrix type="matrix" values="0 0 0 0 1 0 0 0 0 1 0 0 0 0 1 0 0 0 1 0"></feColorMatrix><feBlend mode="normal" in2="BackgroundImageFix" result="effect1_dropShadow_1429_31784"></feBlend><feBlend mode="normal" in="SourceGraphic" in2="effect1_dropShadow_1429_31784" result="shape"></feBlend></filter></defs></svg>