<svg xmlns="http://www.w3.org/2000/svg"  xmlns:xlink="http://www.w3.org/1999/xlink"  width="311" height="179" viewBox="0 0 311 179" fill="none"><g filter="url(#filter0_d_1429_31800)"><path fill-rule="evenodd" clip-rule="evenodd" d="M127.246 58.3586C127.408 58.5667 127.369 58.8658 127.161 59.0284C126.953 59.191 126.654 59.1519 126.491 58.9438C124.742 56.7133 119.8 54.3787 114.415 53.3903C110.032 52.5839 105.376 52.6749 101.949 54.4438C98.8927 56.024 96.5256 59.36 94.8283 63.3464C92.7278 68.2756 91.6548 74.1674 91.5703 78.9796C91.5508 79.903 91.4597 80.8329 91.2581 81.7304C91.076 82.5627 90.8029 83.3691 90.4192 84.13C88.3383 88.3179 88.3513 93.7674 88.3643 98.9438C88.3708 102.169 88.3773 105.297 87.8831 107.996C87.792 108.503 87.649 108.997 87.4669 109.466C87.2783 109.94 87.0442 110.409 86.7646 110.851C81.7963 118.791 81.5687 126.178 81.302 135.035C81.263 136.232 81.2305 137.455 81.1785 138.677C81.0419 142.072 81.0484 144.822 81.0549 147.229C81.0614 152.665 81.0679 156.352 79.5072 161.555C79.4747 161.665 79.4032 161.75 79.3186 161.815C77.3482 163.265 74.708 164.624 71.8727 165.814C68.3936 167.284 64.6348 168.5 61.5004 169.332C61.4354 169.352 61.3768 169.378 61.3183 169.404C61.1817 169.482 61.0777 169.612 61.0192 169.755C60.9606 169.905 60.9476 170.067 60.9866 170.23C61.0062 170.295 61.0322 170.36 61.0647 170.425C61.3378 170.9 61.7475 171.316 62.2677 171.602C62.7425 171.862 63.3212 172.018 63.991 172.018H66.0525C65.7533 171.745 65.5322 171.42 65.3957 171.062C65.2981 170.815 65.4217 170.542 65.6688 170.444C65.9159 170.347 66.189 170.47 66.2866 170.717C66.4362 171.095 66.7418 171.42 67.184 171.654C67.6262 171.881 68.205 172.018 68.9073 172.025H96.7076C97.2214 172.025 97.6831 171.96 98.0863 171.849C98.6651 171.68 99.1268 171.407 99.4389 171.049C99.7315 170.711 99.8941 170.301 99.8941 169.84C99.8941 169.631 99.8616 169.41 99.7966 169.189V169.176C99.7445 169.04 99.3869 169.001 98.8471 168.936C97.8001 168.812 96.2524 168.623 94.4186 167.29C90.4973 164.436 90.1136 162.933 89.7624 160.683L86.1273 160.566C85.8671 160.56 85.659 160.339 85.6655 160.079C85.672 159.818 85.8932 159.61 86.1598 159.617L89.7299 159.734C89.964 157.224 91.5833 152.529 93.5212 146.903C97.0653 136.616 101.689 123.181 100.779 114.837C100.694 114.07 100.74 113.296 100.889 112.548C101.045 111.768 101.318 111.007 101.689 110.292C104.479 104.868 106.215 96.9929 107.717 90.1843C108.465 86.8092 109.148 83.6878 109.889 81.2296C110.078 80.5923 110.279 79.9811 110.514 79.3568C111.008 78.0432 111.534 77.0417 112.126 76.4499C112.315 76.2613 112.614 76.2613 112.803 76.4499C112.991 76.6385 112.991 76.9376 112.803 77.1262C112.204 77.7245 111.665 78.869 111.144 80.4037C111.372 80.8134 111.574 81.1971 111.775 81.5808C113.622 85.0794 115.267 88.2009 121.647 88.5325C125.327 88.7276 128.806 88.6951 131.33 87.8367C133.716 87.0238 135.231 85.4241 135.166 82.4652C135.101 79.1031 134.529 75.3964 133.372 71.8523C132.351 68.7244 130.881 65.7265 128.904 63.2098C128.741 63.0017 128.774 62.7026 128.982 62.54C129.19 62.3774 129.489 62.4099 129.652 62.618C131.7 65.2257 133.222 68.3277 134.275 71.5532C135.459 75.1818 136.044 78.9861 136.116 82.4392C136.187 85.9053 134.419 87.7782 131.629 88.7341C128.969 89.6445 125.379 89.677 121.595 89.4819C114.675 89.1243 112.907 85.7752 110.93 82.023L110.748 81.6718C110.045 84.0519 109.375 87.0888 108.654 90.3794C107.138 97.2465 105.383 105.187 102.541 110.714C102.216 111.352 101.969 112.021 101.832 112.717C101.702 113.374 101.663 114.05 101.734 114.72C101.793 115.26 101.832 115.826 101.845 116.404L102.541 116.268C113.063 114.219 129.567 111.007 137.085 114.037L137.234 113.907C136.857 111.508 136.981 108.282 137.416 105.258C137.891 101.916 138.75 98.7877 139.719 97.2205C140.434 96.0565 140.824 94.977 140.824 94.1251C140.824 93.8064 140.772 93.5268 140.655 93.2992C140.551 93.0781 140.388 92.9025 140.167 92.766C139.849 92.5709 139.393 92.4603 138.802 92.4603C134.49 92.4603 130.965 96.4141 127.46 100.342C123.552 104.725 119.67 109.088 114.519 108.334C114.259 108.295 114.077 108.055 114.116 107.794C114.155 107.534 114.396 107.352 114.656 107.391C119.299 108.068 123.012 103.899 126.745 99.7112C130.393 95.6208 134.054 91.5044 138.795 91.5044C139.569 91.5044 140.187 91.6669 140.661 91.9596C141.045 92.1937 141.325 92.5058 141.507 92.8895C141.682 93.2537 141.773 93.6764 141.773 94.1381C141.773 94.8859 141.539 95.7573 141.097 96.6808C141.982 96.2191 142.573 95.0875 142.957 93.7869C143.458 92.0766 143.601 90.0997 143.601 88.8707C143.601 88.7341 143.601 88.604 143.601 88.487H143.562C143.516 88.487 143.464 88.487 143.412 88.474H143.399C140.713 87.9732 138.873 86.7182 138.867 86.7117C138.652 86.5621 138.593 86.2695 138.737 86.0483C138.886 85.8337 139.179 85.7752 139.4 85.9183C139.4 85.9183 141.084 87.0693 143.568 87.5245C143.789 87.5245 144.29 87.1864 144.83 86.5556C145.422 85.8663 146 84.8453 146.241 83.5382C146.313 83.1415 146.358 82.7058 146.358 82.2441C146.358 78.9536 145.539 75.7541 144.297 72.8343C142.736 69.1535 140.499 65.9216 138.385 63.5219C138.21 63.3269 138.229 63.0212 138.431 62.8456C138.626 62.6701 138.932 62.6896 139.107 62.8912C140.076 63.9967 141.078 65.2713 142.027 66.6824C142.554 65.3363 143.178 63.9511 143.841 62.7221C144.557 61.3955 145.318 60.2379 146.046 59.4966C146.228 59.308 146.534 59.308 146.722 59.4966C146.911 59.6787 146.911 59.9843 146.722 60.1729C146.059 60.8427 145.35 61.9222 144.674 63.1838C143.926 64.5754 143.224 66.1752 142.664 67.6774C143.334 68.7504 143.971 69.8884 144.55 71.0849C159.306 70.7858 168.228 68.978 177.111 67.1766C178.6 66.8775 180.089 66.5719 181.279 66.3377C181.903 66.2142 182.489 65.9736 183.009 65.6289C183.523 65.2843 183.965 64.8356 184.31 64.3088C184.583 63.8861 184.888 63.4439 185.253 62.9107C186.358 61.2979 187.984 58.9308 190.247 55.0615C192.503 51.1988 194.129 46.5101 195.8 41.6849C197.433 36.9637 199.117 32.1059 201.484 27.7294C201.107 27.814 200.704 27.8725 200.274 27.905C198.792 28.0091 198.135 30.2851 198.135 30.2916C198.057 30.5452 197.79 30.6883 197.543 30.6103C197.29 30.5322 197.147 30.2656 197.225 30.0185C197.225 30.012 198.057 27.1051 200.209 26.9556C201.601 26.858 202.681 26.4028 203.493 25.8761C204.306 25.3493 204.859 24.751 205.171 24.3674C205.327 24.1788 205.516 24.0227 205.724 23.8992C205.932 23.7821 206.16 23.6976 206.407 23.652C206.81 23.5805 207.389 23.5025 208.065 23.483C208.748 23.47 209.528 23.5155 210.335 23.6911C210.939 23.8276 211.395 23.7626 211.72 23.5935C213.02 22.9172 212.142 21.454 211.291 20.8297C210.829 20.4916 210.185 20.277 209.223 20.277H209.086C207.402 20.277 205.626 20.277 203.929 19.1194C203.715 18.9699 203.656 18.6772 203.799 18.4561C203.949 18.2415 204.241 18.183 204.462 18.3261C205.919 19.3145 207.545 19.3145 209.086 19.3145H209.223C210.413 19.3145 211.239 19.6007 211.856 20.0494C212.286 20.3615 212.604 20.7452 212.864 21.1614C213.254 21.1939 213.632 21.2524 213.996 21.3435C214.445 21.454 214.893 21.6231 215.374 21.8572C215.433 21.8832 215.479 21.9222 215.518 21.9678C215.778 22.2604 216.317 22.4815 216.968 22.6506C217.891 22.8912 218.997 23.0082 219.888 23.0408C220.291 23.0538 220.603 22.9952 220.811 22.8717C220.909 22.8132 220.98 22.7416 221.013 22.6701C221.039 22.5986 221.039 22.5075 221.013 22.4035C220.941 22.1889 220.752 21.9287 220.414 21.6556C219.601 20.9793 218.632 20.2575 217.67 19.5421C216.317 18.5342 214.965 17.5262 214.009 16.6223C213.846 16.4662 213.651 16.3492 213.45 16.2711C213.228 16.1866 212.994 16.1411 212.76 16.1346C211.564 16.1151 209.873 16.0045 208.124 15.8354C206.517 15.6794 204.859 15.4778 203.493 15.2502C203.123 15.1851 202.746 15.2307 202.414 15.3737C202.089 15.5103 201.803 15.7379 201.595 16.0435C199.533 19.1064 196.386 22.8327 193.264 26.5329C191.482 28.6463 189.707 30.7468 188.153 32.7042C186.202 35.1624 183.471 38.0822 180.609 41.1386C176.604 45.4241 172.351 49.9762 169.736 53.7935C169.593 53.9951 169.327 54.0601 169.112 53.943C166.212 52.4538 162.147 51.654 158.343 51.9531C156.6 52.0897 154.923 52.4603 153.446 53.1041H153.433C152.165 53.6634 151.053 54.4177 150.175 55.3932C150 55.5883 149.701 55.6078 149.499 55.4322C149.304 55.2566 149.284 54.9575 149.46 54.7559C150.182 53.943 151.053 53.2732 152.029 52.7335C147.275 51.1923 142.807 52.1482 139.575 52.8375C138.236 53.1236 137.098 53.3708 136.194 53.3838C135.537 53.6504 134.887 53.982 134.262 54.3462C133.528 54.7754 132.825 55.2501 132.188 55.7314C131.98 55.8874 131.681 55.8484 131.518 55.6403C131.362 55.4322 131.401 55.1331 131.609 54.9705C132.273 54.4698 133.007 53.969 133.781 53.5203C134.035 53.3773 134.288 53.2342 134.542 53.0976C133.521 52.714 132.663 51.9726 132.019 51.0947C131.174 49.9502 130.686 48.5585 130.653 47.453C129.769 47.2059 128.865 46.9003 127.968 46.5231C125.75 45.6062 123.539 44.2796 121.543 42.3742C121.354 42.1921 121.348 41.893 121.523 41.6979C121.705 41.5093 122.004 41.4963 122.199 41.6784C124.098 43.4927 126.212 44.7608 128.325 45.6322C129.294 46.0354 130.27 46.354 131.219 46.6141C131.245 46.6141 131.271 46.6272 131.297 46.6337C132.403 46.9263 133.482 47.1344 134.503 47.2709C134.633 47.2905 134.75 47.297 134.867 47.3035C135.732 47.3295 136.532 47.0303 137.15 46.5036C137.768 45.9768 138.197 45.229 138.314 44.3641C138.333 44.2406 138.34 44.1105 138.346 43.9869C138.353 43.7203 138.392 43.2911 138.437 42.8814C138.476 42.5368 138.528 42.1856 138.587 41.932C138.606 41.8409 138.659 41.7499 138.737 41.6849C139.049 41.4117 139.244 41.1516 139.276 40.872C139.302 40.6444 139.224 40.3713 139.01 40.0266C138.06 40.3257 137.052 40.3843 137.052 40.3843C136.792 40.4038 136.558 40.2087 136.539 39.9486C136.519 39.6884 136.714 39.4543 136.974 39.4348C136.974 39.4348 138.112 39.3698 138.964 39.0381C138.997 39.0186 139.029 39.0056 139.062 38.9991C139.205 38.9406 139.341 38.8691 139.458 38.791C139.484 38.7715 139.504 38.7455 139.517 38.7065C139.536 38.661 139.536 38.6089 139.523 38.5569C139.426 38.1082 139.348 37.705 139.296 37.2758C139.244 36.8466 139.224 36.3914 139.237 35.8452C139.237 35.6371 139.38 35.455 139.588 35.3965C139.862 35.3249 140.167 35.2339 140.486 35.1298C140.896 34.9998 141.598 34.8502 141.773 34.395C141.838 34.2259 141.845 34.0373 141.773 33.8553L141.747 33.8032C141.539 33.3415 141.292 32.8408 141.039 32.3205C139.836 29.8819 138.496 27.1507 139.699 25.3038C138.47 24.8096 137.286 24.5299 136.174 24.3999C134.659 24.2243 133.287 24.3349 132.123 24.6015C131.869 24.66 131.609 24.4974 131.551 24.2438C131.492 23.9837 131.655 23.7301 131.908 23.6716C133.163 23.3854 134.646 23.2619 136.278 23.457C137.468 23.5935 138.737 23.8992 140.05 24.4259C140.414 19.9648 139.92 17.3311 138.945 15.7899C138.021 14.3332 136.617 13.8585 135.088 13.7024C135.004 13.7935 134.919 13.878 134.828 13.9626C134.275 14.4503 133.534 14.7689 132.708 14.847C132.253 16.1021 131.362 17.2531 130.237 18.066C129.19 18.8203 127.935 19.2755 126.634 19.2495C126.556 19.5226 126.472 19.8218 126.387 20.1339C125.77 22.4165 125.028 25.1347 122.512 25.0697C120.996 25.0307 120.392 24.3869 119.793 23.7366C119.338 23.2489 118.883 22.7546 117.823 22.7026C117.257 22.6766 116.581 22.9692 115.97 23.509C115.553 23.8796 115.17 24.3674 114.89 24.9396C114.604 25.5184 114.415 26.1882 114.376 26.9361C114.292 28.5293 114.903 30.4542 116.743 32.5221C116.795 32.5807 116.828 32.6522 116.847 32.7237C117.231 34.0178 117.218 35.6566 116.802 37.3083C116.438 38.7715 115.755 40.2542 114.773 41.5353C115.15 42.5563 115.423 43.6618 115.586 44.9754C116.067 49.0007 115.54 49.8331 114.103 52.1157L113.954 52.3563C114.155 52.3888 114.357 52.4213 114.558 52.4603C120.157 53.4943 125.34 55.972 127.213 58.3651L127.246 58.3586ZM169.19 134.301C171.414 129.944 173.437 126.191 176.051 123.954C176.428 124.657 176.721 125.268 177.007 125.847C178.392 128.669 179.419 130.776 185.688 137.247C185.727 137.286 185.773 137.318 185.818 137.344C186.169 137.513 186.521 137.702 186.872 137.897C187.353 139.763 187.984 142.091 188.842 144.849C189.733 147.716 190.884 151.078 192.386 154.902C192.705 155.709 193.453 156.521 194.318 157.25C195.618 158.336 197.205 159.24 197.914 159.578C198.259 159.74 198.779 159.981 199.358 160.248C202.121 161.516 206.153 163.369 209.483 166.016C209.437 166.484 209.379 166.959 209.314 167.427C209.275 167.668 209.262 167.908 209.262 168.142C209.262 169.345 209.71 170.457 210.458 171.309C210.692 171.582 210.959 171.823 211.252 172.038H181.494C180.349 172.038 179.406 171.556 178.743 170.789C178.008 169.95 177.599 168.767 177.599 167.492C177.599 165.704 177.781 164.013 177.956 162.426C178.203 160.176 178.424 158.141 178.086 156.3C176.877 149.745 174.243 144.712 172.064 140.544C170.848 138.222 169.782 136.18 169.197 134.307L169.19 134.301ZM181.487 172.98C180.044 172.98 178.854 172.369 178.015 171.407C177.13 170.392 176.636 168.981 176.636 167.479C176.636 165.658 176.825 163.928 177 162.316C177.241 160.137 177.455 158.16 177.137 156.463C175.953 150.044 173.359 145.083 171.213 140.979C170.166 138.976 169.223 137.168 168.585 135.484C166.244 140.082 163.604 145.226 159.754 150.005C159.611 150.187 159.462 150.363 159.319 150.539C158.623 153.764 156.626 158.57 153.648 163.167C151.268 166.835 148.25 170.379 144.758 172.896C144.674 172.954 144.576 172.987 144.479 172.987H127.883H127.779H111.079C110.956 172.987 110.845 172.941 110.761 172.87C109.063 171.569 107.711 169.846 106.436 168.214C105.207 166.647 104.056 165.177 102.768 164.325C101.188 164.234 100.102 163.948 99.5234 163.102C98.9447 162.264 98.9577 160.943 99.5885 158.791C99.66 158.544 99.7966 158.206 99.9787 157.796C98.7041 155.513 97.553 154.063 96.402 153.023C95.368 152.093 94.321 151.469 93.1765 150.857C92.097 154.044 91.2386 156.742 90.8614 158.622C90.6078 159.896 90.5948 160.072 90.8354 161.262C91.1671 162.901 91.8369 164.227 94.9778 166.517C96.6036 167.7 98.0082 167.869 98.9577 167.986C99.8811 168.097 100.479 168.168 100.707 168.897V168.923C100.805 169.241 100.85 169.547 100.85 169.84C100.85 170.542 100.603 171.166 100.154 171.68C99.725 172.174 99.1073 172.545 98.3464 172.766C97.8522 172.909 97.2994 172.987 96.7076 172.987H63.991C63.1521 172.987 62.4238 172.785 61.806 172.447C61.1232 172.07 60.59 171.53 60.2323 170.913C60.1543 170.776 60.0957 170.633 60.0567 170.49C59.9592 170.126 59.9917 169.749 60.1217 169.41C60.2583 169.072 60.4989 168.78 60.8306 168.591C60.9541 168.519 61.0972 168.461 61.2468 168.422C64.3422 167.603 68.0619 166.393 71.489 164.949C74.2007 163.805 76.7239 162.517 78.6228 161.145C80.099 156.144 80.0925 152.542 80.086 147.242C80.086 144.822 80.0795 142.052 80.2095 138.651C80.2615 137.39 80.2941 136.193 80.3331 135.016C80.6062 126.016 80.8338 118.511 85.9387 110.357C86.1793 109.973 86.3874 109.557 86.5565 109.128C86.719 108.705 86.8491 108.269 86.9271 107.833C87.4018 105.219 87.3953 102.137 87.3888 98.9503C87.3758 93.6634 87.3628 88.0968 89.5413 83.7138C89.886 83.018 90.1331 82.2831 90.3022 81.5288C90.4908 80.6964 90.5753 79.8315 90.5948 78.9666C90.6859 74.0438 91.7784 68.0155 93.9309 62.9757C95.7127 58.8008 98.2163 55.2957 101.494 53.6049C104.7 51.9466 108.868 51.667 112.939 52.2002L113.316 51.6019C114.623 49.534 115.098 48.7731 114.656 45.0794C114.266 41.8409 113.089 39.903 111.417 37.1588C110.917 36.3329 110.37 35.4355 109.779 34.395C108.485 32.1124 107.639 30.4997 107.256 29.1601V29.1341C107.086 28.5618 107.008 28.0416 107.008 27.5538C106 24.608 105.669 20.7647 106.397 17.4157C107.008 14.6129 108.361 12.1417 110.676 10.7696C110.982 9.97623 111.391 9.2674 111.886 8.65612C112.829 7.47907 114.071 6.6597 115.456 6.27602C116.841 5.88584 118.363 5.93136 119.865 6.47111C120.619 6.74424 121.374 7.14742 122.095 7.68067C123.793 6.42559 126.114 5.89884 128.351 6.0159C129.554 6.08093 130.744 6.33455 131.804 6.76374C133.684 5.90535 135.661 5.89884 137.306 6.49062C138.314 6.85479 139.198 7.44006 139.862 8.1879C140.538 8.94875 140.987 9.87868 141.11 10.9192C141.273 12.2523 140.896 13.748 139.777 15.2827C140.902 17.0645 141.448 20.0689 140.967 25.1542C140.961 25.2648 140.902 25.3948 140.811 25.4729C139.4 26.806 140.733 29.5112 141.904 31.9044C142.157 32.4246 142.411 32.9318 142.632 33.4261L142.671 33.5106C142.827 33.9268 142.814 34.3625 142.664 34.7527C142.508 35.1493 142.196 35.4875 141.78 35.6761L141.715 35.7021C141.409 35.8257 141.097 35.9362 140.785 36.0403C140.596 36.1053 140.395 36.1638 140.193 36.2223C140.193 36.567 140.219 36.8726 140.252 37.1718C140.297 37.562 140.369 37.9391 140.466 38.3618C140.518 38.5894 140.499 38.8301 140.421 39.0447C140.343 39.2593 140.2 39.4543 139.998 39.5909C139.966 39.6169 139.927 39.6364 139.888 39.6624C140.161 40.1502 140.265 40.5794 140.219 40.989C140.167 41.4898 139.901 41.906 139.484 42.3027C139.445 42.5042 139.413 42.7514 139.38 43.0115C139.335 43.4147 139.302 43.8048 139.296 44.0325C139.296 44.195 139.276 44.3576 139.257 44.5137C139.101 45.6127 138.554 46.5686 137.768 47.2449C136.981 47.9212 135.947 48.3114 134.835 48.2724C134.679 48.2724 134.523 48.2529 134.367 48.2334C133.489 48.1098 132.565 47.9408 131.616 47.7132C131.707 48.5976 132.11 49.6445 132.773 50.5355C133.508 51.5304 134.555 52.3238 135.81 52.4213C135.901 52.4278 135.992 52.4343 136.09 52.4343C136.909 52.4343 138.034 52.1937 139.361 51.9076C142.905 51.1467 147.88 50.0802 153.219 52.1482C154.753 51.5044 156.47 51.1337 158.246 50.9907C162.056 50.685 166.14 51.4524 169.158 52.9025C171.824 49.0983 175.966 44.6632 179.881 40.4753C182.723 37.4319 185.448 34.5251 187.373 32.0994C188.933 30.129 190.715 28.0221 192.503 25.9086C195.612 22.2279 198.74 18.5212 200.769 15.5103C201.081 15.0421 201.517 14.6974 202.011 14.4893C202.505 14.2812 203.064 14.2162 203.617 14.3072C204.976 14.5348 206.608 14.7364 208.182 14.886C209.912 15.0486 211.577 15.1591 212.747 15.1786C213.098 15.1851 213.45 15.2502 213.768 15.3802C214.087 15.5038 214.379 15.6924 214.633 15.9265C215.544 16.7849 216.877 17.7798 218.21 18.7748C219.179 19.4966 220.154 20.225 220.993 20.9208C221.474 21.324 221.767 21.7337 221.89 22.1173C221.995 22.449 221.988 22.7611 221.871 23.0343C221.76 23.3074 221.552 23.535 221.266 23.7041C220.908 23.9187 220.408 24.0292 219.822 24.0032C218.873 23.9642 217.696 23.8406 216.701 23.5805C215.934 23.3789 215.257 23.0863 214.854 22.6831C214.471 22.501 214.106 22.371 213.742 22.2799C213.599 22.2409 213.45 22.2149 213.306 22.1889C213.346 22.423 213.339 22.6831 213.28 22.9432C213.222 23.2293 213.098 23.5155 212.91 23.7756L212.89 23.8016C212.702 24.0552 212.455 24.2763 212.142 24.4324C211.635 24.699 210.959 24.8031 210.107 24.6145C209.372 24.4519 208.67 24.4129 208.059 24.4259C207.441 24.4389 206.921 24.5104 206.55 24.5755C206.42 24.6015 206.296 24.647 206.179 24.712C206.069 24.7771 205.971 24.8616 205.887 24.9656C205.529 25.3948 204.911 26.0712 203.988 26.6694C203.637 26.897 203.233 27.1116 202.791 27.3002C200.203 31.8328 198.415 36.9832 196.685 41.984C194.994 46.8678 193.349 51.6084 191.06 55.5363C188.79 59.4121 187.151 61.8052 186.026 63.4439C185.656 63.9837 185.337 64.4454 185.096 64.8225C184.68 65.4598 184.147 65.9996 183.529 66.4158C182.905 66.832 182.203 67.1246 181.455 67.2742C179.842 67.5863 178.567 67.8464 177.293 68.1066C168.449 69.9014 159.566 71.6962 144.979 72.0214C145.044 72.1709 145.109 72.314 145.175 72.4636C146.462 75.494 147.314 78.8235 147.314 82.2506C147.314 82.7643 147.268 83.2521 147.184 83.7203C146.911 85.216 146.248 86.3865 145.558 87.1864C145.227 87.5766 144.869 87.8822 144.544 88.1033C144.557 88.3114 144.563 88.5715 144.563 88.8772C144.563 90.1713 144.414 92.2522 143.88 94.0666C143.315 95.9914 142.307 97.6237 140.57 97.8383L140.466 97.8513C139.595 99.347 138.815 102.267 138.366 105.414C138.093 107.346 137.943 109.349 137.976 111.15C140.915 107.391 146.41 101.22 151.899 95.5622C156.899 90.4119 161.9 85.6712 164.976 83.5512C165.36 83.2846 165.776 83.0765 166.218 82.9204C166.667 82.7643 167.135 82.6668 167.603 82.6278C169.671 82.4522 171.466 82.4587 173.157 82.4652C173.69 82.4652 174.217 82.4652 174.737 82.4652C175.635 82.4587 176.513 82.6668 177.286 83.0635C178.06 83.4602 178.743 84.0389 179.257 84.7673C180.219 86.1264 181.24 87.4985 181.598 87.9797C181.858 87.9993 182.118 88.0188 182.391 88.0383L182.632 88.0578C186.638 88.3829 188.049 88.4935 190.624 94.0015C191.469 95.8094 195.274 103.32 199.969 112.529C206.986 126.289 215.869 143.606 219.972 151.566C220.72 153.016 221.767 154.252 223.022 155.221C224.297 156.209 225.792 156.918 227.405 157.308C228.927 157.672 231.235 158.713 233.784 160.033C236.308 161.334 239.091 162.914 241.575 164.371C243.311 165.385 244.644 165.977 245.75 166.308C246.836 166.64 247.707 166.725 248.527 166.725C248.65 166.725 248.774 166.738 248.891 166.764C249.327 166.855 249.704 167.089 249.977 167.414C250.25 167.739 250.406 168.155 250.406 168.604C250.406 168.721 250.393 168.845 250.367 168.962C250.166 169.97 249.58 171.062 248.728 171.849C247.987 172.532 247.038 173 245.945 173H181.5L181.487 172.98ZM188.036 138.573C190.897 140.355 193.882 142.859 196.659 145.512C202.889 151.469 208.033 158.115 208.436 158.954C209.093 160.306 209.418 161.704 209.522 163.115C209.567 163.694 209.574 164.273 209.554 164.852C206.251 162.348 202.42 160.592 199.754 159.363C199.273 159.142 198.831 158.941 198.324 158.7C197.647 158.375 196.152 157.523 194.923 156.502C194.168 155.871 193.524 155.182 193.271 154.544C191.782 150.74 190.644 147.404 189.753 144.549C189.031 142.221 188.472 140.231 188.036 138.567V138.573ZM218.483 66.0061H204.358L211.421 59.3535L218.483 66.0061ZM202.967 66.0061H196.49L211.414 36.7296L226.339 66.0061H219.862L211.733 58.3456C211.544 58.17 211.258 58.1765 211.076 58.3456L202.954 65.9996L202.967 66.0061ZM195.423 66.0061L210.998 35.455C211.043 35.3705 211.115 35.2924 211.206 35.2469C211.44 35.1298 211.726 35.2209 211.85 35.455L227.425 66.0061H229.707C229.837 66.0061 229.961 66.0581 230.052 66.1557C230.234 66.3508 230.221 66.6499 230.032 66.832C227.659 69.0625 224.908 70.7598 221.773 71.8978C218.697 73.0098 215.251 73.5821 211.427 73.5821C207.603 73.5821 204.157 73.0098 201.081 71.8978C197.953 70.7663 195.209 69.0755 192.842 66.858C192.731 66.7735 192.666 66.6369 192.666 66.4873C192.666 66.2207 192.881 66.0061 193.147 66.0061H195.43H195.423ZM211.421 72.6262C207.701 72.6262 204.365 72.0734 201.399 71.0004C198.785 70.051 196.451 68.6983 194.396 66.962H228.452C226.391 68.6983 224.062 70.051 221.448 71.0004C218.483 72.0734 215.14 72.6262 211.427 72.6262H211.421ZM213.651 29.7063C213.651 30.3241 213.404 30.8769 212.994 31.2866L212.962 31.3126C212.559 31.6963 212.012 31.9369 211.414 31.9369C210.816 31.9369 210.244 31.6898 209.84 31.2866C209.437 30.8834 209.19 30.3241 209.19 29.7063C209.19 29.0886 209.437 28.5358 209.84 28.1326C210.244 27.7294 210.803 27.4758 211.414 27.4758C212.025 27.4758 212.585 27.7229 212.988 28.1261C213.391 28.5293 213.645 29.0886 213.645 29.7063H213.651ZM212.325 30.6038L212.305 30.6233C212.077 30.8444 211.765 30.9744 211.421 30.9744C211.076 30.9744 210.751 30.8314 210.517 30.6038C210.289 30.3761 210.146 30.0575 210.146 29.6998C210.146 29.3422 210.289 29.03 210.517 28.7959C210.744 28.5683 211.063 28.4252 211.421 28.4252C211.778 28.4252 212.09 28.5683 212.325 28.7959C212.552 29.0235 212.695 29.3422 212.695 29.6998C212.695 30.0575 212.552 30.3696 212.325 30.6038ZM152.438 64.3283C152.217 64.1853 152.159 63.8861 152.302 63.665C152.445 63.4439 152.744 63.3854 152.965 63.5285C154.285 64.4064 156.34 64.79 158.473 64.764C160.743 64.7315 163.09 64.2308 164.749 63.3464C164.983 63.2228 165.269 63.3074 165.392 63.5415C165.516 63.7756 165.431 64.0617 165.197 64.1853C163.409 65.1412 160.899 65.6875 158.486 65.72C156.178 65.7525 153.928 65.3168 152.445 64.3283H152.438ZM174.035 56.4662C173.801 56.3491 173.703 56.063 173.82 55.8289C173.937 55.5948 174.223 55.4972 174.458 55.6143C175.27 56.0175 176.116 56.3751 177.052 56.6223C177.995 56.8694 179.042 57.0059 180.271 56.9734C180.531 56.9669 180.752 57.175 180.759 57.4351C180.765 57.6953 180.557 57.9164 180.297 57.9229C178.971 57.9619 177.833 57.8123 176.812 57.5457C175.791 57.2791 174.893 56.8954 174.035 56.4727V56.4662ZM139.179 14.4893C138.216 13.4423 136.994 13.0001 135.674 12.8115C135.817 12.4539 135.895 12.0507 135.888 11.628C135.875 10.7176 135.472 9.68359 134.542 8.6236C134.106 8.12937 133.573 7.70018 132.968 7.34251C134.367 6.90031 135.784 6.95883 136.994 7.39454C137.852 7.70018 138.6 8.1944 139.159 8.8252C139.706 9.44298 140.076 10.1973 140.174 11.0362C140.297 12.0767 140.018 13.2537 139.179 14.4893ZM136.441 34.0959C136.382 33.8422 136.545 33.5821 136.799 33.5236C137.052 33.4651 137.312 33.6276 137.371 33.8813C137.403 34.0243 137.449 34.1089 137.494 34.1479C137.527 34.1739 137.579 34.1804 137.644 34.1804C137.904 34.1804 138.125 34.382 138.132 34.6486C138.138 34.9152 137.93 35.1298 137.664 35.1363C137.384 35.1428 137.124 35.0778 136.896 34.9022C136.688 34.7332 136.526 34.4795 136.441 34.1024V34.0959ZM136.148 27.1637C136.233 27.4953 136.272 27.8465 136.246 28.1976C136.213 28.6854 136.051 29.1666 135.7 29.5633C135.524 29.7584 135.225 29.7844 135.03 29.6088C134.835 29.4332 134.809 29.1341 134.984 28.939C135.179 28.7179 135.27 28.4317 135.296 28.1326C135.316 27.8335 135.27 27.5278 135.186 27.2482C134.822 27.3067 134.477 27.4043 134.139 27.5148C133.482 27.7359 132.864 28.0351 132.266 28.3407C132.032 28.4578 131.746 28.3667 131.629 28.1326C131.512 27.8985 131.603 27.6124 131.837 27.4888C132.474 27.1637 133.131 26.845 133.846 26.6044C134.575 26.3573 135.355 26.2012 136.213 26.2012C136.48 26.2012 136.695 26.4158 136.695 26.6824C136.695 26.9491 136.48 27.1637 136.213 27.1637H136.161H136.148ZM119.546 39.4088C119.741 39.5844 119.754 39.89 119.579 40.0851C119.403 40.2802 119.097 40.2932 118.902 40.1176L118.577 39.825C118.382 39.6494 118.369 39.3438 118.545 39.1487C118.72 38.9536 119.026 38.9406 119.221 39.1162L119.546 39.4088ZM134.939 11.641C134.965 13.0456 133.71 13.891 132.383 13.9105C131.486 13.9236 130.926 13.4553 130.354 12.9741C129.619 12.3563 128.865 11.719 127.46 11.719C125.074 11.719 123.669 13.0001 122.421 14.1447C121.673 14.8275 120.983 15.4583 120.216 15.6273C119.553 15.7769 118.889 15.7249 118.226 15.6729C117.043 15.5818 115.865 15.4843 114.493 16.3882C112.933 17.4092 112.503 18.7228 112.087 20.0104C111.853 20.7257 111.626 21.428 111.19 22.0198C110.683 22.7091 110.175 23.0147 109.681 23.3139C108.966 23.7496 108.263 24.1658 107.587 25.4534L107.483 25.6615C106.898 23.1513 106.787 20.225 107.353 17.6108C107.919 14.9965 109.174 12.7075 111.313 11.5044C111.411 11.4524 111.489 11.3614 111.528 11.2508C111.801 10.49 112.185 9.82016 112.647 9.24139C113.466 8.22692 114.539 7.51809 115.735 7.17994C116.932 6.84178 118.252 6.8808 119.559 7.35552C120.32 7.62864 121.074 8.05134 121.796 8.63011C121.972 8.78618 122.238 8.79918 122.421 8.64311C123.949 7.37503 126.166 6.84828 128.319 6.95883C130.517 7.07589 132.624 7.86925 133.833 9.23488C134.607 10.1128 134.932 10.9257 134.945 11.6215L134.939 11.641ZM131.72 14.8145C131.304 15.7769 130.588 16.6548 129.704 17.2921C128.728 17.9944 127.558 18.3911 126.361 18.2806C126.134 18.2611 125.932 18.3976 125.861 18.6122C125.724 19.0284 125.613 19.4511 125.49 19.8868C124.957 21.8442 124.332 24.1658 122.557 24.1203C121.445 24.0942 120.977 23.5935 120.515 23.0928C119.93 22.462 119.338 21.8312 117.901 21.7532C117.088 21.7141 116.158 22.0913 115.365 22.8001C114.864 23.2489 114.409 23.8276 114.064 24.5234C113.726 25.2128 113.498 26.0126 113.453 26.8905C113.362 28.6854 114.019 30.8249 115.989 33.0749C116.301 34.1999 116.275 35.6241 115.911 37.0742C115.618 38.2513 115.105 39.4348 114.383 40.4948C113.817 39.2462 113.095 38.0562 112.25 36.6711C111.749 35.8452 111.203 34.9478 110.624 33.9333C109.362 31.7158 108.543 30.1485 108.185 28.9V28.8805C107.854 27.7294 107.925 26.845 108.426 25.9086C108.985 24.8551 109.571 24.5039 110.169 24.1398C110.748 23.7951 111.333 23.4374 111.957 22.5921C112.484 21.8767 112.738 21.0964 112.991 20.3095C113.362 19.178 113.733 18.0269 115.014 17.1881C116.113 16.4662 117.127 16.5443 118.148 16.6288C118.876 16.6873 119.605 16.7459 120.418 16.5638C121.432 16.3362 122.206 15.6273 123.051 14.8535C124.176 13.8325 125.438 12.6815 127.454 12.6815C128.52 12.6815 129.138 13.2017 129.736 13.709C130.309 14.1902 130.868 14.6649 131.726 14.8145H131.72ZM209.268 158.485C208.696 157.432 203.519 150.753 197.316 144.822C193.784 141.447 189.902 138.293 186.319 136.518C180.206 130.204 179.205 128.155 177.865 125.424C177.507 124.702 177.13 123.928 176.656 123.057C176.369 121.568 176.265 119.578 176.304 117.425C176.343 115.058 176.565 112.49 176.909 110.181C176.948 109.921 176.766 109.68 176.506 109.641C176.246 109.602 176.005 109.784 175.966 110.044C175.615 112.379 175.4 114.987 175.355 117.412C175.316 119.532 175.42 121.509 175.687 123.031C172.591 125.541 170.38 129.892 167.824 134.899C165.483 139.497 162.85 144.66 159.026 149.407C158.863 149.609 158.701 149.804 158.538 149.992H158.532L158.512 150.025C153.785 155.617 148.361 158.44 144.277 160.566C141.429 162.049 139.211 163.2 138.223 164.774C137.007 166.699 135.186 168.643 133.157 170.041C131.414 171.244 129.528 172.038 127.785 172.038H113.667C113.882 168.78 115.157 150.63 117.42 143.671C118.649 139.913 120.938 135.224 123.422 131.023C125.392 127.7 127.473 124.683 129.229 122.693C130.12 121.685 131.258 120.664 132.247 119.74C134.275 117.835 136.207 116.086 138.034 114.486C138.054 114.473 138.073 114.453 138.086 114.44C152.022 102.241 160.164 98.5146 164.306 96.6222L164.599 96.4922C167.486 95.1656 169.925 92.961 171.765 91.2898C172.942 90.2233 173.866 89.3844 174.406 89.2218C175.16 88.9877 176.142 88.8512 177.423 88.8056C178.346 88.7731 179.419 88.7926 180.674 88.8642C181.656 88.9227 182.658 88.9942 183.633 89.0918C186.436 89.3649 187.665 89.9306 189.759 94.3917C190.637 96.2711 194.435 103.776 199.11 112.951C206.01 126.491 214.945 143.893 219.12 151.995C219.933 153.569 221.071 154.915 222.437 155.969C223.822 157.042 225.441 157.815 227.184 158.232C228.621 158.576 230.858 159.591 233.349 160.872C235.872 162.173 238.629 163.74 241.1 165.183C242.908 166.237 244.306 166.855 245.477 167.212C246.667 167.576 247.623 167.668 248.527 167.668C248.592 167.668 248.65 167.674 248.709 167.687C248.923 167.733 249.112 167.85 249.242 168.012C249.372 168.175 249.457 168.376 249.45 168.591C249.45 168.65 249.45 168.708 249.431 168.767C249.262 169.592 248.787 170.49 248.078 171.14C247.499 171.673 246.771 172.038 245.939 172.038H214.913C214.484 172.038 214.002 172.057 213.58 171.992C212.624 171.849 211.785 171.368 211.187 170.678C210.588 169.989 210.224 169.098 210.224 168.136C210.224 167.941 210.237 167.752 210.27 167.557C210.491 166.074 210.608 164.559 210.491 163.05C210.452 162.569 210.393 162.088 210.309 161.613C210.536 161.951 210.77 162.277 211.004 162.589C212.689 164.865 214.51 166.504 216.87 164.761C217.078 164.605 217.124 164.305 216.968 164.091C216.812 163.876 216.512 163.837 216.304 163.993C214.601 165.255 213.15 163.883 211.772 162.023C211.382 161.503 211.011 160.95 210.64 160.404C210.192 159.74 209.743 159.084 209.294 158.498L209.268 158.485ZM181.292 161.288C181.26 161.028 181.448 160.787 181.708 160.755C181.969 160.722 182.209 160.911 182.242 161.171C182.3 161.639 182.638 162.068 183.094 162.394C183.62 162.764 184.284 162.985 184.882 162.959C185.142 162.946 185.37 163.154 185.376 163.415C185.389 163.675 185.181 163.902 184.921 163.909C184.121 163.941 183.237 163.655 182.547 163.167C181.877 162.699 181.383 162.036 181.292 161.275V161.288ZM138.028 112.607C140.7 109.03 146.631 102.319 152.562 96.2061C157.524 91.0882 162.479 86.3995 165.496 84.312C165.809 84.0975 166.153 83.9219 166.511 83.7983C166.875 83.6683 167.265 83.5902 167.662 83.5577C169.73 83.3821 171.486 83.3886 173.137 83.3951C173.677 83.3951 174.204 83.3951 174.724 83.3951C175.466 83.3951 176.187 83.5642 176.831 83.8894C177.468 84.2145 178.028 84.6892 178.457 85.294C179.12 86.2304 179.842 87.2124 180.336 87.8822C179.218 87.8237 178.236 87.8172 177.377 87.8432C176.012 87.8887 174.945 88.0448 174.113 88.2984C173.372 88.526 172.377 89.4234 171.109 90.5744C169.314 92.2002 166.94 94.3527 164.183 95.6143L163.89 95.7443C159.774 97.6302 151.73 101.317 138.073 113.159C138.054 112.977 138.034 112.795 138.021 112.607H138.028ZM136.012 150.038C135.752 150.09 135.498 149.927 135.446 149.667C135.394 149.407 135.557 149.154 135.817 149.101C138.268 148.575 142.307 145.531 146.651 141.532C152.191 136.434 158.194 129.807 162.115 124.813C162.277 124.605 162.577 124.572 162.785 124.735C162.993 124.897 163.025 125.196 162.863 125.405C158.915 130.425 152.874 137.103 147.295 142.234C142.84 146.338 138.652 149.472 136.012 150.038ZM165.822 121.353C165.678 121.574 165.379 121.633 165.158 121.49C164.937 121.347 164.879 121.048 165.022 120.826C165.223 120.521 165.399 120.235 165.555 119.981C165.718 119.708 165.848 119.474 165.958 119.266C166.075 119.032 166.361 118.941 166.595 119.058C166.83 119.175 166.921 119.461 166.804 119.695C166.68 119.942 166.537 120.202 166.381 120.462C166.212 120.742 166.03 121.041 165.828 121.347L165.822 121.353ZM177.651 106.409C177.585 106.663 177.325 106.819 177.065 106.747C176.805 106.676 176.656 106.422 176.727 106.162L176.818 105.83L176.909 105.505C176.981 105.252 177.247 105.109 177.501 105.18C177.755 105.252 177.898 105.518 177.826 105.772L177.735 106.078L177.651 106.396V106.409ZM157.92 152.099C157.003 155.084 155.261 158.928 152.848 162.634C150.553 166.172 147.659 169.586 144.323 172.018H131.603C132.312 171.686 133.007 171.277 133.684 170.808C135.817 169.339 137.735 167.29 139.016 165.268C139.868 163.922 141.988 162.816 144.706 161.405C148.491 159.435 153.407 156.879 157.92 152.099ZM112.705 172.025H111.235C109.675 170.802 108.394 169.17 107.184 167.622C105.87 165.951 104.635 164.371 103.172 163.447C103.1 163.402 103.022 163.376 102.938 163.376C101.585 163.311 100.687 163.122 100.304 162.563C99.9006 161.977 99.9526 160.904 100.492 159.051C100.779 158.076 102.17 155.474 103.887 152.496C106.052 148.737 108.725 144.406 110.338 142.007C110.488 141.786 110.422 141.493 110.208 141.343C109.993 141.194 109.694 141.259 109.545 141.473C107.925 143.886 105.24 148.237 103.061 152.021C102.034 153.803 101.117 155.468 100.466 156.749C99.2633 154.694 98.1513 153.328 97.0263 152.314C95.9338 151.326 94.8478 150.682 93.6772 150.051C99.4974 144.192 106.417 138.235 112.796 133.241C118.837 128.513 124.391 124.65 128.072 122.55C126.361 124.585 124.417 127.427 122.583 130.529C120.066 134.782 117.745 139.536 116.496 143.366C114.181 150.474 112.9 168.923 112.692 172.025H112.705ZM100.531 127.089C101.305 123.61 101.806 120.293 101.839 117.373L102.71 117.204C112.92 115.214 128.819 112.119 136.265 114.746C134.321 116.476 132.273 118.362 130.107 120.423C130.036 120.456 129.957 120.488 129.879 120.527C126.355 116.138 111.326 122.472 100.538 127.082L100.531 127.089ZM128.995 120.963C125.347 122.836 119.084 127.108 112.217 132.486C106.17 137.22 99.6405 142.813 94.0154 148.373L94.4186 147.209C96.415 141.408 98.7561 134.606 100.265 128.246L100.427 128.175C110.845 123.72 125.646 117.393 128.995 120.963ZM98.8211 80.3582C98.5805 80.4623 98.3009 80.3582 98.1903 80.1111C98.0863 79.8705 98.1903 79.5909 98.4374 79.4803C100.753 78.4659 102.729 77.2368 104.251 75.7151C105.753 74.2129 106.813 72.4246 107.314 70.2721C107.373 70.0185 107.626 69.8559 107.886 69.9144C108.14 69.9729 108.302 70.2265 108.244 70.4867C107.698 72.8278 106.553 74.7656 104.921 76.3979C103.308 78.0041 101.234 79.2982 98.8146 80.3647L98.8211 80.3582ZM94.4641 107.801C94.3536 107.56 94.4641 107.281 94.7047 107.17C94.9453 107.06 95.225 107.17 95.3355 107.411C95.5891 107.97 95.9598 108.536 96.428 109.101C96.9092 109.68 97.4945 110.266 98.1643 110.851C98.3594 111.026 98.3854 111.326 98.2098 111.521C98.0863 111.657 97.9042 111.709 97.7416 111.67C96.4995 111.391 95.316 111.195 94.2105 111.111C94.0479 111.098 93.8853 111.085 93.7228 111.078C93.8853 111.15 94.0414 111.221 94.1975 111.3C95.0624 111.729 95.7712 112.229 96.2915 112.808C96.467 113.003 96.4475 113.302 96.2524 113.478C96.0573 113.654 95.7582 113.634 95.5826 113.439C95.1469 112.951 94.5356 112.529 93.7748 112.151C92.9879 111.761 92.0515 111.436 90.9785 111.15C90.7964 111.104 90.6533 110.948 90.6273 110.753C90.5948 110.493 90.7769 110.253 91.037 110.22C92.0385 110.083 93.1245 110.07 94.282 110.161C94.9388 110.214 95.6216 110.305 96.324 110.422C96.0964 110.188 95.8883 109.953 95.6932 109.713C95.1664 109.075 94.7502 108.445 94.4576 107.801H94.4641ZM83.9422 169.391C83.7016 169.495 83.4155 169.384 83.3115 169.144C83.2074 168.903 83.318 168.617 83.5651 168.513C84.43 168.142 85.4314 167.908 86.5109 167.967C87.4214 168.019 88.3903 168.272 89.3723 168.825C89.5999 168.955 89.6844 169.241 89.5543 169.475C89.4243 169.703 89.1381 169.788 88.904 169.657C88.0586 169.183 87.2328 168.962 86.4589 168.923C85.5355 168.871 84.6771 169.079 83.9357 169.397L83.9422 169.391Z" fill="white"></path><path fill-rule="evenodd" clip-rule="evenodd" d="M159.462 26.6282C159.111 27.6167 158.668 28.5661 158.116 29.4115C157.53 30.3089 156.815 31.0893 155.983 31.6745C156.822 32.2598 157.53 33.0402 158.116 33.9376C158.668 34.783 159.117 35.7259 159.462 36.7209C159.813 35.7324 160.255 34.783 160.808 33.9376C161.393 33.0402 162.102 32.2598 162.941 31.6745C162.102 31.0893 161.393 30.3089 160.808 29.4115C160.255 28.5726 159.806 27.6232 159.462 26.6282ZM157.316 28.8847C158.09 27.7012 158.649 26.2835 159 24.8464C159.039 24.6773 159.169 24.5407 159.351 24.4952C159.605 24.4302 159.865 24.5863 159.93 24.8464C160.281 26.2835 160.84 27.7012 161.614 28.8847C162.278 29.8927 163.097 30.7316 164.085 31.2453C164.17 31.2908 164.242 31.3559 164.287 31.4469C164.411 31.681 164.32 31.9672 164.085 32.0907C163.097 32.611 162.278 33.4433 161.614 34.4513C160.84 35.6349 160.281 37.0525 159.93 38.4897C159.891 38.6587 159.761 38.7953 159.579 38.8408C159.325 38.9059 159.065 38.7498 159 38.4897C158.649 37.0525 158.09 35.6349 157.316 34.4513C156.653 33.4433 155.833 32.6045 154.845 32.0907C154.76 32.0452 154.689 31.9802 154.643 31.8891C154.52 31.655 154.611 31.3689 154.845 31.2453C155.833 30.7251 156.653 29.8927 157.316 28.8847Z" fill="white"></path><path fill-rule="evenodd" clip-rule="evenodd" d="M177.637 14.4812C177.423 15.0079 177.169 15.5152 176.87 15.9769C176.506 16.5296 176.077 17.0173 175.576 17.401C176.077 17.7847 176.506 18.2724 176.87 18.8252C177.169 19.2869 177.423 19.7876 177.637 20.3209C177.852 19.7941 178.106 19.2869 178.405 18.8252C178.769 18.2724 179.198 17.7847 179.692 17.401C179.192 17.0173 178.762 16.5296 178.405 15.9769C178.106 15.5152 177.852 15.0144 177.637 14.4812ZM176.07 15.4501C176.577 14.6763 176.941 13.7463 177.176 12.8034C177.215 12.6343 177.345 12.4978 177.527 12.4522C177.78 12.3872 178.04 12.5433 178.106 12.8034C178.34 13.7463 178.704 14.6763 179.211 15.4501C179.64 16.1069 180.167 16.6402 180.798 16.9718C180.882 17.0173 180.954 17.0824 180.999 17.1734C181.123 17.4075 181.032 17.6937 180.798 17.8172C180.167 18.1489 179.634 18.6886 179.211 19.3389C178.704 20.1128 178.34 21.0427 178.106 21.9856C178.067 22.1547 177.936 22.2913 177.754 22.3368C177.501 22.4018 177.241 22.2458 177.176 21.9856C176.941 21.0427 176.577 20.1128 176.07 19.3389C175.641 18.6886 175.114 18.1489 174.483 17.8172C174.399 17.7717 174.327 17.7067 174.282 17.6156C174.158 17.3815 174.249 17.0954 174.483 16.9718C175.114 16.6402 175.647 16.1004 176.07 15.4501Z" fill="white"></path><path fill-rule="evenodd" clip-rule="evenodd" d="M209.516 85.2688C209.041 86.7254 208.404 88.1236 207.597 89.3526C206.784 90.5947 205.796 91.6612 204.619 92.4351C205.796 93.2089 206.784 94.2754 207.597 95.5175C208.404 96.7465 209.034 98.1447 209.516 99.6014C209.99 98.1447 210.628 96.7465 211.434 95.5175C212.247 94.2754 213.235 93.2089 214.412 92.4351C213.235 91.6612 212.247 90.5947 211.434 89.3526C210.628 88.1236 209.997 86.7254 209.516 85.2688ZM206.804 88.8324C207.844 87.2457 208.586 85.3468 209.054 83.4284C209.093 83.2593 209.223 83.1228 209.405 83.0772C209.659 83.0122 209.919 83.1683 209.984 83.4284C210.458 85.3468 211.2 87.2457 212.234 88.8324C213.125 90.1915 214.23 91.3166 215.563 92.0189C215.648 92.0644 215.719 92.1294 215.765 92.2205C215.888 92.4546 215.797 92.7407 215.563 92.8643C214.23 93.5666 213.125 94.6916 212.234 96.0507C211.193 97.6375 210.452 99.5363 209.984 101.455C209.945 101.624 209.815 101.76 209.633 101.806C209.379 101.871 209.119 101.715 209.054 101.455C208.579 99.5363 207.838 97.6375 206.797 96.0507C205.906 94.6916 204.801 93.5666 203.468 92.8643C203.383 92.8187 203.312 92.7537 203.266 92.6627C203.143 92.4286 203.234 92.1424 203.468 92.0189C204.801 91.3166 205.906 90.1915 206.797 88.8324H206.804Z" fill="white"></path></g><defs><filter id="filter0_d_1429_31800" x="54" y="0" width="202.406" height="179" filterUnits="userSpaceOnUse" color-interpolation-filters="sRGB"><feFlood flood-opacity="0" result="BackgroundImageFix"></feFlood><feColorMatrix in="SourceAlpha" type="matrix" values="0 0 0 0 0 0 0 0 0 0 0 0 0 0 0 0 0 0 127 0" result="hardAlpha"></feColorMatrix><feOffset></feOffset><feGaussianBlur stdDeviation="3"></feGaussianBlur><feComposite in2="hardAlpha" operator="out"></feComposite><feColorMatrix type="matrix" values="0 0 0 0 1 0 0 0 0 1 0 0 0 0 1 0 0 0 1 0"></feColorMatrix><feBlend mode="normal" in2="BackgroundImageFix" result="effect1_dropShadow_1429_31800"></feBlend><feBlend mode="normal" in="SourceGraphic" in2="effect1_dropShadow_1429_31800" result="shape"></feBlend></filter></defs></svg>