<svg xmlns="http://www.w3.org/2000/svg"  xmlns:xlink="http://www.w3.org/1999/xlink"  width="311" height="179" viewBox="0 0 311 179" fill="none"><g filter="url(#filter0_d_1429_31856)"><path fill-rule="evenodd" clip-rule="evenodd" d="M225.852 49.3414C225.852 50.4557 225.402 51.4698 224.669 52.2022C223.937 52.9346 222.929 53.3853 221.808 53.3853C220.688 53.3853 219.68 52.9346 218.947 52.2022C218.215 51.4698 217.764 50.4619 217.764 49.3414C217.764 48.2208 218.215 47.213 218.947 46.4868C219.68 45.7544 220.688 45.3037 221.802 45.3037C222.916 45.3037 223.93 45.7544 224.657 46.4868C225.389 47.2192 225.84 48.2334 225.84 49.3476L225.852 49.3414ZM201.238 57.0662C201.006 56.9598 200.906 56.6906 201.013 56.459C201.119 56.2274 201.388 56.1272 201.62 56.2337C202.321 56.5529 202.909 57.0725 203.322 57.711C203.723 58.3308 203.955 59.0695 203.955 59.8645C203.955 60.6595 203.723 61.3982 203.322 62.0179C202.909 62.6564 202.321 63.176 201.62 63.4953C201.388 63.6017 201.119 63.4953 201.013 63.2699C200.906 63.0383 201.013 62.7691 201.238 62.6627C201.776 62.4186 202.227 62.0179 202.546 61.5234C202.853 61.0476 203.028 60.478 203.028 59.8645C203.028 59.251 202.853 58.6876 202.546 58.2056C202.227 57.711 201.776 57.3166 201.238 57.0662ZM126.155 57.7799C126.888 58.1618 127.526 58.5749 128.077 59.0131C130.036 60.5656 130.913 62.4999 130.963 64.885C130.963 65.1354 131.176 65.342 131.432 65.3357C131.508 65.3357 131.576 65.317 131.633 65.2857C134.043 64.0336 136.572 63.32 138.825 63.0383C141.311 62.7316 143.458 62.9507 144.735 63.5579L144.804 63.5892L144.835 63.608L144.86 63.6205C146.588 64.4593 148.103 65.2857 149.543 66.0682C152.241 67.5393 154.651 68.8476 157.599 69.7929C151.515 73.0669 145.956 75.0513 140.528 72.4033C140.303 72.2906 140.027 72.3845 139.915 72.6161C139.846 72.7601 139.858 72.9291 139.94 73.0606C141.855 76.6476 145.818 80.028 151.803 81.2487C153.737 81.6431 155.884 81.8121 158.238 81.6869C168.316 86.7763 175.553 82.6885 181.832 76.6789C189.607 78.3879 196.574 78.4129 202.853 77.0169C209.163 75.6147 214.772 72.7852 219.811 68.7913C221.94 68.5283 224.074 66.9195 226.309 65.2418C227.937 64.0211 229.621 62.7566 231.342 61.9866C233.49 61.0351 234.56 60.3715 235.092 59.7643C235.624 59.1571 235.656 58.65 235.605 58.0365C235.656 58.0052 235.712 57.9802 235.762 57.9489C236.476 57.542 237.058 57.0537 237.433 56.5279C237.853 55.9457 238.016 55.3134 237.828 54.6749C237.734 54.3557 237.552 54.0427 237.271 53.7484L237.252 53.7297C236.77 53.2664 236.307 52.5277 235.693 51.5512L235.674 51.5199C234.234 49.2162 231.975 45.6292 226.497 40.8278C223.392 38.1046 219.379 36.1891 214.847 34.8932C213.094 32.0387 209.608 28.2075 204.725 25.4844C203.391 24.7395 201.958 24.0759 200.424 23.5376C197.889 20.4451 189.676 19.2557 181.143 18.0287C173.988 16.9958 166.601 15.9316 162.369 13.7281C159.333 12.1443 157.975 9.94706 159.684 6.67307C159.803 6.44771 159.715 6.17227 159.49 6.05333C159.358 5.98447 159.214 5.98447 159.089 6.04081C156.554 6.92347 154.476 8.07531 152.929 9.3774C149.543 9.41496 146.726 10.5355 144.697 12.232C142.481 14.0849 141.192 16.6202 141.104 19.1869C139.646 19.9381 138.55 21.0586 137.799 22.4108C136.947 23.9382 136.534 25.7536 136.534 27.6692C136.534 27.9697 136.559 28.2701 136.603 28.5644C137.01 33.0278 138.45 36.4144 140.566 38.8496C142.193 40.7213 144.209 42.0234 146.463 42.8184C146.6 42.8685 146.732 42.9123 146.87 42.9562C145.887 43.4444 144.954 43.9828 144.034 44.5337C140.503 44.8342 137.429 43.7512 134.731 42.7934C131.439 41.629 128.678 40.6525 126.149 42.4303C125.942 42.5743 125.892 42.8623 126.036 43.0688C126.105 43.169 126.212 43.2316 126.324 43.2566C127.307 43.4507 128.459 44.5337 129.097 45.9547C129.429 46.7059 129.617 47.5448 129.548 48.3899C129.479 49.2287 129.166 50.0801 128.503 50.8626C128.334 51.0629 128.146 51.2507 127.939 51.4385C127.132 51.8454 126.155 52.1709 125.072 52.3963C122.593 52.9159 119.588 52.9096 116.884 52.1271C114.217 51.3571 111.839 49.8359 110.555 47.3256C110.211 46.6496 109.942 45.8984 109.766 45.072C108.84 40.6462 107.738 36.8276 105.435 33.4597C103.131 30.0918 99.6315 27.2059 93.9223 24.6644C88.4135 22.2167 85.6466 19.9318 84.4008 17.3464C83.1614 14.7735 83.4118 11.8188 83.9439 8.06905C83.9626 7.92507 83.9188 7.78109 83.8061 7.67467C83.6246 7.49939 83.3304 7.50565 83.1551 7.69345C82.623 8.2506 82.1222 8.8453 81.6527 9.4713C79.2489 12.6702 77.7464 16.6202 77.64 20.539C77.5837 22.5547 77.9029 24.5642 78.6604 26.4547C77.0015 29.3782 76.5883 32.1013 77.0766 34.5427C77.3521 35.9199 77.9155 37.1969 78.7042 38.3613L78.6103 38.6367C77.7214 41.4538 77.9968 44.0141 79.2614 46.1425C80.5134 48.2459 82.7357 49.911 85.7468 50.9502C85.9471 51.0191 86.1036 51.0754 86.2225 51.113H86.2538C89.0333 51.9581 92.0944 52.3837 94.9928 52.7844C98.0352 53.2101 100.896 53.6045 102.981 54.4183C102.592 54.4934 102.204 54.5748 101.822 54.6624C95.575 56.0959 89.4089 59.42 85.0081 63.7832C80.5635 68.184 77.9029 73.649 78.723 79.3269C78.7668 79.6524 78.8294 79.9779 78.8983 80.3034C77.2081 82.8513 76.4694 85.8937 77.7089 90.4134C76.9765 91.9784 76.5508 93.7187 76.5508 95.7344C76.5508 97.2493 77.014 98.6829 77.7402 99.841C78.5102 101.062 79.5869 101.976 80.7513 102.339C80.8577 102.376 80.9766 102.376 81.083 102.339C81.3209 102.245 81.4336 101.976 81.3334 101.738C80.7763 100.367 80.4821 98.6641 81.4086 96.8362C82.3663 94.9456 84.6137 92.9111 89.1647 90.9142C97.0962 87.4461 101.791 77.4739 105.328 69.9682C106.035 68.4657 106.693 67.0698 107.306 65.8741C108.884 62.7879 111.682 60.672 114.768 59.3449C118.768 57.6296 123.232 57.2353 126.168 57.7736L126.155 57.7799ZM79.6307 79.2831L79.6182 79.2017C78.8419 73.8368 81.3898 68.6473 85.6403 64.4406C89.9222 60.1963 95.9318 56.9661 102.017 55.5638C102.855 55.3698 103.694 55.2133 104.533 55.0881C104.665 55.0693 104.79 54.9942 104.865 54.869C104.996 54.6499 104.921 54.3682 104.708 54.2367C102.448 52.8908 98.9178 52.4025 95.1055 51.8704C92.2447 51.476 89.2211 51.0566 86.5042 50.2366H86.4917C86.2976 50.1677 86.1411 50.1176 86.0347 50.0801C83.2365 49.1098 81.1832 47.5886 80.0439 45.673C78.9671 43.8639 78.698 41.6854 79.3741 39.269C80.0376 40.0765 80.8076 40.8215 81.6715 41.4913C84.2506 43.507 87.0676 44.4022 89.8408 45.2849C92.6703 46.1801 95.4435 47.0627 97.7723 49.1098C97.9601 49.2788 98.2543 49.26 98.4233 49.0659C98.5923 48.8781 98.5735 48.5839 98.3795 48.4149C95.9068 46.2364 93.0334 45.3287 90.1162 44.4022C87.4182 43.5446 84.67 42.6745 82.2286 40.7652C80.0376 39.0499 78.4601 36.8777 77.9593 34.3611C77.5461 32.3016 77.8466 29.9917 79.1174 27.5127C79.8248 28.9212 80.7951 30.2546 82.0596 31.4565C82.4978 31.8697 82.9673 32.2703 83.4806 32.6584C85.5214 34.1921 87.9065 35.4191 90.3416 36.6774C95.456 39.3128 100.802 42.0735 103.325 47.9078C103.425 48.1395 103.694 48.2459 103.926 48.1457C104.157 48.0456 104.264 47.7764 104.164 47.5448C101.509 41.4037 96.0132 38.5679 90.7548 35.8636C88.3509 34.6241 85.9972 33.4096 84.019 31.926C83.5432 31.5692 83.0925 31.1873 82.6793 30.7929C79.6558 27.9196 78.435 24.2637 78.5289 20.5703C78.6291 16.8519 80.0627 13.0833 82.3601 10.0347C82.5041 9.84064 82.6543 9.65284 82.8045 9.46504C82.4102 12.6827 82.3789 15.3307 83.5432 17.7596C84.8829 20.5453 87.7813 22.9742 93.5217 25.522C99.0556 27.9822 102.436 30.7616 104.646 33.9981C106.862 37.2345 107.932 40.9592 108.834 45.2786C109.022 46.1863 109.322 47.0126 109.704 47.7639C111.119 50.5245 113.704 52.1959 116.596 53.0285C118.85 53.6796 121.297 53.8236 123.507 53.5857C122.099 53.9613 120.396 54.2305 118.349 54.3682C118.099 54.387 117.904 54.6061 117.923 54.8565C117.936 55.0818 118.111 55.2571 118.324 55.2821C120.296 55.6828 122.005 56.1335 123.47 56.6468C120.709 56.6468 117.41 57.2102 114.38 58.5123C111.119 59.9146 108.145 62.1619 106.461 65.4672C105.823 66.7192 105.165 68.1027 104.47 69.5863C100.996 76.9606 96.3888 86.7513 88.7703 90.0816C83.9939 92.1725 81.6026 94.3697 80.5572 96.4293C79.7058 98.107 79.7371 99.6782 80.1002 101.043C79.4867 100.649 78.9296 100.066 78.4851 99.359C77.8466 98.3448 77.4397 97.0803 77.4397 95.7407C77.4397 94.2696 77.6838 92.955 78.122 91.753C78.4726 90.7827 78.9546 89.8813 79.5368 89.0299C80.8452 87.1206 82.6668 85.4742 84.6638 83.8717C91.8127 78.1375 94.7487 73.0043 97.1275 68.8351C99.306 65.0227 101.009 62.043 105.122 60.2338C105.353 60.1337 105.46 59.8582 105.359 59.6266C105.259 59.395 104.984 59.2886 104.752 59.3887C100.364 61.3231 98.5923 64.4155 96.3262 68.3718C93.9787 72.4722 91.0928 77.524 84.0816 83.1518C82.0283 84.7981 80.1503 86.5009 78.7731 88.5041C78.6166 88.7357 78.4663 88.9673 78.3224 89.1989C76.9076 82.6572 80.2505 79.5522 84.1817 75.9152C86.0097 74.2187 87.9628 72.4158 89.653 70.0996C89.8032 69.893 89.7594 69.6113 89.5528 69.4611C89.3463 69.3108 89.0646 69.3547 88.9143 69.5612C87.2742 71.8023 85.3586 73.5802 83.562 75.2454C82.1034 76.5975 80.72 77.8746 79.6057 79.2768L79.6307 79.2831ZM142.45 45.4977C139.42 45.4289 136.778 44.4961 134.412 43.6573C131.733 42.712 129.435 41.8982 127.464 42.7371C128.421 43.2879 129.36 44.3271 129.917 45.5854C130.312 46.468 130.531 47.4571 130.45 48.465C130.368 49.4854 129.986 50.512 129.191 51.4635C127.87 53.0223 125.391 54.3557 121.178 54.9817C124.503 55.8518 126.944 56.941 128.647 58.2932C130.644 59.877 131.633 61.8051 131.839 64.1526C134.162 63.0383 136.553 62.3935 138.713 62.1243C139.589 62.0179 140.428 61.9741 141.217 61.9866C138.882 61.0288 136.177 60.0836 132.903 59.1947C132.659 59.1321 132.515 58.8754 132.578 58.6313C132.641 58.3871 132.897 58.2431 133.141 58.3057C138.262 59.6955 142.018 61.2229 145.117 62.719L145.223 62.7691C146.982 63.6205 148.529 64.4656 149.987 65.2544C152.898 66.8381 155.471 68.2341 158.732 69.1669C160.059 68.4282 161.412 67.6394 162.789 66.8381C169.537 62.9006 176.968 58.5687 185.644 57.6046C185.895 57.5796 186.126 57.7611 186.151 58.0115C186.176 58.2619 185.995 58.4935 185.744 58.5186C177.262 59.4576 169.919 63.7457 163.252 67.6332C156.685 71.4643 150.757 74.9198 144.967 74.5254C147.32 75.4707 149.774 76.1343 152.341 76.3659C156.535 76.7478 161.042 75.9778 165.925 73.3986C168.504 72.034 171.177 70.2436 173.944 68.3844C181.869 63.0696 190.59 57.2227 200.537 59.0069C200.775 59.0256 200.962 59.226 200.962 59.4638C200.962 59.6892 200.806 59.8707 200.593 59.9146C196.023 61.2166 191.929 65.7614 187.635 70.5315C187.165 71.0574 186.69 71.5832 186.214 72.1028C189.269 72.829 192.236 73.1858 195.116 73.167C198.227 73.142 201.238 72.6725 204.143 71.746C204.387 71.6709 204.643 71.8023 204.718 72.0465C204.794 72.2906 204.662 72.5473 204.418 72.6224C201.419 73.5802 198.321 74.0622 195.122 74.0872C192.011 74.1123 188.805 73.7054 185.506 72.8791C184.561 73.9057 183.603 74.9261 182.621 75.8964C190.026 77.4489 196.662 77.4426 202.653 76.1092C208.506 74.8071 213.752 72.2405 218.491 68.6348C217.27 68.2779 215.642 67.3577 214.015 65.9993C212.481 64.7223 210.928 63.0446 209.695 61.0852C208.456 59.1133 207.548 56.8471 207.31 54.3932C207.135 52.6028 207.323 50.7248 207.999 48.7905C206.828 50.9565 206.24 53.3102 206.309 55.7078C206.402 59.0569 207.767 62.5062 210.584 65.7051C211.429 66.6629 212.412 67.6019 213.539 68.5096C213.739 68.6723 213.764 68.9603 213.608 69.1543C213.445 69.3547 213.157 69.3797 212.963 69.2232C211.805 68.2905 210.791 67.3139 209.902 66.3123C206.928 62.9444 205.495 59.2886 205.395 55.7329C205.294 52.1709 206.54 48.7216 208.925 45.7669C209.201 45.4226 209.495 45.0908 209.802 44.759C205.745 43.1001 201.15 42.0359 195.961 41.6353C190.483 41.2159 184.336 41.5289 177.456 42.6682C177.206 42.7058 176.968 42.5367 176.93 42.2863C176.886 42.0359 177.062 41.7981 177.312 41.7605C184.267 40.6149 190.483 40.2894 196.03 40.7213C201.47 41.1408 206.277 42.2738 210.503 44.0517C210.709 43.8513 210.922 43.6573 211.141 43.4632C211.31 43.313 211.561 43.3067 211.736 43.457C211.93 43.6197 211.955 43.9077 211.792 44.1017C208.825 47.6637 207.924 51.1505 208.224 54.3056C208.443 56.603 209.307 58.7314 210.471 60.5969C211.648 62.4686 213.132 64.0712 214.597 65.2919C216.644 67.0009 218.597 67.9587 219.561 67.8773H219.599C221.508 67.6832 223.58 66.1245 225.752 64.4906C227.424 63.2324 229.158 61.9303 230.967 61.129C232.976 60.2401 233.953 59.6516 234.397 59.1446C234.591 58.9192 234.666 58.7001 234.691 58.456C233.765 58.8316 232.713 59.0945 231.687 59.1634C230.441 59.251 229.339 59.1759 228.363 59.1133C226.704 59.0006 225.439 58.913 224.613 59.7768C224.438 59.9584 224.143 59.9646 223.962 59.7894C223.78 59.6141 223.774 59.3199 223.949 59.1383C225.07 57.9677 226.522 58.0678 228.419 58.1993C229.364 58.2619 230.435 58.337 231.618 58.2494C232.864 58.1618 234.203 57.7736 235.299 57.1414C235.9 56.7971 236.382 56.4027 236.676 55.9833C236.933 55.6264 237.039 55.2634 236.939 54.9191C236.889 54.7438 236.776 54.556 236.601 54.3744C236.031 53.8298 235.549 53.0536 234.904 52.0207L234.886 51.9894C233.471 49.7295 231.261 46.2176 225.877 41.5038C220.788 37.0467 213.126 34.7993 204.718 33.9292C193.331 32.7461 180.599 34.0857 171.015 35.8385C170.583 36.2204 170.163 36.596 169.75 36.9591C165.174 40.9342 159.252 43.4069 153.687 43.7387C151.803 43.8513 149.956 43.7199 148.216 43.3192C146.338 44.1518 144.647 45.2035 142.932 46.2677C140.052 48.0581 137.123 49.8735 133.129 50.8187C132.885 50.8751 132.634 50.7248 132.578 50.4744C132.522 50.2303 132.672 49.9799 132.922 49.9236C136.772 49.0159 139.639 47.238 142.45 45.4915V45.4977ZM153.63 42.831C151.346 42.9687 148.923 42.7183 146.751 41.9483C144.647 41.2034 142.757 39.9826 141.242 38.2424C139.808 36.5897 138.7 34.4676 138.049 31.8196C138.631 32.5583 139.383 33.2469 140.284 33.8603C142.444 35.3252 145.511 36.3393 149.386 36.5271C159.033 36.9966 165.806 33.2156 172.442 29.5096C173.193 29.0902 173.938 28.6708 174.689 28.2639C174.708 28.2576 174.72 28.2451 174.739 28.2388C179.891 25.4281 185.137 22.9742 191.76 22.9742H191.979C182.464 24.3639 176.686 29.5409 171.371 34.3111C170.639 34.9684 169.9 35.6319 169.155 36.2767C164.729 40.1204 159.008 42.5117 153.637 42.831H153.63ZM191.347 24.0133C193.106 23.7129 194.997 23.5438 197.044 23.5376C198.052 23.7567 199.022 24.0321 199.955 24.3514C199.973 24.3576 199.992 24.3639 200.011 24.3702C201.532 24.896 202.947 25.547 204.261 26.2857C208.525 28.6645 211.686 31.901 213.501 34.5364C211.216 33.9542 208.813 33.516 206.34 33.2093C204.85 31.0183 202.603 29.0589 199.767 27.425C197.35 26.0291 194.502 24.871 191.341 24.0133H191.347ZM205.107 33.0653L204.812 33.034C202.502 32.7961 200.142 32.6584 197.757 32.6083C195.566 30.9807 193.194 29.6035 190.452 28.6332C188.086 27.7944 185.444 27.2498 182.414 27.0995C184.467 25.9978 186.721 25.0775 189.275 24.4453C193.1 25.3154 196.505 26.605 199.31 28.2201C201.732 29.6161 203.704 31.2562 205.107 33.0653ZM196.155 32.5833C192.943 32.5645 189.707 32.6897 186.552 32.9276C185.356 31.9698 183.841 31.3125 182.045 30.9369C180.592 30.6364 178.952 30.5175 177.149 30.5738C178.332 29.6536 179.572 28.7772 180.899 27.9697C184.461 27.9947 187.491 28.5518 190.151 29.4971C192.361 30.2796 194.333 31.3376 196.155 32.5833ZM185.106 33.0403C180.567 33.4221 176.217 34.0168 172.317 34.6929C173.481 33.6538 174.67 32.5958 175.916 31.5692C178.151 31.4002 180.148 31.4815 181.857 31.8384C183.096 32.095 184.186 32.4957 185.106 33.0465V33.0403ZM153.436 10.1349C154.707 9.04562 156.372 8.06905 158.394 7.26777C157.136 10.5856 158.72 12.8705 161.937 14.5419C166.301 16.8143 173.769 17.891 181.006 18.9365C187.967 19.9381 194.709 20.9146 198.095 22.8364C196.023 22.3169 193.895 22.0539 191.76 22.0539C189.826 22.0539 188.01 22.2543 186.283 22.6048C182.433 21.8536 177.556 22.3043 172.642 22.7613C166.113 23.3623 159.515 23.9758 155.421 21.7347C153.593 20.7393 152.31 19.6063 151.515 18.4231C150.688 17.1899 150.4 15.8941 150.601 14.6233C150.801 13.3337 151.508 12.0442 152.666 10.8548C152.873 10.6419 153.098 10.4291 153.336 10.2225C153.374 10.1975 153.405 10.1724 153.436 10.1349ZM151.884 10.3414C150.669 11.631 149.918 13.0458 149.693 14.4793C149.455 15.9817 149.787 17.5029 150.751 18.9302C151.627 20.2323 153.023 21.4655 154.983 22.536C159.315 24.9085 166.057 24.2825 172.724 23.669C176.636 23.3059 180.53 22.9491 183.848 23.2058C180.448 24.2074 177.35 25.7599 174.295 27.4313C167.935 29.9666 162.626 30.9807 158.269 30.9807C153.912 30.9807 150.194 29.8727 147.621 28.2451C145.073 26.63 143.439 24.5141 142.625 22.4734C142.206 21.4217 142.006 20.395 142.006 19.4686C142.006 17.0772 143.182 14.6734 145.273 12.9331C146.945 11.5371 149.192 10.5668 151.89 10.3414H151.884ZM169.518 30.0856C163.753 33.2281 157.631 36.0138 149.43 35.6194C145.743 35.4379 142.832 34.4801 140.804 33.1029C138.888 31.8071 137.755 30.1356 137.498 28.4204C137.473 28.1762 137.455 27.9196 137.442 27.6692C137.442 25.9039 137.811 24.2387 138.588 22.8552C139.189 21.7785 140.027 20.8708 141.129 20.2198C141.211 21.0461 141.423 21.9287 141.78 22.8177C142.663 25.0212 144.409 27.2998 147.139 29.0276C149.849 30.7429 153.524 31.9072 158.275 31.9072C161.512 31.9072 165.249 31.3626 169.525 30.0856H169.518ZM207.598 71.4267C207.366 71.5269 207.097 71.4267 206.991 71.1951C206.891 70.9635 206.991 70.6943 207.222 70.5879L207.949 70.2561C208.18 70.1497 208.449 70.2436 208.562 70.4752C208.669 70.7068 208.575 70.976 208.343 71.0887L207.598 71.433V71.4267ZM149.549 50.3743C149.311 50.4619 149.048 50.3367 148.96 50.0988C148.873 49.861 148.998 49.598 149.236 49.5104L150.889 48.9157C151.126 48.8281 151.389 48.9533 151.477 49.1911C151.565 49.429 151.439 49.6919 151.202 49.7796L149.555 50.3743H149.549ZM156.328 48.0205C156.084 48.1019 155.828 47.9642 155.746 47.7263C155.665 47.4822 155.803 47.2255 156.041 47.1441C158.288 46.4054 160.473 45.7356 162.595 45.1346C164.698 44.5337 166.776 43.9891 168.817 43.5008C169.061 43.4444 169.312 43.5947 169.368 43.8388C169.424 44.083 169.274 44.3334 169.03 44.3897C167.052 44.8655 164.992 45.4038 162.851 46.0173C160.729 46.6245 158.557 47.2881 156.328 48.0205ZM176.298 75.8087C179.315 73.912 181.851 71.4017 184.348 68.929C188.28 65.0353 192.123 61.2292 197.582 60.2025C193.876 62.2433 190.483 66.0118 186.953 69.9306C179.735 77.9434 171.954 86.5822 160.091 81.5367C162.977 81.2112 166.15 80.4662 169.612 79.1829C169.85 79.0953 169.975 78.8323 169.888 78.5945C169.8 78.3566 169.537 78.2314 169.299 78.319C165.224 79.8214 161.568 80.5789 158.332 80.7604H158.319H158.307C155.99 80.8919 153.887 80.7291 151.997 80.3473C147.101 79.3519 143.639 76.8479 141.624 74.0121C144.954 75.7023 148.485 76.9418 152.266 77.2861C156.629 77.6868 161.305 76.8917 166.363 74.2187C168.98 72.8352 171.672 71.0324 174.464 69.1543C181.024 64.7536 188.148 59.9772 195.973 59.6266C191.022 61.0226 187.403 64.6096 183.704 68.2717C181.243 70.7068 178.746 73.1858 175.81 75.0262C175.597 75.164 175.528 75.4457 175.666 75.6585C175.803 75.8714 176.085 75.9402 176.298 75.8025V75.8087ZM224.018 51.5512C224.582 50.9878 224.932 50.2053 224.932 49.3414C224.932 48.4775 224.582 47.695 224.018 47.1316C223.455 46.5682 222.672 46.2176 221.808 46.2176C220.944 46.2176 220.162 46.5682 219.599 47.1316C219.035 47.695 218.685 48.4775 218.685 49.3414C218.685 50.2053 219.035 50.9815 219.599 51.5512C220.162 52.1146 220.944 52.4651 221.808 52.4651C222.672 52.4651 223.448 52.1146 224.018 51.5512Z" fill="white"></path><path fill-rule="evenodd" clip-rule="evenodd" d="M85.0455 129.658C85.0455 128.544 85.4962 127.53 86.2286 126.798C86.9611 126.065 87.9689 125.614 89.0895 125.614C90.21 125.614 91.2179 126.065 91.9503 126.798C92.6827 127.53 93.1334 128.538 93.1334 129.658C93.1334 130.779 92.6827 131.787 91.9503 132.513C91.2179 133.245 90.21 133.696 89.0957 133.696C87.9814 133.696 86.9673 133.245 86.2412 132.513C85.5087 131.78 85.058 130.766 85.058 129.652L85.0455 129.658ZM109.66 121.933C109.892 122.04 109.992 122.309 109.885 122.541C109.779 122.772 109.51 122.872 109.278 122.766C108.577 122.447 107.988 121.927 107.575 121.289C107.175 120.669 106.943 119.93 106.943 119.135C106.943 118.34 107.175 117.602 107.575 116.982C107.988 116.343 108.577 115.824 109.278 115.504C109.51 115.398 109.779 115.504 109.885 115.73C109.992 115.961 109.885 116.231 109.66 116.337C109.122 116.581 108.671 116.982 108.352 117.476C108.045 117.952 107.87 118.522 107.87 119.135C107.87 119.749 108.045 120.312 108.352 120.794C108.671 121.289 109.122 121.683 109.66 121.933ZM184.743 121.22C184.01 120.838 183.372 120.425 182.821 119.987C180.861 118.434 179.985 116.5 179.935 114.115C179.935 113.864 179.722 113.658 179.465 113.664C179.39 113.664 179.321 113.683 179.265 113.714C176.855 114.966 174.326 115.68 172.072 115.961C169.587 116.268 167.44 116.049 166.163 115.442L166.094 115.411L166.063 115.392L166.038 115.379C164.31 114.54 162.795 113.714 161.355 112.932C158.657 111.46 156.247 110.152 153.299 109.207C159.383 105.933 164.942 103.948 170.37 106.596C170.595 106.709 170.87 106.615 170.983 106.384C171.052 106.24 171.039 106.071 170.958 105.939C169.042 102.352 165.08 98.9717 159.095 97.751C157.161 97.3566 155.014 97.1876 152.66 97.3128C142.581 92.2234 135.345 96.3112 129.066 102.321C121.291 100.612 114.324 100.587 108.045 101.983C101.735 103.385 96.1257 106.215 91.0927 110.208C88.9643 110.471 86.8296 112.074 84.5948 113.758C82.9672 114.979 81.2832 116.243 79.5617 117.013C77.4145 117.965 76.3441 118.628 75.812 119.235C75.2799 119.843 75.2486 120.35 75.2986 120.963C75.2486 120.994 75.1922 121.019 75.1421 121.051C74.4285 121.458 73.8463 121.946 73.4707 122.472C73.0575 123.054 72.8885 123.686 73.0763 124.325C73.1702 124.644 73.3518 124.957 73.6335 125.251L73.6522 125.27C74.1343 125.733 74.5975 126.472 75.211 127.449L75.2298 127.48C76.6696 129.784 78.9294 133.371 84.407 138.172C87.5119 140.895 91.5246 142.811 96.0569 144.106C97.8097 146.961 101.297 150.792 106.179 153.515C107.513 154.26 108.946 154.924 110.48 155.462C113.015 158.555 121.228 159.744 129.761 160.971C136.916 162.004 144.303 163.068 148.535 165.272C151.571 166.849 152.929 169.053 151.22 172.327C151.101 172.552 151.189 172.827 151.414 172.946C151.546 173.015 151.69 173.015 151.815 172.959C154.35 172.076 156.429 170.924 157.975 169.622C161.361 169.585 164.178 168.464 166.207 166.768C168.423 164.915 169.712 162.379 169.8 159.813C171.259 159.062 172.354 157.941 173.105 156.589C173.957 155.061 174.37 153.246 174.37 151.331C174.37 151.03 174.345 150.73 174.301 150.435C173.894 145.966 172.454 142.585 170.338 140.15C168.711 138.278 166.695 136.976 164.441 136.181C164.304 136.131 164.172 136.087 164.034 136.044C165.017 135.555 165.95 135.017 166.87 134.466C170.401 134.166 173.475 135.249 176.173 136.206C179.465 137.371 182.226 138.347 184.755 136.569C184.962 136.425 185.012 136.137 184.868 135.931C184.799 135.831 184.693 135.768 184.58 135.743C183.597 135.549 182.445 134.466 181.807 133.045C181.469 132.294 181.287 131.455 181.356 130.61C181.425 129.771 181.738 128.92 182.401 128.137C182.57 127.943 182.758 127.749 182.965 127.561C183.772 127.154 184.749 126.829 185.832 126.603C188.311 126.084 191.316 126.09 194.02 126.873C196.687 127.643 199.066 129.164 200.349 131.674C200.693 132.35 200.962 133.101 201.138 133.928C202.064 138.354 203.166 142.172 205.47 145.54C207.773 148.908 211.273 151.794 216.982 154.335C222.491 156.783 225.257 159.068 226.503 161.653C227.743 164.226 227.492 167.181 226.96 170.931C226.941 171.075 226.985 171.219 227.098 171.325C227.279 171.5 227.574 171.494 227.749 171.306C228.281 170.749 228.782 170.154 229.251 169.528C231.655 166.33 233.158 162.379 233.264 158.461C233.32 156.445 233.001 154.436 232.244 152.545C233.903 149.622 234.316 146.898 233.827 144.457C233.552 143.08 232.989 141.803 232.2 140.638L232.294 140.363C233.183 137.546 232.907 134.986 231.643 132.857C230.391 130.754 228.168 129.089 225.157 128.05C224.957 127.981 224.8 127.924 224.682 127.887H224.65C221.871 127.042 218.81 126.616 215.911 126.215C212.869 125.796 210.008 125.395 207.923 124.581C208.312 124.506 208.7 124.425 209.082 124.337C215.329 122.904 221.495 119.58 225.896 115.216C230.341 110.816 233.001 105.351 232.181 99.6728C232.137 99.3473 232.075 99.0218 232.006 98.6963C233.696 96.1484 234.435 93.1061 233.195 88.5863C233.928 87.0213 234.353 85.281 234.353 83.2653C234.353 81.7504 233.89 80.3168 233.164 79.1587C232.394 77.938 231.317 77.0241 230.153 76.661C230.046 76.6234 229.927 76.6234 229.821 76.661C229.583 76.7549 229.47 77.0241 229.571 77.2619C230.128 78.6329 230.422 80.3356 229.495 82.1635C228.538 84.0541 226.29 86.0886 221.739 88.0855C213.808 91.5536 209.113 101.526 205.576 109.032C204.869 110.534 204.211 111.93 203.598 113.126C202.02 116.212 199.222 118.328 196.136 119.655C192.136 121.37 187.672 121.764 184.736 121.226L184.743 121.22ZM231.267 99.7166L231.28 99.798C232.056 105.163 229.508 110.352 225.257 114.559C220.976 118.803 214.966 122.034 208.881 123.436C208.042 123.63 207.204 123.786 206.365 123.905C206.233 123.924 206.108 123.999 206.033 124.124C205.901 124.344 205.977 124.625 206.189 124.757C208.449 126.103 211.98 126.591 215.792 127.123C218.653 127.517 221.677 127.937 224.394 128.757H224.406C224.6 128.826 224.757 128.876 224.863 128.913C227.661 129.884 229.715 131.405 230.854 133.32C231.931 135.13 232.2 137.308 231.524 139.724C230.86 138.917 230.09 138.172 229.226 137.502C226.647 135.486 223.83 134.591 221.057 133.715C218.227 132.82 215.454 131.937 213.126 129.89C212.938 129.721 212.644 129.74 212.474 129.934C212.305 130.122 212.324 130.416 212.518 130.585C214.991 132.763 217.864 133.671 220.782 134.597C223.48 135.455 226.228 136.325 228.669 138.235C230.86 139.944 232.438 142.122 232.939 144.639C233.352 146.698 233.051 149.008 231.78 151.487C231.073 150.079 230.103 148.745 228.838 147.543C228.406 147.13 227.93 146.729 227.417 146.341C225.376 144.808 222.991 143.581 220.556 142.322C215.442 139.687 210.096 136.926 207.573 131.092C207.473 130.86 207.204 130.754 206.972 130.854C206.74 130.954 206.634 131.223 206.734 131.455C209.388 137.596 214.885 140.426 220.143 143.136C222.547 144.376 224.901 145.59 226.879 147.074C227.355 147.431 227.805 147.812 228.218 148.207C231.242 151.08 232.463 154.736 232.369 158.429C232.269 162.148 230.835 165.916 228.538 168.965C228.394 169.159 228.243 169.347 228.093 169.535C228.481 166.317 228.519 163.669 227.355 161.24C226.015 158.454 223.117 156.032 217.382 153.478C211.848 151.018 208.468 148.238 206.258 145.002C204.042 141.765 202.972 138.04 202.07 133.721C201.883 132.813 201.582 131.987 201.2 131.236C199.785 128.475 197.2 126.804 194.308 125.971C192.054 125.32 189.607 125.176 187.397 125.414C188.805 125.038 190.508 124.769 192.555 124.632C192.806 124.613 193 124.394 192.981 124.143C192.968 123.918 192.793 123.749 192.58 123.718C190.608 123.317 188.899 122.866 187.434 122.353C190.195 122.353 193.494 121.789 196.524 120.487C199.785 119.085 202.759 116.838 204.443 113.533C205.081 112.281 205.739 110.897 206.434 109.413C209.908 102.039 214.515 92.2484 222.134 88.9181C226.91 86.8273 229.301 84.63 230.347 82.5704C231.198 80.8928 231.167 79.3215 230.804 77.9568C231.417 78.3512 231.974 78.9334 232.419 79.6408C233.057 80.6549 233.464 81.9194 233.464 83.259C233.464 84.7302 233.22 86.0448 232.782 87.2467C232.431 88.217 231.949 89.1184 231.367 89.9698C230.059 91.8791 228.237 93.5255 226.24 95.1281C219.091 100.862 216.155 105.995 213.777 110.165C211.598 113.977 209.895 116.957 205.783 118.766C205.551 118.866 205.444 119.141 205.545 119.373C205.645 119.605 205.92 119.711 206.152 119.611C210.54 117.677 212.312 114.584 214.578 110.628C216.925 106.528 219.811 101.476 226.822 95.8542C228.876 94.2078 230.754 92.5051 232.131 90.5019C232.287 90.2703 232.438 90.0387 232.582 89.807C233.996 96.3488 230.654 99.4537 226.722 103.091C224.894 104.787 222.941 106.59 221.251 108.906C221.101 109.113 221.145 109.395 221.351 109.545C221.558 109.695 221.839 109.651 221.99 109.445C223.63 107.204 225.545 105.426 227.342 103.761C228.801 102.408 230.184 101.131 231.298 99.7292L231.267 99.7166ZM168.448 133.502C171.478 133.571 174.119 134.504 176.486 135.342C179.165 136.288 181.462 137.101 183.434 136.263C182.476 135.712 181.537 134.673 180.98 133.414C180.586 132.532 180.367 131.543 180.448 130.535C180.53 129.514 180.911 128.488 181.706 127.536C183.027 125.977 185.506 124.644 189.719 124.018C186.395 123.148 183.954 122.059 182.251 120.713C180.254 119.129 179.265 117.201 179.058 114.853C176.736 115.968 174.345 116.612 172.185 116.882C171.309 116.988 170.47 117.032 169.681 117.019C172.016 117.977 174.72 118.922 177.994 119.811C178.238 119.874 178.382 120.131 178.32 120.375C178.257 120.619 178.001 120.763 177.756 120.7C172.636 119.311 168.88 117.783 165.781 116.287L165.675 116.237C163.915 115.385 162.369 114.54 160.911 113.752C158 112.168 155.427 110.772 152.165 109.839C150.838 110.578 149.486 111.367 148.109 112.168C141.361 116.105 133.93 120.437 125.254 121.401C125.003 121.426 124.772 121.245 124.747 120.994C124.722 120.744 124.903 120.512 125.153 120.487C133.636 119.548 140.979 115.26 147.646 111.373C154.219 107.542 160.141 104.086 165.931 104.481C163.577 103.535 161.124 102.872 158.557 102.64C154.363 102.258 149.855 103.028 144.973 105.607C142.394 106.972 139.721 108.762 136.954 110.622C129.028 115.936 120.308 121.783 110.361 119.999C110.123 119.98 109.935 119.78 109.935 119.542C109.935 119.317 110.098 119.135 110.305 119.091C114.874 117.789 118.969 113.245 123.263 108.474C123.732 107.949 124.208 107.423 124.684 106.903C121.629 106.177 118.662 105.82 115.782 105.839C112.671 105.864 109.66 106.333 106.755 107.26C106.511 107.335 106.254 107.204 106.179 106.959C106.104 106.715 106.236 106.459 106.48 106.384C109.478 105.426 112.577 104.944 115.782 104.919C118.893 104.894 122.099 105.301 125.398 106.127C126.343 105.1 127.301 104.08 128.283 103.11C120.878 101.557 114.242 101.563 108.251 102.897C102.398 104.199 97.1524 106.765 92.4135 110.371C93.6342 110.728 95.2618 111.648 96.8895 113.007C98.4232 114.284 99.9756 115.961 101.209 117.921C102.448 119.893 103.356 122.159 103.594 124.613C103.769 126.403 103.581 128.281 102.905 130.215C104.076 128.049 104.664 125.702 104.596 123.298C104.502 119.949 103.137 116.5 100.32 113.301C99.4748 112.343 98.492 111.404 97.3652 110.496C97.1649 110.334 97.1399 110.046 97.2964 109.852C97.4591 109.651 97.7471 109.626 97.9411 109.783C99.0992 110.715 100.113 111.692 101.002 112.694C103.976 116.062 105.409 119.717 105.509 123.273C105.61 126.835 104.364 130.284 101.979 133.239C101.703 133.583 101.409 133.915 101.102 134.247C105.159 135.906 109.754 136.97 114.943 137.371C120.421 137.79 126.568 137.477 133.448 136.338C133.698 136.3 133.936 136.469 133.974 136.72C134.018 136.97 133.842 137.208 133.592 137.245C126.637 138.391 120.421 138.717 114.874 138.285C109.435 137.865 104.627 136.732 100.401 134.954C100.195 135.155 99.9819 135.349 99.7628 135.543C99.5938 135.693 99.3434 135.699 99.1681 135.549C98.974 135.386 98.949 135.098 99.1118 134.904C102.079 131.342 102.98 127.855 102.68 124.7C102.461 122.403 101.597 120.275 100.433 118.409C99.2557 116.537 97.7721 114.935 96.3073 113.714C94.2602 112.011 92.3071 111.047 91.3431 111.129H91.3055C89.3962 111.323 87.3241 112.881 85.1519 114.515C83.4805 115.774 81.7465 117.076 79.9373 117.877C77.9278 118.766 76.9513 119.354 76.5068 119.861C76.3128 120.087 76.2376 120.306 76.2126 120.55C77.1391 120.174 78.1908 119.911 79.2174 119.843C80.4632 119.755 81.5649 119.83 82.5415 119.893C84.2004 120.005 85.4649 120.093 86.2912 119.229C86.4665 119.048 86.7545 119.041 86.9423 119.217C87.1238 119.392 87.1301 119.686 86.9548 119.868C85.8343 121.038 84.3882 120.938 82.4851 120.807C81.5399 120.744 80.4694 120.669 79.2863 120.757C78.0405 120.844 76.7009 121.232 75.6054 121.865C75.0044 122.209 74.5224 122.603 74.2282 123.023C73.9715 123.38 73.8651 123.743 73.9652 124.087C74.0153 124.262 74.128 124.45 74.3033 124.632C74.873 125.176 75.355 125.952 75.9998 126.985L76.0185 127.017C77.4333 129.276 79.6431 132.788 85.0267 137.502C90.1161 141.959 97.7784 144.207 106.186 145.077C117.573 146.26 130.305 144.92 139.89 143.167C140.321 142.786 140.741 142.41 141.154 142.047C145.73 138.072 151.652 135.599 157.217 135.267C159.102 135.155 160.948 135.286 162.689 135.687C164.567 134.854 166.257 133.802 167.972 132.738C170.852 130.948 173.781 129.132 177.775 128.187C178.019 128.131 178.27 128.281 178.326 128.532C178.382 128.776 178.232 129.026 177.982 129.082C174.132 129.99 171.265 131.768 168.454 133.514L168.448 133.502ZM157.261 136.169C159.546 136.031 161.969 136.281 164.141 137.051C166.244 137.796 168.135 139.017 169.65 140.757C171.083 142.41 172.191 144.532 172.842 147.18C172.26 146.441 171.509 145.753 170.607 145.139C168.448 143.675 165.38 142.66 161.505 142.473C151.859 142.003 145.085 145.784 138.456 149.49C137.705 149.91 136.96 150.329 136.209 150.736C136.19 150.742 136.177 150.755 136.159 150.761C131.013 153.572 125.761 156.026 119.138 156.026H118.918C128.434 154.636 134.212 149.459 139.526 144.689C140.265 144.031 140.998 143.368 141.743 142.723C146.168 138.879 151.89 136.488 157.261 136.169ZM119.551 154.986C117.792 155.287 115.901 155.456 113.854 155.462C112.846 155.243 111.876 154.968 110.943 154.648C110.924 154.642 110.906 154.636 110.887 154.63C109.372 154.104 107.951 153.453 106.636 152.714C102.373 150.335 99.2119 147.099 97.3965 144.463C99.6814 145.045 102.085 145.484 104.558 145.79C106.048 147.981 108.295 149.941 111.131 151.575C113.547 152.964 116.396 154.129 119.557 154.986H119.551ZM105.791 145.934L106.085 145.966C108.395 146.204 110.755 146.341 113.14 146.391C115.331 148.019 117.704 149.396 120.446 150.366C122.812 151.205 125.454 151.75 128.484 151.9C126.43 153.002 124.177 153.922 121.623 154.554C117.798 153.684 114.392 152.395 111.588 150.78C109.165 149.384 107.193 147.744 105.791 145.934ZM114.743 146.416C117.954 146.435 121.191 146.31 124.346 146.072C125.542 147.03 127.056 147.687 128.853 148.063C130.305 148.363 131.946 148.482 133.748 148.426C132.565 149.346 131.326 150.222 129.999 151.03C126.437 151.005 123.407 150.448 120.746 149.503C118.537 148.72 116.565 147.662 114.743 146.416ZM125.792 145.959C130.33 145.578 134.681 144.983 138.581 144.307C137.417 145.346 136.227 146.404 134.982 147.431C132.747 147.6 130.75 147.518 129.041 147.161C127.801 146.905 126.712 146.504 125.792 145.953V145.959ZM157.461 168.865C156.191 169.954 154.525 170.931 152.503 171.732C153.762 168.414 152.178 166.129 148.96 164.458C144.597 162.185 137.129 161.109 129.892 160.063C122.931 159.062 116.189 158.085 112.802 156.157C114.874 156.683 117.003 156.94 119.138 156.94C121.072 156.94 122.887 156.739 124.615 156.389C128.465 157.14 133.342 156.689 138.256 156.232C144.785 155.631 151.383 155.018 155.477 157.259C157.305 158.254 158.588 159.387 159.383 160.57C160.21 161.804 160.498 163.099 160.297 164.37C160.097 165.666 159.39 166.949 158.231 168.139C158.025 168.352 157.799 168.564 157.562 168.771C157.524 168.796 157.493 168.821 157.461 168.859V168.865ZM159.008 168.658C160.222 167.369 160.973 165.954 161.199 164.52C161.437 163.018 161.105 161.497 160.141 160.07C159.264 158.767 157.868 157.534 155.909 156.464C151.571 154.091 144.835 154.717 138.168 155.331C134.256 155.694 130.362 156.051 127.044 155.794C130.443 154.792 133.542 153.24 136.597 151.568C142.951 149.033 148.265 148.019 152.622 148.019C156.979 148.019 160.698 149.127 163.271 150.755C165.819 152.37 167.452 154.486 168.266 156.526C168.686 157.578 168.886 158.605 168.886 159.531C168.886 161.922 167.709 164.326 165.618 166.067C163.947 167.463 161.699 168.433 159.001 168.658H159.008ZM141.379 148.914C147.145 145.772 153.267 142.986 161.468 143.38C165.155 143.562 168.066 144.52 170.094 145.897C172.01 147.193 173.143 148.864 173.399 150.579C173.424 150.823 173.443 151.08 173.456 151.331C173.456 153.096 173.086 154.761 172.31 156.144C171.709 157.221 170.87 158.129 169.769 158.78C169.687 157.954 169.474 157.071 169.118 156.182C168.235 153.979 166.488 151.7 163.759 149.972C161.048 148.257 157.374 147.092 152.622 147.092C149.386 147.092 145.649 147.637 141.373 148.914H141.379ZM103.3 107.573C103.531 107.473 103.801 107.573 103.907 107.805C104.007 108.036 103.907 108.305 103.675 108.412L102.949 108.744C102.718 108.85 102.448 108.756 102.336 108.524C102.229 108.293 102.323 108.024 102.555 107.911L103.3 107.567V107.573ZM161.349 128.625C161.587 128.538 161.85 128.663 161.937 128.901C162.025 129.139 161.9 129.402 161.662 129.489L160.009 130.084C159.771 130.172 159.508 130.046 159.421 129.809C159.333 129.571 159.458 129.308 159.696 129.22L161.343 128.625H161.349ZM154.569 130.979C154.813 130.898 155.07 131.036 155.151 131.273C155.233 131.518 155.095 131.774 154.857 131.856C152.61 132.594 150.425 133.264 148.303 133.865C146.2 134.466 144.121 135.011 142.081 135.499C141.836 135.555 141.586 135.405 141.53 135.161C141.473 134.917 141.624 134.666 141.868 134.61C143.846 134.134 145.905 133.596 148.046 132.982C150.168 132.375 152.341 131.712 154.569 130.979ZM134.6 103.191C131.582 105.088 129.047 107.598 126.549 110.071C122.618 113.964 118.774 117.771 113.316 118.797C117.022 116.756 120.415 112.988 123.945 109.069C131.163 101.056 138.944 92.4175 150.807 97.463C147.921 97.7886 144.747 98.5335 141.286 99.8168C141.048 99.9044 140.922 100.167 141.01 100.405C141.098 100.643 141.361 100.768 141.599 100.681C145.674 99.1783 149.33 98.4208 152.566 98.2393H152.579H152.591C154.907 98.1078 157.011 98.2706 158.901 98.6524C163.797 99.6478 167.258 102.152 169.274 104.988C165.944 103.297 162.413 102.058 158.632 101.714C154.269 101.313 149.586 102.108 144.534 104.781C141.918 106.164 139.226 107.967 136.434 109.845C129.874 114.246 122.75 119.023 114.925 119.373C119.876 117.971 123.495 114.39 127.194 110.728C129.654 108.293 132.152 105.814 135.088 103.973C135.301 103.836 135.37 103.554 135.232 103.341C135.094 103.128 134.813 103.059 134.6 103.197V103.191ZM86.8797 127.449C86.3163 128.012 85.9657 128.794 85.9657 129.658C85.9657 130.522 86.3163 131.305 86.8797 131.868C87.4431 132.432 88.2256 132.782 89.0895 132.782C89.9533 132.782 90.7358 132.432 91.2992 131.868C91.8626 131.305 92.2132 130.522 92.2132 129.658C92.2132 128.794 91.8626 128.018 91.2992 127.449C90.7358 126.885 89.9533 126.535 89.0895 126.535C88.2256 126.535 87.4493 126.885 86.8797 127.449Z" fill="white"></path></g><defs><filter id="filter0_d_1429_31856" x="67" y="0" width="176.904" height="179" filterUnits="userSpaceOnUse" color-interpolation-filters="sRGB"><feFlood flood-opacity="0" result="BackgroundImageFix"></feFlood><feColorMatrix in="SourceAlpha" type="matrix" values="0 0 0 0 0 0 0 0 0 0 0 0 0 0 0 0 0 0 127 0" result="hardAlpha"></feColorMatrix><feOffset></feOffset><feGaussianBlur stdDeviation="3"></feGaussianBlur><feComposite in2="hardAlpha" operator="out"></feComposite><feColorMatrix type="matrix" values="0 0 0 0 1 0 0 0 0 1 0 0 0 0 1 0 0 0 1 0"></feColorMatrix><feBlend mode="normal" in2="BackgroundImageFix" result="effect1_dropShadow_1429_31856"></feBlend><feBlend mode="normal" in="SourceGraphic" in2="effect1_dropShadow_1429_31856" result="shape"></feBlend></filter></defs></svg>