<svg xmlns="http://www.w3.org/2000/svg"  xmlns:xlink="http://www.w3.org/1999/xlink"  width="311" height="179" viewBox="0 0 311 179" fill="none"><g filter="url(#filter0_d_1429_31816)"><path fill-rule="evenodd" clip-rule="evenodd" d="M154.026 90.4915C154.079 90.7203 153.938 90.955 153.709 91.0078C153.48 91.0665 153.246 90.9198 153.193 90.691L153.035 90.0515L152.864 89.4061C152.8 89.1773 152.941 88.9368 153.169 88.8781C153.398 88.8135 153.639 88.9544 153.697 89.1832L153.868 89.8403L154.032 90.4915H154.026ZM109.8 43.5727C109.73 43.5257 109.689 43.4846 109.648 43.4084C109.63 43.3732 109.612 43.3321 109.607 43.2969C109.595 43.2148 109.595 43.203 109.607 43.1209C109.612 43.0798 109.63 43.0446 109.648 43.0035C109.689 42.9331 109.73 42.8862 109.8 42.8393C110.592 42.3523 111.144 41.4957 111.472 40.8621C109.747 41.3138 105.511 42.323 99.1573 43.203C105.511 44.0831 109.747 45.0922 111.472 45.544C111.15 44.9103 110.598 44.0596 109.8 43.5668V43.5727ZM112.634 40.3516C112.634 40.3516 112.035 42.1118 110.751 43.2089C112.035 44.3002 112.628 46.0603 112.634 46.0662C112.663 46.1483 112.663 46.2363 112.634 46.3302C112.569 46.559 112.329 46.6881 112.1 46.6235C112.082 46.6235 106.209 44.8693 95.7016 43.6431C95.508 43.6196 95.3437 43.467 95.3202 43.2617C95.2909 43.027 95.461 42.8099 95.7016 42.7865C105.834 41.6072 111.654 39.9351 112.077 39.8119C112.165 39.7767 112.264 39.7767 112.364 39.8119C112.587 39.8881 112.71 40.1346 112.634 40.3575V40.3516ZM120.895 49.956L120.906 50.0088V50.0147V50.0323V50.0382C120.989 50.4488 121.077 50.8419 121.165 51.2116C121.288 51.722 121.417 52.2207 121.552 52.6959C123.922 60.9274 128.516 66.1022 132.195 70.2502C134.618 72.9784 136.654 75.2782 137.457 77.7365C137.387 75.2841 135.398 72.5618 132.881 69.1178C129.772 64.8642 125.888 59.5428 123.74 52.2207C123.488 51.37 123.271 50.2494 123.071 49.252C122.895 49.3752 122.69 49.4749 122.455 49.5512C121.921 49.7272 121.388 49.868 120.883 49.956H120.895ZM123.805 48.4306L123.899 48.9175C123.957 49.2168 124.016 49.5336 124.081 49.8504C125.131 49.7213 125.94 49.2696 126.686 48.853C127.525 48.3836 128.293 47.9553 129.255 47.9905H129.32C133.286 48.5597 138.672 49.6861 143.266 50.6483C146.898 51.4052 150.031 52.0623 151.562 52.25C152.706 52.3908 154.36 52.2324 156.238 52.0506C159.981 51.6927 164.587 51.2468 168.089 52.8602C170.794 54.104 174.731 54.368 178.327 54.4384C179.119 54.456 179.911 54.4619 180.704 54.4678C182.17 54.4795 183.672 54.4678 185.139 54.6145C185.075 54.4854 185.004 54.3563 184.94 54.2272C184.447 53.2416 183.966 52.1327 183.438 50.8654C183.226 50.3491 183.003 49.868 182.769 49.4104C182.516 48.9175 182.264 48.4599 182.006 48.0375C181.883 47.8321 181.947 47.5681 182.147 47.4449C182.352 47.3217 182.616 47.3862 182.739 47.5857C183.009 48.0257 183.279 48.5069 183.537 49.0232C183.778 49.4925 184.007 49.9971 184.23 50.5369C184.758 51.8041 185.233 52.9013 185.702 53.8459C186.119 54.6731 186.594 55.5121 187.163 56.2396C187.234 56.3276 187.31 56.4156 187.386 56.5037C188.782 58.0174 191.657 59.138 194.538 59.6073C197.395 60.0767 200.235 59.9065 201.596 58.8387C201.655 58.7977 201.702 58.7507 201.749 58.7097C201.925 58.5513 202.195 58.5571 202.353 58.7331C202.511 58.9091 202.506 59.179 202.33 59.3374C202.259 59.402 202.189 59.4606 202.118 59.5135C200.558 60.7397 197.466 60.9567 194.391 60.458C191.346 59.9594 188.278 58.7449 186.747 57.0845C186.647 56.9789 186.559 56.8733 186.477 56.7677C186.189 56.398 185.913 55.9932 185.644 55.5532C185.397 55.5121 185.127 55.4828 184.834 55.4593C184.969 56.8263 185.268 58.9033 185.955 61.3792C186.142 62.0539 186.348 62.7227 186.571 63.3798C186.764 63.9548 186.981 64.5474 187.222 65.1458L187.245 65.2104C188.542 68.4548 190.513 72.0338 193.517 75.4308C196.128 78.3819 198.721 80.6818 201.103 82.7881C204.899 86.1499 208.15 89.0306 210.086 93.296C210.772 89.06 212.855 85.6219 215.061 81.9667C219.121 75.2548 223.621 67.7977 220.424 53.2944C219.538 53.1418 218.669 52.9541 217.789 52.7663C214.944 52.162 211.975 51.5284 208.15 51.8745C207.968 52.1855 207.633 52.4788 207.182 52.7018C206.712 52.9306 206.102 53.0832 205.404 53.0949C205.069 53.0949 204.612 53.1184 204.107 53.1418C202.699 53.2064 200.927 53.2826 199.889 53.089C199.091 52.9365 198.199 52.1738 197.372 50.9651C196.644 49.9091 195.94 48.4951 195.377 46.8582C194.937 46.8171 194.075 46.7174 193.605 46.5825C193.206 46.4651 192.954 46.0075 192.842 45.4442C192.79 45.1802 192.766 44.881 192.778 44.5935C192.784 44.3002 192.825 44.0127 192.895 43.7663C193.024 43.3262 193.271 42.9977 193.646 42.9273C194.116 42.8393 194.696 42.7278 195.307 42.6339C195.876 42.5459 196.492 42.4755 197.102 42.4403C197.231 42.3112 197.36 42.1352 197.489 41.9592C197.947 41.3432 198.44 40.6743 199.507 40.6743C200.282 40.6743 202.242 41.6424 203.902 42.4638C204.964 42.9918 205.897 43.4494 206.184 43.5081C211.805 43.4084 214.386 42.3992 216.674 41.5074C217.132 41.3256 217.584 41.1554 218.036 40.9911L217.689 40.9383C215.02 40.5452 211.905 40.0876 206.196 41.132C206.055 41.1672 205.891 41.132 205.779 41.0205C205.509 40.7506 204.23 38.8907 203.362 37.0367C202.84 35.9279 202.453 34.7955 202.488 33.9624C202.5 33.7277 202.511 33.493 202.535 33.2584C201.696 32.8829 200.822 32.0615 200.1 31.111C199.437 30.2368 198.891 29.2453 198.616 28.4004C198.352 28.6058 198.064 28.7759 197.753 28.905C197.536 28.9989 197.284 28.8933 197.19 28.6703C197.096 28.4532 197.202 28.201 197.425 28.1071C198.041 27.8489 198.551 27.3561 198.856 26.7635C199.208 26.0712 199.402 25.1383 199.402 23.9121C199.402 23.2785 199.226 22.8267 198.968 22.5334L198.95 22.5099C198.78 22.328 198.569 22.2048 198.346 22.1461C198.111 22.0875 197.865 22.0933 197.63 22.1579C197.313 22.2518 197.032 22.4571 196.856 22.7681C196.779 22.9089 196.633 22.9851 196.48 22.9851C194.491 22.9851 194.039 21.2074 193.734 19.9988C193.658 19.6937 193.593 19.4297 193.523 19.3065C193.453 19.1774 193.2 19.0425 192.895 18.8665C192.097 18.4206 191 17.8104 190.419 16.0796C190.132 15.9447 189.809 15.8743 189.475 15.8743C188.9 15.8743 188.278 16.0679 187.697 16.4375C187.556 16.5255 187.415 16.6252 187.286 16.7367L187.281 16.7426C186.846 17.0946 186.447 17.5522 186.125 18.1096C185.673 18.8841 185.362 19.8463 185.297 20.9786C185.644 20.9786 185.966 20.9669 186.283 20.9551C188.319 20.8965 190.232 20.8495 191.458 21.8352C191.646 21.9819 191.675 22.2576 191.522 22.4395C191.376 22.6272 191.1 22.6566 190.918 22.504C189.932 21.712 188.178 21.7589 186.307 21.8117C185.996 21.8176 185.685 21.8293 185.385 21.8352C185.497 22.7622 185.251 23.8828 184.969 25.156C184.711 26.3294 184.423 27.6377 184.382 28.9813C184.758 29.0751 185.421 29.216 186.037 29.216C186.277 29.216 186.471 29.4096 186.471 29.6443V29.6912C186.459 29.9845 186.447 30.2134 186.43 30.4246C186.406 30.8118 186.383 31.1462 186.418 31.5276C186.506 31.551 186.606 31.5686 186.711 31.5921C187.11 31.6743 187.762 31.8679 188.108 31.7388C188.331 31.6567 188.577 31.7681 188.659 31.9911C188.741 32.214 188.63 32.4604 188.407 32.5426C188.09 32.6599 187.609 32.6306 187.281 32.5836C187.216 32.7773 187.198 32.9474 187.222 33.0823C187.251 33.2525 187.374 33.3992 187.586 33.5165C187.609 33.5282 187.627 33.54 187.644 33.5576C187.902 33.7571 187.944 34.0739 187.996 34.4728C188.09 35.1652 188.231 36.2564 190.173 36.2564C191.123 36.2564 192.033 35.9807 192.837 35.5934C192.919 35.5524 193.001 35.5113 193.083 35.4702C194.427 34.7662 195.395 33.7981 195.67 33.3698C195.799 33.1704 196.064 33.1117 196.263 33.2408C196.462 33.3698 196.521 33.6339 196.392 33.8333C196.075 34.3262 195.002 35.4116 193.552 36.1919C193.828 37.0719 193.922 38.1691 193.787 39.1665C193.646 40.2284 193.253 41.1965 192.567 41.748C192.461 41.8301 192.32 41.8653 192.18 41.8243C188.307 40.7037 185.344 40.3516 182.927 40.4572C180.909 40.5452 179.26 40.9501 177.764 41.4781C178.586 42.0179 179.207 42.6398 179.841 43.2676L179.894 43.3204C180.064 43.4905 180.064 43.7604 179.894 43.9305C179.724 44.1007 179.454 44.1007 179.284 43.9305L179.231 43.8777C177.524 42.188 175.91 40.5863 169.668 40.5159C166.247 40.4748 163.19 41.085 160.544 41.6189L159.893 41.748H159.881H159.87C157.799 42.1587 155.986 42.4814 154.413 42.3464C154.179 42.3288 154.003 42.1176 154.02 41.8829C154.038 41.6483 154.249 41.4722 154.484 41.4898C155.657 41.5896 157.012 41.4136 158.526 41.1378C156.449 40.0407 154.818 39.3542 150.383 39.278C148.153 39.2428 145.032 39.5596 141.746 39.8999C137.346 40.3516 132.652 40.8327 129.308 40.5335C129.232 40.5276 129.156 40.4983 129.097 40.4572C128.581 40.0935 128.117 39.6359 127.701 39.2193C127.196 38.7206 126.768 38.2982 126.568 38.2982C126.228 38.2982 124.978 38.263 123.682 38.1046C123.206 38.0518 122.737 37.9813 122.274 37.8816C121.552 37.7349 120.918 37.5296 120.519 37.2597C120.443 37.2069 120.373 37.1717 120.308 37.1482H120.273C120.273 37.1482 120.243 37.1365 120.232 37.1306C120.185 37.1306 120.144 37.1306 120.109 37.1424C120.05 37.1658 119.997 37.2128 119.95 37.2773C119.891 37.3594 119.85 37.4709 119.827 37.6C119.762 37.9696 119.874 38.439 120.238 38.8321C120.29 38.8849 120.343 38.9377 120.396 38.9905C120.408 39.0022 120.42 39.0081 120.431 39.0198C121.423 39.9116 123.089 40.3047 123.318 40.3575C123.494 40.381 123.646 40.5159 123.682 40.6978V40.7154C124.526 43.9423 126.263 44.1535 127.736 44.3295L127.953 44.353C128.188 44.3823 128.358 44.5935 128.328 44.8341C128.299 45.0688 128.088 45.2389 127.847 45.2096L127.63 45.1861C126.457 45.0453 125.142 44.8869 124.104 43.6313C124.139 43.9951 124.163 44.3764 124.174 44.7695C124.215 45.8432 124.233 46.8289 124.039 47.6444C123.975 47.9201 123.881 48.1783 123.764 48.4071L123.805 48.4306ZM124.257 50.6953C125.43 50.5427 126.304 50.0499 127.108 49.604C127.835 49.1992 128.498 48.8295 129.226 48.853C133.174 49.4162 138.531 50.5368 143.102 51.4932C146.763 52.2559 149.925 52.9189 151.468 53.1066C152.688 53.2592 154.396 53.0949 156.326 52.9071C159.963 52.5551 164.44 52.1268 167.737 53.6464C170.747 55.031 175.095 55.254 178.938 55.3126C179.454 56.5975 180.598 58.3635 181.906 59.9065C183.091 61.297 184.429 62.5291 185.597 63.0924C185.655 63.2801 185.72 63.4678 185.784 63.6556C185.931 64.078 186.084 64.5122 186.248 64.9522C185.321 65.093 184.435 65.5507 183.772 66.3368C183.144 67.0702 182.722 68.0911 182.646 69.3877C179.853 69.464 177.412 70.2736 174.531 71.2358C170.155 72.6967 164.733 74.5038 155.463 74.5038C152.448 74.5038 150.629 74.1283 148.845 73.7587C146.463 73.2658 144.14 72.7847 139.27 73.1837C138.93 73.213 138.519 73.2482 137.939 73.301C137.569 73.3362 137.211 73.3714 136.865 73.4008C136.014 71.934 134.87 70.3675 133.591 68.6191C130.523 64.4183 126.68 59.1614 124.579 51.9919C124.468 51.6164 124.362 51.1705 124.262 50.707L124.257 50.6953ZM137.305 74.2104C138.384 76.3167 138.736 78.2235 137.804 80.1362C137.739 80.3004 137.587 80.4119 137.399 80.4119C137.158 80.4119 136.965 80.2183 136.965 79.9778C136.965 78.1003 136.067 76.3636 134.682 74.5155C131.144 75.026 127.566 75.9882 124.462 78.247C123.905 78.6518 123.365 79.0977 122.843 79.5905C121.071 81.2568 119.698 83.2926 118.648 85.4811C117.991 86.8657 117.404 88.4263 116.905 90.1806C115.632 94.6865 115.966 98.8052 116.307 102.889C116.811 109.031 117.304 115.104 112.481 122.391C111.255 124.239 109.9 125.459 108.574 126.251C107.236 127.055 105.934 127.425 104.819 127.583C103.904 127.712 103.112 128.182 102.548 128.856C101.979 129.537 101.651 130.417 101.674 131.35C101.821 137.399 104.96 145.061 107.782 151.949C110.093 157.599 112.2 162.738 112.317 166.165C113.197 166.534 113.913 167.262 114.488 168.095C115.397 169.421 115.949 171.023 116.172 171.786C118.366 171.862 120.642 171.938 122.584 171.997C124.21 172.05 125.612 172.091 126.545 172.114C126.216 170.794 125.741 169.48 125.219 168.283C124.491 166.611 123.664 165.156 123.024 164.199C122.884 164.194 122.749 164.176 122.608 164.158C119.158 163.636 116.823 158.925 115.362 153.439C113.931 148.065 113.309 141.922 113.309 138.361C113.309 137.428 113.35 136.665 113.432 136.126C113.649 134.712 114.306 133.849 115.233 133.339C116.119 132.852 117.24 132.717 118.442 132.74C120.725 132.781 122.772 132.77 124.667 132.64C126.515 132.517 128.205 132.288 129.824 131.901L129.901 131.884C137.815 129.971 144.34 124.861 148.652 118.266C153.105 111.455 155.188 103.065 154.014 94.9681C153.979 94.7334 154.143 94.5163 154.378 94.4811C154.613 94.4459 154.83 94.6102 154.865 94.8449C156.074 103.153 153.932 111.76 149.373 118.736C149.045 119.234 148.705 119.727 148.353 120.214C150.611 121.511 152.964 122.649 155.405 123.623C157.992 124.655 160.685 125.5 163.49 126.163C163.718 126.216 163.865 126.451 163.812 126.68C163.759 126.914 163.525 127.055 163.296 127.002C160.462 126.328 157.728 125.471 155.094 124.421C152.583 123.417 150.16 122.25 147.842 120.906C147.343 121.558 146.821 122.197 146.276 122.807C148.552 124.72 155.205 128.956 165.713 130.963C172.12 132.189 179.947 132.582 189.07 131.109C187.439 129.842 186.459 128.745 186.166 128.358C185.925 128.041 185.503 128.111 184.904 128.217C184.37 128.305 183.731 128.416 182.933 128.352C182.792 128.34 182.657 128.258 182.587 128.123C182.475 127.912 182.558 127.653 182.769 127.542C183.467 127.178 184.247 125.553 184.722 123.212C185.127 121.217 185.28 118.741 184.94 116.095C184.535 112.915 184.359 109.507 184.5 106.561C184.629 103.898 185.022 101.598 185.737 100.155C185.843 99.9434 186.101 99.8554 186.312 99.961C186.524 100.067 186.612 100.325 186.506 100.536C185.843 101.862 185.479 104.039 185.356 106.597C185.215 109.495 185.385 112.851 185.784 115.984C186.136 118.73 185.972 121.305 185.556 123.382C185.192 125.172 184.623 126.603 184.013 127.483C184.282 127.454 184.529 127.413 184.758 127.372C185.655 127.219 186.283 127.114 186.846 127.841C187.263 128.381 189.135 130.446 192.414 132.312C194.298 133.386 196.644 134.395 199.431 134.999C200.088 135.14 200.599 135.251 201.109 135.351C204.582 136.073 207.886 136.753 210.004 138.66C210.027 138.596 210.051 138.531 210.08 138.466C210.637 137.058 211.717 135.779 213.389 134.6C213.583 134.465 213.852 134.512 213.987 134.706C214.122 134.899 214.075 135.169 213.882 135.304C212.356 136.384 211.371 137.534 210.878 138.783C210.684 139.264 210.561 139.798 210.514 140.315C210.438 141.118 210.532 141.963 210.766 142.861C211.148 144.287 211.101 146.105 210.86 147.772C210.538 149.989 209.834 151.978 209.305 152.436C209.124 152.588 208.854 152.571 208.701 152.389L208.672 152.354C208.431 152.037 208.073 151.65 207.545 151.356C207.006 151.057 206.278 150.858 205.304 150.916C203.867 151.004 202.846 150.928 201.966 150.629C201.074 150.33 200.346 149.819 199.496 149.057C198.633 148.282 197.747 146.804 197.032 145.613C196.773 145.178 196.533 144.785 196.339 144.486C195.137 144.967 193.91 145.736 192.825 146.581C191.505 147.607 190.402 148.734 189.809 149.567C190.742 150.746 191.563 151.661 192.514 152.377C193.517 153.134 194.691 153.674 196.333 154.09C197.354 154.349 198.633 154.613 200.024 154.894C202.816 155.463 206.043 156.126 208.437 157.001C208.789 157.13 209.159 157.182 209.528 157.159H209.534C209.904 157.135 210.268 157.036 210.608 156.866L213.583 155.369C213.864 155.229 214.116 155.041 214.334 154.812C214.551 154.583 214.727 154.325 214.862 154.032C215.349 152.958 216.152 151.315 217.502 148.816C218.839 146.334 220.723 142.99 223.375 138.478C223.515 138.238 223.639 137.991 223.738 137.751C224.407 136.155 224.126 134.7 223.51 133.55C223.023 132.64 222.33 131.913 221.738 131.455C221.521 131.285 221.233 131.092 220.975 130.986C218.03 129.754 214.944 126.656 212.397 124.104C210.315 122.009 208.607 120.302 207.903 120.414C207.669 120.449 207.446 120.29 207.41 120.056C207.27 119.035 207.586 117.861 207.933 116.565C208.402 114.805 208.942 112.798 208.396 110.862C208.332 110.633 208.466 110.393 208.695 110.334C208.924 110.269 209.165 110.404 209.223 110.633C209.834 112.798 209.264 114.928 208.76 116.788C208.478 117.844 208.22 118.806 208.232 119.592C209.376 119.862 211.036 121.522 213.002 123.5C213.635 124.139 214.31 124.814 215.002 125.477C216.434 124.309 218.024 122.567 219.514 120.361C220.611 118.736 221.556 116.999 222.342 115.204C223.979 111.455 225.064 107.031 224.935 102.243C224.777 96.6695 223.78 92.4746 222.97 89.0893C222.289 86.2438 221.744 83.9498 221.92 81.8376C221.644 82.0723 221.356 82.2894 221.057 82.483C220.858 82.6121 220.594 82.5593 220.459 82.3598C220.33 82.1603 220.382 81.8963 220.582 81.7613C223.111 80.0834 224.871 76.8624 225.469 73.8877C225.716 72.6439 225.763 71.4529 225.569 70.4379C225.387 69.4757 224.988 68.6837 224.349 68.1908C223.791 67.7567 223.029 67.5455 222.037 67.6393C221.045 73.7939 218.37 78.2294 215.859 82.3833C213.418 86.4257 211.136 90.1982 210.807 95.0385C210.79 95.2732 210.584 95.4551 210.35 95.4375C210.168 95.4257 210.015 95.2966 209.968 95.1324C208.238 90.1688 204.747 87.0828 200.593 83.4041C198.193 81.2802 195.577 78.9628 192.931 75.9706C189.932 72.5794 187.932 69.0122 186.606 65.756C185.802 65.8264 185.028 66.196 184.458 66.8649C183.889 67.5337 183.526 68.5077 183.526 69.7867C183.526 72.6674 184.646 75.378 186.664 77.7248C188.736 80.1362 191.751 82.172 195.471 83.6212C195.694 83.7092 195.805 83.9556 195.717 84.1786C195.629 84.4015 195.383 84.513 195.16 84.425C191.305 82.923 188.172 80.805 186.007 78.288C183.96 75.9001 182.775 73.1544 182.669 70.2267C180.005 70.303 177.629 71.095 174.825 72.0279C170.383 73.5064 164.886 75.3428 155.487 75.3428C152.395 75.3428 150.523 74.9556 148.693 74.5742C146.375 74.0931 144.117 73.6237 139.364 74.0168L138.038 74.1283C137.809 74.1518 137.581 74.1694 137.334 74.1928L137.305 74.2104ZM134.084 73.7411C130.587 74.2867 127.067 75.3017 123.969 77.5547C123.206 78.1062 122.479 78.7339 121.775 79.4439C119.34 76.4575 116.43 73.9816 113.045 72.2743C109.788 70.6374 106.104 69.7045 101.985 69.7045C94.1938 69.7045 88.1272 72.5501 83.8208 76.7039C78.6284 81.7203 76 88.6493 76 94.8038C76 101.821 79.0861 105.429 81.9257 108.756C84.255 111.484 86.4199 114.018 86.4199 118.143C86.4199 120.854 85.4577 123.253 83.8267 125.142C82.1193 127.125 79.6669 128.557 76.8097 129.243C76.5808 129.296 76.4342 129.531 76.487 129.76C76.5163 129.877 76.5926 129.977 76.6864 130.03C78.8455 131.455 81.1982 132.089 83.5216 132.089C85.8449 132.089 88.2446 131.426 90.3039 130.294C92.0405 129.337 93.5836 128.041 94.7863 126.509C96.8633 125.359 98.7642 123.054 99.9611 120.29C101.076 117.715 101.586 114.74 101.058 111.936C100.477 108.838 99.1925 106.62 97.9135 104.414C96.2766 101.586 94.6514 98.7758 94.6514 94.1467C94.6514 91.9583 95.1853 89.899 96.1533 88.1095C97.2446 86.0971 98.8933 84.4074 100.964 83.2164C103.041 82.0254 105.541 81.3448 108.339 81.3448C111.402 81.3448 114.816 82.1662 118.407 84.0436C117.498 85.7275 116.712 87.6871 116.066 89.9635C114.752 94.6161 115.092 98.811 115.433 102.971C115.925 108.967 116.406 114.893 111.748 121.927C110.604 123.658 109.343 124.79 108.116 125.53C106.896 126.263 105.705 126.603 104.684 126.744C103.546 126.903 102.566 127.489 101.868 128.316C101.17 129.15 100.765 130.235 100.794 131.385C100.947 137.598 104.115 145.331 106.966 152.289C109.313 158.021 111.443 163.22 111.443 166.482C111.443 166.664 111.56 166.834 111.748 166.892C112.552 167.145 113.221 167.814 113.76 168.594C114.746 170.031 115.28 171.844 115.403 172.325C115.45 172.507 115.609 172.642 115.808 172.648C118.079 172.724 120.484 172.806 122.543 172.871C124.497 172.93 126.14 172.982 127.038 173C127.079 173 127.12 173 127.161 172.994C127.395 172.947 127.542 172.718 127.495 172.484C127.161 170.929 126.609 169.362 125.993 167.954C125.195 166.124 124.286 164.54 123.605 163.56C123.529 163.437 123.394 163.36 123.242 163.36C123.066 163.36 122.89 163.349 122.725 163.319C119.698 162.862 117.568 158.42 116.183 153.234C114.77 147.936 114.165 141.887 114.165 138.373C114.165 137.481 114.206 136.759 114.277 136.266C114.447 135.157 114.94 134.489 115.638 134.107C116.371 133.702 117.351 133.591 118.425 133.614C120.742 133.661 122.813 133.644 124.72 133.515C126.257 133.415 127.689 133.239 129.073 132.963C128.094 134.494 127.753 135.885 127.888 137.205C128.047 138.813 128.909 140.285 130.159 141.752C131.021 142.761 134.049 146.088 137.645 150.001C144.152 157.089 152.524 166.13 153.134 166.775C153.609 167.28 154.12 168.154 154.49 169.28C154.795 170.219 155 171.322 155.012 172.531V172.566C155.012 172.806 155.205 173 155.44 173H166.975C167.033 173 167.092 172.988 167.145 172.965C167.362 172.871 167.462 172.619 167.368 172.402C166.922 171.375 166.218 169.873 165.22 168.036C164.493 166.705 163.607 165.197 162.545 163.566C162.451 163.413 162.275 163.331 162.087 163.366C160.057 163.789 156.913 161.389 153.686 157.963C149.174 153.175 144.598 146.41 142.603 142.397C142.274 141.734 142.204 141.007 142.362 140.332C142.521 139.64 142.914 138.995 143.506 138.513C145.572 136.83 147.185 134.87 148.382 132.905C149.696 130.751 150.518 128.592 150.893 126.814C154.372 128.651 159.301 130.634 165.555 131.831C172.237 133.11 180.451 133.497 190.038 131.843C190.625 132.253 191.276 132.67 191.992 133.081C193.946 134.195 196.369 135.234 199.249 135.861C199.719 135.961 200.329 136.09 200.933 136.214C204.471 136.947 207.833 137.645 209.74 139.628C209.534 140.714 209.605 141.869 209.933 143.101C210.279 144.404 210.232 146.105 210.004 147.672C209.769 149.297 209.358 150.74 209 151.433C208.736 151.151 208.39 150.864 207.956 150.623C207.293 150.259 206.407 150.007 205.245 150.077C203.925 150.16 203.004 150.089 202.23 149.831C201.467 149.573 200.828 149.121 200.059 148.435C199.296 147.748 198.446 146.334 197.759 145.19C197.401 144.592 197.084 144.07 196.832 143.729C196.715 143.577 196.515 143.524 196.345 143.583C194.949 144.081 193.523 144.961 192.285 145.924C190.754 147.115 189.487 148.458 188.906 149.379C188.8 149.543 188.824 149.749 188.941 149.89C189.991 151.239 190.9 152.272 191.986 153.087C193.089 153.914 194.356 154.501 196.11 154.947C197.12 155.199 198.422 155.469 199.836 155.757C202.594 156.32 205.785 156.971 208.126 157.828C208.59 157.998 209.083 158.068 209.564 158.033H209.575C210.056 157.998 210.538 157.869 210.978 157.646L213.952 156.15C214.322 155.962 214.656 155.716 214.938 155.416C215.219 155.123 215.454 154.777 215.624 154.396C216.105 153.334 216.903 151.708 218.235 149.233C218.74 148.294 219.321 147.232 219.989 146.041C220.265 146.375 220.688 146.762 221.192 146.809C221.573 146.845 222.113 146.809 222.794 146.762C223.381 146.721 224.079 146.674 224.841 146.663C225.839 146.645 226.502 146.199 226.959 145.548C227.382 144.944 227.617 144.169 227.793 143.407C228.303 141.165 229.06 138.42 229.864 135.703C230.832 132.447 231.882 129.243 232.668 127.037C232.821 126.609 232.868 126.157 232.815 125.717C232.762 125.277 232.604 124.849 232.351 124.474C232.034 123.998 231.653 123.494 231.242 122.989C230.82 122.479 230.362 121.968 229.899 121.499C229.582 121.176 229.195 120.942 228.778 120.801C228.356 120.66 227.904 120.607 227.452 120.666C226.431 120.789 224.994 120.801 223.551 120.584C222.612 120.443 221.679 120.202 220.869 119.827C221.679 118.53 222.436 117.099 223.111 115.561C224.789 111.707 225.909 107.16 225.774 102.237C225.616 96.5757 224.601 92.3338 223.785 88.9074C223.005 85.6395 222.401 83.1225 222.917 80.8696C224.63 78.9921 225.815 76.4575 226.291 74.0755C226.56 72.7319 226.602 71.4236 226.39 70.303C226.167 69.1354 225.669 68.1615 224.853 67.5337C224.167 66.9998 223.269 66.7241 222.143 66.7886C222.63 63.0572 222.5 58.7038 221.368 53.4352C222.454 53.5936 223.562 53.6933 224.748 53.6757C229.388 53.6288 231.371 50.9358 232.58 49.2813C232.891 48.853 233.149 48.5069 233.36 48.3367C233.525 48.2018 233.671 48.0668 233.8 47.926C234.211 47.4801 234.446 47.0166 234.499 46.5648C234.557 46.0838 234.422 45.6261 234.094 45.2213C234.029 45.1392 233.959 45.0629 233.877 44.9925C233.789 44.9103 233.654 44.7519 233.489 44.5466C232.357 43.1854 229.752 40.0465 223.633 40.0465C222.266 40.0465 221.163 40.1698 220.195 40.3751C219.42 40.3106 218.658 40.1991 217.854 40.0817C215.155 39.6828 212.01 39.2252 206.296 40.246C205.891 39.7239 204.905 38.2102 204.184 36.673C203.714 35.6697 203.362 34.6782 203.391 33.9976C203.403 33.6867 203.427 33.3757 203.462 33.0589C203.462 33.0295 203.468 33.0061 203.468 32.9826C203.544 32.3196 203.667 31.6567 203.832 30.9761C204.078 29.9435 204.418 28.8698 204.823 27.7433C205.322 26.3528 205.996 23.7537 206.026 21.3776C206.043 19.7876 205.773 18.2798 204.987 17.2472C205.011 16.8541 205.005 16.4786 204.958 16.1148C204.829 15.0411 204.406 14.0965 203.708 13.3925C203.01 12.6884 202.042 12.2308 200.822 12.1252C200.464 12.0959 200.088 12.09 199.695 12.1252C199.578 11.8847 199.431 11.6676 199.267 11.4798C198.704 10.8521 197.894 10.5059 197.032 10.3944C196.198 10.283 195.307 10.3886 194.556 10.6467C194.21 10.7641 193.893 10.9225 193.617 11.0985C193.271 10.7817 192.842 10.5528 192.379 10.4179C191.845 10.2595 191.258 10.2243 190.707 10.3064C190.144 10.3886 189.604 10.5998 189.17 10.9401C188.859 11.1806 188.606 11.4798 188.43 11.8495C187.55 11.7204 186.846 11.9551 186.342 12.3951C186.019 12.6767 185.784 13.0346 185.638 13.4336C185.497 13.8267 185.438 14.2491 185.473 14.6656C185.532 15.3345 185.814 15.9916 186.348 16.461C186.002 16.8071 185.679 17.2178 185.409 17.6872C185.028 18.3443 184.752 19.1129 184.593 19.9812C184.529 20.3391 184.488 20.609 184.476 20.8554C184.441 21.5418 184.623 22.1109 184.552 22.8267C184.494 23.4545 184.324 24.1938 184.148 24.9858C183.86 26.3 183.531 27.7727 183.531 29.3216C183.531 29.5269 183.678 29.6971 183.872 29.744C184.024 29.7909 184.793 30.008 185.608 30.0725L185.591 30.3835C185.556 30.8998 185.532 31.3222 185.614 31.9031C185.632 32.0439 185.726 32.1612 185.843 32.2258C186.019 32.3255 186.236 32.3783 186.453 32.4252C186.371 32.7186 186.348 33.0002 186.395 33.2525C186.471 33.6749 186.717 34.0152 187.151 34.2675C187.169 34.2968 187.14 34.4142 187.163 34.6019C187.292 35.5817 187.498 37.1365 190.191 37.1365C191.112 37.1365 191.992 36.9135 192.784 36.585C193.001 37.3242 193.065 38.2336 192.954 39.0726C192.854 39.8353 192.608 40.5218 192.209 40.9442C188.348 39.8471 185.368 39.5068 182.91 39.6124C180.469 39.718 178.55 40.2578 176.808 40.9383C175.306 40.2108 173.182 39.7121 169.703 39.6711C166.188 39.63 163.091 40.2519 160.404 40.7917L159.887 40.8973L159.518 40.6978C157.03 39.366 155.463 38.5211 150.418 38.4331C148.13 38.392 144.985 38.7147 141.682 39.055C137.369 39.495 132.776 39.9703 129.525 39.6945C129.097 39.3777 128.692 38.9729 128.322 38.6091C127.683 37.9755 127.137 37.4416 126.586 37.4416C126.263 37.4416 125.078 37.4064 123.852 37.2656C125.682 28.6058 130.118 22.5392 133.573 17.8045C136.976 13.1461 139.47 9.73145 137.798 6.27575C137.733 6.11147 137.581 6 137.393 6C137.152 6 136.959 6.19361 136.959 6.43416C136.959 9.49677 134.565 12.1956 131.549 15.5985C127.413 20.2628 122.139 26.212 120.026 36.3092C119.956 36.321 119.891 36.3386 119.827 36.362C119.598 36.45 119.405 36.6026 119.264 36.8138C119.135 37.0015 119.041 37.2304 119 37.4826C118.912 38.0048 119.023 38.6443 119.428 39.2017C118.742 39.5596 118.131 40.0524 117.668 40.5863C117.04 41.3138 116.676 42.1352 116.764 42.8217L116.835 43.4025C117.022 44.9162 117.398 47.9143 117.873 49.0584C118.09 49.5747 118.425 49.9208 118.882 50.1496C119.228 50.3256 119.639 50.4312 120.12 50.5075C120.185 50.8067 120.255 51.106 120.326 51.4169C120.449 51.9391 120.584 52.4495 120.725 52.9365C123.154 61.3557 127.818 66.6126 131.549 70.8251C132.465 71.8577 133.321 72.8199 134.066 73.7528L134.084 73.7411ZM132.893 17.3C128.246 23.6657 124.62 29.257 122.966 37.1482C122.15 37.0133 121.411 36.8255 121.041 36.5674C120.989 36.5322 120.936 36.497 120.889 36.4735C122.954 26.6051 128.146 20.7557 132.212 16.1676C134.635 13.4394 136.671 11.1395 137.475 8.68125C137.405 11.1337 135.416 13.856 132.899 17.3H132.893ZM166.699 47.2513C166.488 47.1457 166.4 46.8875 166.511 46.6763C166.617 46.4651 166.875 46.3771 167.092 46.4886C167.767 46.8289 168.799 47.1868 169.973 47.5212C171.34 47.9084 172.883 48.2663 174.297 48.5362C174.531 48.5773 174.684 48.8061 174.643 49.0408C174.602 49.2754 174.373 49.428 174.138 49.3869C172.695 49.1112 171.123 48.7474 169.738 48.3543C168.518 48.0081 167.432 47.6268 166.705 47.2572L166.699 47.2513ZM176.743 49.7976C176.509 49.7683 176.338 49.5571 176.368 49.3165C176.397 49.0818 176.608 48.9117 176.849 48.941L177.254 48.9879L177.612 49.0173C177.846 49.0349 178.028 49.2402 178.011 49.4749C177.993 49.7096 177.788 49.8915 177.553 49.8739L177.172 49.8387L176.743 49.7917V49.7976ZM206.994 77.9536C206.994 78.3643 206.83 78.7339 206.56 79.0038C206.29 79.2737 205.92 79.438 205.509 79.438C205.099 79.438 204.729 79.2737 204.459 79.0038C204.189 78.7339 204.025 78.3643 204.025 77.9536C204.025 77.5429 204.189 77.1733 204.459 76.9034C204.729 76.6335 205.099 76.4693 205.509 76.4693C205.92 76.4693 206.29 76.6335 206.56 76.9034C206.83 77.1733 206.994 77.5429 206.994 77.9536ZM205.95 78.3937C205.838 78.5051 205.68 78.5755 205.509 78.5755C205.339 78.5755 205.181 78.5051 205.069 78.3937C204.958 78.2822 204.888 78.1238 204.888 77.9536C204.888 77.7835 204.958 77.6251 205.069 77.5136C205.181 77.4021 205.339 77.3317 205.509 77.3317C205.68 77.3317 205.838 77.4021 205.95 77.5136C206.061 77.6251 206.131 77.7835 206.131 77.9536C206.131 78.1238 206.061 78.2822 205.95 78.3937ZM197.266 68.3668C197.225 68.6015 196.996 68.7541 196.762 68.713C196.527 68.6719 196.374 68.4431 196.416 68.2084C196.685 66.771 197.583 65.3512 198.985 64.3538C200.206 63.4855 201.813 62.9398 203.72 62.975C205.908 63.022 208.308 63.5969 210.379 64.9698C212.098 66.108 213.6 67.786 214.574 70.1563C214.662 70.3734 214.556 70.6257 214.339 70.7195C214.122 70.8075 213.87 70.7019 213.776 70.4849C212.879 68.2906 211.494 66.7417 209.904 65.6915C207.98 64.4183 205.744 63.8844 203.702 63.8433C201.995 63.8081 200.569 64.2951 199.484 65.0637C198.264 65.9261 197.489 67.1465 197.26 68.3727L197.266 68.3668ZM205.028 58.8505C204.852 58.6921 204.835 58.4163 204.999 58.2403C205.157 58.0643 205.433 58.0467 205.609 58.211C207.023 59.4841 209.206 59.842 211.4 59.5663C213.847 59.2612 216.281 58.164 217.666 56.6503C217.824 56.4743 218.1 56.4626 218.27 56.621C218.446 56.7794 218.458 57.0552 218.3 57.2253C216.78 58.8857 214.14 60.0884 211.5 60.417C209.077 60.7221 206.642 60.2996 205.023 58.8446L205.028 58.8505ZM221.714 130.434L221.667 130.405C221.527 130.323 221.397 130.258 221.28 130.212C219.414 129.431 217.455 127.824 215.613 126.093C217.138 124.831 218.839 122.942 220.4 120.572C221.315 121.012 222.371 121.288 223.427 121.446C224.947 121.675 226.472 121.657 227.558 121.528C227.886 121.487 228.209 121.528 228.508 121.628C228.802 121.728 229.066 121.892 229.289 122.115C229.729 122.561 230.169 123.054 230.585 123.552C230.984 124.034 231.348 124.52 231.641 124.961C231.817 125.225 231.929 125.524 231.964 125.835C231.999 126.146 231.964 126.462 231.858 126.762C231.072 128.968 230.016 132.189 229.036 135.468C228.227 138.185 227.464 140.954 226.948 143.231C226.795 143.899 226.596 144.574 226.25 145.061C225.939 145.501 225.493 145.8 224.824 145.812C224.014 145.824 223.322 145.871 222.741 145.912C222.102 145.953 221.597 145.988 221.268 145.959C220.916 145.929 220.582 145.442 220.453 145.231C221.468 143.43 222.671 141.347 224.09 138.93C224.255 138.648 224.396 138.367 224.507 138.097C225.293 136.219 224.959 134.512 224.237 133.163C223.809 132.365 223.24 131.69 222.688 131.185C223.427 131.027 224.167 130.71 224.847 130.305C226.103 129.566 227.188 128.522 227.693 127.695C227.816 127.489 227.751 127.225 227.552 127.102C227.347 126.979 227.083 127.043 226.959 127.243C226.519 127.964 225.551 128.886 224.413 129.56C223.545 130.071 222.589 130.429 221.708 130.429L221.714 130.434ZM179.876 55.3244H180.704C181.912 55.342 183.033 55.3537 183.989 55.4006C184.13 56.8439 184.447 59.138 185.227 61.8779C184.359 61.2794 183.42 60.3642 182.558 59.3492C181.408 57.9998 180.404 56.4919 179.87 55.3244H179.876ZM118.953 49.1346C118.841 49.0231 118.753 48.8882 118.689 48.7239C118.255 47.6913 117.891 44.7695 117.709 43.291L117.633 42.7043C117.574 42.276 117.856 41.6952 118.331 41.1437C118.783 40.6215 119.399 40.1463 120.085 39.8412C121.047 40.5981 122.362 41.0087 122.931 41.1613C123.048 41.7539 123.306 43.2441 123.365 44.8282C123.4 45.8432 123.418 46.7702 123.253 47.4742C123.107 48.0903 122.802 48.542 122.209 48.7415C121.47 48.9879 120.719 49.1522 120.091 49.2109C119.569 49.2578 119.164 49.2402 118.953 49.1464V49.1346ZM199.361 27.6671C199.472 27.5086 199.572 27.3444 199.666 27.1625C200.082 26.347 200.311 25.285 200.311 23.918C200.311 23.0497 200.047 22.4043 199.654 21.9643L199.631 21.9408C199.337 21.6298 198.985 21.4245 198.604 21.3248C198.217 21.225 197.812 21.2368 197.436 21.3424C196.996 21.4714 196.597 21.7355 196.304 22.1168C195.166 21.9701 194.843 20.6853 194.62 19.7993C194.526 19.4356 194.45 19.1187 194.327 18.9017C194.139 18.5614 193.793 18.3678 193.365 18.1272C192.672 17.74 191.704 17.2002 191.241 15.6748C191.206 15.5516 191.118 15.4577 191.012 15.4108C190.56 15.1526 190.056 15.0294 189.522 15.0294C188.782 15.0294 188.002 15.27 187.281 15.7276C187.193 15.7804 187.11 15.8391 187.028 15.8977C186.612 15.5809 186.389 15.0998 186.348 14.6011C186.324 14.3019 186.359 14.0027 186.459 13.7328C186.553 13.4688 186.711 13.2282 186.917 13.0463C187.286 12.7237 187.85 12.5711 188.601 12.7647C188.829 12.8234 189.064 12.6826 189.123 12.4538C189.228 12.1076 189.434 11.8319 189.698 11.6265C190.015 11.3801 190.414 11.2276 190.836 11.163C191.27 11.0985 191.728 11.1278 192.138 11.251C192.578 11.3801 192.966 11.6148 193.224 11.9492C193.371 12.1369 193.64 12.1721 193.828 12.0255L193.857 12.002C194.11 11.7791 194.444 11.5972 194.831 11.4622C195.465 11.2452 196.21 11.1571 196.914 11.251C197.583 11.339 198.205 11.5972 198.622 12.0607C198.792 12.2484 198.927 12.4714 199.015 12.7354C199.079 12.929 199.273 13.0463 199.472 13.0229C199.936 12.9701 200.364 12.9583 200.751 12.9935C201.755 13.0815 202.541 13.4512 203.104 14.0144C203.661 14.5776 204.002 15.3462 204.107 16.2263C204.148 16.59 204.154 16.9655 204.119 17.3586C204.107 17.476 204.148 17.5874 204.219 17.6754C204.946 18.532 205.187 19.9049 205.169 21.3776C205.14 23.6481 204.5 26.1299 204.019 27.4617C203.603 28.6175 203.257 29.7147 202.998 30.7883C202.869 31.3164 202.77 31.8444 202.687 32.3607C202.06 32.0087 201.397 31.3516 200.822 30.5947C200.065 29.6032 199.484 28.4708 199.349 27.6671H199.361ZM187.715 24.4871C187.492 24.5751 187.245 24.4636 187.157 24.2407C187.069 24.0177 187.181 23.7713 187.404 23.6833C187.404 23.6833 188.724 23.1435 190.044 23.8535C190.255 23.9649 190.331 24.229 190.22 24.4343C190.108 24.6455 189.844 24.7218 189.639 24.6103C188.677 24.094 187.715 24.4871 187.715 24.4871ZM213.94 48.9879C213.706 48.941 213.559 48.7122 213.606 48.4775C213.653 48.2428 213.882 48.0962 214.116 48.1431C215.542 48.4482 217.314 48.6359 219.403 48.5831C221.175 48.5362 223.187 48.3191 225.416 47.8497C225.651 47.8028 225.88 47.9495 225.927 48.1842C225.974 48.4188 225.827 48.6418 225.592 48.6946C223.316 49.1698 221.251 49.3986 219.426 49.4456C217.261 49.4984 215.419 49.3048 213.94 48.9879ZM207.581 48.2839C207.545 48.9762 207.551 49.5512 207.551 50.0323C207.551 50.6425 207.551 51.0766 207.481 51.3465V51.3582C207.422 51.5401 207.193 51.7455 206.841 51.9156C206.472 52.0916 205.991 52.2148 205.427 52.2207C205.052 52.2207 204.6 52.2442 204.107 52.2676C202.74 52.3263 201.027 52.4026 200.088 52.2266C199.519 52.121 198.821 51.4814 198.123 50.4606C197.401 49.4104 196.697 47.9788 196.146 46.3067C196.093 46.1424 195.94 46.0309 195.776 46.0133C195.776 46.0133 194.438 45.9019 193.887 45.7435C193.84 45.7317 193.781 45.5322 193.734 45.2741C193.693 45.0629 193.676 44.8282 193.681 44.6053C193.681 44.3823 193.717 44.1711 193.764 43.9951C193.805 43.8601 193.834 43.7663 193.846 43.7604C194.292 43.6724 194.855 43.5668 195.471 43.4788C196.075 43.3849 196.721 43.3086 197.331 43.2852C197.425 43.2852 197.513 43.2441 197.583 43.1913C197.824 42.9918 198.017 42.7337 198.217 42.4696C198.551 42.0237 198.903 41.5368 199.543 41.5368C200.118 41.5368 201.978 42.4579 203.556 43.2382C204.717 43.8132 205.727 44.3119 206.12 44.3706C206.155 44.3706 206.19 44.3764 206.219 44.3706C212.01 44.2708 214.668 43.2324 217.027 42.3112C218.916 41.5779 220.6 40.9149 223.639 40.9149C229.353 40.9149 231.782 43.8367 232.832 45.104C233.02 45.3269 233.167 45.5029 233.296 45.632C233.349 45.6789 233.396 45.7259 233.431 45.7728C233.601 45.984 233.677 46.2187 233.648 46.4651C233.613 46.7409 233.454 47.0401 233.173 47.3452C233.073 47.4508 232.956 47.5623 232.821 47.6737C232.527 47.9143 232.24 48.3015 231.894 48.7767C230.779 50.2963 228.954 52.7722 224.748 52.8191C222.348 52.8426 220.212 52.3908 218 51.9215C215.161 51.3172 212.21 50.6894 208.396 50.9886C208.414 50.7187 208.414 50.4019 208.414 50.0323C208.414 49.5688 208.414 49.0114 208.443 48.325C208.455 48.0903 208.273 47.8849 208.032 47.8732C207.792 47.8615 207.592 48.0434 207.581 48.2839ZM168.318 127.994C168.084 127.959 167.925 127.736 167.96 127.501C167.995 127.266 168.218 127.108 168.453 127.143C168.811 127.196 169.187 127.255 169.585 127.307C169.932 127.354 170.313 127.401 170.724 127.454C170.958 127.483 171.129 127.695 171.099 127.935C171.07 128.17 170.859 128.34 170.618 128.311C170.26 128.27 169.879 128.217 169.462 128.164C169.099 128.117 168.717 128.058 168.318 127.994ZM149.626 99.7791C149.626 99.5444 149.819 99.3508 150.054 99.3508C150.289 99.3508 150.482 99.5444 150.482 99.7791C150.459 105.605 149.42 110.586 147.367 114.722C145.302 118.876 142.222 122.18 138.126 124.62C137.921 124.743 137.657 124.673 137.534 124.474C137.411 124.268 137.481 124.004 137.68 123.881C141.635 121.522 144.604 118.342 146.592 114.341C148.587 110.322 149.596 105.464 149.62 99.7791H149.626ZM133.556 125.905C133.779 125.817 134.025 125.923 134.113 126.146C134.201 126.369 134.096 126.615 133.873 126.703C133.585 126.82 133.321 126.92 133.081 127.008C132.805 127.108 132.535 127.208 132.271 127.296C132.048 127.372 131.802 127.255 131.725 127.026C131.649 126.803 131.766 126.556 131.995 126.48C132.271 126.386 132.535 126.292 132.787 126.198C133.075 126.093 133.333 125.993 133.562 125.905H133.556ZM94.7159 125.154C94.3874 125.647 94.0119 126.134 93.6188 126.574C92.5744 127.753 91.3072 128.762 89.8991 129.537C87.9571 130.605 85.7569 131.227 83.5274 131.227C82.0431 131.227 80.5411 130.951 79.0978 130.346C79.309 130.358 79.5144 130.358 79.7197 130.358C83.0522 130.358 85.9505 129.226 88.1565 127.348C90.3684 125.471 91.8821 122.842 92.4395 119.856C92.5979 119.011 92.6801 118.143 92.6801 117.257C92.6801 112.106 90.3332 108.861 87.8691 105.458C85.4108 102.061 82.8293 98.5001 82.4948 92.6799C82.2602 88.5906 83.9968 84.2372 87.0829 80.6642C88.8841 78.5814 91.1429 76.7685 93.742 75.4249C96.3411 74.0872 99.2746 73.2248 102.425 73.0429C108.175 72.7143 114.652 74.6622 121.124 80.1303C120.678 80.629 120.249 81.1688 119.839 81.7437C115.133 78.1003 110.352 76.5925 105.981 76.5925C103.018 76.5925 100.237 77.2906 97.7961 78.4875C95.3554 79.6903 93.255 81.3917 91.6474 83.41C89.4532 86.1558 88.1683 89.4883 88.1683 92.9146C88.1683 99.4271 90.3626 103.094 92.5216 106.714C94.5634 110.129 96.5699 113.49 96.5699 119.24C96.5699 121.364 95.8776 123.388 94.7101 125.148L94.7159 125.154ZM96.124 124.456C96.9571 122.854 97.4324 121.088 97.4324 119.252C97.4324 113.267 95.3613 109.8 93.255 106.286C91.1546 102.771 89.0249 99.21 89.0249 92.9264C89.0249 89.6995 90.2394 86.5547 92.3163 83.9556C93.8476 82.0371 95.8483 80.4119 98.1716 79.2678C100.495 78.1238 103.147 77.4608 105.975 77.4608C110.187 77.4608 114.799 78.9276 119.352 82.4654C119.182 82.7294 119.011 83.0052 118.847 83.2868C115.116 81.333 111.554 80.4765 108.357 80.4765C105.406 80.4765 102.76 81.204 100.554 82.4654C98.3418 83.7327 96.5816 85.5397 95.4141 87.6988C94.3756 89.6173 93.8065 91.8116 93.8065 94.1467C93.8065 99.0105 95.4904 101.915 97.186 104.848C98.4239 106.99 99.6736 109.149 100.225 112.1C100.718 114.728 100.237 117.533 99.1808 119.956C98.4122 121.734 97.3385 123.306 96.124 124.462V124.456ZM78.9805 129.478C81.1747 128.645 83.0639 127.354 84.4779 125.706C86.2439 123.658 87.2824 121.071 87.2824 118.143C87.2824 113.707 85.0177 111.056 82.577 108.198C79.8371 104.989 76.8566 101.504 76.8566 94.8038C76.8566 88.8605 79.3912 82.172 84.4075 77.3258C88.5614 73.3128 94.4284 70.567 101.973 70.567C105.951 70.567 109.513 71.4647 112.646 73.0429C114.599 74.0286 116.395 75.2782 118.02 76.745C112.587 73.1896 107.23 71.9047 102.367 72.1863C99.0869 72.374 96.036 73.2717 93.3372 74.6622C90.6383 76.0527 88.2915 77.936 86.4199 80.101C83.193 83.8383 81.3801 88.4087 81.6265 92.7269C81.9727 98.8052 84.6304 102.472 87.1591 105.969C89.5412 109.254 91.8059 112.387 91.8059 117.263C91.8059 118.102 91.7296 118.917 91.5829 119.704C91.0607 122.496 89.6468 124.949 87.5933 126.697C85.534 128.446 82.8293 129.502 79.708 129.502C79.4616 129.502 79.2151 129.496 78.9629 129.484L78.9805 129.478ZM130.329 132.682C136.372 131.174 141.611 127.865 145.701 123.47C146.563 124.198 148.036 125.248 150.095 126.392C149.767 128.123 148.969 130.288 147.643 132.464C146.493 134.348 144.944 136.237 142.961 137.85C142.222 138.455 141.723 139.264 141.523 140.144C141.324 141.013 141.412 141.94 141.834 142.79C143.858 146.856 148.499 153.709 153.064 158.561C156.338 162.034 159.611 164.499 161.97 164.264C162.962 165.795 163.789 167.209 164.469 168.459C165.279 169.937 165.883 171.193 166.318 172.149H155.862C155.815 170.993 155.61 169.932 155.311 169.028C154.9 167.772 154.314 166.781 153.762 166.194C153.164 165.555 144.803 156.531 138.285 149.426C134.694 145.513 131.667 142.192 130.822 141.201C129.672 139.857 128.892 138.537 128.751 137.129C128.616 135.797 129.062 134.348 130.329 132.687V132.682Z" fill="white"></path><path fill-rule="evenodd" clip-rule="evenodd" d="M179.706 154.678C179.507 155.182 179.266 155.663 178.979 156.104C178.638 156.62 178.234 157.077 177.764 157.441C178.234 157.799 178.638 158.257 178.979 158.779C179.266 159.219 179.507 159.7 179.706 160.205C179.906 159.7 180.146 159.219 180.434 158.779C180.774 158.263 181.179 157.805 181.648 157.441C181.179 157.083 180.774 156.626 180.434 156.104C180.146 155.663 179.906 155.182 179.706 154.678ZM178.257 155.634C178.732 154.907 179.073 154.038 179.29 153.158C179.325 153.006 179.442 152.882 179.606 152.841C179.835 152.783 180.07 152.924 180.129 153.158C180.346 154.038 180.686 154.907 181.161 155.634C181.56 156.244 182.059 156.749 182.651 157.06C182.728 157.101 182.792 157.16 182.833 157.242C182.945 157.453 182.863 157.711 182.651 157.823C182.059 158.134 181.566 158.638 181.161 159.248C180.686 159.976 180.346 160.844 180.129 161.724C180.093 161.877 179.976 162 179.812 162.041C179.583 162.1 179.348 161.959 179.29 161.724C179.073 160.844 178.732 159.976 178.257 159.248C177.858 158.638 177.359 158.134 176.767 157.823C176.691 157.781 176.626 157.723 176.585 157.641C176.473 157.429 176.556 157.171 176.767 157.06C177.359 156.749 177.852 156.244 178.257 155.634Z" fill="white"></path><path fill-rule="evenodd" clip-rule="evenodd" d="M218.862 22.0354C218.54 22.9506 218.129 23.8307 217.618 24.611C217.079 25.4383 216.422 26.1599 215.647 26.6938C216.422 27.2336 217.073 27.9494 217.618 28.7766C218.129 29.5569 218.545 30.437 218.862 31.3523C219.185 30.437 219.596 29.5569 220.106 28.7766C220.646 27.9494 221.303 27.2277 222.077 26.6938C221.303 26.154 220.652 25.4383 220.106 24.611C219.596 23.8307 219.179 22.9506 218.862 22.0354ZM216.897 24.1358C217.613 23.0445 218.123 21.742 218.446 20.4161C218.481 20.2635 218.598 20.1403 218.762 20.0992C218.991 20.0406 219.226 20.1814 219.285 20.4161C219.607 21.7361 220.118 23.0445 220.834 24.1358C221.444 25.0628 222.195 25.8314 223.11 26.3125C223.186 26.3535 223.251 26.4122 223.292 26.4943C223.403 26.7055 223.321 26.9637 223.11 27.0752C222.201 27.5504 221.444 28.319 220.834 29.2519C220.118 30.3431 219.607 31.6456 219.285 32.9716C219.249 33.1241 219.132 33.2473 218.968 33.2884C218.739 33.3471 218.504 33.2062 218.446 32.9716C218.123 31.6515 217.613 30.3431 216.897 29.2519C216.287 28.3249 215.53 27.5504 214.62 27.0752C214.544 27.0341 214.48 26.9754 214.438 26.8933C214.327 26.6821 214.409 26.4239 214.62 26.3125C215.53 25.8372 216.287 25.0686 216.897 24.1358Z" fill="white"></path><path fill-rule="evenodd" clip-rule="evenodd" d="M160.904 141.119C160.833 141.266 160.751 141.406 160.663 141.541C160.511 141.776 160.329 141.993 160.129 142.175C160.329 142.357 160.511 142.574 160.663 142.809C160.751 142.944 160.833 143.084 160.904 143.231C160.98 143.084 161.056 142.944 161.144 142.809C161.297 142.574 161.473 142.357 161.678 142.175C161.479 141.993 161.297 141.776 161.144 141.541C161.056 141.406 160.974 141.266 160.904 141.119ZM159.942 141.072C160.194 140.691 160.37 140.227 160.487 139.764C160.522 139.611 160.64 139.488 160.804 139.447C161.033 139.388 161.268 139.529 161.326 139.764C161.444 140.233 161.62 140.691 161.872 141.072C162.077 141.383 162.324 141.641 162.623 141.794C162.699 141.835 162.764 141.893 162.805 141.976C162.916 142.187 162.834 142.445 162.623 142.556C162.33 142.709 162.077 142.967 161.872 143.278C161.62 143.659 161.444 144.123 161.326 144.586C161.291 144.739 161.174 144.862 161.009 144.903C160.781 144.962 160.546 144.821 160.487 144.586C160.37 144.117 160.194 143.659 159.942 143.278C159.736 142.967 159.49 142.709 159.191 142.556C159.114 142.515 159.05 142.457 159.009 142.375C158.897 142.163 158.979 141.905 159.191 141.794C159.484 141.641 159.736 141.383 159.942 141.072Z" fill="white"></path><path fill-rule="evenodd" clip-rule="evenodd" d="M142.392 26.6092C142.322 26.7559 142.24 26.8967 142.152 27.0317C141.999 27.2664 141.823 27.4834 141.618 27.6653C141.817 27.8472 141.999 28.0643 142.152 28.299C142.24 28.4339 142.322 28.5747 142.392 28.7214C142.463 28.5747 142.545 28.4339 142.633 28.299C142.785 28.0643 142.961 27.8472 143.167 27.6653C142.967 27.4834 142.785 27.2664 142.633 27.0317C142.545 26.8967 142.463 26.7559 142.392 26.6092ZM141.43 26.5564C141.682 26.1751 141.858 25.7116 141.976 25.2481C142.011 25.0955 142.128 24.9723 142.292 24.9313C142.521 24.8726 142.756 25.0134 142.815 25.2481C142.932 25.7175 143.108 26.1751 143.36 26.5564C143.566 26.8674 143.812 27.1255 144.111 27.2781C144.187 27.3192 144.252 27.3778 144.293 27.46C144.405 27.6712 144.322 27.9293 144.111 28.0408C143.818 28.1934 143.566 28.4515 143.36 28.7625C143.108 29.1438 142.932 29.6073 142.815 30.0708C142.779 30.2234 142.662 30.3466 142.498 30.3876C142.269 30.4463 142.034 30.3055 141.976 30.0708C141.858 29.6014 141.682 29.1438 141.43 28.7625C141.225 28.4515 140.978 28.1934 140.679 28.0408C140.603 27.9997 140.538 27.9411 140.497 27.8589C140.386 27.6477 140.468 27.3896 140.679 27.2781C140.972 27.1255 141.225 26.8674 141.43 26.5564Z" fill="white"></path></g><defs><filter id="filter0_d_1429_31816" x="70" y="0" width="170.512" height="179" filterUnits="userSpaceOnUse" color-interpolation-filters="sRGB"><feFlood flood-opacity="0" result="BackgroundImageFix"></feFlood><feColorMatrix in="SourceAlpha" type="matrix" values="0 0 0 0 0 0 0 0 0 0 0 0 0 0 0 0 0 0 127 0" result="hardAlpha"></feColorMatrix><feOffset></feOffset><feGaussianBlur stdDeviation="3"></feGaussianBlur><feComposite in2="hardAlpha" operator="out"></feComposite><feColorMatrix type="matrix" values="0 0 0 0 1 0 0 0 0 1 0 0 0 0 1 0 0 0 1 0"></feColorMatrix><feBlend mode="normal" in2="BackgroundImageFix" result="effect1_dropShadow_1429_31816"></feBlend><feBlend mode="normal" in="SourceGraphic" in2="effect1_dropShadow_1429_31816" result="shape"></feBlend></filter></defs></svg>