<svg xmlns="http://www.w3.org/2000/svg"  xmlns:xlink="http://www.w3.org/1999/xlink"  width="311" height="179" viewBox="0 0 311 179" fill="none"><g filter="url(#filter0_d_1429_31808)"><path fill-rule="evenodd" clip-rule="evenodd" d="M156.096 110.054C156.096 109.686 156.096 109.311 156.076 108.956C155.996 106.634 155.634 103.488 154.45 100.932C153.305 98.4687 151.371 96.5612 148.125 96.5612H147.831C144.892 96.6616 142.155 97.1167 139.839 97.6789C136.085 98.5891 133.481 99.7537 132.906 100.155C132.484 100.443 132.109 100.818 131.862 101.353C131.607 101.909 131.473 102.645 131.547 103.656C131.567 103.923 131.366 104.164 131.092 104.184H131.058C130.516 104.184 128.716 104.184 127.725 105.857C127.873 105.844 128.027 105.837 128.174 105.837C129.071 105.837 129.974 106.092 130.731 106.574C131.5 107.062 132.116 107.778 132.43 108.702V108.722C132.571 109.13 132.651 109.585 132.651 110.061C132.651 110.536 132.571 111.004 132.43 111.419C132.116 112.343 131.5 113.066 130.731 113.554C129.974 114.036 129.071 114.29 128.174 114.29C128.02 114.29 127.873 114.284 127.719 114.27C128.14 114.986 128.703 115.395 129.245 115.622C129.988 115.937 130.731 115.937 131.052 115.937C131.326 115.937 131.547 116.158 131.547 116.432V116.492C131.473 117.49 131.601 118.219 131.862 118.768L131.875 118.801C132.123 119.317 132.491 119.685 132.906 119.966C133.481 120.361 136.085 121.532 139.839 122.442C142.155 123.004 144.886 123.453 147.831 123.553H148.125C151.371 123.553 153.305 121.646 154.45 119.183C155.634 116.626 155.996 113.481 156.076 111.158C156.089 110.803 156.096 110.429 156.096 110.061V110.054ZM141.867 133.813C140.897 137.086 140.843 139.696 140.79 141.932C140.743 143.973 140.709 145.713 140.027 147.393C139.558 148.544 138.835 149.427 137.825 150.03C136.961 150.545 135.904 150.833 134.632 150.893C134.525 151.676 134.251 152.439 133.796 153.162C133.12 154.24 132.029 155.21 130.469 155.96C128.957 156.682 126.989 157.198 124.513 157.405C123.81 160.712 119.821 163.409 113.978 165.162C107.895 166.989 99.7496 167.826 91.2632 167.284C82.8504 166.742 78.0182 165.417 75.321 163.824C72.4698 162.137 71.8943 160.136 72.0147 158.389C72.0348 158.121 72.2691 157.914 72.5368 157.934C72.6773 157.941 72.7978 158.008 72.8781 158.108C73.9556 159.393 76.4387 160.21 80.0929 160.524C83.8141 160.845 88.6932 160.631 94.5025 159.835C95.3926 159.714 96.2426 159.567 97.0457 159.393C101.617 158.423 104.542 156.749 106.268 154.989C107.868 153.356 108.437 151.67 108.33 150.425C106.871 150.257 105.92 149.22 104.816 148.015C103.799 146.911 102.641 145.646 100.82 144.89C98.826 144.06 92.6821 141.911 86.7121 141.59C83.2118 141.403 79.7851 141.838 77.3288 143.545C77.1079 143.698 76.8001 143.645 76.6461 143.424C76.5257 143.25 76.5324 143.022 76.6461 142.855C76.8202 142.581 77.0276 142.32 77.2686 142.072C80.374 138.806 88.4589 138.03 96.2828 138.418C104.066 138.799 111.656 140.339 113.791 141.711L113.818 141.731C114.434 141.249 115.471 140.928 116.662 140.78C117.78 140.647 119.058 140.667 120.243 140.854C121.454 141.048 122.585 141.423 123.389 142.005C123.924 142.393 124.312 142.875 124.5 143.458H124.774C126.461 143.384 127.953 143.33 129.258 143.531C129.579 140.392 131.42 137.99 133.16 135.727C134.358 134.168 135.509 132.669 136.011 131.083C135.636 130.433 135.777 129.329 136.185 128.071C136.707 126.458 137.651 124.524 138.454 123.091C135.195 122.201 132.919 121.157 132.357 120.769C131.821 120.401 131.333 119.912 130.998 119.216L130.978 119.176C130.704 118.58 130.536 117.844 130.55 116.901C130.108 116.874 129.506 116.787 128.87 116.519C127.92 116.118 126.942 115.321 126.42 113.735C126.387 113.634 126.387 113.527 126.42 113.42C126.507 113.166 126.788 113.025 127.043 113.112C127.404 113.233 127.786 113.293 128.174 113.293C128.89 113.293 129.606 113.092 130.208 112.711C130.797 112.336 131.266 111.794 131.507 111.098C131.614 110.783 131.674 110.435 131.674 110.047C131.674 109.659 131.621 109.324 131.514 109.016V108.996C131.273 108.3 130.797 107.752 130.208 107.383C129.613 107.002 128.89 106.801 128.174 106.801C127.792 106.801 127.411 106.861 127.056 106.975C126.956 107.015 126.835 107.022 126.728 106.982C126.467 106.895 126.327 106.62 126.414 106.359C127.29 103.689 129.425 103.261 130.543 103.194C130.53 102.25 130.69 101.514 130.971 100.918C131.306 100.202 131.801 99.7068 132.35 99.3253C132.912 98.9371 135.181 97.8931 138.447 97.0029C137.651 95.5707 136.7 93.6365 136.185 92.0235C135.777 90.7653 135.643 89.661 136.011 89.0118C135.509 87.4256 134.358 85.9264 133.16 84.367C131.42 82.1048 129.573 79.7021 129.258 76.5632C127.953 76.764 126.461 76.7037 124.774 76.6435H124.5C124.319 77.2124 123.924 77.6943 123.389 78.0891C122.592 78.6714 121.461 79.0462 120.243 79.2403C119.052 79.4277 117.78 79.4478 116.662 79.3139C115.471 79.1734 114.434 78.8454 113.818 78.3635L113.791 78.3836C111.649 79.7556 104.066 81.2883 96.2828 81.6765C88.4589 82.0646 80.3807 81.2883 77.2686 78.0222C77.0343 77.7746 76.8269 77.5136 76.6461 77.2392C76.5324 77.0718 76.519 76.851 76.6461 76.6703C76.8001 76.4494 77.1079 76.3959 77.3288 76.5498C79.7851 78.2565 83.2118 78.6915 86.7121 78.5041C92.6821 78.1828 98.826 76.0345 100.82 75.2045C102.641 74.4483 103.799 73.1833 104.816 72.079C105.92 70.8743 106.871 69.8369 108.33 69.6696C108.437 68.4248 107.875 66.7382 106.268 65.1051C104.535 63.3382 101.61 61.6651 97.0457 60.7013C96.2426 60.534 95.3993 60.3867 94.5025 60.2596C88.6932 59.4698 83.8141 59.249 80.0929 59.5702C76.4387 59.8848 73.9556 60.7013 72.8781 61.9863C72.7978 62.0867 72.6706 62.1536 72.5368 62.1603C72.2691 62.1804 72.0348 61.9729 72.0147 61.7052C71.8943 59.9584 72.4698 57.9572 75.321 56.2707C78.0249 54.6711 82.8504 53.3459 91.2632 52.8105C99.7496 52.2684 107.895 53.105 113.978 54.9321C119.821 56.6856 123.81 59.3828 124.513 62.689C126.989 62.8898 128.957 63.4119 130.469 64.1347C132.029 64.8843 133.113 65.848 133.796 66.9323C134.251 67.6551 134.519 68.4181 134.632 69.2011C135.897 69.2547 136.961 69.5491 137.825 70.0645C138.835 70.6668 139.558 71.5503 140.027 72.7014C140.709 74.388 140.75 76.1282 140.79 78.1628C140.837 80.3981 140.897 83.0083 141.867 86.2811H141.887C142.53 86.2075 143.126 86.502 143.654 87.0642C144.123 87.5527 144.544 88.2622 144.926 89.0921C145.749 90.9125 146.358 93.4022 146.646 95.6242C147.027 95.5975 147.409 95.5774 147.797 95.564H148.125C149.27 95.5573 150.267 95.7581 151.143 96.1262C152.014 95.5171 153.734 94.9483 155.815 94.5199L155.976 94.4865C153.727 86.1807 151.652 79.682 148.312 73.1298C144.906 66.437 140.181 59.6773 132.611 50.8562C132.437 50.6487 132.457 50.3409 132.665 50.1669C132.839 50.0129 133.093 50.0129 133.274 50.1401C137.075 52.9042 140.723 55.9494 144.136 59.423C147.543 62.8965 150.708 66.8051 153.533 71.296C153.573 71.3629 153.6 71.4298 153.606 71.4967C153.894 73.8928 155.092 77.4801 156.792 81.0473C158.325 84.2733 160.266 87.4657 162.3 89.748C162.428 89.8885 162.454 90.0759 162.394 90.2432C162.16 90.8857 162.006 91.5416 161.952 92.1975C161.905 92.7129 161.912 93.2416 161.986 93.777C162.401 93.7636 162.816 93.7502 163.224 93.7502C163.866 93.7502 164.522 93.7636 165.185 93.7837C163.431 83.4233 161.524 76.0947 158.78 69.335C155.982 62.4414 152.315 56.1368 147.048 47.8043C146.9 47.5767 146.974 47.2689 147.201 47.1283C147.389 47.0146 147.623 47.0346 147.777 47.1685C150.876 49.7854 153.894 52.8239 156.852 56.2372C159.804 59.6505 162.689 63.4386 165.506 67.5681C165.613 67.722 165.62 67.9161 165.54 68.07C164.67 69.8436 165.078 73.9798 166.022 78.0021C167.066 82.4796 168.739 86.7563 170.017 87.4523C170.251 87.5795 170.345 87.8807 170.211 88.1149C169.77 88.9381 169.555 89.8885 169.555 90.9527C169.555 91.9767 169.763 93.1144 170.158 94.366C170.292 94.3994 170.419 94.4262 170.553 94.4597C171.858 94.7943 173.022 95.2762 173.946 95.9589L173.966 95.9455C174.22 95.8049 174.528 95.6845 174.876 95.5774C174.448 88.1015 173.444 80.6993 171.57 73.0629C169.662 65.2925 166.851 57.288 162.829 48.7413C162.715 48.4937 162.816 48.2059 163.063 48.0854C163.271 47.985 163.518 48.0519 163.659 48.2259C165.687 50.5416 167.936 53.2857 170.044 56.3978C172.166 59.5234 174.14 63.0103 175.592 66.7716C175.632 66.872 175.632 66.9791 175.606 67.0795C175.063 69.007 175.545 73.3306 176.456 77.373C177.346 81.3284 178.631 84.9626 179.748 85.7323C179.969 85.8862 180.023 86.1874 179.876 86.4083C179.3 87.3653 179.032 88.6637 178.965 90.1897C178.898 91.6554 179.019 93.3152 179.233 95.0821C180.19 95.0888 181.194 95.1557 182.198 95.2896C182.526 95.3297 182.854 95.3833 183.175 95.4368C183.483 88.1819 183.209 81.3686 182.211 74.2609C181.187 66.9724 179.394 59.3761 176.69 50.6956C176.61 50.4346 176.757 50.1602 177.011 50.0798C177.232 50.0129 177.466 50.1066 177.58 50.3007C179.22 52.8573 180.96 55.9226 182.566 59.1753C183.998 62.08 185.324 65.1319 186.354 68.0834C186.394 68.2039 186.388 68.3378 186.341 68.4448C185.578 70.2586 185.725 73.5447 186.307 76.697C186.97 80.2777 188.181 83.6375 189.252 84.4138C189.473 84.5744 189.52 84.8823 189.359 85.1032L189.326 85.15C188.59 86.0602 188.121 87.8673 187.887 89.9086C187.612 92.2912 187.659 94.9616 187.974 96.9159C188.804 97.3309 189.52 97.8261 190.062 98.395C190.095 98.3549 190.129 98.3147 190.162 98.2813C191.454 96.8959 194.218 96.5813 196.527 96.3136C197.672 96.1797 198.696 96.0659 199.271 95.8451C199.459 95.7715 199.653 95.8183 199.8 95.9589C200.121 96.2667 200.429 96.6081 200.71 96.9695C200.978 96.5813 201.426 96.1596 202.062 95.7313C202.35 95.5372 202.678 95.3431 203.039 95.1423C203.876 94.6872 204.98 93.8038 206.031 92.9672C207.416 91.8562 208.708 90.8188 209.424 90.8188C209.431 90.8188 209.444 90.8188 209.451 90.8188C209.578 90.8188 209.705 90.8322 209.839 90.8456C210.1 90.1294 210.689 88.8377 211.379 87.4055C212.844 84.3603 214.792 80.5387 214.993 80.2576L215.039 80.1974C215.167 80.0568 215.361 80.01 215.535 80.0568C215.642 79.7088 215.823 79.247 216.05 78.6781C216.659 77.1455 217.623 74.7561 218.145 72.0054C218.192 71.7778 218.219 71.4834 218.259 71.1822V71.1621C218.393 70.031 218.546 68.6858 219.417 68.0299C219.363 67.3271 219.39 65.9953 219.417 64.4359C219.477 61.4576 219.557 57.6092 219.189 56.264C219.082 55.8557 219.035 55.4809 219.055 55.1396C219.082 54.564 219.263 54.0821 219.55 53.6939C219.222 53.0782 218.861 51.9271 218.413 50.4814C217.342 47.0413 215.702 41.7741 213.326 38.6352C213.186 38.4478 213.199 38.1868 213.346 38.0195C212.677 36.7344 211.077 34.5794 209.351 32.5046C207.436 30.2157 205.388 28.0472 204.257 27.2909C203.18 26.5681 202.912 25.8453 203.039 25.1693C200.75 24.1721 197.043 22.9808 193.054 22.191C191.053 21.7962 188.984 21.5084 186.997 21.4013C186.013 30.3696 178.912 30.6507 173.705 30.8582C172.018 30.9251 170.539 30.9853 169.636 31.3401C169.328 31.4605 169.04 31.6145 168.766 31.7885C167.561 32.5648 166.764 33.8298 166.416 35.3089C166.068 36.8214 166.196 38.5482 166.858 40.2214C167.086 40.7903 167.373 41.3525 167.728 41.9013C167.815 42.0418 167.835 42.2225 167.755 42.3765C167.641 42.6174 167.347 42.7245 167.099 42.604C166.242 42.1957 165.473 41.6536 164.79 41.0044C162.26 38.6084 160.902 34.7467 160.58 30.6373C160.266 26.5614 160.982 22.2312 162.602 18.8446C163.244 17.5061 164.034 16.3081 164.951 15.3376C169.662 10.3649 174.675 9.94323 177.694 9.68891C178.443 9.62867 179.066 9.57513 179.487 9.46805C179.601 9.18695 179.728 8.90585 179.862 8.62476C180.391 7.52714 181 6.83109 181.622 6.43622C182.078 6.14843 182.539 6.01457 182.994 6.00119C183.443 5.9878 183.871 6.08819 184.259 6.27559C184.768 6.52322 185.21 6.90471 185.531 7.34644C186.073 7.52714 186.314 8.16965 186.575 8.87239C186.816 9.5149 187.077 10.231 187.519 10.2377H187.746C190.089 10.2578 203.709 10.3783 209.444 15.9199C209.94 15.3309 210.355 14.9427 210.609 14.9227H210.709C211.225 14.916 211.753 15.1971 212.155 15.6923C212.53 16.1474 212.804 16.7966 212.871 17.5529L212.884 17.747C212.904 18.2624 213.848 18.8379 215.019 19.5541C216.104 20.2167 217.369 20.9863 218.406 22.0505C219.296 22.9674 219.952 23.8776 220.521 24.6674C221.311 25.765 221.913 26.5949 222.649 26.722C222.93 26.7689 223.211 26.8024 223.466 26.8358C224.583 26.9697 225.387 27.0634 225.822 28.1074C225.922 28.0874 226.009 28.0807 226.089 28.0941C226.223 28.1074 226.344 28.1811 226.424 28.2815C226.625 28.5425 226.672 28.8503 226.725 29.2251C226.799 29.7405 226.906 30.4365 227.629 30.9586C228.325 31.4605 229.77 32.5381 231.176 34.8404C232.561 37.1092 233.9 40.5761 234.408 45.8768C234.462 46.4791 234.81 46.8004 235.165 47.1216C235.633 47.55 236.108 47.985 236.242 48.8685C238.223 49.7117 237.942 51.1172 237.661 52.516C237.534 53.1585 237.4 53.8077 237.608 54.2829C237.935 55.0325 238.223 57.1006 238.431 59.3895C238.739 62.7627 238.899 66.6445 238.819 67.3004C238.792 67.4878 238.913 67.7086 239.06 67.9964C239.502 68.833 240.157 70.0779 239.569 73.1766C239.763 74.2542 239.368 78.2832 238.551 82.2989C237.721 86.3882 236.45 90.5444 234.924 91.7491C235.158 93.1613 234.234 95.062 233.117 97.3777L233.03 97.5518C232.668 98.3013 232.34 99.0576 232.032 99.7804C230.6 103.1 229.523 105.603 225.721 105.476C225.54 106.239 225.018 106.895 224.162 107.484C224.255 107.705 224.349 107.926 224.429 108.146C224.45 108.207 224.463 108.26 224.463 108.32C224.463 109.07 224.369 109.96 223.653 110.944C222.977 111.881 221.726 112.885 219.43 113.909C217.871 114.605 216.05 115.743 214.29 116.847C211.258 118.748 208.414 120.535 206.941 119.865C206.459 120.147 205.415 120.742 204.478 121.084C204.452 121.244 204.425 121.391 204.391 121.532C204.365 121.639 204.311 121.739 204.217 121.813C202.584 123.118 200.188 123.5 197.806 123.393C194.714 123.259 191.588 122.288 190.229 121.485C189.667 122.128 188.891 122.676 187.981 123.138C187.673 125.093 187.619 127.763 187.894 130.146C188.128 132.187 188.596 133.994 189.333 134.904L189.366 134.951C189.527 135.172 189.473 135.48 189.259 135.64C188.188 136.417 186.977 139.777 186.314 143.357C185.732 146.509 185.585 149.796 186.348 151.609C186.394 151.723 186.408 151.85 186.361 151.971C185.33 154.922 184.012 157.967 182.573 160.879C180.973 164.125 179.226 167.197 177.587 169.753C177.473 169.948 177.239 170.041 177.018 169.974C176.757 169.894 176.616 169.62 176.697 169.359C179.4 160.678 181.194 153.082 182.218 145.793C183.222 138.686 183.496 131.872 183.182 124.617C182.854 124.671 182.533 124.724 182.205 124.765C181.201 124.892 180.197 124.959 179.24 124.972C179.026 126.732 178.905 128.399 178.972 129.864C179.039 131.39 179.313 132.689 179.882 133.646C180.03 133.867 179.976 134.168 179.755 134.322C178.637 135.092 177.359 138.726 176.462 142.681C175.552 146.724 175.07 151.047 175.612 152.975C175.639 153.075 175.639 153.182 175.599 153.283C174.147 157.051 172.172 160.531 170.051 163.656C167.942 166.768 165.687 169.519 163.666 171.828C163.525 172.002 163.284 172.069 163.07 171.969C162.822 171.855 162.722 171.561 162.836 171.313C166.858 162.766 169.669 154.762 171.577 146.991C173.451 139.362 174.454 131.953 174.883 124.477C174.535 124.37 174.227 124.249 173.973 124.109L173.952 124.095C173.036 124.778 171.864 125.26 170.559 125.594C170.432 125.628 170.298 125.661 170.164 125.688C169.77 126.933 169.562 128.078 169.562 129.102C169.562 130.172 169.776 131.123 170.218 131.939C170.345 132.174 170.258 132.475 170.017 132.602C168.739 133.298 167.066 137.575 166.022 142.052C165.085 146.074 164.676 150.211 165.54 151.984C165.62 152.138 165.613 152.332 165.506 152.486C162.689 156.616 159.804 160.41 156.852 163.817C153.901 167.237 150.876 170.269 147.777 172.886C147.616 173.02 147.382 173.04 147.201 172.926C146.974 172.779 146.9 172.477 147.048 172.25C152.315 163.917 155.982 157.613 158.78 150.719C161.524 143.959 163.431 136.631 165.185 126.27C164.529 126.297 163.873 126.304 163.224 126.304C162.816 126.304 162.401 126.297 161.986 126.277C161.912 126.813 161.905 127.335 161.952 127.857C162.013 128.513 162.167 129.168 162.394 129.811C162.454 129.972 162.421 130.166 162.3 130.306C160.259 132.588 158.325 135.788 156.792 139.014C155.092 142.587 153.894 146.175 153.606 148.564C153.6 148.638 153.573 148.705 153.533 148.765C150.708 153.256 147.543 157.164 144.136 160.638C140.73 164.111 137.082 167.157 133.274 169.921C133.093 170.048 132.839 170.048 132.665 169.894C132.457 169.72 132.437 169.405 132.611 169.205C140.181 160.384 144.906 153.624 148.312 146.931C151.652 140.379 153.727 133.88 155.976 125.574L155.815 125.541C153.74 125.119 152.014 124.544 151.143 123.941C150.267 124.303 149.27 124.51 148.125 124.51H147.797C147.409 124.49 147.027 124.47 146.646 124.443C146.358 126.659 145.742 129.148 144.926 130.975C144.551 131.812 144.123 132.515 143.654 133.003C143.119 133.566 142.53 133.86 141.887 133.786H141.867V133.813ZM134.693 149.909C135.75 149.849 136.627 149.608 137.33 149.187C138.146 148.705 138.735 147.975 139.117 147.025C139.732 145.499 139.772 143.846 139.813 141.911C139.866 139.556 139.926 136.792 140.997 133.291C140.589 132.816 139.632 132.582 138.702 132.354C138.019 132.187 137.35 132.02 136.814 131.752C136.219 133.351 135.101 134.81 133.936 136.323C132.256 138.505 130.483 140.814 130.222 143.732C131.781 144.174 133.04 145.144 134.01 147.172C134.391 147.968 134.626 148.812 134.679 149.655C134.679 149.735 134.686 149.822 134.693 149.903V149.909ZM139.431 123.346L139.612 123.393C141.412 123.828 143.46 124.202 145.669 124.396C145.388 126.511 144.805 128.874 144.029 130.601C143.694 131.344 143.326 131.953 142.945 132.361C142.624 132.696 142.302 132.876 141.994 132.843C141.954 132.843 141.914 132.829 141.867 132.816C141.292 131.986 140.1 131.692 138.936 131.411C138.093 131.203 137.269 131.002 136.895 130.641C136.613 130.373 136.767 129.483 137.122 128.379C137.644 126.752 138.635 124.765 139.438 123.352L139.431 123.346ZM124.66 156.408C126.909 156.201 128.689 155.732 130.055 155.076C131.433 154.414 132.384 153.57 132.973 152.64C133.548 151.73 133.769 150.726 133.702 149.729C133.655 149.006 133.454 148.283 133.127 147.6C131.493 144.187 128.729 144.287 124.807 144.435H124.653C124.868 146.422 124.955 148.517 124.955 150.518C124.955 152.687 124.848 154.748 124.66 156.408ZM96.2359 139.402C90.286 139.107 84.209 139.475 80.4744 141.108C82.4287 140.613 84.5838 140.493 86.7589 140.613C92.8761 140.941 99.154 143.136 101.195 143.98C103.216 144.823 104.455 146.168 105.539 147.346C106.59 148.491 107.48 149.461 108.758 149.461C108.986 149.461 109.193 149.622 109.24 149.856C109.26 149.943 109.273 150.037 109.287 150.137C109.494 151.649 108.885 153.731 106.971 155.679C105.117 157.566 102.032 159.346 97.2532 160.357C96.4367 160.531 95.5666 160.678 94.6363 160.805C88.7467 161.608 83.8007 161.823 80.0193 161.501C76.8804 161.234 74.5178 160.578 73.0588 159.56C73.273 160.698 74.0025 161.896 75.8296 162.974C78.413 164.5 83.098 165.771 91.3368 166.3C99.7095 166.835 107.727 166.012 113.711 164.219C119.413 162.505 123.221 159.942 123.623 156.877C123.844 155.177 123.977 152.921 123.977 150.512C123.977 148.37 123.87 146.108 123.623 144.02C123.563 143.531 123.268 143.123 122.813 142.795C122.15 142.306 121.167 141.992 120.096 141.818C118.998 141.644 117.82 141.63 116.783 141.751C115.571 141.898 114.588 142.213 114.26 142.661L114.219 142.708C114.032 142.902 113.724 142.915 113.523 142.728C113.463 142.668 113.383 142.608 113.289 142.547L113.262 142.534C111.234 141.236 103.866 139.777 96.2359 139.395V139.402ZM184.132 124.443C184.453 131.812 184.179 138.726 183.162 145.941C182.278 152.232 180.826 158.744 178.718 165.965C179.715 164.239 180.712 162.385 181.656 160.464C183.048 157.646 184.326 154.695 185.337 151.844C184.567 149.816 184.714 146.422 185.31 143.203C185.946 139.763 187.124 136.47 188.282 135.199C187.566 134.074 187.111 132.267 186.883 130.279C186.629 128.057 186.642 125.581 186.883 123.627C186.026 123.961 185.089 124.229 184.126 124.437L184.132 124.443ZM175.833 124.724C175.391 132.194 174.381 139.602 172.507 147.239C170.827 154.079 168.458 161.1 165.178 168.509C166.524 166.862 167.902 165.062 169.221 163.114C171.275 160.089 173.19 156.716 174.608 153.082C174.086 150.933 174.568 146.543 175.485 142.474C176.342 138.672 177.613 135.098 178.838 133.82C178.303 132.756 178.042 131.431 177.975 129.911C177.908 128.419 178.022 126.739 178.236 124.965C177.359 124.932 176.543 124.852 175.833 124.718V124.724ZM166.189 126.244C164.409 136.792 162.481 144.241 159.69 151.114C157.207 157.238 154.041 162.9 149.698 169.887C151.873 167.859 154.008 165.624 156.103 163.195C158.974 159.875 161.778 156.187 164.529 152.172C163.699 150.07 164.107 145.88 165.044 141.845C166.048 137.528 167.701 133.338 169.14 132.04C168.746 131.17 168.558 130.192 168.558 129.115C168.558 128.131 168.725 127.067 169.053 125.922C168.13 126.083 167.159 126.183 166.182 126.25L166.189 126.244ZM156.946 125.782C154.671 134.188 152.576 140.76 149.189 147.406C146.204 153.276 142.215 159.192 136.225 166.467C138.722 164.466 141.138 162.324 143.433 159.982C146.773 156.582 149.865 152.76 152.643 148.37C152.964 145.874 154.182 142.226 155.902 138.619C157.421 135.426 159.342 132.247 161.377 129.898C161.169 129.269 161.035 128.626 160.975 127.977C160.922 127.408 160.928 126.839 161.002 126.264C159.623 126.17 158.238 126.009 156.946 125.789V125.782ZM204.846 22.6394C203.233 21.7493 201.4 20.9997 199.506 20.3907C197.176 19.6478 194.774 19.1257 192.619 18.8446C192.351 18.8112 192.164 18.5635 192.197 18.2958C192.23 18.0281 192.478 17.8407 192.746 17.8742C194.954 18.162 197.417 18.6974 199.807 19.4604C201.781 20.0895 203.702 20.8792 205.388 21.8229L205.69 21.3544C206.54 20.0359 207.771 18.1285 208.815 16.7431C203.421 11.4023 190.015 11.2885 187.726 11.2684H187.485C186.374 11.2483 185.986 10.2043 185.638 9.26057C185.464 8.78538 185.303 8.35705 185.21 8.33027H185.183C184.942 8.33027 184.661 8.57121 184.387 8.92593C183.992 9.44797 183.664 10.1842 183.496 10.8535C183.296 11.6499 183.008 14.4943 183.128 17.0443C183.195 18.4431 183.376 19.7281 183.764 20.471C186.722 20.2836 190.055 20.6517 193.221 21.2741C197.27 22.0706 201.058 23.2953 203.407 24.3126L203.441 24.2591C203.702 23.8709 204.037 23.5363 204.331 23.2351C204.518 23.041 204.692 22.867 204.793 22.7264L204.846 22.6528V22.6394ZM189.011 17.6265L188.563 17.6399C188.295 17.6466 188.081 17.8742 188.088 18.1419C188.094 18.4096 188.322 18.6238 188.59 18.6171L189.031 18.6037C189.299 18.6037 189.52 18.3761 189.513 18.1084C189.513 17.8407 189.286 17.6199 189.018 17.6265H189.011ZM216.673 35.6502C216.211 34.8538 215.562 33.8699 214.819 32.8259C213.801 31.3869 212.603 29.8141 211.532 28.4689C211.365 28.2547 211.399 27.9468 211.613 27.7795C211.827 27.6122 212.135 27.6456 212.302 27.8598C213.366 29.1917 214.571 30.7779 215.622 32.2637C216.331 33.2676 216.967 34.218 217.429 35.001C218.386 34.1644 219.376 33.2609 220.32 32.3908C222.094 30.7578 223.727 29.2586 224.885 28.5492C224.61 28.0071 224.068 27.9401 223.318 27.8531C223.051 27.8197 222.77 27.7862 222.448 27.7326C221.317 27.5386 220.621 26.5681 219.691 25.2831C219.142 24.5268 218.513 23.6501 217.67 22.78C216.719 21.8028 215.515 21.0666 214.477 20.4375C213.052 19.5741 211.907 18.8781 211.874 17.8273L211.86 17.6801C211.814 17.1313 211.619 16.6762 211.365 16.3549C211.151 16.0939 210.91 15.94 210.703 15.94H210.669C210.308 15.9734 207.885 19.7415 206.513 21.8765C206.085 22.539 205.71 23.2083 205.154 23.7772C205.114 23.8174 205.067 23.8642 205.027 23.9111C204.759 24.1788 204.458 24.4866 204.251 24.7945C203.916 25.2898 203.842 25.8787 204.779 26.5079C205.991 27.3177 208.119 29.5598 210.08 31.9023C211.814 33.9837 213.433 36.1656 214.163 37.5443C214.912 37.0758 215.769 36.4132 216.673 35.6569V35.6502ZM210.247 25.3835L210.007 25.1158L209.792 24.8949C209.605 24.7008 209.29 24.6941 209.096 24.8882C208.902 25.0756 208.896 25.3902 209.09 25.5843L209.284 25.7917L209.511 26.0461C209.692 26.2469 210 26.2669 210.207 26.0862C210.408 25.9055 210.428 25.5977 210.247 25.3902V25.3835ZM224.396 48.0854C223.941 47.0815 223.513 46.0039 223.084 44.9264C222.448 43.3268 221.813 41.7273 221.11 40.3753C220.983 40.1344 220.688 40.0407 220.447 40.1678C220.206 40.295 220.113 40.5895 220.24 40.8304C220.916 42.1288 221.545 43.715 222.174 45.2878C222.616 46.3988 223.057 47.5031 223.499 48.487C223.613 48.7346 223.901 48.8417 224.148 48.7346C224.396 48.6208 224.503 48.333 224.396 48.0854ZM224.724 68.92H224.69C224.69 68.92 224.637 68.9133 224.61 68.9066C222.75 68.6791 221.257 68.5988 220.574 68.6523C219.504 68.7393 219.336 70.1716 219.202 71.3227V71.3361C219.162 71.6574 219.129 71.9585 219.075 72.233C218.533 75.0774 217.556 77.5202 216.927 79.0864C216.733 79.5749 216.572 79.9698 216.478 80.2308C218.647 80.2844 221.297 80.8399 223.874 81.6698C226.651 82.5666 229.362 83.778 231.303 85.0162C231.477 85.1299 231.644 85.2437 231.798 85.3575C231.986 84.9693 232.14 84.6012 232.26 84.2532C232.434 83.7512 232.554 83.2894 232.635 82.841C232.682 82.5733 232.936 82.3926 233.204 82.4394C233.471 82.4863 233.652 82.7406 233.605 83.0083C233.518 83.4969 233.384 84.0189 233.19 84.5744C233.03 85.0229 232.829 85.498 232.581 86C234.422 87.7468 234.101 89.4066 233.84 90.1094C234.06 90.3369 234.275 90.5712 234.482 90.8054L234.502 90.8322C235.707 89.6543 236.798 85.8795 237.561 82.1316C238.391 78.049 238.826 74.0802 238.611 73.4577C237.614 72.1794 235.098 71.1487 232.233 70.3657C229.717 69.683 226.959 69.2011 224.717 68.9267L224.724 68.92ZM224.276 67.8826C224.316 67.1732 224.336 66.3701 224.336 65.5335C224.336 64.3756 224.309 63.1241 224.255 61.9328C224.242 61.665 224.456 61.4308 224.724 61.4241C224.992 61.4174 225.226 61.6249 225.233 61.8926C225.286 63.0906 225.313 64.3489 225.313 65.5402C225.313 66.4303 225.293 67.2736 225.246 68.0031C227.461 68.2909 230.092 68.7594 232.494 69.4153C235.038 70.1113 237.353 71.0216 238.712 72.166C238.98 70.0243 238.504 69.1074 238.17 68.4716C237.935 68.0299 237.755 67.6886 237.822 67.2C237.902 66.5776 237.741 62.8028 237.434 59.4966C237.233 57.308 236.972 55.3471 236.691 54.6979C236.356 53.9416 236.517 53.1451 236.677 52.3487C236.898 51.2444 237.119 50.1401 235.265 49.598C233.137 48.9755 229.101 50.7893 226.15 52.1211C224.463 52.8774 223.111 53.4865 222.455 53.4597C221.766 53.4329 220.943 53.6404 220.454 54.1424C220.2 54.4101 220.026 54.7648 220.006 55.2199C219.992 55.4608 220.026 55.7352 220.113 56.0498C220.514 57.5222 220.434 61.4576 220.374 64.5028C220.347 65.8815 220.32 67.0728 220.34 67.7019C220.394 67.6952 220.447 67.6886 220.507 67.6819C221.163 67.6283 222.542 67.7019 224.282 67.896L224.276 67.8826ZM224.951 57.9639L224.864 57.2746C224.824 57.0069 224.577 56.8195 224.309 56.8596C224.041 56.8998 223.854 57.1474 223.894 57.4151C223.927 57.636 223.948 57.8502 223.974 58.071C224.001 58.3387 224.249 58.5328 224.516 58.5061C224.784 58.4793 224.978 58.2317 224.951 57.9639ZM231.684 86.502C231.684 86.502 231.651 86.4752 231.638 86.4618C231.397 86.261 231.116 86.0535 230.788 85.8461C228.914 84.6481 226.29 83.4768 223.586 82.6068C222.763 82.3391 221.926 82.1048 221.11 81.904C223.687 83.015 226.805 84.6012 229.643 86.589C230.848 87.4323 231.999 88.3492 233.043 89.3263C233.137 88.6838 233.003 87.6397 231.684 86.5087V86.502ZM227.013 100.43C227.274 100.155 227.575 99.7336 227.883 99.2383C228.224 98.6962 228.586 98.047 228.934 97.371C229.054 97.1301 228.96 96.8356 228.72 96.7085C228.479 96.5813 228.184 96.6817 228.057 96.9226C227.722 97.5651 227.374 98.1943 227.046 98.723C226.765 99.1714 226.504 99.5395 226.297 99.7604C226.109 99.9611 226.123 100.269 226.317 100.456C226.511 100.644 226.825 100.63 227.013 100.436V100.43ZM230.419 94.0916C230.473 93.951 230.52 93.8172 230.553 93.6967C230.594 93.5762 230.62 93.4691 230.64 93.3755C230.694 93.1077 230.527 92.8467 230.259 92.7932C229.991 92.7396 229.73 92.907 229.677 93.1747C229.663 93.2349 229.643 93.3152 229.61 93.4089C229.576 93.5093 229.536 93.6231 229.489 93.7569C229.395 94.0113 229.529 94.2924 229.784 94.3861C230.038 94.4798 230.319 94.3459 230.413 94.0916H230.419ZM210.923 113.447L211.372 113.286C213.239 112.624 216.224 111.56 217.911 109.043C218.065 108.816 217.998 108.515 217.777 108.361C217.549 108.207 217.248 108.267 217.094 108.494C215.588 110.743 212.791 111.74 211.044 112.363L210.582 112.53C210.328 112.624 210.194 112.905 210.288 113.159C210.381 113.414 210.662 113.547 210.917 113.454L210.923 113.447ZM196.748 119.25C197.698 119.27 198.441 119.277 199.03 119.176C199.72 119.056 200.222 118.795 200.57 118.266C200.924 117.73 201.574 114.799 201.574 111.674C201.574 109.699 201.326 107.618 200.617 105.951C200.509 105.704 200.222 105.583 199.974 105.69C199.726 105.797 199.606 106.085 199.713 106.333C200.369 107.865 200.59 109.813 200.59 111.674C200.59 114.625 200.054 117.282 199.753 117.724C199.572 117.998 199.285 118.139 198.863 118.206C198.348 118.293 197.652 118.286 196.761 118.273C196.494 118.273 196.266 118.487 196.266 118.754C196.266 119.022 196.48 119.25 196.748 119.25ZM166.718 29.0779C167.849 25.9055 170.64 25.8854 173.27 25.8721C175.954 25.8587 178.497 25.8386 179.501 23.0009C179.588 22.7465 179.454 22.4654 179.2 22.3784C178.945 22.2914 178.664 22.4253 178.577 22.6796C177.808 24.8681 175.599 24.8815 173.27 24.8949C170.298 24.915 167.153 24.9351 165.794 28.7566C165.707 29.011 165.841 29.2921 166.095 29.3858C166.349 29.4728 166.631 29.3389 166.724 29.0846L166.718 29.0779ZM179.086 10.579C178.698 10.6326 178.256 10.6727 177.761 10.7129C174.883 10.9538 170.104 11.3554 165.647 16.0604C164.797 16.9573 164.067 18.0683 163.472 19.3131C161.926 22.539 161.243 26.6953 161.544 30.6105C161.845 34.4924 163.11 38.1198 165.446 40.3352C165.627 40.5092 165.814 40.6698 166.008 40.8237L165.921 40.6163C165.185 38.749 165.044 36.8148 165.433 35.1215C165.827 33.3947 166.778 31.9156 168.203 30.992C168.525 30.7846 168.873 30.6039 169.247 30.4566C170.305 30.035 171.864 29.9747 173.638 29.9011C178.463 29.707 185.042 29.446 185.979 21.3879C185.29 21.3745 184.614 21.3879 183.958 21.4214C183.925 22.0906 183.878 22.7331 183.771 23.2953C183.63 24.0583 183.376 24.6941 182.914 25.0756C182.707 25.2496 182.399 25.2229 182.225 25.0154C182.051 24.8079 182.078 24.5 182.285 24.326C182.546 24.1119 182.7 23.6701 182.807 23.1146C182.914 22.5257 182.961 21.8229 182.994 21.0934C182.459 20.21 182.218 18.6907 182.144 17.0644C182.024 14.4274 182.325 11.4357 182.539 10.5924C182.733 9.80938 183.122 8.93932 183.603 8.3102C183.838 8.00233 184.099 7.748 184.38 7.57399C184.213 7.42006 184.025 7.2862 183.818 7.1925C183.563 7.07203 183.289 7.0051 183.008 7.0118C182.727 7.01849 182.432 7.1055 182.131 7.29959C181.649 7.60745 181.167 8.16965 180.726 9.07987C179.581 11.4625 179.38 13.5908 179.233 15.1301C179.173 15.7526 179.126 16.288 179.026 16.723C178.965 16.984 178.704 17.1514 178.437 17.0911C178.176 17.0309 178.008 16.7699 178.069 16.5022C178.156 16.1207 178.202 15.6187 178.256 15.0297C178.37 13.8384 178.517 12.3058 179.072 10.5657L179.086 10.579ZM235.078 48.5472C234.924 48.2728 234.703 48.072 234.482 47.8712C233.987 47.4161 233.491 46.9677 233.411 45.9839C232.923 40.8639 231.638 37.5376 230.319 35.3758C229.021 33.2408 227.675 32.2436 227.033 31.7818C225.975 31.0121 225.842 30.0885 225.735 29.3925L225.701 29.1582C224.911 29.5062 223.051 31.2129 220.996 33.1003C219.898 34.1109 218.747 35.1683 217.636 36.1187L217.61 36.1388C216.465 37.1159 215.367 37.9659 214.424 38.5214C216.719 41.821 218.285 46.8606 219.33 50.207C219.738 51.5188 220.059 52.5562 220.253 53.0381C220.909 52.6097 221.732 52.429 222.509 52.4625C222.93 52.4826 224.189 51.9137 225.755 51.2109C228.666 49.8991 232.568 48.1456 235.084 48.5405L235.078 48.5472ZM215.729 80.9269C215.381 81.5225 213.607 85.0162 212.242 87.8606C211.586 89.2192 211.037 90.4105 210.79 91.0129C212.382 91.3141 213.915 92.0034 215.475 93.0274C217.429 94.3191 219.423 96.1396 221.645 98.3883C223.914 100.677 225.239 102.451 225.634 103.91C225.688 104.117 225.728 104.311 225.748 104.506C228.88 104.579 229.837 102.357 231.109 99.4056C231.417 98.6962 231.738 97.9399 232.126 97.1435L232.213 96.9695C233.451 94.4061 234.422 92.4117 233.739 91.4212C233.338 90.9727 232.916 90.5377 232.481 90.1228C231.443 89.1389 230.292 88.222 229.088 87.372C226.042 85.237 222.669 83.5772 220.012 82.4863C219.102 82.1115 218.299 81.7969 217.636 81.5493C217.61 81.5426 215.749 80.9202 215.736 80.9202L215.729 80.9269ZM223.713 106.6C224.624 105.924 224.945 105.148 224.684 104.171C224.336 102.893 223.091 101.253 220.949 99.0911C218.767 96.8892 216.82 95.1022 214.932 93.8573C213.754 93.081 212.603 92.5121 211.425 92.1774C213.273 93.6632 216.05 96.2734 218.593 99.245C220.601 101.587 222.489 104.164 223.707 106.6H223.713ZM203.608 120.113C204.023 117.001 204.15 111.426 203.233 106.266C202.718 103.368 201.881 100.617 200.576 98.5423L200.536 98.4753C200.175 97.9065 199.773 97.3911 199.338 96.936C198.234 97.4714 196.748 97.6187 195.262 97.7726C193.301 97.9734 191.347 98.1742 190.658 99.2316C190.678 99.2718 190.705 99.3053 190.725 99.3454C192.264 102.13 193.034 106.092 193.034 110.047C193.034 114.003 192.271 117.918 190.751 120.702C191.963 121.418 194.874 122.302 197.812 122.436C199.92 122.529 202.009 122.228 203.428 121.177C203.494 120.829 203.548 120.468 203.595 120.113H203.608ZM204.612 119.979C205.395 119.638 206.178 119.183 206.499 118.995C207.316 116.305 207.115 112.042 205.957 107.932C205.275 105.516 204.264 103.16 202.939 101.226C203.488 102.745 203.903 104.398 204.204 106.098C205.107 111.205 205.007 116.733 204.612 119.979ZM201.493 97.5785C201.386 97.7458 201.346 97.873 201.373 97.96C203.983 100.236 205.837 103.89 206.901 107.665C208.079 111.841 208.293 116.205 207.497 119.069C208.541 119.297 211.057 117.717 213.734 116.037C215.515 114.92 217.362 113.762 219.002 113.032C221.11 112.095 222.234 111.198 222.823 110.388C223.345 109.666 223.439 108.996 223.446 108.428C223.332 108.133 223.205 107.839 223.064 107.537V107.524H223.057C221.9 105.028 219.939 102.33 217.844 99.8808C214.042 95.4368 209.926 91.8428 209.397 91.8428C209.029 91.8428 207.872 92.7731 206.62 93.7703C205.536 94.6404 204.398 95.5573 203.481 96.0459C203.14 96.2333 202.839 96.4073 202.584 96.5813C202.042 96.9494 201.674 97.284 201.48 97.5718L201.493 97.5785ZM189.714 99.5797C189.714 99.5797 189.687 99.5395 189.674 99.5194L189.614 99.4324C188.315 97.7258 185.203 96.7151 182.064 96.3069C179.126 95.9254 176.201 96.086 174.729 96.7085C175.064 97.0699 175.345 97.4781 175.559 97.9332C176.355 99.6265 176.75 101.849 176.944 104.064C177.138 106.272 177.138 108.428 177.138 110.054C177.138 113.347 177.138 118.801 175.552 122.174C175.338 122.63 175.057 123.038 174.722 123.399C176.188 124.022 179.113 124.176 182.057 123.801C185.196 123.399 188.309 122.382 189.607 120.675C189.701 120.548 189.788 120.414 189.868 120.28C191.327 117.643 192.056 113.855 192.056 110.054C192.056 106.252 191.327 102.458 189.868 99.8273C189.821 99.7403 189.768 99.66 189.714 99.5797ZM180.15 121.01C181.596 121.01 182.894 120.802 184.039 120.481C185.183 120.16 186.187 119.725 187.057 119.263C188.135 118.694 189.212 115.662 189.513 111.955C189.747 109.097 189.553 105.797 188.583 102.906C188.496 102.652 188.222 102.511 187.96 102.598C187.706 102.685 187.566 102.96 187.653 103.221C188.576 105.971 188.757 109.13 188.536 111.881C188.262 115.268 187.412 117.971 186.602 118.393C185.785 118.821 184.848 119.236 183.777 119.538C182.713 119.839 181.509 120.033 180.15 120.033C179.876 120.033 179.661 120.254 179.661 120.528C179.661 120.802 179.882 121.023 180.15 121.023V121.01ZM158.867 121.927C160.674 122.308 163.124 122.703 165.459 122.623C167.869 122.543 170.164 121.967 171.577 120.381C172.34 119.524 172.821 117.423 173.056 114.859C173.323 111.948 173.297 108.401 173.042 105.463C173.022 105.195 172.781 104.994 172.507 105.014C172.232 105.034 172.038 105.275 172.058 105.55C172.313 108.448 172.34 111.928 172.079 114.772C171.858 117.142 171.456 119.042 170.84 119.732C169.636 121.077 167.594 121.572 165.426 121.646C163.191 121.719 160.821 121.338 159.068 120.963C158.8 120.91 158.539 121.077 158.485 121.345C158.432 121.612 158.599 121.873 158.867 121.927ZM172.493 101.668C172.433 101.42 172.373 101.186 172.313 100.972C172.246 100.751 172.179 100.55 172.112 100.383C172.012 100.128 171.724 100.008 171.476 100.108C171.222 100.209 171.101 100.497 171.202 100.744C171.262 100.905 171.322 101.072 171.376 101.253C171.436 101.447 171.49 101.661 171.543 101.895C171.603 102.156 171.864 102.324 172.132 102.263C172.4 102.203 172.56 101.942 172.5 101.674L172.493 101.668ZM138.494 119.015C138.247 118.908 138.126 118.621 138.233 118.373C138.34 118.125 138.628 118.005 138.876 118.112C140.422 118.761 142.945 119.256 145.207 119.43C147.248 119.591 149.029 119.504 149.571 119.056C150.334 118.427 151.518 115.91 152.06 112.698C152.449 110.422 152.495 107.832 151.819 105.362C151.746 105.101 151.9 104.833 152.161 104.76C152.422 104.686 152.69 104.84 152.763 105.101C153.479 107.731 153.432 110.469 153.024 112.858C152.442 116.298 151.083 119.076 150.186 119.812C149.43 120.434 147.382 120.588 145.127 120.414C142.771 120.234 140.127 119.712 138.487 119.022L138.494 119.015ZM151.164 101.44C151.311 101.668 151.244 101.969 151.016 102.116C150.789 102.263 150.488 102.197 150.34 101.969C150.247 101.822 150.14 101.668 150.026 101.507C149.925 101.36 149.812 101.213 149.691 101.059C149.524 100.845 149.557 100.537 149.771 100.369C149.986 100.202 150.294 100.236 150.461 100.45C150.581 100.604 150.702 100.764 150.822 100.938C150.936 101.099 151.05 101.266 151.164 101.447V101.44ZM140.997 86.8165C139.926 83.3162 139.866 80.5521 139.813 78.1962C139.772 76.2553 139.732 74.6022 139.117 73.0829C138.735 72.1326 138.139 71.4097 137.33 70.9212C136.627 70.5062 135.75 70.2586 134.693 70.205C134.693 70.2853 134.693 70.3724 134.679 70.4527C134.619 71.296 134.391 72.1393 134.01 72.9357C133.04 74.9569 131.788 75.9274 130.222 76.3758C130.483 79.3005 132.256 81.6095 133.936 83.7847C135.101 85.2973 136.219 86.7563 136.814 88.3559C137.35 88.0882 138.019 87.9208 138.702 87.7535C139.632 87.526 140.589 87.2917 140.997 86.8165ZM145.669 95.7179C143.467 95.9187 141.412 96.2868 139.612 96.7218L139.431 96.7687C138.628 95.3565 137.637 93.3688 137.115 91.7424C136.761 90.6381 136.607 89.748 136.888 89.4802C137.269 89.1188 138.093 88.9114 138.936 88.7106C140.1 88.4228 141.292 88.135 141.867 87.3051C141.907 87.2917 141.954 87.285 141.994 87.2783C142.302 87.2449 142.624 87.4256 142.945 87.7602C143.333 88.1685 143.694 88.7775 144.029 89.5204C144.805 91.2404 145.388 93.603 145.669 95.7246V95.7179ZM124.647 75.673H124.801C128.723 75.8203 131.48 75.9207 133.12 72.5074C133.448 71.8247 133.649 71.1019 133.695 70.3791C133.762 69.3818 133.541 68.3779 132.966 67.4677C132.384 66.5374 131.427 65.6941 130.048 65.0315C128.683 64.3756 126.909 63.9071 124.653 63.6997C124.841 65.3662 124.948 67.4208 124.948 69.5893C124.948 71.5837 124.854 73.6853 124.647 75.6664V75.673ZM80.4744 78.9994C84.209 80.6324 90.286 81.0005 96.2359 80.706C103.866 80.3312 111.241 78.8655 113.262 77.5671C113.369 77.5002 113.45 77.4332 113.517 77.373C113.711 77.1856 114.025 77.1923 114.213 77.3931L114.253 77.4399C114.581 77.8884 115.558 78.2029 116.776 78.3502C117.813 78.4706 118.998 78.4572 120.089 78.2832C121.16 78.1159 122.144 77.7947 122.806 77.3061C123.255 76.9781 123.556 76.5699 123.616 76.0813C123.864 73.9932 123.971 71.7377 123.971 69.5893C123.971 67.1732 123.837 64.9177 123.616 63.2245C123.221 60.1592 119.406 57.5958 113.704 55.8825C107.721 54.0888 99.7028 53.2656 91.3301 53.801C83.0913 54.3298 78.4063 55.6014 75.8229 57.1273C74.0025 58.2049 73.2663 59.4029 73.0521 60.5407C74.5111 59.5234 76.8804 58.8742 80.0126 58.5998C83.794 58.2718 88.7467 58.4927 94.6297 59.2958C95.5599 59.423 96.43 59.5769 97.2465 59.7442C102.025 60.7548 105.117 62.5418 106.964 64.4225C108.879 66.3701 109.488 68.4515 109.28 69.9641C109.267 70.0578 109.253 70.1515 109.233 70.2452C109.186 70.4794 108.979 70.6334 108.751 70.6334C107.473 70.6334 106.583 71.6038 105.532 72.7483C104.448 73.9262 103.21 75.2782 101.189 76.1148C99.1473 76.9647 92.8694 79.1533 86.7522 79.4812C84.5771 79.6017 82.4153 79.4812 80.461 78.986L80.4744 78.9994ZM186.89 96.4809C186.649 94.5266 186.629 92.057 186.89 89.8283C187.117 87.8472 187.572 86.0335 188.288 84.9091C187.131 83.6375 185.953 80.3446 185.317 76.9045C184.721 73.6853 184.574 70.292 185.344 68.2641C184.34 65.413 183.055 62.4615 181.663 59.6438C180.712 57.723 179.715 55.8691 178.724 54.1424C180.833 61.3639 182.278 67.876 183.168 74.1672C184.186 81.382 184.46 88.2956 184.139 95.6644C185.103 95.8719 186.04 96.1396 186.896 96.4742L186.89 96.4809ZM178.236 95.1423C178.022 93.3688 177.908 91.6889 177.975 90.1964C178.042 88.6838 178.303 87.3519 178.838 86.2945C177.613 85.0162 176.349 81.4422 175.485 77.6407C174.568 73.5715 174.086 69.181 174.608 67.0327C173.19 63.3985 171.275 60.0253 169.221 57.0002C167.902 55.0593 166.524 53.2522 165.178 51.6058C168.451 59.0147 170.827 66.0354 172.507 72.8755C174.381 80.5119 175.391 87.9208 175.833 95.39C176.543 95.2561 177.359 95.1758 178.236 95.1423ZM169.06 94.192C168.739 93.0475 168.572 91.9833 168.565 90.9995C168.565 89.922 168.752 88.9448 169.147 88.0748C167.708 86.7697 166.055 82.58 165.051 78.2698C164.107 74.2341 163.706 70.0377 164.536 67.9429C161.785 63.9272 158.974 60.2395 156.11 56.9199C154.008 54.4904 151.873 52.255 149.705 50.2271C154.048 57.221 157.207 62.8764 159.697 69.0003C162.488 75.8738 164.415 83.3162 166.196 93.8707C167.173 93.9376 168.143 94.038 169.067 94.1987L169.06 94.192ZM161.002 93.8506C160.928 93.2751 160.922 92.6995 160.975 92.1306C161.035 91.4814 161.169 90.8389 161.377 90.2098C159.335 87.8673 157.421 84.6882 155.902 81.4891C154.182 77.8817 152.964 74.2341 152.643 71.7377C149.872 67.3472 146.773 63.5256 143.433 60.1257C141.138 57.7832 138.722 55.6349 136.225 53.6404C142.215 60.9155 146.204 66.8319 149.189 72.6948C152.576 79.3407 154.671 85.913 156.946 94.3191C158.238 94.0983 159.623 93.9309 161.002 93.8439V93.8506ZM173.625 97.0096C174.073 97.3911 174.428 97.8395 174.675 98.3549C175.418 99.9344 175.786 102.043 175.974 104.158C176.161 106.279 176.161 108.434 176.161 110.061C176.161 113.273 176.161 118.594 174.675 121.766C174.434 122.282 174.073 122.73 173.625 123.111C173.604 123.125 173.584 123.145 173.564 123.158C172.734 123.848 171.597 124.33 170.305 124.664C168.19 125.206 165.64 125.354 163.231 125.354C160.821 125.354 158.204 125.059 156.016 124.611C154.376 124.276 152.997 123.868 152.167 123.439C153.593 122.543 154.617 121.164 155.347 119.591C156.598 116.894 156.98 113.608 157.06 111.185C157.073 110.75 157.08 110.375 157.08 110.054C157.08 109.733 157.08 109.358 157.06 108.923C156.98 106.5 156.598 103.214 155.347 100.517C154.617 98.9371 153.586 97.5651 152.167 96.6683C152.997 96.2467 154.376 95.8317 156.016 95.4971C158.204 95.0486 160.828 94.7609 163.231 94.7609C165.633 94.7609 168.19 94.9081 170.305 95.4502C171.603 95.7849 172.734 96.2667 173.564 96.9494C173.584 96.9695 173.604 96.9829 173.625 97.0029V97.0096Z" fill="white"></path><path fill-rule="evenodd" clip-rule="evenodd" d="M104.795 101.786C104.253 103.479 103.517 105.112 102.587 106.538C101.656 107.956 100.518 109.181 99.1732 110.051C100.525 110.928 101.656 112.146 102.587 113.565C103.517 114.991 104.253 116.624 104.795 118.317C105.337 116.624 106.073 114.991 107.004 113.565C107.934 112.146 109.072 110.921 110.417 110.051C109.065 109.175 107.934 107.956 107.004 106.538C106.073 105.112 105.337 103.479 104.795 101.786ZM101.763 105.995C102.941 104.195 103.785 102.04 104.32 99.8649C104.36 99.6908 104.494 99.5503 104.681 99.5035C104.942 99.4365 105.21 99.5971 105.277 99.8649C105.812 102.047 106.656 104.195 107.834 105.995C108.844 107.541 110.103 108.82 111.622 109.616C111.709 109.663 111.782 109.73 111.829 109.824C111.956 110.065 111.863 110.359 111.622 110.486C110.103 111.283 108.844 112.561 107.834 114.107C106.656 115.907 105.812 118.063 105.277 120.238C105.237 120.412 105.103 120.552 104.916 120.599C104.655 120.666 104.387 120.505 104.32 120.238C103.785 118.056 102.941 115.907 101.763 114.107C100.753 112.561 99.4945 111.283 97.9752 110.486C97.8882 110.439 97.8146 110.373 97.7677 110.279C97.6406 110.038 97.7343 109.743 97.9752 109.616C99.4945 108.82 100.753 107.541 101.763 105.995Z" fill="white"></path><path fill-rule="evenodd" clip-rule="evenodd" d="M129.779 18.1802C129.344 19.4653 128.775 20.7034 128.058 21.7943C127.322 22.9187 126.432 23.8892 125.375 24.5986C126.432 25.3081 127.322 26.2785 128.058 27.4029C128.775 28.4938 129.344 29.732 129.779 31.017C130.214 29.732 130.782 28.4938 131.499 27.4029C132.235 26.2785 133.125 25.3081 134.182 24.5986C133.125 23.8892 132.235 22.9187 131.499 21.7943C130.782 20.7034 130.214 19.4653 129.779 18.1802ZM127.235 21.2589C128.186 19.8066 128.868 18.0665 129.297 16.3063C129.337 16.1323 129.471 15.9917 129.658 15.9449C129.919 15.8779 130.187 16.0386 130.254 16.3063C130.689 18.0665 131.365 19.8066 132.315 21.2589C133.132 22.5038 134.136 23.5278 135.36 24.1703C135.447 24.2171 135.521 24.2841 135.568 24.3778C135.695 24.6187 135.601 24.9132 135.36 25.0403C134.142 25.6762 133.132 26.7069 132.315 27.9517C131.365 29.404 130.682 31.1442 130.254 32.9044C130.214 33.0784 130.08 33.2189 129.892 33.2658C129.631 33.3327 129.364 33.1721 129.297 32.9044C128.862 31.1442 128.186 29.404 127.235 27.9517C126.419 26.7069 125.408 25.6829 124.19 25.0403C124.103 24.9935 124.029 24.9266 123.983 24.8329C123.855 24.5919 123.949 24.2975 124.19 24.1703C125.408 23.5345 126.419 22.5038 127.235 21.2589Z" fill="white"></path><path fill-rule="evenodd" clip-rule="evenodd" d="M208.286 143.668C207.744 145.355 207.014 146.988 206.077 148.407C205.147 149.826 204.016 151.044 202.67 151.914C204.016 152.791 205.147 154.002 206.077 155.421C207.007 156.84 207.737 158.473 208.279 160.16C208.821 158.473 209.551 156.847 210.488 155.421C211.418 154.002 212.549 152.784 213.894 151.914C212.549 151.037 211.418 149.826 210.488 148.407C209.557 146.988 208.828 145.355 208.279 143.668H208.286ZM205.261 147.865C206.438 146.071 207.275 143.923 207.81 141.748C207.851 141.574 207.985 141.433 208.172 141.386C208.433 141.319 208.701 141.48 208.768 141.748C209.303 143.923 210.146 146.071 211.318 147.865C212.328 149.404 213.58 150.683 215.099 151.479C215.186 151.526 215.26 151.593 215.306 151.686C215.434 151.927 215.34 152.222 215.099 152.349C213.58 153.145 212.328 154.417 211.318 155.963C210.14 157.757 209.303 159.905 208.768 162.08C208.727 162.254 208.594 162.395 208.406 162.442C208.145 162.509 207.877 162.348 207.81 162.08C207.275 159.905 206.432 157.757 205.261 155.963C204.25 154.424 202.998 153.145 201.479 152.349C201.392 152.302 201.318 152.235 201.272 152.142C201.144 151.901 201.238 151.606 201.479 151.479C202.998 150.683 204.25 149.411 205.261 147.865Z" fill="white"></path><path fill-rule="evenodd" clip-rule="evenodd" d="M229.715 121.844C229.468 122.486 229.167 123.095 228.805 123.651C228.384 124.293 227.888 124.856 227.299 125.297C227.888 125.739 228.384 126.301 228.805 126.944C229.167 127.499 229.468 128.108 229.715 128.751C229.963 128.108 230.264 127.499 230.626 126.944C231.047 126.301 231.543 125.739 232.132 125.297C231.543 124.856 231.047 124.293 230.626 123.651C230.264 123.095 229.963 122.486 229.715 121.844ZM227.975 123.109C228.558 122.225 228.973 121.161 229.234 120.084C229.274 119.91 229.408 119.769 229.595 119.722C229.856 119.655 230.124 119.816 230.191 120.084C230.458 121.161 230.873 122.219 231.449 123.109C231.937 123.858 232.547 124.474 233.269 124.856C233.356 124.902 233.43 124.969 233.477 125.063C233.604 125.304 233.51 125.598 233.269 125.726C232.54 126.107 231.937 126.723 231.449 127.472C230.867 128.356 230.452 129.42 230.191 130.498C230.15 130.672 230.017 130.812 229.829 130.859C229.568 130.926 229.301 130.765 229.234 130.498C228.966 129.42 228.551 128.363 227.975 127.472C227.487 126.723 226.878 126.107 226.155 125.726C226.068 125.679 225.994 125.612 225.947 125.518C225.82 125.277 225.914 124.983 226.155 124.856C226.884 124.474 227.487 123.858 227.975 123.109Z" fill="white"></path></g><defs><filter id="filter0_d_1429_31808" x="66" y="0" width="179.803" height="179" filterUnits="userSpaceOnUse" color-interpolation-filters="sRGB"><feFlood flood-opacity="0" result="BackgroundImageFix"></feFlood><feColorMatrix in="SourceAlpha" type="matrix" values="0 0 0 0 0 0 0 0 0 0 0 0 0 0 0 0 0 0 127 0" result="hardAlpha"></feColorMatrix><feOffset></feOffset><feGaussianBlur stdDeviation="3"></feGaussianBlur><feComposite in2="hardAlpha" operator="out"></feComposite><feColorMatrix type="matrix" values="0 0 0 0 1 0 0 0 0 1 0 0 0 0 1 0 0 0 1 0"></feColorMatrix><feBlend mode="normal" in2="BackgroundImageFix" result="effect1_dropShadow_1429_31808"></feBlend><feBlend mode="normal" in="SourceGraphic" in2="effect1_dropShadow_1429_31808" result="shape"></feBlend></filter></defs></svg>