<svg xmlns="http://www.w3.org/2000/svg"  xmlns:xlink="http://www.w3.org/1999/xlink"  width="311" height="179" viewBox="0 0 311 179" fill="none"><g filter="url(#filter0_d_1429_31760)"><path fill-rule="evenodd" clip-rule="evenodd" d="M172.715 30.9394C172.777 30.695 173.029 30.5445 173.274 30.6072C173.519 30.6699 173.67 30.9206 173.607 31.1651C173.437 31.8295 173.255 32.5001 173.073 33.1708V33.1833L173.067 33.1959C172.237 36.2671 171.313 39.4325 170.302 42.6792C170.302 42.6918 170.295 42.7106 170.289 42.7231C169.189 46.252 167.996 49.8811 166.72 53.5854C163.999 61.4705 160.901 69.7442 157.571 78.2497C157.477 78.4879 157.213 78.6008 156.974 78.513C156.735 78.419 156.622 78.1557 156.71 77.9175C157.64 75.5357 158.557 73.1727 159.45 70.8285C158.155 70.5841 156.942 70.6029 155.843 70.8411C154.435 71.1482 153.216 71.8126 152.274 72.7402C151.331 73.6679 150.652 74.8588 150.326 76.2127C150.043 77.3973 150.018 78.701 150.319 80.0737C150.357 80.2555 150.282 80.4561 150.112 80.5626C146.951 82.5621 145.305 85.5205 144.878 88.6294C144.664 90.1588 144.746 91.7321 145.085 93.2364C145.424 94.7407 146.021 96.1886 146.832 97.4735C148.497 100.1 151.086 102.055 154.272 102.494C154.379 102.507 154.479 102.557 154.555 102.645C157.923 106.412 161.882 107.922 165.551 107.841C167.732 107.791 169.818 107.176 171.615 106.142C173.406 105.108 174.914 103.647 175.944 101.905C177.503 99.2661 177.974 95.9755 176.699 92.5156C176.617 92.2962 176.717 92.0455 176.937 91.9389C179.212 90.8671 180.739 88.7548 181.537 86.3354C182.153 84.4738 182.341 82.4305 182.115 80.5313C181.895 78.6509 181.267 76.9147 180.249 75.6548C179.344 74.5329 178.131 73.7744 176.611 73.6303H176.554C176.303 73.5801 176.133 73.3482 176.177 73.0975C176.636 70.4086 176.541 68.196 175.825 66.5287C175.19 65.0558 174.053 64.0027 172.344 63.4136L170.647 78.8076C170.622 79.0583 170.396 79.2401 170.138 79.215C169.887 79.1899 169.705 78.9643 169.73 78.7073L174.688 33.7036V33.691V33.6785L174.945 31.3594C174.971 31.1086 175.197 30.9269 175.454 30.9519C175.706 30.977 175.888 31.2027 175.863 31.4596L175.655 33.34C179.708 33.8665 182.693 35.2267 185.521 36.5179C188.612 37.9281 191.522 39.257 195.449 39.257C199.062 39.257 201.595 38.3544 203.342 36.9942C205.572 35.258 206.527 32.7571 206.798 30.4693C206.829 30.2186 207.055 30.0368 207.307 30.0619C207.558 30.0932 207.74 30.3189 207.715 30.5696C207.42 33.0705 206.37 35.7971 203.913 37.715C202.016 39.1943 199.295 40.1783 195.455 40.1783C194.255 40.1783 193.143 40.0592 192.1 39.8587C192.081 40.5732 192.125 41.5385 192.263 42.6918C192.263 42.7169 192.27 42.7419 192.27 42.767C192.659 45.9824 193.771 50.6709 196.216 55.7103C198.453 60.3235 201.808 65.2187 206.754 69.5248C206.942 69.694 206.967 69.9823 206.798 70.1704C206.628 70.3584 206.339 70.3835 206.15 70.2143C201.105 65.8142 197.68 60.8186 195.393 56.1051C192.999 51.166 191.855 46.534 191.409 43.2308C190.598 43.212 189.398 43.1681 187.984 43.118C183.692 42.9676 177.44 42.7482 174.612 42.8359L172.451 62.4734C174.531 63.1315 175.913 64.3851 176.68 66.1589C177.427 67.8951 177.559 70.114 177.164 72.7716C178.734 73.0411 180.01 73.8747 180.971 75.0719C182.096 76.4759 182.794 78.3751 183.033 80.4185C183.271 82.4493 183.07 84.6305 182.417 86.6174C181.587 89.1309 180.029 91.3435 177.704 92.5782C178.91 96.176 178.376 99.5983 176.743 102.369C175.63 104.249 174.009 105.816 172.08 106.932C170.157 108.041 167.92 108.699 165.57 108.756C161.699 108.844 157.533 107.277 153.983 103.378C150.583 102.858 147.831 100.758 146.053 97.9624C145.186 96.5897 144.545 95.0478 144.187 93.4369C143.822 91.8261 143.74 90.1463 143.967 88.5104C144.419 85.2385 146.109 82.1171 149.352 79.9672C149.094 78.5757 149.132 77.2343 149.427 76.0121C149.798 74.489 150.558 73.1414 151.62 72.0946C152.688 71.0479 154.058 70.2957 155.642 69.951C156.899 69.6815 158.293 69.669 159.776 69.9698C161.938 64.2723 163.98 58.7001 165.84 53.3034C167.028 49.8623 168.14 46.4964 169.171 43.2183C168.146 43.5442 166.821 44.2023 165.243 44.9921C161.121 47.0543 155.34 49.9438 148.365 50.0691C146.021 50.113 143.432 50.182 140.781 50.2509C131.839 50.4891 122.263 50.7461 118.97 50.0566C117.625 49.7745 116.444 49.2418 115.118 48.64C112.221 47.3238 108.633 45.7004 101.394 46.0012C97.2345 46.1705 93.8853 46.4901 91.1645 46.7471C86.9041 47.1545 84.1581 47.4115 82.1662 46.7471C82.1033 46.7283 82.0405 46.6907 81.9902 46.6343C80.834 45.4873 79.9732 42.3972 79.9543 38.5925C79.9355 35.5275 80.4507 31.9611 81.7892 28.5639C83.3727 24.5273 86.2569 21.2743 89.8198 19.0805C93.4832 16.824 97.8566 15.677 102.268 15.9214C109.205 16.3038 113.572 18.7608 118.147 21.3307C120.654 22.741 123.224 24.1826 126.322 25.3296C129.087 26.3513 131.864 26.9342 134.503 26.8715C136.866 26.8214 139.128 26.251 141.17 25.0287C141.459 24.8156 141.616 24.6151 141.667 24.4646C141.61 24.4458 141.516 24.4458 141.384 24.4709C140.888 24.5587 140.485 24.6589 140.096 24.753C139.323 24.941 138.6 25.1228 137.432 25.1666H137.425C131.148 25.4111 126.052 22.3523 120.692 19.1306C114.967 15.6895 108.922 12.0541 100.867 12.2359C93.4455 12.4051 86.5774 15.4451 81.6258 20.4594C76.869 25.2732 73.8905 31.9109 73.8905 39.5515V86.0157C73.8905 88.222 74.5692 89.4631 75.2855 90.7731C76.1527 92.3526 77.0638 94.0261 77.0638 97.4045V118.427C77.0638 118.459 77.0638 118.496 77.0512 118.527C76.3914 121.386 75.0781 123.692 73.9345 125.704C72.8474 127.616 71.9111 129.252 71.9111 130.762C71.9111 132.417 72.1122 135.401 72.3824 139.387C72.9165 147.285 73.7209 159.068 73.7397 172.062C75.4426 172.074 81.3933 172.125 83.1527 172.081C83.0836 170.934 82.8574 167.837 82.3358 165.199C80.3376 163.067 80.0486 158.36 80.5638 153.139C81.431 144.32 84.5728 133.909 85.528 132.304C85.6097 132.141 85.7856 132.029 85.9804 132.047C87.3503 132.16 88.896 132.004 90.5675 131.609C92.8736 131.057 95.3997 130.042 98.0012 128.625C98.7678 128.211 99.5281 127.76 100.27 127.296C103.832 125.065 107.439 122.119 110.701 118.603C111.687 117.537 112.642 116.421 113.541 115.281C118.518 108.95 122.225 101.209 122.935 92.7036C123.237 89.0745 122.992 85.3074 122.068 81.4527C122.011 81.2082 122.162 80.9575 122.407 80.9011C122.652 80.8447 122.904 80.9951 122.96 81.2396C123.909 85.1946 124.16 89.0619 123.852 92.7788C123.117 101.654 119.184 109.715 113.949 116.246C117.009 116.001 120.987 116.027 125.222 116.434C127.013 116.609 128.798 116.841 130.576 117.149C132.053 117.406 133.529 117.713 134.975 118.07C140.831 119.53 146.26 121.893 149.597 125.479C154.121 126.456 161.391 126.789 168.461 126.72C177.057 126.632 185.314 125.955 187.915 125.115C189.926 122.451 190.843 118.929 191.189 115.437C191.541 111.865 191.289 108.323 191 105.76C190.975 105.509 191.157 105.277 191.409 105.252C191.66 105.227 191.893 105.409 191.918 105.659C192.213 108.267 192.464 111.871 192.106 115.525C191.754 119.104 190.818 122.727 188.757 125.529C190.416 128.124 192.81 132.085 194.771 137.77C196.769 143.574 198.308 151.177 198.145 160.943C199.835 161.394 200.841 162.748 201.394 164.49C202.11 166.753 202.053 169.699 201.758 172.056H211.378C211.039 170.388 210.788 168.74 210.605 167.229C210.373 165.28 210.254 163.55 210.235 162.334C205.623 158.974 205.641 157.677 205.805 148.087L205.842 145.661C205.937 139.055 206.282 130.85 207.005 123.26C207.099 122.276 207.2 121.304 207.307 120.345V120.333V120.32C207.853 115.475 208.563 111.012 209.493 107.552C210.241 104.744 211.165 102.325 212.044 100.012C214.099 94.6028 215.934 89.7702 214.784 81.9604C214.746 81.7096 214.922 81.4777 215.174 81.4401C215.425 81.4025 215.658 81.578 215.695 81.8287C216.883 89.8642 215.004 94.8096 212.905 100.332C212.032 102.626 211.121 105.026 210.386 107.784C210.046 109.044 209.738 110.448 209.456 111.952C210.781 110.536 212.434 108.674 214.162 106.662C216.154 104.343 218.228 101.823 219.987 99.5545C220.144 99.3539 220.433 99.3163 220.634 99.473C220.835 99.6297 220.873 99.918 220.716 100.119C218.944 102.406 216.858 104.939 214.86 107.264C212.679 109.809 210.605 112.115 209.16 113.601C208.865 115.35 208.601 117.217 208.368 119.161C212.34 115.281 216.456 110.711 220.238 105.979C224.147 101.09 227.697 96.0381 230.362 91.4061C234.182 84.7621 235.86 75.4856 235.634 66.2028C235.401 56.6317 233.139 47.0543 229.105 40.335C227.352 37.4142 225.14 34.1486 222.501 30.626C220.088 27.4106 217.31 23.9757 214.181 20.3842C213.496 21.3119 214.338 22.7159 215.237 24.2076C215.84 25.2042 216.462 26.2385 216.751 27.2852C216.801 27.4607 216.839 27.6362 216.87 27.8117C217.04 28.8083 216.952 29.9553 216.55 30.9331C216.129 31.9548 215.362 32.7947 214.175 33.1206C214.049 33.152 213.923 33.1833 213.804 33.2021L213.678 33.2209C212.453 33.3902 211.316 33.0329 210.436 32.3058C209.569 31.5913 208.947 30.532 208.733 29.2847L208.708 29.128C208.62 28.4886 208.601 27.8368 208.576 27.2163C208.526 25.6117 208.482 24.2076 207.08 23.982C206.829 23.9444 206.659 23.7062 206.697 23.4555C206.735 23.2048 206.974 23.0355 207.225 23.0732C209.374 23.4179 209.43 25.1729 209.493 27.1849C209.512 27.7804 209.531 28.4009 209.613 29.0026L209.632 29.1342C209.807 30.1559 210.31 31.0272 211.008 31.5975C211.699 32.1617 212.585 32.4437 213.54 32.3121L213.641 32.2933C213.741 32.2745 213.835 32.2557 213.923 32.2306C214.797 31.9924 215.369 31.3531 215.689 30.5821C216.028 29.7673 216.097 28.802 215.953 27.9559C215.928 27.7992 215.896 27.655 215.859 27.5234C215.607 26.602 215.017 25.6242 214.445 24.6715C213.22 22.6344 212.082 20.7477 213.923 19.3375C214.011 19.2748 214.112 19.2434 214.206 19.2434H214.219H214.231C219.334 19.444 223.399 19.2622 226.604 18.7608C229.771 18.2656 232.083 17.4571 233.73 16.3978C235.332 15.3636 236.419 14.0223 236.978 12.5242C237.387 11.4273 237.512 10.249 237.355 9.04552C233.679 16.6485 220.144 13.6901 211.184 11.7407C208.255 11.1014 205.824 10.5686 204.479 10.5686C202.474 10.5686 200.866 10.8381 199.515 11.3584C198.183 11.8724 197.083 12.6308 196.071 13.6211C195.99 13.7214 195.864 13.7778 195.726 13.7778C189.75 13.7778 183.787 16.8616 179.715 18.9677C178.018 19.8452 176.642 20.5534 175.687 20.8292C174.575 21.1489 173.613 21.2116 172.803 21.2617C171.609 21.3369 170.773 21.3933 170.352 22.3649C169.824 23.5809 169.805 24.7404 170.013 25.7746C170.226 26.8339 170.672 27.7678 171.068 28.5074C171.112 28.5889 171.137 28.683 171.125 28.777C171.049 29.5354 170.98 30.3816 171.181 31.0898C171.332 31.6289 171.659 32.1052 172.294 32.4374C172.426 31.936 172.558 31.4346 172.69 30.9394H172.715ZM100.414 128.28C104.165 125.98 107.967 122.902 111.392 119.217C111.989 118.571 112.573 117.913 113.145 117.236C116.394 116.898 120.937 116.892 125.782 117.406C125.631 118.973 125.21 120.452 124.55 121.843C123.79 123.454 122.715 124.952 121.383 126.344C121.207 126.525 121.213 126.82 121.402 126.995C121.584 127.171 121.879 127.165 122.055 126.977C123.45 125.516 124.581 123.937 125.386 122.226C126.083 120.74 126.536 119.167 126.699 117.5C127.396 117.581 128.1 117.675 128.804 117.782C128.257 123.116 125.895 126.989 123.45 129.641C120.943 132.367 118.348 133.815 117.562 134.247C117.437 134.316 117.349 134.442 117.33 134.592C116.928 137.595 117.858 147.278 120.158 154.975C121.653 159.984 123.752 164.189 126.485 165.318C126.799 166.17 127.189 167.511 127.503 168.934C127.742 169.993 127.937 171.09 128.031 172.068C126.303 172.112 120.698 172.068 119.234 172.049C113.937 152.005 102.18 131.339 100.408 128.28H100.414ZM129.715 117.919C129.137 123.46 126.674 127.491 124.129 130.255C121.71 132.887 119.215 134.373 118.216 134.937C117.895 138.096 118.832 147.31 121.044 154.712C122.501 159.595 124.493 163.65 126.994 164.528C127.12 164.572 127.22 164.666 127.271 164.797C127.604 165.669 128.05 167.154 128.402 168.734C128.685 170.006 128.917 171.335 128.992 172.463C129.018 172.714 128.835 172.933 128.584 172.958C127.736 173.052 119.316 172.958 118.901 172.958C118.693 172.964 118.499 172.827 118.442 172.613C113.227 152.606 101.426 131.853 99.6286 128.75C96.5496 130.556 93.5272 131.834 90.8 132.48C89.1474 132.875 87.6079 133.044 86.2192 132.969C85.1886 135.025 82.317 144.815 81.4938 153.208C80.9974 158.272 81.2425 162.779 83.1025 164.634C83.1779 164.71 83.2218 164.81 83.2344 164.91C83.9193 168.307 84.1078 172.469 84.1078 172.482C84.1204 172.726 83.9382 172.933 83.6994 172.958C82.826 173.052 73.3124 172.958 73.2873 172.958C73.0359 172.958 72.8286 172.751 72.8286 172.501C72.8286 159.332 72.018 147.398 71.4776 139.431C71.2074 135.42 71 132.411 71 130.75C71 129.001 71.9865 127.265 73.1428 125.24C74.2487 123.297 75.518 121.072 76.1527 118.365V97.392C76.1527 94.2455 75.2981 92.6785 74.4875 91.2056C73.7083 89.789 72.9731 88.4414 72.9731 86.0094V39.5453C72.9731 31.6477 76.0584 24.7843 80.9786 19.8076C86.0935 14.6302 93.1878 11.4837 100.854 11.3082C109.18 11.1202 115.338 14.8183 121.176 18.3283C126.416 21.4748 131.393 24.4709 137.394 24.2327H137.406C137.947 24.2139 138.393 24.1575 138.789 24.0886C138.299 19.7888 143.194 17.9523 148.051 16.1283C151.174 14.9562 154.284 13.7841 155.73 12.0228C155.849 11.8786 156.056 11.8159 156.245 11.8786C156.484 11.9664 156.609 12.2296 156.521 12.4678C154.303 18.6041 151.746 22.3398 149.32 24.5336C147.599 26.0943 145.933 26.8841 144.488 27.2163C143.011 27.5547 141.761 27.4106 140.894 27.1034C140.536 26.9781 140.24 26.8151 140.014 26.6459C138.28 27.3792 136.439 27.7365 134.535 27.7804C131.77 27.843 128.879 27.2413 126.014 26.182C122.86 25.0162 120.252 23.5495 117.707 22.1267C113.227 19.607 108.947 17.2064 102.23 16.8303C98.0074 16.5984 93.8162 17.6953 90.3162 19.8514C86.923 21.9449 84.1707 25.0413 82.6563 28.8898C81.3681 32.1742 80.8654 35.6153 80.8843 38.58C80.9031 42.0587 81.6132 44.8417 82.5809 45.8947C84.3906 46.4588 87.0361 46.2081 91.0954 45.8195C93.8288 45.5625 97.1906 45.2428 101.376 45.0673C108.834 44.7602 112.529 46.4337 115.514 47.7876C116.796 48.3705 117.939 48.8845 119.177 49.1415C122.369 49.8059 131.889 49.5552 140.774 49.317C143.414 49.248 146.003 49.1791 148.365 49.1352C155.133 49.0099 160.801 46.1767 164.847 44.1522C166.758 43.1995 168.316 42.416 169.51 42.159C170.446 39.1379 171.307 36.1919 172.086 33.3338C171.068 32.8762 170.559 32.1554 170.327 31.3343C170.094 30.5132 170.151 29.6231 170.226 28.8208C169.812 28.0374 169.359 27.0596 169.139 25.9439C168.9 24.7467 168.926 23.3991 169.535 21.9888C170.182 20.497 171.251 20.4281 172.771 20.3278C173.538 20.2777 174.443 20.2212 175.461 19.9267C176.334 19.6759 177.673 18.9865 179.319 18.134C183.428 16.0092 189.436 12.9066 195.562 12.8439C196.631 11.8222 197.799 11.0262 199.207 10.4809C200.671 9.91676 202.38 9.62844 204.504 9.62844C205.949 9.62844 208.419 10.1675 211.41 10.8193C212.484 11.0513 213.628 11.302 214.816 11.5464C218.001 11.5276 221.69 11.3835 224.725 10.6376C227.666 9.91676 229.978 8.63811 230.544 6.35031C230.607 6.10586 230.852 5.95543 231.103 6.01184C231.235 6.04318 231.336 6.12466 231.392 6.23122C231.995 7.29677 231.964 8.67571 231.555 10.0045C231.248 10.9886 230.726 11.9601 230.091 12.7499C233.51 12.167 236.143 10.5874 237.047 7.2905C237.117 7.04605 237.368 6.90189 237.613 6.97084C237.77 7.01471 237.883 7.1338 237.933 7.27796C238.537 9.17715 238.512 11.0889 237.871 12.8188C237.242 14.4986 236.036 15.9967 234.257 17.1437C232.511 18.2719 230.079 19.1244 226.774 19.6446C223.732 20.121 219.949 20.3153 215.268 20.1774C218.259 23.6247 220.923 26.9342 223.261 30.0431C225.925 33.597 228.156 36.8877 229.922 39.8336C234.038 46.6907 236.344 56.4311 236.582 66.1526C236.815 75.5984 235.093 85.0442 231.191 91.8386C228.86 95.9002 225.844 100.288 222.501 104.606C222.915 106.205 225.177 112.278 227.817 118.421C229.664 122.733 231.7 127.064 233.397 129.872C233.629 130.255 233.799 130.662 233.912 131.095C234.025 131.527 234.075 131.972 234.063 132.423C234.044 133.339 234.063 134.41 234.094 135.539C234.107 136.134 234.119 136.742 234.132 137.375C234.138 137.895 234.063 138.409 233.906 138.898C233.748 139.393 233.516 139.857 233.208 140.277C231.775 142.239 229.664 145.668 227.509 149.334C223.801 155.64 219.962 162.635 219.158 164.171L218.781 164.891C217.266 167.825 214.627 172.921 212 172.958H211.988H211.975H201.255H201.192C200.941 172.914 200.765 172.682 200.803 172.432C201.136 170.1 201.268 167.035 200.539 164.747C200.043 163.186 199.144 162.008 197.623 161.745C197.403 161.707 197.234 161.513 197.24 161.281C197.447 151.459 195.914 143.844 193.922 138.046C192.006 132.474 189.662 128.581 188.028 126.03C185.138 126.864 176.962 127.534 168.498 127.616C161.316 127.685 153.901 127.34 149.314 126.331C149.214 126.319 149.113 126.268 149.038 126.187C145.852 122.696 140.536 120.383 134.78 118.947C133.121 118.534 131.424 118.195 129.728 117.919H129.715ZM118.838 128.562C119.039 128.412 119.328 128.456 119.485 128.656C119.636 128.857 119.592 129.145 119.391 129.302L119.083 129.521L118.775 129.741C118.568 129.885 118.279 129.835 118.134 129.622C117.99 129.415 118.04 129.127 118.254 128.982L118.555 128.776L118.844 128.562H118.838ZM91.1519 127.848C90.9131 127.942 90.6492 127.829 90.555 127.591C90.4607 127.353 90.5738 127.089 90.8126 126.995C96.9643 124.532 102.582 120.771 106.886 116.127C110.908 111.783 113.773 106.656 114.823 101.084C114.867 100.833 115.112 100.67 115.363 100.714C115.614 100.758 115.778 101.002 115.734 101.253C114.647 107.007 111.706 112.285 107.571 116.754C103.179 121.505 97.4356 125.341 91.1645 127.854L91.1519 127.848ZM116.18 96.3954C116.18 96.6461 115.973 96.853 115.721 96.853C115.47 96.853 115.263 96.6461 115.263 96.3954C115.263 96.1948 115.263 95.988 115.256 95.7812C115.256 95.5869 115.244 95.3863 115.237 95.1669C115.225 94.9162 115.42 94.6968 115.677 94.6843C115.935 94.6717 116.149 94.866 116.161 95.123C116.167 95.3236 116.18 95.5367 116.18 95.7624C116.18 95.9692 116.186 96.1823 116.186 96.3954H116.18ZM141.013 26.1632C141.233 26.0504 141.447 25.9251 141.66 25.7997L141.698 25.7746C142.169 25.4299 142.452 25.0538 142.559 24.7216C142.628 24.5085 142.628 24.3079 142.565 24.1262C142.502 23.9256 142.364 23.7626 142.169 23.6498C141.937 23.5244 141.623 23.4743 141.239 23.5432C140.73 23.631 140.303 23.7376 139.888 23.8378L139.706 23.8817C139.411 20.3529 143.916 18.6543 148.384 16.9745C150.816 16.0593 153.248 15.1442 154.982 13.922C152.996 18.8486 150.797 21.9449 148.705 23.8378C147.115 25.2732 145.594 26.0065 144.287 26.3074C143.005 26.602 141.937 26.4829 141.208 26.2259C141.145 26.2008 141.082 26.1758 141.026 26.1507L141.013 26.1632ZM212.327 171.993C211.982 170.313 211.724 168.64 211.535 167.104C211.303 165.192 211.19 163.519 211.171 162.347C213.044 161.149 215.13 156.906 216.952 151.835C219.189 145.624 221.08 138.127 221.684 133.545C223.11 134.899 224.222 136.147 224.719 137.175C224.832 137.4 225.102 137.501 225.335 137.388C225.561 137.275 225.661 137.005 225.548 136.773C224.467 134.53 220.892 131.515 217.279 128.468C213.584 125.353 209.845 122.2 208.852 119.969C212.912 116.02 217.122 111.357 220.98 106.531C221.256 106.186 221.527 105.847 221.797 105.503C222.526 107.803 224.593 113.281 226.956 118.784C228.822 123.134 230.871 127.503 232.592 130.349C232.781 130.656 232.919 130.988 233.007 131.327C233.101 131.678 233.139 132.035 233.133 132.405C233.114 133.339 233.133 134.417 233.164 135.564C233.177 136.159 233.195 136.78 233.202 137.388C233.202 137.808 233.145 138.228 233.02 138.622C232.894 139.017 232.705 139.393 232.454 139.738C231.002 141.731 228.872 145.185 226.704 148.871C222.991 155.182 219.139 162.202 218.334 163.744L217.957 164.471C216.613 167.073 214.332 171.492 212.334 171.993H212.327ZM210.737 161.538C206.565 158.486 206.584 157.207 206.741 148.087L206.779 145.661C206.873 139.08 207.212 130.9 207.941 123.335C208.023 122.464 208.111 121.599 208.205 120.746C209.506 123.128 213.119 126.174 216.688 129.183C218.14 130.405 219.585 131.627 220.854 132.781C220.364 137.206 218.422 145.072 216.091 151.534C214.338 156.411 212.39 160.46 210.737 161.544V161.538ZM223.588 96.2011C223.443 96.4142 223.16 96.4706 222.947 96.3265C222.733 96.1823 222.677 95.9003 222.821 95.6871C223.085 95.2985 223.324 94.9224 223.537 94.5714C223.738 94.233 223.908 93.9384 224.034 93.6877C224.147 93.462 224.423 93.368 224.65 93.4808C224.876 93.5937 224.97 93.8694 224.857 94.0951C224.706 94.3897 224.53 94.7093 224.329 95.0415C224.122 95.3863 223.87 95.7686 223.588 96.1948V96.2011ZM121.634 76.8081C121.722 77.0463 121.597 77.3096 121.358 77.3973C121.119 77.4851 120.855 77.3597 120.767 77.1215C120.667 76.852 120.56 76.5699 120.44 76.2754C120.315 75.9494 120.195 75.6674 120.095 75.4292C119.994 75.1973 120.107 74.9277 120.34 74.8275C120.572 74.7272 120.843 74.84 120.943 75.0719C121.081 75.4041 121.201 75.6924 121.301 75.9369C121.408 76.2127 121.521 76.501 121.634 76.8081ZM191.296 42.3094C190.51 42.2844 189.354 42.2468 188.009 42.1966C183.768 42.0462 177.629 41.8331 174.707 41.9083L175.549 34.2489C179.463 34.7628 182.373 36.0854 185.138 37.3515C187.117 38.2541 189.027 39.1253 191.176 39.6581C191.151 40.3288 191.176 41.2251 191.289 42.3094H191.296ZM215.262 36.3549C215.01 36.3549 214.797 36.1543 214.797 35.8973C214.797 35.6466 214.998 35.4335 215.255 35.4335C215.84 35.4335 216.393 35.3207 216.902 35.0825C217.417 34.8443 217.895 34.4808 218.322 33.9731C218.485 33.7788 218.774 33.7537 218.969 33.9167H218.982C223.123 37.6085 226.07 41.5824 228.049 45.7881C230.028 49.9939 231.028 54.4316 231.266 59.0448C231.279 59.2955 231.084 59.5149 230.827 59.5274C230.575 59.54 230.355 59.3457 230.343 59.0887C230.104 54.5883 229.13 50.2697 227.207 46.1767C225.341 42.1966 222.57 38.4296 218.699 34.9133C218.259 35.3583 217.788 35.6842 217.279 35.9161C216.644 36.2045 215.966 36.3424 215.255 36.3486L215.262 36.3549ZM230.349 63.658C230.362 63.4073 230.575 63.2067 230.833 63.2192C231.084 63.2318 231.285 63.4449 231.273 63.7019L231.241 64.2785L231.204 64.8552C231.185 65.1059 230.965 65.3002 230.713 65.2814C230.462 65.2626 230.267 65.0432 230.286 64.7925L230.324 64.2284L230.355 63.6643L230.349 63.658ZM197.68 19.607C197.598 19.9204 197.479 20.2024 197.322 20.4532C197.083 20.8355 196.75 21.1238 196.348 21.3056C195.939 21.4874 195.443 21.55 194.871 21.4686C194.375 21.3996 193.828 21.2178 193.231 20.9107C193.306 20.8355 193.382 20.754 193.464 20.6725C194.06 20.052 194.884 19.187 197.674 19.607H197.68ZM192.804 20.0395C193.57 19.2372 194.657 18.1027 198.296 18.7796C198.547 18.8172 198.723 19.0491 198.685 19.2999C198.597 19.9204 198.396 20.4782 198.101 20.9421C197.762 21.4811 197.297 21.8948 196.725 22.1455C196.159 22.3962 195.493 22.484 194.752 22.3774C193.972 22.2646 193.099 21.9387 192.15 21.3432C192.05 21.2868 191.974 21.1928 191.937 21.0799C191.861 20.8355 191.999 20.5785 192.238 20.5033C192.414 20.4469 192.59 20.2588 192.804 20.0395ZM208.626 72.22C208.425 72.0696 208.381 71.7812 208.538 71.5744C208.689 71.3738 208.978 71.33 209.185 71.4866C209.537 71.7499 209.883 72.0069 210.228 72.2513C210.436 72.3955 210.486 72.6838 210.335 72.8907C210.191 73.0975 209.902 73.1477 209.694 72.9972C209.324 72.734 208.972 72.477 208.632 72.22H208.626ZM219.045 12.3487C221.074 12.2234 223.116 11.9914 224.939 11.5464C227.628 10.8883 229.853 9.7726 230.921 7.88595C230.965 8.47514 230.871 9.12074 230.669 9.76007C230.286 10.9948 229.532 12.192 228.652 12.963C225.712 13.2262 222.343 12.894 219.038 12.355L219.045 12.3487ZM158.627 92.4215C158.4 92.3025 158.312 92.0267 158.432 91.801C158.551 91.5754 158.828 91.4876 159.054 91.6067C161.102 92.6911 163.075 93.2238 164.935 92.9794C166.783 92.7349 168.549 91.707 170.207 89.6637C170.371 89.4631 170.66 89.438 170.855 89.5947C171.056 89.7577 171.081 90.046 170.924 90.2403C169.108 92.4842 167.135 93.6124 165.055 93.8882C162.987 94.164 160.832 93.5874 158.62 92.4215H158.627Z" fill="white"></path><path fill-rule="evenodd" clip-rule="evenodd" d="M143.156 142.559C142.848 143.405 142.458 144.22 141.987 144.941C141.472 145.724 140.85 146.414 140.121 146.928C140.856 147.448 141.472 148.131 141.987 148.915C142.465 149.636 142.848 150.45 143.156 151.297C143.464 150.45 143.853 149.636 144.325 148.915C144.84 148.131 145.462 147.442 146.191 146.928C145.456 146.408 144.84 145.724 144.325 144.941C143.847 144.22 143.464 143.405 143.156 142.559ZM141.214 144.439C141.905 143.393 142.396 142.133 142.71 140.86C142.747 140.698 142.873 140.566 143.049 140.522C143.294 140.459 143.545 140.61 143.608 140.86C143.922 142.133 144.413 143.393 145.104 144.439C145.688 145.33 146.417 146.069 147.291 146.527C147.372 146.571 147.441 146.633 147.485 146.721C147.605 146.947 147.517 147.222 147.291 147.342C146.417 147.799 145.688 148.539 145.104 149.429C144.413 150.475 143.922 151.735 143.608 153.008C143.571 153.171 143.445 153.302 143.269 153.346C143.024 153.409 142.773 153.258 142.71 153.008C142.396 151.735 141.905 150.475 141.214 149.429C140.63 148.539 139.901 147.799 139.027 147.342C138.946 147.298 138.877 147.235 138.833 147.147C138.713 146.922 138.801 146.646 139.027 146.527C139.901 146.069 140.63 145.33 141.214 144.439Z" fill="white"></path><path fill-rule="evenodd" clip-rule="evenodd" d="M236.984 100.685C236.752 101.286 236.469 101.863 236.123 102.377C235.727 102.979 235.256 103.505 234.709 103.919C235.262 104.333 235.734 104.859 236.123 105.461C236.463 105.981 236.752 106.552 236.984 107.153C237.217 106.552 237.506 105.975 237.845 105.461C238.241 104.859 238.712 104.333 239.259 103.919C238.706 103.505 238.235 102.979 237.845 102.377C237.506 101.857 237.217 101.286 236.984 100.685ZM235.35 101.869C235.897 101.042 236.287 100.045 236.532 99.0363C236.569 98.8733 236.695 98.7417 236.871 98.6978C237.116 98.6351 237.367 98.7856 237.43 99.0363C237.682 100.045 238.071 101.042 238.612 101.869C239.07 102.571 239.642 103.148 240.327 103.505C240.409 103.549 240.478 103.612 240.522 103.7C240.641 103.925 240.553 104.201 240.327 104.32C239.642 104.677 239.077 105.254 238.612 105.956C238.065 106.783 237.675 107.78 237.43 108.789C237.393 108.952 237.267 109.084 237.091 109.128C236.846 109.19 236.594 109.04 236.532 108.789C236.28 107.78 235.891 106.783 235.35 105.956C234.892 105.254 234.32 104.677 233.635 104.32C233.553 104.276 233.484 104.214 233.44 104.126C233.321 103.9 233.409 103.624 233.635 103.505C234.32 103.148 234.885 102.565 235.35 101.869Z" fill="white"></path><path fill-rule="evenodd" clip-rule="evenodd" d="M234.005 26.822C233.848 27.1855 233.666 27.5303 233.459 27.8499C233.182 28.2699 232.862 28.6397 232.485 28.9406C232.862 29.2414 233.182 29.6175 233.459 30.0312C233.666 30.3508 233.848 30.6956 234.005 31.0591C234.162 30.6956 234.345 30.3508 234.552 30.0312C234.828 29.6112 235.149 29.2414 235.526 28.9406C235.149 28.6397 234.828 28.2636 234.552 27.8499C234.345 27.5303 234.162 27.1855 234.005 26.822ZM232.686 27.3485C233.088 26.7405 233.377 26.0009 233.559 25.255C233.597 25.0921 233.722 24.9604 233.898 24.9166C234.143 24.8539 234.395 25.0043 234.458 25.255C234.64 26.0009 234.929 26.7343 235.331 27.3485C235.664 27.8625 236.079 28.2824 236.575 28.5394C236.657 28.5833 236.726 28.646 236.77 28.7337C236.889 28.9594 236.802 29.2352 236.575 29.3542C236.079 29.6112 235.67 30.0312 235.331 30.5452C234.929 31.1594 234.64 31.8928 234.458 32.6324C234.42 32.7953 234.294 32.927 234.118 32.9708C233.873 33.0335 233.622 32.8831 233.559 32.6324C233.377 31.8865 233.088 31.1531 232.686 30.5452C232.353 30.0312 231.938 29.6112 231.441 29.3542C231.36 29.3104 231.291 29.2477 231.247 29.1599C231.127 28.9343 231.215 28.6585 231.441 28.5394C231.938 28.2824 232.346 27.8625 232.686 27.3485Z" fill="white"></path></g><defs><filter id="filter0_d_1429_31760" x="65" y="0" width="181.574" height="179" filterUnits="userSpaceOnUse" color-interpolation-filters="sRGB"><feFlood flood-opacity="0" result="BackgroundImageFix"></feFlood><feColorMatrix in="SourceAlpha" type="matrix" values="0 0 0 0 0 0 0 0 0 0 0 0 0 0 0 0 0 0 127 0" result="hardAlpha"></feColorMatrix><feOffset></feOffset><feGaussianBlur stdDeviation="3"></feGaussianBlur><feComposite in2="hardAlpha" operator="out"></feComposite><feColorMatrix type="matrix" values="0 0 0 0 1 0 0 0 0 1 0 0 0 0 1 0 0 0 1 0"></feColorMatrix><feBlend mode="normal" in2="BackgroundImageFix" result="effect1_dropShadow_1429_31760"></feBlend><feBlend mode="normal" in="SourceGraphic" in2="effect1_dropShadow_1429_31760" result="shape"></feBlend></filter></defs></svg>