<svg xmlns="http://www.w3.org/2000/svg"  xmlns:xlink="http://www.w3.org/1999/xlink"  width="311" height="179" viewBox="0 0 311 179" fill="none"><g filter="url(#filter0_d_1429_31792)"><path fill-rule="evenodd" clip-rule="evenodd" d="M117.684 32.6287C117.795 32.8514 117.696 33.1237 117.474 33.235C117.251 33.3464 116.979 33.2474 116.867 33.0247C116.515 32.3007 115.927 31.7563 115.32 31.2551C112.839 31.0385 109.634 30.2775 107.741 29.8258L107.339 29.7268C107.264 29.7082 107.196 29.6773 107.141 29.6278C106.831 29.3556 106.386 28.9348 105.879 28.446C104.313 26.9487 102.067 24.8079 100.588 24.2386C100.143 24.0654 99.8335 24.053 99.6479 24.1211C99.5798 24.1458 99.5303 24.1829 99.4994 24.2262C99.4684 24.2696 99.456 24.3252 99.4499 24.3747C99.4499 24.4676 99.4808 24.5665 99.5427 24.6346C99.8397 24.944 101.386 26.8311 102.766 28.5636C103.88 29.9557 104.889 31.2613 105.08 31.583C105.266 31.8924 107.654 33.266 110.055 34.6458C111.651 35.5615 113.248 36.4834 114.244 37.1269C115.023 37.6281 115.735 37.8075 116.564 38.0117C118.352 38.451 120.629 39.014 125.165 42.9183C127.578 44.9972 131.284 47.4722 135.169 49.8605C141.938 54.0184 149.227 57.8917 151.257 58.9435C152.463 59.5685 153.855 60.0201 155.186 60.3419C157.32 60.8554 159.288 61.0349 160.055 61.0596C160.148 61.0596 160.228 61.0905 160.296 61.14C162.177 62.4456 166.966 64.3513 172.436 66.5292C176.309 68.0699 180.51 69.7467 184.297 71.4544C185.046 71.7947 185.788 72.135 186.531 72.4877C190.732 74.4986 194.147 76.528 195.558 78.4028C195.707 78.6008 195.67 78.8854 195.465 79.0339C195.267 79.1824 194.983 79.1453 194.834 78.9411C193.64 77.3447 190.825 75.6061 187.273 73.8427C187.979 75.7793 188.715 77.7222 189.371 79.2999C190.008 80.8282 190.559 82.0038 190.905 82.4803C191.307 83.0247 194.63 86.1246 198.751 89.8494C202.723 93.4381 207.438 97.6084 211.02 100.646C212.778 102.137 214.219 103.319 215.413 104.235C216.608 105.157 217.579 105.831 218.383 106.302C218.897 106.605 219.485 106.877 220.048 107.013C220.11 107.026 220.171 107.044 220.233 107.05C220.004 103.158 219.788 99.9781 219.534 97.3547C219.534 97.3423 219.534 97.3299 219.534 97.3114V97.2866C219.435 96.3152 219.336 95.418 219.231 94.5889C219.058 93.2401 218.835 91.8727 218.507 90.5547C217.678 87.2136 216.422 85.4626 214.238 83.8105C210.451 80.9458 210.532 78.8235 210.674 75.1544C210.711 74.2078 210.748 73.1559 210.723 71.9679C210.661 69.1898 210.086 66.8324 209.207 64.7349C208.329 62.6312 207.135 60.7874 205.86 59.0549C205.402 58.4362 204.969 57.7865 204.561 57.1244C203.032 56.0107 198.522 55.0455 192.885 54.0741C191.901 53.907 190.918 53.74 189.934 53.5791C188.573 53.3563 187.168 53.1336 185.745 52.9047C177.627 51.6115 168.866 50.2132 163.44 48.3446C163.365 48.3198 163.291 48.2703 163.242 48.2085C161.113 45.6593 158.923 44.2176 156.343 43.2895C153.732 42.349 150.687 41.9097 146.913 41.39C143.578 40.9321 140.008 40.134 136.747 39.2553C132.527 38.1231 128.815 36.8485 126.804 35.9822C123.469 34.5468 122.343 32.7091 121.434 31.218L121.167 30.7848C120.79 30.1909 119.918 29.8629 118.903 29.4855C117.69 29.0338 116.292 28.5141 115.116 27.3509C114.795 27.0291 114.504 26.8992 114.281 26.9054C114.182 26.9054 114.095 26.9425 114.021 27.0044C113.576 27.3632 113.792 28.2109 114.009 28.6316C114.33 29.2689 114.949 29.7701 115.586 30.2899L115.772 30.4384C115.784 30.4445 115.791 30.4569 115.803 30.4631C116.521 31.0509 117.239 31.682 117.69 32.6225L117.684 32.6287ZM150.972 56.054C150.737 55.9674 150.613 55.7075 150.7 55.4724C150.786 55.2373 151.046 55.1136 151.281 55.2002C152.612 55.6828 154.016 55.955 155.433 56.0045C156.844 56.054 158.267 55.8932 159.634 55.5095C159.876 55.4415 160.129 55.5838 160.191 55.8251C160.259 56.0664 160.117 56.3201 159.876 56.382C158.422 56.7903 156.906 56.9636 155.396 56.9079C153.886 56.8522 152.389 56.5614 150.972 56.0478V56.054ZM100.842 23.3662C100.842 23.1682 100.885 22.9826 100.972 22.8279C101.09 22.6237 101.269 22.469 101.498 22.3762C101.851 22.2277 102.327 22.2215 102.865 22.4072C104.61 23.0011 107.333 25.21 108.663 26.2866L109.059 26.6022C109.405 26.6579 109.826 26.7136 110.278 26.7692C111.125 26.8806 112.091 27.0106 112.926 27.1652C112.938 27.1096 112.957 27.0539 112.975 27.0044C113.074 26.7197 113.241 26.4784 113.458 26.3052C113.681 26.1258 113.953 26.0144 114.262 26.002C114.726 25.9835 115.252 26.1938 115.766 26.7074C115.84 26.7816 115.914 26.8497 115.989 26.9177L115.976 26.8435V26.8249C115.896 26.299 115.976 25.804 116.286 25.4513C116.675 25.0058 117.115 24.9811 117.622 25.2162C117.987 25.3833 118.377 25.7112 118.835 26.1134C119.305 26.5218 119.819 26.7321 120.388 26.9611C121.322 27.3385 122.399 27.7716 123.748 29.139C124.366 29.7701 124.849 30.3394 125.288 30.8591C126.352 32.1275 127.144 33.0742 129.013 33.5877C130.758 34.0703 136.76 35.6481 142.891 36.9165C146.48 37.659 150.124 38.2901 152.977 38.5314C156.912 38.8655 159.801 39.8122 162.029 40.9507C164.262 42.0953 165.815 43.4194 167.109 44.527C169.417 46.5007 185.479 48.2951 191.202 48.9324L191.561 48.9695C191.536 48.6478 191.493 48.3322 191.425 48.0414C191.097 46.6245 190.157 45.5788 188.065 45.4675C185.695 45.3437 183.821 45.2014 182.429 44.8858C180.925 44.5455 179.96 43.9887 179.521 43.042C179.026 41.9654 179.403 41.0497 179.737 40.2391C179.935 39.7627 180.114 39.3296 179.997 39.045C179.861 38.717 179.675 38.2839 179.644 37.7951C179.613 37.3868 179.688 36.966 179.947 36.5577C179.886 36.4958 179.824 36.4339 179.768 36.372C179.589 36.174 179.428 35.9575 179.298 35.7409C179.168 35.5182 179.106 35.2645 179.112 35.017C179.118 34.7633 179.193 34.5158 179.329 34.2993C179.539 33.959 179.731 33.6248 179.867 33.3279C179.985 33.068 180.059 32.8514 180.059 32.7091C180.059 32.4245 179.681 32.1151 179.285 31.7996C178.71 31.3355 178.104 30.8529 178.048 30.0547C178.048 29.9557 178.066 29.8444 178.135 29.7577C178.803 28.8358 179.756 27.4499 180.43 26.2124C180.876 25.4018 181.191 24.6717 181.197 24.2386C181.21 23.8117 181.123 23.2796 181.036 22.7537V22.7413C180.9 21.9184 180.764 21.0954 180.937 20.421C181.036 20.0374 181.321 19.561 181.513 19.2269C181.723 18.8556 182.002 18.4163 182.379 17.8718C182.62 17.5315 182.899 17.1479 183.233 16.721C183.004 16.1394 182.849 15.4588 182.812 14.741C182.75 13.6706 182.924 12.5074 183.412 11.4741C183.914 10.4222 184.736 9.50032 185.962 8.9249C186.655 8.60316 187.471 8.39279 188.424 8.3371C190.973 8.1886 191.852 8.57222 192.91 9.04246C194.017 9.53126 195.348 10.1252 199.537 10.1871C203.695 10.249 206.132 11.4184 207.642 12.9652C209.158 14.5183 209.715 16.4054 210.129 17.9399C210.463 19.165 211.54 20.4086 212.722 21.7699C214.256 23.5394 215.952 25.4885 216.558 27.9882C217.059 30.0547 216.836 31.5768 216.62 33.037C216.385 34.6519 216.156 36.1802 217.059 38.2901C217.796 40.004 218.81 40.9259 219.85 41.8664C221.26 43.1472 222.714 44.4713 223.674 47.7011C224.379 50.077 224.187 51.4939 224.02 52.6943C223.81 54.2411 223.649 55.4105 226.019 58.2382C226.965 59.3705 227.881 60.3109 228.735 61.1834C231.785 64.308 234.068 66.6468 234.068 73.4715C234.068 78.4708 232.026 80.9829 230.034 83.4393C228.766 84.9985 227.522 86.5392 226.891 88.6924C227.386 90.0412 226.526 91.8046 225.604 93.7041C225.394 94.1372 225.177 94.5765 225.01 94.9478C223.791 97.6083 222.634 97.6393 220.982 97.6764C220.84 97.6764 220.685 97.6826 220.53 97.6888C220.592 98.3818 220.66 99.1181 220.716 99.8853C222.288 100.244 223.401 100.789 224.175 101.618C225.004 102.503 225.425 103.678 225.579 105.262C225.678 106.289 225.808 107.576 226.025 108.746C226.229 109.872 226.514 110.886 226.922 111.419C227.015 111.536 227.033 111.685 226.996 111.821C226.544 113.813 224.998 116.047 224.342 116.993C224.224 117.16 224.144 117.284 224.107 117.34C223.872 117.717 222.968 117.631 221.793 117.309C221.984 118.181 222.3 119.338 222.646 120.421C222.962 121.417 223.302 122.358 223.605 122.964C223.971 122.865 224.224 122.791 224.354 122.735C225.851 122.129 227.479 125.798 228.283 127.617C228.444 127.976 228.568 128.261 228.63 128.378C228.859 128.817 229.05 131.088 229.285 133.848C229.607 137.678 230.009 142.473 230.597 144.261C230.678 144.502 230.541 144.756 230.306 144.836C230.269 144.849 230.232 144.855 230.195 144.855C229.669 144.911 229.063 144.917 228.407 144.88C228.778 145.659 229.18 146.73 229.564 147.998C230.022 149.502 230.467 151.284 230.82 153.158C231.699 153.128 232.509 153.146 233.252 153.214C233.437 153.233 233.586 153.356 233.641 153.524C234.254 155.392 234.798 158.306 235.231 161.344C235.863 165.744 236.283 170.415 236.382 172.525C236.395 172.772 236.197 172.989 235.949 172.995H162.641C162.511 172.995 162.394 172.946 162.313 172.859C160.779 171.448 159.56 170.118 158.644 168.843C157.71 167.544 157.091 166.307 156.77 165.1C156.702 164.84 156.64 164.58 156.596 164.314C155.582 163.739 154.4 163.009 153.49 162.31C152.723 161.716 152.135 161.115 151.962 160.596C151.764 159.989 151.461 157.954 151.349 156.128C151.269 154.786 151.288 153.524 151.523 152.954C151.764 152.373 153.249 149.842 154.944 146.953C156.794 143.797 158.898 140.208 159.869 138.34L159.461 137.944C156.157 134.751 152.754 131.459 148.918 130.964C146.87 132.728 143.201 135.456 138.913 138.569C138.115 139.627 124.799 157.316 123.284 160.447C122.813 161.412 122.64 162.235 122.646 163.009C122.652 163.788 122.857 164.531 123.135 165.323C123.438 166.183 123.599 167.123 123.599 168.045C123.599 169.072 123.401 170.081 122.98 170.916C122.541 171.782 121.873 172.463 120.939 172.791C120.549 172.927 120.122 173.001 119.652 173.001H77.1692C76.4576 173.001 75.7584 172.537 75.3563 171.919C75.183 171.646 75.0593 171.343 75.016 171.034C74.9727 170.706 75.016 170.372 75.1645 170.05C75.4367 169.487 76.0431 169.01 77.1444 168.8C79.6194 168.324 82.2861 165.886 84.5631 163.801C85.5654 162.885 86.4935 162.031 87.3164 161.431C88.4054 160.633 89.5686 159.897 90.7195 159.179C92.6994 157.935 94.6361 156.722 96.0159 155.244C98.0329 153.084 105.272 144.731 113.161 135.543C116.768 131.342 120.369 127.141 123.958 122.927C126.148 118.528 128.865 111.487 131.185 105.571C132.769 101.531 134.149 98.0043 135.027 96.1543C135.089 96.0244 135.151 95.8944 135.225 95.7707C136.432 93.5309 139.117 90.9446 143.126 89.7009H143.151C147.123 88.4634 152.401 88.5439 158.824 91.5819C159.319 91.817 159.82 92.0645 160.321 92.3367C162.029 91.5262 165.914 93.1844 167.851 94.0073L168.439 94.2548C169.503 94.6941 169.924 95.5789 170.493 96.7916C170.759 97.3608 171.069 98.0043 171.495 98.7097C171.929 98.9077 172.232 99.0438 172.554 99.1799C175.276 100.386 179.081 102.082 181.612 104.192C181.154 102.243 180.226 99.2171 179.347 96.3461C178.159 92.4728 177.058 88.878 177.305 88.2654C177.547 87.6714 179.929 82.0224 181.915 77.4809C182.855 75.3215 183.716 73.3972 184.229 72.3577C180.399 70.6253 176.087 68.9052 172.133 67.3274C166.706 65.168 161.948 63.2685 159.919 61.9135C159.04 61.8763 157.098 61.6845 155 61.1772C153.602 60.843 152.135 60.3666 150.861 59.7046C148.819 58.6404 141.487 54.7547 134.712 50.5906C130.795 48.1837 127.052 45.6778 124.589 43.5556C120.221 39.7936 118.055 39.2615 116.366 38.847C115.463 38.6242 114.677 38.4324 113.774 37.8446C112.784 37.2011 111.2 36.2916 109.622 35.3882C107.116 33.9528 104.622 32.5111 104.319 32.0038C104.152 31.7191 103.168 30.4569 102.079 29.0895C100.706 27.3694 99.1838 25.507 98.9116 25.2224C98.6764 24.9749 98.5527 24.6346 98.5651 24.3005C98.5712 24.0777 98.6393 23.855 98.7692 23.6694C98.8992 23.4776 99.091 23.3229 99.3509 23.2239C99.7159 23.0878 100.217 23.0878 100.861 23.3229L100.842 23.3662ZM112.883 28.081C112.926 28.3903 113.031 28.7121 113.198 29.0462C113.421 29.4855 113.724 29.8506 114.071 30.1847C111.917 29.8753 109.492 29.2999 107.951 28.9348L107.654 28.8668C107.339 28.5821 106.949 28.2109 106.503 27.7902C105.309 26.6517 103.738 25.1482 102.333 24.1829C101.962 23.8612 101.782 23.5889 101.752 23.3848C101.745 23.3353 101.752 23.2981 101.758 23.2734C101.77 23.2486 101.801 23.2301 101.844 23.2115C102.005 23.1435 102.253 23.1558 102.568 23.261C104.165 23.8055 106.8 25.9401 108.087 26.9796L108.582 27.3818C108.644 27.4313 108.719 27.4622 108.793 27.4746C109.17 27.5365 109.64 27.5984 110.154 27.6664C111.039 27.784 112.047 27.9139 112.883 28.081ZM98.3485 165.564C98.7321 165.997 99.159 166.344 99.6045 166.591C100.322 166.987 101.096 167.142 101.851 167.049C102.605 166.956 103.342 166.622 104.004 166.041C104.455 165.645 104.864 165.131 105.21 164.5C105.334 164.283 105.254 164.005 105.037 163.881C104.82 163.757 104.542 163.838 104.418 164.054C104.121 164.593 103.775 165.026 103.404 165.354C102.89 165.805 102.321 166.072 101.745 166.14C101.176 166.208 100.588 166.09 100.044 165.787C99.685 165.589 99.3447 165.31 99.0229 164.952C98.8559 164.766 98.5712 164.747 98.3856 164.914C98.2 165.082 98.1814 165.366 98.3485 165.552V165.564ZM229.873 153.233C229.533 151.438 229.106 149.737 228.661 148.295C228.19 146.761 227.708 145.536 227.305 144.824C226.421 144.725 225.48 144.57 224.564 144.379C222.288 143.896 220.097 143.178 218.99 142.522C218.773 142.392 218.705 142.114 218.829 141.897C218.959 141.681 219.237 141.613 219.454 141.737C220.481 142.343 222.566 143.024 224.75 143.488C226.452 143.846 228.203 144.069 229.545 144.02C229.013 141.854 228.642 137.492 228.345 133.959C228.122 131.299 227.937 129.108 227.794 128.836C227.701 128.657 227.578 128.378 227.417 128.019C226.73 126.466 225.338 123.335 224.657 123.608C224.162 123.806 223.463 123.954 222.912 124.09C220.834 124.598 217.294 125.365 213.842 126.021C210.847 126.59 207.908 127.085 206.04 127.258C206.9 128.366 207.803 129.541 208.626 130.624H221.601C221.854 130.624 222.059 130.828 222.059 131.082C222.059 131.336 221.854 131.54 221.601 131.54H209.319C210.451 133.043 211.324 134.262 211.522 134.695C212.054 135.877 218.829 152.15 219.905 154.736C223.5 154.006 226.971 153.412 229.873 153.233ZM178.5 120.514C179.718 126.126 181.135 133.446 182.787 143.067C182.806 143.172 182.862 143.265 182.936 143.333C186.419 146.427 188.839 149.7 191.227 152.93C192.118 154.136 193.003 155.33 193.956 156.531C194.624 157.378 195.731 158.269 197.185 159.105C197.773 159.445 198.386 159.773 198.986 160.082C204.121 162.724 211.503 165.162 215.741 166.56C216.793 166.907 217.653 167.191 218.204 167.383C218.439 167.464 218.699 167.34 218.785 167.105C218.866 166.87 218.742 166.61 218.507 166.523C217.901 166.307 217.059 166.028 216.032 165.688C211.967 164.345 204.981 162.037 199.982 159.569C203.088 159.383 207.852 158.313 212.963 157.168C220.165 155.553 228.073 153.783 232.837 154.118C233.394 155.943 233.895 158.665 234.303 161.499C234.891 165.57 235.287 169.858 235.417 172.117H162.784C161.342 170.78 160.204 169.53 159.35 168.342C158.483 167.136 157.908 165.991 157.611 164.896C157.32 163.819 157.252 162.693 157.357 161.672C157.469 160.633 157.766 159.705 158.205 159.049C158.824 158.133 164.015 149.867 167.641 140.196C167.987 139.268 168.328 138.321 168.637 137.375V137.362C170.072 133.037 171.1 128.545 171.205 124.387C171.39 117.117 171.019 111.208 169.466 106.091C169.274 105.46 169.07 104.848 168.841 104.241C168.841 104.229 168.835 104.216 168.829 104.204C167.27 100.071 164.838 96.4575 161.163 93.0359C162.691 92.8255 165.846 94.1682 167.486 94.8673L168.086 95.121C168.823 95.4242 169.181 96.1729 169.664 97.2062C170.066 98.06 170.555 99.0933 171.415 100.25C171.539 100.417 171.681 100.597 171.83 100.782C172.95 102.199 174.379 104.012 176.625 112.6C176.625 112.644 176.643 112.687 176.662 112.73C177.213 114.846 177.819 117.377 178.475 120.403C178.475 120.44 178.487 120.471 178.5 120.508V120.514ZM179.335 120.13C178.84 117.866 178.376 115.873 177.937 114.122C180.894 117.228 188.375 125.099 188.925 125.81C189.278 126.268 191.846 127.679 194.741 129.152C198.324 130.971 202.457 132.913 203.435 133.217C203.676 133.291 203.93 133.155 204.004 132.913C204.078 132.672 203.942 132.418 203.701 132.344C202.76 132.053 198.695 130.135 195.15 128.335C192.353 126.918 189.909 125.594 189.643 125.253C188.962 124.369 178.444 113.337 177.472 112.322C175.171 103.573 173.686 101.692 172.535 100.226L172.504 100.188C176.179 101.822 181.624 104.309 183.023 107.323C183.66 108.69 184.842 110.243 186.129 111.697C188.344 114.197 190.881 116.418 191.437 116.839C191.716 117.049 192.625 117.556 193.819 118.212C196.659 119.778 201.145 122.246 201.962 123.41C202.395 124.035 203.503 125.47 204.796 127.134H204.802L204.808 127.153L205 127.407C205.984 128.681 207.067 130.073 208.013 131.323C208.026 131.348 208.044 131.373 208.063 131.391C209.399 133.155 210.482 134.621 210.68 135.067C211.2 136.211 217.727 151.89 218.983 154.922C216.905 155.355 214.795 155.825 212.747 156.289C206.535 157.681 200.855 158.956 198.213 158.653C196.616 157.756 195.348 156.846 194.655 155.968C193.733 154.804 192.842 153.598 191.945 152.385C189.55 149.155 187.125 145.876 183.647 142.758C182.163 134.132 180.869 127.345 179.731 121.98C181.166 123.731 183.716 127.011 186.531 130.692C192.563 138.575 199.796 148.24 199.994 148.629C200.397 149.427 204.969 150.95 206.002 151.29L206.108 151.327C206.343 151.407 206.603 151.278 206.683 151.036C206.763 150.801 206.634 150.541 206.392 150.461L206.287 150.424C205.322 150.102 201.04 148.679 200.805 148.215C200.595 147.8 193.306 138.043 187.249 130.129C183.499 125.229 180.207 121.015 179.329 120.124L179.335 120.13ZM182.744 105.318C182.49 103.567 181.309 99.7244 180.207 96.1172C179.069 92.4048 178.011 88.9584 178.141 88.6491C178.376 88.0674 180.739 82.4617 182.744 77.8892C183.487 76.1877 184.18 74.6347 184.681 73.5519C184.904 75.0121 185.299 77.1901 185.726 79.2071C186.166 81.2985 186.642 83.2289 187.007 84.0518C187.106 84.2808 187.372 84.386 187.607 84.287C187.836 84.188 187.942 83.9219 187.843 83.6868C187.508 82.9257 187.051 81.0572 186.624 79.0215C186.153 76.8064 185.726 74.4057 185.528 72.995C185.733 73.0878 185.937 73.1868 186.135 73.2796C186.927 75.4947 187.799 77.8088 188.566 79.6526C189.228 81.2428 189.816 82.4864 190.212 83.0247C190.645 83.6125 194.017 86.7619 198.182 90.5238C202.185 94.1434 206.918 98.3261 210.47 101.339C212.202 102.812 213.656 104 214.9 104.953C216.137 105.906 217.14 106.605 217.956 107.087C218.532 107.428 219.206 107.743 219.874 107.898C220.994 108.164 222.102 107.991 222.727 106.92C222.875 106.667 222.999 106.363 223.086 106.005C223.253 105.318 223.148 104.551 222.653 103.851C222.294 103.344 221.725 102.88 220.895 102.515C220.858 101.946 220.815 101.389 220.778 100.857C222.021 101.172 222.9 101.618 223.506 102.255C224.187 102.979 224.534 103.988 224.67 105.367C224.775 106.407 224.905 107.718 225.121 108.925C225.332 110.07 225.623 111.122 226.062 111.802C225.604 113.578 224.193 115.614 223.581 116.486C223.463 116.653 223.377 116.783 223.321 116.876C223.308 116.888 222.479 116.622 221.359 116.257C221.341 116.251 221.316 116.245 221.298 116.238L221.05 116.158C219.584 115.682 217.857 115.02 216.583 114.531C215.135 113.974 208.96 108.529 202.773 102.039C198.336 97.3856 193.918 92.2006 191.258 87.9066C191.128 87.6962 190.85 87.6281 190.633 87.7581C190.423 87.888 190.355 88.1664 190.485 88.383C193.182 92.7389 197.643 97.9734 202.111 102.663C208.378 109.241 214.714 114.784 216.249 115.378C217.542 115.873 219.299 116.548 220.759 117.024H220.778C220.957 117.965 221.335 119.388 221.755 120.718C222.052 121.665 222.38 122.562 222.684 123.218C220.654 123.713 217.133 124.474 213.687 125.13C210.365 125.761 207.129 126.293 205.39 126.398C204.159 124.808 203.119 123.459 202.717 122.884C201.776 121.541 197.179 119.01 194.271 117.408C193.108 116.771 192.223 116.282 192 116.109C191.462 115.694 188.987 113.535 186.822 111.084C185.59 109.692 184.458 108.213 183.864 106.927C183.604 106.363 183.221 105.825 182.756 105.305L182.744 105.318ZM187.013 91.817C186.896 91.5942 186.982 91.322 187.205 91.2044C187.428 91.0869 187.7 91.1735 187.818 91.3962C189.08 93.8093 191.895 98.7283 194.364 102.837C196.325 106.097 198.058 108.826 198.571 109.309C198.85 109.569 199.518 110.286 200.415 111.264C203.422 114.512 209.133 120.693 212.06 122.253C212.283 122.37 212.363 122.649 212.245 122.865C212.128 123.088 211.849 123.168 211.633 123.051C208.576 121.424 202.791 115.168 199.747 111.876C198.875 110.93 198.231 110.231 197.946 109.971C197.365 109.426 195.577 106.63 193.578 103.301C191.103 99.1923 188.276 94.2486 187.007 91.817H187.013ZM108.236 172.123H119.602C119.967 172.123 120.301 172.067 120.592 171.962C121.285 171.721 121.792 171.201 122.127 170.533C122.479 169.833 122.646 168.967 122.646 168.07C122.646 167.247 122.504 166.412 122.238 165.651C121.929 164.778 121.712 163.949 121.7 163.046C121.687 162.136 121.891 161.177 122.424 160.076C123.673 157.502 132.527 145.56 136.388 140.388C135.238 141.223 134.056 142.071 132.862 142.931C124.533 148.92 115.661 155.305 112.128 158.653L112.035 158.746C110.166 160.515 108.638 161.963 109.207 165.31C109.368 166.27 109.467 167.222 109.467 168.107C109.467 169.314 109.288 170.409 108.855 171.257C108.688 171.584 108.483 171.875 108.242 172.123H108.236ZM155.699 153.381C155.625 153.14 155.755 152.886 155.99 152.812C156.225 152.738 156.485 152.868 156.559 153.103C156.745 153.684 157.036 154.278 157.463 154.866C157.815 155.355 158.267 155.838 158.83 156.308C160.439 153.592 163.124 148.747 165.494 143.123C163.798 142.077 162.153 140.598 160.501 139.014C159.467 140.963 157.456 144.397 155.681 147.435C154.004 150.294 152.537 152.8 152.321 153.326C152.141 153.752 152.141 154.872 152.216 156.104C152.327 157.867 152.599 159.798 152.785 160.342C152.896 160.67 153.367 161.128 154.01 161.623C154.709 162.161 155.588 162.724 156.423 163.219C156.386 162.662 156.398 162.112 156.454 161.586C156.578 160.398 156.93 159.321 157.45 158.548C157.58 158.362 157.896 157.861 158.36 157.1C157.685 156.549 157.153 155.98 156.732 155.404C156.244 154.73 155.91 154.049 155.693 153.387L155.699 153.381ZM155.328 127.66C155.384 127.735 155.452 127.815 155.532 127.902C155.6 127.976 155.687 128.063 155.786 128.162C155.965 128.335 156.25 128.335 156.429 128.162C156.603 127.982 156.603 127.697 156.429 127.518C156.355 127.444 156.281 127.37 156.213 127.295C156.151 127.227 156.101 127.172 156.064 127.122C155.916 126.924 155.631 126.881 155.427 127.035C155.229 127.184 155.186 127.469 155.34 127.673L155.328 127.66ZM159.115 130.909C160.34 131.849 161.757 132.895 163.099 133.891C164.974 135.277 166.719 136.57 167.69 137.375C167.406 138.216 167.109 139.057 166.799 139.88C166.496 140.691 166.181 141.489 165.859 142.275C163.916 141.05 161.998 139.2 160.055 137.319C156.77 134.145 153.397 130.884 149.462 130.166C150.341 128.545 151.059 126.578 151.523 124.573C152.042 122.327 152.265 120.025 152.073 118.095C152.049 117.847 151.826 117.662 151.578 117.686C151.331 117.711 151.145 117.934 151.17 118.181C151.349 120.007 151.139 122.209 150.638 124.362C150.137 126.503 149.357 128.588 148.386 130.222C145.496 132.734 139.098 137.337 132.342 142.201C123.995 148.202 115.104 154.606 111.515 158.003L111.422 158.09C109.356 160.045 107.673 161.635 108.316 165.459C108.471 166.368 108.564 167.266 108.564 168.107C108.564 169.178 108.415 170.137 108.05 170.848C107.716 171.504 107.19 171.95 106.411 172.086C106.256 172.11 106.089 172.129 105.903 172.129H77.1692C76.7732 172.129 76.3648 171.844 76.1173 171.461C76.0121 171.3 75.9379 171.12 75.9131 170.941C75.8884 170.78 75.9131 170.619 75.975 170.477C76.1297 170.161 76.5319 169.877 77.3115 169.728C80.0339 169.208 82.8059 166.672 85.1694 164.506C86.147 163.615 87.0504 162.786 87.8486 162.198C88.919 161.412 90.0698 160.688 91.2021 159.983C93.2316 158.709 95.2177 157.465 96.6779 155.899C98.695 153.734 105.947 145.369 113.848 136.174C123.135 125.365 133.301 113.417 136.939 109.03C140.28 105.002 144.444 100.368 149.58 98.5365C154.653 96.7297 160.742 97.6578 168.024 104.643C168.235 105.206 168.427 105.776 168.6 106.357C170.122 111.369 170.487 117.191 170.301 124.369C170.202 128.23 169.287 132.4 167.987 136.453C166.966 135.63 165.351 134.436 163.631 133.161C162.307 132.183 160.915 131.15 159.659 130.185C159.461 130.03 159.176 130.073 159.022 130.271C158.867 130.469 158.91 130.754 159.108 130.909H159.115ZM160.061 93.2586C163.316 96.1853 165.611 99.2418 167.195 102.651C160.234 96.5936 154.307 95.8821 149.277 97.6702C143.925 99.5759 139.649 104.315 136.234 108.436C134.303 110.769 130.56 115.193 126.099 120.434C128.017 116.17 130.158 110.688 132.026 105.924C133.604 101.896 134.984 98.3818 135.844 96.5627C135.893 96.4513 135.955 96.3337 136.017 96.2224C137.131 94.1496 139.637 91.7551 143.386 90.5857H143.405C147.192 89.4101 152.24 89.4967 158.422 92.4172C158.954 92.6708 159.504 92.9431 160.055 93.2463L160.061 93.2586ZM173.63 146.161C174.54 147.553 176.26 149.867 178.079 152.311C180.331 155.336 182.738 158.572 183.883 160.435C179.619 158.523 176.39 156.859 175.499 156.24C175.295 156.097 175.01 156.147 174.868 156.357C174.725 156.562 174.775 156.846 174.985 156.988C175.882 157.607 179.056 159.253 183.251 161.146C184.031 161.499 184.811 161.839 185.59 162.18C186.778 162.693 188.022 163.213 189.297 163.727C193.795 165.533 198.701 167.259 203.008 168.268C203.249 168.324 203.497 168.175 203.552 167.928C203.608 167.686 203.459 167.439 203.212 167.383C198.949 166.381 194.092 164.679 189.631 162.885C188.109 162.272 186.636 161.654 185.25 161.047C184.514 159.451 181.55 155.466 178.803 151.779C176.99 149.347 175.276 147.039 174.385 145.672C174.249 145.461 173.97 145.4 173.76 145.536C173.55 145.672 173.488 145.95 173.624 146.161H173.63ZM220.951 103.567C221.025 104.662 221.093 105.825 221.168 107.056H221.186L221.205 107.044C221.496 106.964 221.749 106.778 221.935 106.462C222.04 106.283 222.127 106.06 222.189 105.8C222.294 105.349 222.226 104.848 221.898 104.384C221.687 104.093 221.378 103.814 220.945 103.567H220.951ZM202.265 35.8709L202.438 35.8214C202.766 35.7285 203.125 35.6234 203.503 35.4625C204.4 37.9065 203.521 39.9112 202.643 41.9283C201.974 43.4566 201.306 44.9848 201.306 46.7544C201.306 48.4126 201.591 50.0832 202.092 51.7229C200.7 50.7824 198.404 48.7839 198.51 45.8758C198.59 43.4937 199.685 41.5137 200.657 39.7441C201.405 38.3891 202.086 37.1455 202.265 35.877V35.8709ZM202.556 53.0594C202.896 53.9565 203.299 54.8351 203.75 55.689C201.362 54.7176 197.093 53.8699 192.081 53.0222C192.427 51.2898 192.662 49.3964 192.304 47.8434C191.883 46.0367 190.707 44.7064 188.109 44.5641C185.782 44.4404 183.951 44.3042 182.627 44.001C181.414 43.7226 180.647 43.3204 180.343 42.6646C180.009 41.9468 180.306 41.2229 180.572 40.5856C180.845 39.9236 181.092 39.3234 180.826 38.6985C180.715 38.4324 180.566 38.0859 180.541 37.7333C180.523 37.4981 180.566 37.2506 180.727 37.0155C181.104 37.1331 181.47 37.2506 181.779 37.3682C182.138 37.5043 182.429 37.6343 182.571 37.7518C182.763 37.9127 183.047 37.8879 183.208 37.6961C183.369 37.5043 183.344 37.2197 183.152 37.0588C182.924 36.867 182.552 36.6876 182.107 36.5205C181.705 36.372 181.247 36.2235 180.777 36.0874C180.659 36.0008 180.541 35.8956 180.43 35.7719C180.294 35.6234 180.164 35.4501 180.071 35.2892C180.028 35.215 180.009 35.1346 180.009 35.0479C180.009 34.9613 180.04 34.8685 180.09 34.7881C180.319 34.423 180.523 34.058 180.678 33.7177C180.851 33.3464 180.956 32.9999 180.956 32.7215C180.956 32.0038 180.411 31.5645 179.836 31.1066C179.459 30.8034 179.069 30.4879 178.964 30.1414C179.638 29.2009 180.548 27.8644 181.21 26.6579C181.711 25.736 182.076 24.8697 182.088 24.2696C182.101 23.756 182.008 23.1868 181.915 22.6175V22.599C181.797 21.875 181.68 21.1511 181.791 20.6685C183.072 20.619 184.681 20.8356 186.209 21.3306C187.589 21.776 188.888 22.4505 189.798 23.36C189.977 23.5394 190.262 23.5394 190.441 23.36C190.621 23.1806 190.621 22.896 190.441 22.7165C189.426 21.7018 187.991 20.9531 186.487 20.4643C185.046 19.9941 183.524 19.759 182.243 19.7528C182.453 19.3877 182.719 18.9422 183.097 18.4039C183.363 18.0203 183.691 17.5872 184.081 17.0922V17.086C184.625 16.4054 185.306 15.6072 186.166 14.6791C188.69 14.8338 191.153 15.2979 193.046 16.3312C194.933 17.3583 196.27 18.967 196.517 21.4172C196.746 23.6446 197.198 25.111 197.736 26.0763C198.571 27.586 199.617 27.9201 200.347 27.9201C200.991 27.9201 201.362 27.5365 201.783 27.1034C202.16 26.7136 202.593 26.2681 203.336 26.2681C203.837 26.2681 204.264 26.3918 204.623 26.6022C205.118 26.8992 205.489 27.3818 205.743 27.951C206.002 28.545 206.126 29.238 206.126 29.9372C206.126 30.8467 205.916 31.7501 205.501 32.4369C204.388 34.2993 203.113 34.6705 202.179 34.9428C201.999 34.9984 201.826 35.0479 201.69 35.0912C201.603 35.1222 201.523 35.1779 201.461 35.2645C200.267 36.997 199.048 38.2901 197.606 39.3048C196.165 40.3196 194.488 41.0682 192.39 41.7117C192.149 41.786 192.013 42.0397 192.087 42.2748C192.161 42.5161 192.415 42.6522 192.65 42.578C194.84 41.9097 196.598 41.1239 198.12 40.0473C199.035 39.4038 199.865 38.6552 200.65 37.7704C200.409 38.2654 200.131 38.7727 199.84 39.2987C198.813 41.1549 197.674 43.2338 197.581 45.8387C197.433 50.0894 201.653 52.5829 202.531 53.0532L202.556 53.0594ZM221.149 89.3853C221.149 90.0907 221.062 90.7527 220.784 91.3406C220.586 91.7613 220.289 92.1573 219.844 92.5162C219.707 91.7304 219.559 91.0126 219.398 90.3506C218.507 86.7681 217.152 84.881 214.795 83.0928C211.385 80.5127 211.46 78.5637 211.59 75.1977C211.627 74.2449 211.664 73.1806 211.639 71.9617C211.577 69.0537 210.971 66.5911 210.055 64.4008C209.139 62.2166 207.914 60.3171 206.603 58.529C205.266 56.7161 204.121 54.6866 203.336 52.5767C202.63 50.671 202.21 48.6973 202.21 46.7544C202.21 45.1705 202.841 43.7288 203.466 42.2872C204.437 40.0659 205.402 37.857 204.307 35.0356C204.963 34.6148 205.644 33.9713 206.281 32.9071C206.776 32.078 207.036 31.0076 207.036 29.9434C207.036 29.1266 206.887 28.3099 206.572 27.5922C206.25 26.8559 205.761 26.2309 205.087 25.8288C204.592 25.5318 204.01 25.3647 203.336 25.3647C202.21 25.3647 201.64 25.9525 201.133 26.4723C200.861 26.7569 200.613 27.0106 200.347 27.0106C199.865 27.0106 199.153 26.7631 198.528 25.637C198.045 24.7707 197.631 23.4157 197.421 21.3306C197.136 18.5339 195.626 16.7024 193.479 15.533C191.394 14.4007 188.715 13.9057 185.999 13.7572C185.863 13.751 185.733 13.8067 185.646 13.8995C184.953 14.6482 184.371 15.3103 183.876 15.8981C183.777 15.5268 183.709 15.1246 183.685 14.6977C183.629 13.7634 183.777 12.7611 184.198 11.8701C184.613 10.9977 185.293 10.2304 186.308 9.76019C186.896 9.48795 187.601 9.30233 188.443 9.25902C190.782 9.12289 191.561 9.46939 192.508 9.89013C193.69 10.4161 195.113 11.0472 199.487 11.1152C203.36 11.1771 205.594 12.2289 206.961 13.6211C208.316 15.0071 208.83 16.7643 209.214 18.1936C209.597 19.6228 210.748 20.9408 211.998 22.3824C213.464 24.0716 215.085 25.9401 215.636 28.2171C216.094 30.1104 215.884 31.5459 215.679 32.9257C215.42 34.6705 215.178 36.3225 216.181 38.6675C216.997 40.5671 218.08 41.557 219.194 42.5656C220.518 43.7659 221.873 44.9972 222.758 47.9857C223.407 50.176 223.228 51.4878 223.073 52.6015C222.832 54.3773 222.646 55.7199 225.27 58.8507C226.229 59.9954 227.163 60.9544 228.036 61.8454C230.937 64.8215 233.115 67.049 233.109 73.5024C233.109 78.18 231.173 80.5622 229.279 82.901C228.085 84.3736 226.91 85.8214 226.192 87.7952C226.037 87.6591 225.858 87.523 225.647 87.3992L225.493 87.3064C224.979 84.8191 225.876 82.5669 226.835 80.1662C227.021 79.7021 227.206 79.2257 227.367 78.8111C227.955 77.2519 228.537 75.2844 228.623 73.1868C228.71 71.0646 228.295 68.8309 226.885 66.7829C225.709 65.0752 224.317 63.7882 222.987 62.5693C221.267 60.9854 219.652 59.4942 218.841 57.3348C218.389 56.1283 218.303 55.2373 218.216 54.3958C218.024 52.4654 217.864 50.8195 213.99 46.7421C212.363 44.7745 211.577 42.6646 211.305 40.4804C211.027 38.2716 211.262 35.976 211.682 33.6929C211.726 33.4454 211.565 33.2103 211.317 33.167C211.07 33.1237 210.835 33.2845 210.791 33.532C210.365 35.8956 210.117 38.2777 210.408 40.598C210.705 42.943 211.546 45.2138 213.297 47.3237L213.334 47.367C216.997 51.2217 217.146 52.7252 217.319 54.4886C217.406 55.3796 217.505 56.3387 217.994 57.6504C218.884 60.0201 220.574 61.5793 222.374 63.2376C223.667 64.4255 225.022 65.6754 226.136 67.3027C227.417 69.1651 227.794 71.2131 227.714 73.1559C227.633 75.1297 227.077 77.0044 226.514 78.4956C226.328 78.9906 226.155 79.4175 225.988 79.8382C225.09 82.0843 224.243 84.2189 224.465 86.5948C223.401 85.7534 222.244 84.5283 221.403 82.8639C220.58 81.2304 220.06 79.17 220.227 76.627C220.264 76.033 220.314 75.4143 220.357 74.8079C220.772 69.1589 221.106 64.6112 216.694 60.8492L216.403 60.6017C211.905 56.778 207.828 53.313 207.63 45.2076C207.63 44.9601 207.419 44.7621 207.166 44.7621C206.918 44.7621 206.72 44.9787 206.72 45.2261C206.924 53.7338 211.15 57.3286 215.809 61.2885L216.1 61.536C220.159 64.9886 219.844 69.3383 219.441 74.7337C219.398 75.3153 219.355 75.9093 219.311 76.5589C219.138 79.2876 219.695 81.5026 220.586 83.2599C221.743 85.5554 223.451 87.0713 224.812 87.9499C224.824 87.9561 224.837 87.9684 224.849 87.9746C224.96 88.0427 225.066 88.1107 225.171 88.1726C226.773 89.1193 225.802 91.1178 224.725 93.3267C224.534 93.7165 224.342 94.1125 224.125 94.5889C223.141 96.7359 222.219 96.7607 220.902 96.7916C220.735 96.7916 220.555 96.7978 220.382 96.804C220.258 95.5975 220.128 94.5085 219.98 93.5247C220.759 92.9988 221.267 92.3924 221.576 91.7242C221.922 90.9941 222.028 90.2083 222.028 89.3853C222.028 89.1317 221.823 88.9275 221.57 88.9275C221.316 88.9275 221.112 89.1317 221.112 89.3853H221.149ZM214.689 70.1798C214.696 69.9323 214.906 69.7343 215.16 69.7405C215.407 69.7467 215.605 69.957 215.599 70.2107C215.531 71.9432 215.642 73.4715 215.921 74.7955C216.193 76.0949 216.638 77.1963 217.245 78.0934C217.387 78.3038 217.331 78.5822 217.121 78.7245C216.911 78.8668 216.632 78.8111 216.49 78.6008C215.816 77.6046 215.333 76.3981 215.03 74.9812C214.733 73.589 214.621 71.9865 214.689 70.1798ZM198.318 15.3041C198.076 15.2484 197.928 15.0009 197.984 14.7596C198.039 14.5183 198.287 14.3698 198.528 14.4255C202.247 15.3288 203.354 17.9584 204.431 20.5138C204.938 21.7265 205.439 22.9145 206.219 23.8364C206.572 24.2572 207.073 24.5418 207.593 24.845C208.638 25.4575 209.764 26.1072 210.34 27.9015C210.414 28.1428 210.284 28.3965 210.049 28.4708C209.808 28.545 209.554 28.4151 209.48 28.18C209.009 26.7197 208.044 26.1567 207.141 25.6308C206.553 25.2905 205.984 24.9564 205.532 24.4181C204.666 23.3971 204.14 22.1411 203.602 20.8603C202.612 18.5153 201.591 16.0961 198.318 15.2979V15.3041ZM204.827 28.8606C204.938 29.0833 204.852 29.3556 204.629 29.4669C204.406 29.5783 204.134 29.4917 204.022 29.2689C203.93 29.0833 203.732 28.9534 203.503 28.8915C203.329 28.842 203.131 28.842 202.952 28.8791C202.779 28.9163 202.618 28.9967 202.494 29.1143C202.327 29.2751 202.222 29.5288 202.222 29.8877C202.222 30.1909 202.321 30.426 202.408 30.6425C202.674 31.2922 202.915 31.8738 201.981 33.3031C201.844 33.5135 201.56 33.5692 201.35 33.433C201.139 33.2969 201.083 33.0123 201.22 32.8019C201.894 31.7686 201.739 31.3974 201.566 30.9828C201.442 30.6797 201.306 30.3579 201.306 29.8815C201.306 29.2566 201.523 28.7863 201.857 28.4646C202.111 28.2171 202.426 28.0562 202.76 27.9882C203.082 27.9201 203.422 27.9263 203.732 28.0129C204.196 28.1367 204.61 28.4275 204.827 28.8544V28.8606ZM185.9 24.6532C185.9 24.6532 185.937 24.6655 185.955 24.6717H185.968C186.772 24.9316 188.053 25.4947 188.808 26.6084C188.95 26.8126 188.894 27.0972 188.684 27.2395C188.48 27.3818 188.195 27.3261 188.053 27.1157C187.552 26.3794 186.741 25.934 186.091 25.6803C186.048 25.8659 186.017 26.0453 185.999 26.2186C185.962 26.5774 185.974 26.8992 186.011 27.1219C186.061 27.3694 185.893 27.6045 185.652 27.654C185.405 27.7035 185.17 27.5365 185.12 27.2952C185.064 26.992 185.046 26.5774 185.095 26.1258C185.12 25.8968 185.163 25.6555 185.225 25.4142C185.132 25.3957 185.077 25.3833 185.077 25.3833C184.829 25.34 184.668 25.0987 184.712 24.8512C184.755 24.6037 184.996 24.4428 185.244 24.4861C185.244 24.4861 185.51 24.5294 185.9 24.6532ZM191.573 49.8976C191.543 50.869 191.382 51.8961 191.184 52.8799C189.482 52.5953 187.706 52.3107 185.893 52.0261C177.875 50.7453 169.237 49.3717 163.86 47.5402C161.645 44.923 159.356 43.4256 156.652 42.448C153.948 41.4704 150.867 41.0311 147.043 40.5052C143.751 40.0535 140.218 39.2615 136.989 38.3953C132.812 37.2754 129.155 36.0194 127.169 35.1655C124.094 33.8414 123.061 32.1461 122.213 30.7663L121.941 30.3208C121.403 29.4669 120.394 29.0895 119.225 28.6502C118.612 28.4213 117.944 28.1738 117.294 27.8273C117.078 27.4808 116.917 27.0786 116.867 26.7136V26.7012C116.824 26.4289 116.849 26.1938 116.96 26.0639C117.022 25.9958 117.115 26.002 117.232 26.0577C117.498 26.1814 117.839 26.4661 118.235 26.8126C118.816 27.3199 119.398 27.555 120.048 27.8149C120.901 28.1614 121.879 28.5512 123.098 29.7887C123.686 30.3827 124.156 30.9457 124.583 31.4593C125.752 32.8514 126.625 33.8847 128.759 34.4787C130.51 34.9675 136.537 36.5515 142.7 37.8199C146.331 38.5685 150.013 39.212 152.89 39.4533C156.695 39.7751 159.467 40.6846 161.602 41.7736C163.73 42.8626 165.246 44.1557 166.502 45.2323C169.021 47.3855 185.293 49.2046 191.085 49.8481L191.561 49.9038L191.573 49.8976Z" fill="white"></path><path fill-rule="evenodd" clip-rule="evenodd" d="M120.27 99.8396C115.648 99.3384 111.503 97.2532 108.384 94.141C104.789 90.5461 102.568 85.5839 102.568 80.0957C102.568 74.6075 104.789 69.6452 108.384 66.0504C111.503 62.9319 115.648 60.8468 120.27 60.3518C119.948 60.2776 119.627 60.2095 119.305 60.1476C118.129 59.9311 116.91 59.8197 115.66 59.8197C110.061 59.8197 104.993 62.0905 101.324 65.7596C97.6552 69.4287 95.3845 74.4961 95.3845 80.0957C95.3845 85.6952 97.6552 90.7627 101.324 94.4318C104.993 98.1009 110.061 100.372 115.66 100.372C116.91 100.372 118.129 100.26 119.305 100.044C119.633 99.9819 119.954 99.92 120.27 99.8396ZM109.028 93.4975C112.455 96.9253 117.195 99.0476 122.429 99.0476C122.603 99.0476 122.702 99.0476 122.807 99.0414H122.943C123.141 99.0228 123.333 99.1342 123.407 99.3322C123.494 99.5673 123.376 99.8272 123.141 99.9138C121.965 100.359 120.734 100.7 119.46 100.935C118.222 101.164 116.947 101.281 115.654 101.281C109.807 101.281 104.511 98.9115 100.675 95.0753C96.8385 91.2391 94.4688 85.9489 94.4688 80.0957C94.4688 74.2424 96.8385 68.9522 100.675 65.1161C104.511 61.2799 109.807 58.9102 115.654 58.9102C116.947 58.9102 118.222 59.0277 119.46 59.2566C120.734 59.4856 121.959 59.8321 123.141 60.2776C123.314 60.3456 123.438 60.5189 123.432 60.7169C123.426 60.9644 123.215 61.1624 122.962 61.1562H122.794C122.695 61.15 122.596 61.1438 122.423 61.1438C117.189 61.1438 112.449 63.2661 109.021 66.6939C105.594 70.1217 103.471 74.8612 103.471 80.0957C103.471 85.3302 105.594 90.0697 109.021 93.4975H109.028Z" fill="white"></path><path fill-rule="evenodd" clip-rule="evenodd" d="M90.1005 114.095C89.5684 115.759 88.8506 117.368 87.9349 118.766C87.0254 120.152 85.9178 121.34 84.5937 122.194C85.9178 123.042 87.0254 124.23 87.9349 125.622C88.8506 127.02 89.5684 128.629 90.1005 130.293C90.6326 128.629 91.3503 127.02 92.2661 125.616C93.1756 124.23 94.2831 123.042 95.6072 122.188C94.2831 121.34 93.1756 120.152 92.2661 118.76C91.3503 117.362 90.6326 115.753 90.1005 114.089V114.095ZM87.18 118.271C88.3247 116.52 89.1414 114.429 89.6674 112.313C89.7045 112.152 89.8282 112.022 90.0015 111.979C90.2428 111.917 90.4903 112.065 90.5522 112.313C91.0719 114.429 91.8948 116.527 93.0395 118.271C94.0233 119.775 95.2484 121.019 96.7271 121.792C96.8076 121.835 96.8756 121.897 96.9189 121.984C97.0365 122.207 96.9499 122.479 96.7271 122.596C95.2484 123.37 94.0233 124.613 93.0395 126.117C91.8948 127.868 91.0781 129.959 90.5522 132.075C90.515 132.236 90.3913 132.366 90.218 132.41C89.9767 132.471 89.7292 132.323 89.6674 132.075C89.1476 129.959 88.3247 127.862 87.18 126.117C86.1963 124.613 84.9712 123.37 83.4924 122.596C83.4119 122.553 83.3439 122.491 83.3006 122.405C83.183 122.182 83.2696 121.91 83.4924 121.792C84.9712 121.019 86.1963 119.775 87.18 118.271Z" fill="white"></path><path fill-rule="evenodd" clip-rule="evenodd" d="M87.7187 46.2521C87.4031 47.1431 86.9947 47.9908 86.4998 48.7518C85.9676 49.5686 85.3242 50.2739 84.5631 50.8122C85.3242 51.3443 85.9615 52.0559 86.4998 52.8726C86.9947 53.6275 87.3969 54.4813 87.7187 55.3723C88.0342 54.4813 88.4426 53.6337 88.9376 52.8726C89.4697 52.0559 90.1132 51.3505 90.8742 50.8122C90.1132 50.2801 89.4759 49.5686 88.9376 48.7518C88.4426 47.997 88.0404 47.1431 87.7187 46.2521ZM85.7387 48.2507C86.4441 47.1679 86.9514 45.8747 87.2732 44.563C87.3103 44.4021 87.434 44.2722 87.6073 44.2289C87.8486 44.167 88.0961 44.3155 88.158 44.563C88.4797 45.8747 88.9871 47.1679 89.6924 48.2507C90.2926 49.1726 91.0413 49.9336 91.9446 50.4039C92.0251 50.4472 92.0931 50.509 92.1364 50.5957C92.254 50.8184 92.1674 51.0907 91.9446 51.2082C91.0475 51.6785 90.2988 52.4395 89.6924 53.3614C88.9871 54.4442 88.4797 55.7374 88.158 57.0491C88.1208 57.21 87.9971 57.3399 87.8239 57.3832C87.5825 57.4451 87.3351 57.2966 87.2732 57.0491C86.9514 55.7374 86.4441 54.4442 85.7387 53.3614C85.1385 52.4395 84.3899 51.6785 83.4865 51.2082C83.4061 51.1649 83.338 51.103 83.2947 51.0164C83.1771 50.7937 83.2638 50.5214 83.4865 50.4039C84.3837 49.9336 85.1324 49.1726 85.7387 48.2507Z" fill="white"></path><path fill-rule="evenodd" clip-rule="evenodd" d="M148.132 72.2547C147.928 72.7559 147.686 73.2385 147.402 73.6778C147.055 74.2037 146.647 74.6678 146.171 75.0328C146.647 75.3979 147.055 75.8619 147.402 76.3879C147.686 76.8272 147.928 77.3036 148.132 77.8109C148.33 77.3098 148.577 76.8272 148.862 76.3879C149.209 75.8619 149.617 75.3979 150.087 75.0328C149.611 74.6678 149.202 74.2037 148.862 73.6778C148.577 73.2385 148.336 72.7621 148.132 72.2547ZM146.641 73.1828C147.123 72.4465 147.47 71.5617 147.693 70.6645C147.73 70.5037 147.853 70.3737 148.027 70.3304C148.268 70.2686 148.516 70.4171 148.577 70.6645C148.8 71.5617 149.147 72.4465 149.629 73.1828C150.038 73.8015 150.539 74.3151 151.139 74.6306C151.219 74.674 151.287 74.7358 151.331 74.8225C151.448 75.0452 151.362 75.3174 151.139 75.435C150.539 75.7506 150.031 76.2641 149.629 76.8828C149.147 77.6191 148.8 78.5039 148.577 79.4011C148.54 79.562 148.417 79.6919 148.243 79.7352C148.002 79.7971 147.754 79.6486 147.693 79.4011C147.47 78.5039 147.123 77.6191 146.641 76.8828C146.232 76.2641 145.731 75.7506 145.131 75.435C145.051 75.3917 144.983 75.3298 144.939 75.2432C144.822 75.0205 144.908 74.7482 145.131 74.6306C145.731 74.3151 146.239 73.8015 146.641 73.1828Z" fill="white"></path><path fill-rule="evenodd" clip-rule="evenodd" d="M110.822 8.0806C110.413 9.28714 109.881 10.4504 109.213 11.4775C108.526 12.5293 107.685 13.4389 106.695 14.1071C107.685 14.7753 108.52 15.6849 109.213 16.7367C109.881 17.7576 110.419 18.9209 110.822 20.1336C111.23 18.9271 111.762 17.7638 112.437 16.7367C113.123 15.6849 113.965 14.7753 114.955 14.1071C113.965 13.4389 113.129 12.5293 112.437 11.4775C111.768 10.4566 111.23 9.29333 110.822 8.0806ZM108.452 10.9825C109.343 9.62126 109.98 7.99398 110.382 6.34814C110.419 6.18727 110.543 6.05734 110.716 6.01403C110.958 5.95215 111.205 6.10065 111.267 6.34814C111.675 7.99398 112.307 9.62126 113.198 10.9825C113.959 12.1457 114.905 13.1109 116.05 13.7049C116.13 13.7482 116.198 13.8101 116.242 13.8967C116.359 14.1195 116.273 14.3917 116.05 14.5093C114.911 15.1094 113.965 16.0685 113.198 17.2317C112.307 18.5929 111.669 20.2202 111.267 21.866C111.23 22.0269 111.106 22.1569 110.933 22.2002C110.692 22.262 110.444 22.1135 110.382 21.866C109.98 20.2202 109.343 18.5929 108.452 17.2317C107.691 16.0685 106.744 15.1033 105.606 14.5093C105.525 14.466 105.457 14.4041 105.414 14.3175C105.296 14.0947 105.383 13.8225 105.606 13.7049C106.744 13.1047 107.691 12.1457 108.452 10.9825Z" fill="white"></path></g><defs><filter id="filter0_d_1429_31792" x="69" y="0" width="173.383" height="179" filterUnits="userSpaceOnUse" color-interpolation-filters="sRGB"><feFlood flood-opacity="0" result="BackgroundImageFix"></feFlood><feColorMatrix in="SourceAlpha" type="matrix" values="0 0 0 0 0 0 0 0 0 0 0 0 0 0 0 0 0 0 127 0" result="hardAlpha"></feColorMatrix><feOffset></feOffset><feGaussianBlur stdDeviation="3"></feGaussianBlur><feComposite in2="hardAlpha" operator="out"></feComposite><feColorMatrix type="matrix" values="0 0 0 0 1 0 0 0 0 1 0 0 0 0 1 0 0 0 1 0"></feColorMatrix><feBlend mode="normal" in2="BackgroundImageFix" result="effect1_dropShadow_1429_31792"></feBlend><feBlend mode="normal" in="SourceGraphic" in2="effect1_dropShadow_1429_31792" result="shape"></feBlend></filter></defs></svg>